<svg xmlns="http://www.w3.org/2000/svg" viewBox="0 0 720 720"><path fill="#fff" d="M278 316.7h15.5v74.7H278zm40.4 1.7c-2.9 1.2-5.5 2.8-7.6 4.9-2.1 2.1-3.7 4.5-4.9 7.5-1.2 3-1.8 6.4-1.8 10.1v50.5h15.5v-46.6c0-3.2.9-6.2 2.8-8.9 2.1-3 5.3-4.6 9.2-4.6h3.1v-14.7h-6.6c-3.5.1-6.8.7-9.7 1.8zm95.5 53.2c-1.7-2.6-2.6-5.5-2.6-8.6v-31.2h14.3v-15.1h-14.3v-24.9c0-3.5-2.9-6.4-6.4-6.4h-9.1v81.9c0 3.8.6 7.3 1.8 10.3 1.2 2.9 2.9 5.5 5 7.5 2.2 2 4.8 3.6 7.8 4.7 3.1 1.1 6.5 1.7 10.2 1.7h4.9v-15.2H423c-5-.2-7.7-2.6-9.1-4.7zm214.5-17.4c-1.1-2.3-2.5-4.5-4.3-6.4-1.7-1.8-3.8-3.3-6.2-4.4l-4.1-1.8 24.4-25h-20l-26.4 27.5V292c0-3.7-3-6.7-6.7-6.7h-8.8v106h15.5v-22.9c0-2.2.4-4.2 1.1-5.9.7-1.7 1.7-3.2 2.9-4.4 1.2-1.2 2.5-2.1 4-2.7 3.7-1.5 7.6-1.1 10.5 1.2 1.5 1.2 2.8 2.7 3.7 4.5.8 1.6 1.4 3.3 1.7 5.1.3 1.7.5 3.3.5 4.7v20.3h15.4v-20.9c0-2.9-.3-5.7-.8-8.5-.4-2.6-1.3-5.2-2.4-7.6zm-241.5 6.4c-1-2.2-2.4-4.1-4.1-5.7-1.9-1.7-4.1-3.2-6.7-4.5-2.8-1.4-5.8-2.6-8.9-3.8-2.4-.9-4.2-1.7-5.6-2.3-1-.4-5.9-2.8-5.9-6.1 0-2.8 3.2-5.3 6.2-6.3 3.9-1.4 9.3-1.2 14.7.4.5.2 1.1.4 1.7.6l1.8.7v-14.9l-1-.3c-.9-.3-1.8-.5-2.6-.6-4.1-.8-7.5-1.2-10.1-1.2-3.9 0-7.6.6-10.8 1.7-3.2 1.1-6.1 2.8-8.4 4.8-2.3 2-4.1 4.4-5.4 7.2-1.3 2.8-2 5.9-2 9.3 0 2.7.5 5.1 1.4 7.1 1 2.1 2.4 4.1 4.1 5.7 1.8 1.7 3.8 3.2 6.2 4.5 2.5 1.3 5.3 2.6 8.2 3.7 2.9 1.2 5.1 2 6.5 2.5 3.3 1.1 6.6 3.7 6.6 6.7 0 3.5-4 6-7.8 6.4-2.2.3-4.4.2-6.5-.2-1.3-.2-2.6-.5-3.9-.8-1.1-.3-2.4-.6-3.8-1.1-3.4-1.2-6.4-2.6-9.1-4l-2-1.1v17.4l.8.3c7.7 3.2 14.7 4 17.4 4.2l2.1.1h1.1c3.9 0 7.7-.6 11.1-1.7 3.3-1.1 6.2-2.7 8.7-4.7 2.4-1.9 4.2-4.3 5.6-7.1 1.3-2.7 2-5.9 2-9.3-.2-2.7-.7-5.4-1.6-7.6zm-101.2-75.3c-1.2 0-2.2.2-3.2.7-.9.4-1.7 1-2.4 1.7s-1.2 1.5-1.6 2.5c-.4.9-.6 1.9-.6 2.9 0 2.2.8 4 2.3 5.5 1.5 1.5 3.3 2.2 5.4 2.2 2 0 3.8-.7 5.4-2.1 1.6-1.4 2.4-3.3 2.4-5.6 0-2.2-.8-4-2.3-5.5-1.3-1.5-3.2-2.3-5.4-2.3zm182.5 31.4c-20.5 0-37.2 16.8-37.2 37.4 0 20.6 16.7 37.4 37.2 37.4 7.8 0 15.5-2.5 21.8-7.1v7.1h15.4V354c0-20.6-16.7-37.3-37.2-37.3zM490 354c0 12.1-9.8 21.9-21.8 21.9s-21.8-9.8-21.8-21.9 9.8-21.9 21.8-21.9S490 342 490 354zm60.3-37.3c-20.5 0-37.2 16.8-37.2 37.4 0 20.6 16.7 37.4 37.2 37.4 5.1 0 10-1 14.7-3l.8-.3v-18.4l-2.1 1.7c-3.9 3-8.5 4.6-13.4 4.6-12 0-21.8-9.8-21.8-21.9s9.8-21.9 21.8-21.9c4.9 0 9.5 1.6 13.4 4.6l2.1 1.7V320l-.8-.3c-4.7-2-9.6-3-14.7-3zm-291.6-29.9c1.5-1.5 3.7-1.9 5.6-1.1 2 .8 3.2 2.7 3.2 4.8v100.8h-15.6v-24.4h-37.4l13.8-12.9h23.6v-37.5l-96.5 96.2v-21.6l96.8-98 2.8-2.9 3.7-3.4zm-43 29.9H132l-12.8 13h83.6zM178.8 354H95.2l-12.9 13H166zm18.5-18.7h-83.7l-12.9 13h83.7z"/></svg>