<svg xmlns="http://www.w3.org/2000/svg" fill="none" viewBox="0.8 0.3 214.7 247.9"><path fill="#fff" d="m.8 42.4 14.6 8.5v163.6L.8 206.1V42.4ZM30 59.3l14.6 8.4v163.7L30 222.9V59.3ZM59.201 93l14.6 8.4v146.8l-14.6-8.4V93ZM30 25.6 44.6 34v16.9L30 42.5V25.6ZM59.201 8.7l14.6 8.4V34l-14.6-8.4V8.7Z"/><path fill="#FF284B" d="M73.8 248.2v-16.8l141.701-81.8v16.8l-141.7 81.8Zm0-33.7v-16.9l141.701-81.8v16.9l-141.7 81.8Zm14.6-42.1v-16.9l127.1-73.4v16.8L88.4 172.4Zm-43.8 59v-16.9l14.6-8.4.1 16.8-14.7 8.5Zm-29.2-16.9v-16.9l14.6-8.4.1 16.8-14.7 8.5Z"/><path fill="#ABD7D8" d="m215.501 82.1-14.6 8.4-141.7-81.8 14.6-8.4 141.7 81.8ZM186.3 98.9l-14.6 8.5L30 25.6l14.6-8.5 141.7 81.8Zm-43.799 8.5-14.6 8.4L.801 42.4 15.4 34l127.1 73.4Zm73 8.4-14.6 8.4-14.6-8.4 14.6-8.5 14.6 8.5Zm0 33.8-14.6 8.4-14.6-8.4 14.6-8.5 14.6 8.5Z"/></svg>