<svg xmlns="http://www.w3.org/2000/svg" viewBox="0 0 814 249"><path fill="#fff" d="M295.099 164.6c-4.9 0-9.3-.9-13.2-2.6-3.9-1.8-7-4.4-9.3-7.8-2.3-3.5-3.4-7.7-3.4-12.8 0-4.4.8-8 2.4-10.8 1.6-2.8 3.8-5.1 6.6-6.9 2.8-1.7 5.9-3 9.5-3.9 3.5-.9 7.1-1.5 10.9-1.9 4.5-.5 8.2-.9 11-1.3 2.8-.4 4.9-1 6.2-1.8 1.3-.8 1.9-2.1 1.9-3.9v-.3c0-3.8-1.1-6.7-3.4-8.8-2.3-2.1-5.5-3.1-9.7-3.1-4.5 0-8 1-10.6 2.9-2.6 1.9-4.4 4.3-5.3 6.9l-17-2.4c1.3-4.7 3.6-8.6 6.7-11.8 3.1-3.2 6.9-5.6 11.3-7.2 4.5-1.6 9.4-2.4 14.8-2.4 3.7 0 7.4.4 11.1 1.3 3.7.9 7.1 2.3 10.1 4.3 3.1 2 5.5 4.7 7.4 8.1 1.9 3.4 2.8 7.7 2.8 12.9v51.8h-17.5v-10.6h-.6c-1.1 2.2-2.7 4.2-4.7 6-2 1.9-4.5 3.4-7.5 4.5s-6.4 1.6-10.5 1.6Zm4.8-13.4c3.7 0 6.8-.7 9.5-2.2 2.7-1.5 4.8-3.4 6.2-5.8 1.5-2.4 2.2-5.1 2.2-7.9v-9.1c-.6.5-1.5.9-2.9 1.3s-2.9.8-4.6 1.1c-1.7.3-3.3.6-5 .8-1.6.2-3.1.4-4.3.6-2.7.4-5.2 1-7.3 1.8-2.2.8-3.8 2-5.1 3.5-1.2 1.5-1.9 3.4-1.9 5.8 0 3.4 1.2 5.9 3.7 7.6 2.6 1.7 5.7 2.5 9.5 2.5ZM363.6 74.6c-2.9 0-5.4-1-7.5-2.9-2.1-1.9-3.1-4.3-3.1-7 0-2.8 1-5.1 3.1-7 2.1-1.9 4.6-2.9 7.5-2.9 2.9 0 5.4 1 7.4 2.9 2.1 1.9 3.1 4.3 3.1 7s-1 5-3.1 7c-2 2-4.5 2.9-7.4 2.9Zm-9.2 88.5V85.7h18.2v77.4h-18.2Zm36.998 0V85.7h17.7v12.9h.8c1.4-4.5 3.8-7.9 7.3-10.4 3.4-2.4 7.4-3.7 11.8-3.7 1 0 2.1 0 3.4.1 1.3.1 2.3.2 3.2.4v16.8c-.8-.3-2-.5-3.7-.7-1.7-.2-3.3-.3-4.8-.3-3.3 0-6.3.7-8.9 2.1-2.6 1.4-4.7 3.4-6.2 5.9-1.5 2.5-2.3 5.4-2.3 8.7V163h-18.3v.1Zm117.501-57-16.6 1.8c-.5-1.7-1.3-3.3-2.4-4.7-1.2-1.5-2.7-2.7-4.7-3.6-1.9-.9-4.3-1.4-7.2-1.4-3.8 0-7 .8-9.6 2.5-2.6 1.6-3.8 3.8-3.8 6.4 0 2.3.8 4.1 2.5 5.5 1.7 1.4 4.5 2.6 8.4 3.5l13.2 2.8c7.3 1.6 12.8 4.1 16.4 7.5 3.6 3.4 5.4 7.9 5.4 13.5 0 4.9-1.5 9.2-4.3 12.9-2.8 3.7-6.7 6.6-11.7 8.7-5 2.1-10.7 3.1-17.1 3.1-9.5 0-17.1-2-22.9-6-5.8-4-9.2-9.5-10.3-16.7l17.8-1.7c.8 3.5 2.5 6.1 5.1 7.9 2.6 1.8 6 2.7 10.2 2.7 4.3 0 7.8-.9 10.5-2.7 2.6-1.8 4-4 4-6.6 0-2.2-.8-4-2.5-5.5-1.7-1.4-4.3-2.6-7.9-3.3l-13.2-2.8c-7.4-1.5-12.9-4.2-16.5-7.8-3.6-3.7-5.3-8.3-5.3-14 0-4.8 1.3-8.9 3.9-12.4 2.6-3.5 6.3-6.2 11-8.2 4.7-1.9 10.2-2.9 16.4-2.9 9.1 0 16.2 1.9 21.4 5.8 5.2 3.9 8.6 9.1 9.8 15.7Zm53.7 41.9c-.5.1-1.2.3-2.2.5-1 .2-2 .3-3.2.3-1.5 0-2.9-.2-4.1-.7-1.2-.5-2.2-1.4-3-2.6-.8-1.3-1.1-3.2-1.1-5.6v-40h15.3V85.8h-15.3V67.3h-18.2v18.5h-11v14.1h11v43c0 4.8 1 8.9 3.2 12.1 2.1 3.2 5 5.6 8.7 7.1 3.7 1.5 7.8 2.2 12.3 2.1 2.6-.1 4.8-.3 6.6-.7 1.8-.4 3.2-.8 4.2-1.1l-3.2-14.4Zm39.199 16.6c-4.9 0-9.3-.9-13.2-2.6-3.9-1.8-7-4.4-9.3-7.8-2.3-3.5-3.4-7.7-3.4-12.8 0-4.4.8-8 2.4-10.8 1.6-2.9 3.8-5.1 6.6-6.9 2.8-1.7 5.9-3 9.5-3.9 3.5-.9 7.1-1.5 10.9-1.9 4.5-.5 8.2-.9 11-1.3 2.8-.4 4.9-1 6.2-1.8 1.3-.8 1.9-2.1 1.9-3.9v-.3c0-3.8-1.1-6.7-3.4-8.8-2.3-2.1-5.5-3.1-9.7-3.1-4.5 0-8 1-10.6 2.9-2.6 1.9-4.4 4.3-5.3 6.9l-17-2.4c1.3-4.7 3.6-8.6 6.7-11.8 3.1-3.2 6.9-5.6 11.3-7.2 4.5-1.6 9.4-2.4 14.8-2.4 3.7 0 7.4.4 11.1 1.3 3.7.9 7.1 2.3 10.1 4.3 3.1 2 5.5 4.7 7.4 8.1 1.9 3.4 2.8 7.7 2.8 12.9v51.8h-17.5v-10.6h-.6c-1.1 2.2-2.7 4.2-4.7 6-2 1.9-4.5 3.4-7.5 4.5s-6.4 1.6-10.5 1.6Zm4.8-13.4c3.7 0 6.8-.7 9.5-2.2 2.7-1.5 4.8-3.4 6.2-5.8 1.5-2.4 2.2-5.1 2.2-7.9v-9.1c-.6.5-1.5.9-2.9 1.3s-2.9.8-4.6 1.1c-1.7.3-3.3.6-5 .8-1.6.2-3.1.4-4.3.6-2.7.4-5.2 1-7.3 1.8-2.2.8-3.8 2-5.1 3.5-1.2 1.5-1.9 3.4-1.9 5.8 0 3.4 1.2 5.9 3.7 7.6 2.6 1.7 5.7 2.5 9.5 2.5Zm88.301 13.4c-7.7 0-14.4-1.7-19.9-5.1-5.5-3.4-9.8-8.1-12.8-14.1s-4.5-12.9-4.5-20.7c0-7.9 1.5-14.8 4.5-20.8s7.3-10.7 12.8-14.1c5.5-3.4 12.1-5.1 19.6-5.1 6.3 0 11.9 1.2 16.7 3.5 4.9 2.3 8.7 5.5 11.6 9.7 2.9 4.2 4.5 9.1 4.9 14.6h-17.4c-.7-3.7-2.4-6.8-5-9.3-2.6-2.5-6.2-3.8-10.6-3.8-3.7 0-7 1-9.8 3-2.8 2-5 4.9-6.6 8.6-1.6 3.7-2.3 8.2-2.3 13.4 0 5.3.8 9.8 2.3 13.6 1.5 3.8 3.7 6.7 6.5 8.7 2.8 2 6.1 3 9.9 3 2.7 0 5.1-.5 7.2-1.5 2.1-1 3.9-2.5 5.4-4.5 1.4-1.9 2.4-4.3 3-7.1h17.4c-.4 5.5-2 10.3-4.8 14.5-2.8 4.2-6.6 7.5-11.4 9.9-4.6 2.4-10.2 3.6-16.7 3.6Zm96.801-1.5h21.8l-31.8-44 30-33.5h-21.3l-27.8 31.1h-1.3V59.8h-18.2v103.3h18.2V137l6.7-7.1 23.7 33.2ZM.8 42.4l14.6 8.5v163.6L.8 206.1V42.4ZM30 59.3l14.6 8.4v163.7L30 222.9V59.3ZM59.201 93l14.6 8.4v146.8l-14.6-8.4V93ZM30 25.6 44.6 34v16.9L30 42.5V25.6ZM59.201 8.7l14.6 8.4V34l-14.6-8.4V8.7Z"/><path fill="#FF284B" d="M73.8 248.2v-16.8l141.701-81.8v16.8l-141.7 81.8Zm0-33.7v-16.9l141.701-81.8v16.9l-141.7 81.8Zm14.6-42.1v-16.9l127.1-73.4v16.8L88.4 172.4Zm-43.8 59v-16.9l14.6-8.4.1 16.8-14.7 8.5Zm-29.2-16.9v-16.9l14.6-8.4.1 16.8-14.7 8.5Z"/><path fill="#ABD7D8" d="m215.501 82.1-14.6 8.4-141.7-81.8 14.6-8.4 141.7 81.8ZM186.3 98.9l-14.6 8.5L30 25.6l14.6-8.5 141.7 81.8Zm-43.799 8.5-14.6 8.4L.801 42.4 15.4 34l127.1 73.4Zm73 8.4-14.6 8.4-14.6-8.4 14.6-8.5 14.6 8.5Zm0 33.8-14.6 8.4-14.6-8.4 14.6-8.5 14.6 8.5Z"/></svg>