<svg xmlns="http://www.w3.org/2000/svg" viewBox="0 0 20 20"><path fill="url(#paint0_linear_1910_16430)" d="M16.638 12.369 10.31 1.429a.354.354 0 0 0-.614-.004L7.801 4.703a.705.705 0 0 0 0 .706l4.127 7.137a.707.707 0 0 0 .613.353h3.79a.356.356 0 0 0 .354-.353.353.353 0 0 0-.047-.177Z"/><path fill="url(#paint1_linear_1910_16430)" d="m.049 18.087 6.329-10.94a.353.353 0 0 1 .612 0l1.896 3.275a.707.707 0 0 1 0 .707L4.76 18.265a.704.704 0 0 1-.612.353H.355A.355.355 0 0 1 0 18.264c0-.063.017-.124.049-.177Z"/><path fill="url(#paint2_linear_1910_16430)" d="M6.989 18.616h12.658a.355.355 0 0 0 .353-.353.352.352 0 0 0-.048-.177L18.06 14.81a.707.707 0 0 0-.613-.353H9.192a.707.707 0 0 0-.613.353l-1.896 3.277a.352.352 0 0 0 .306.53Z"/><defs><linearGradient id="paint0_linear_1910_16430" x1="0" x2="21.896" y1="1.25" y2="19.792" gradientUnits="userSpaceOnUse"><stop offset=".242" stop-color="#36BEFF"/><stop offset="1" stop-color="#733FF1"/></linearGradient><linearGradient id="paint1_linear_1910_16430" x1="0" x2="21.896" y1="1.25" y2="19.792" gradientUnits="userSpaceOnUse"><stop offset=".242" stop-color="#36BEFF"/><stop offset="1" stop-color="#733FF1"/></linearGradient><linearGradient id="paint2_linear_1910_16430" x1="0" x2="21.896" y1="1.25" y2="19.792" gradientUnits="userSpaceOnUse"><stop offset=".242" stop-color="#36BEFF"/><stop offset="1" stop-color="#733FF1"/></linearGradient></defs></svg>