<svg xmlns="http://www.w3.org/2000/svg" viewBox="5 5 40 40"><path fill="#0C0C0E" d="M37.845 29.9 25.733 9.338A.67.67 0 0 0 25.148 9a.687.687 0 0 0-.589.33l-3.628 6.161a1.307 1.307 0 0 0 0 1.327l7.899 13.415c.118.202.29.37.496.486.206.117.44.178.677.178h7.255a.688.688 0 0 0 .586-.333.655.655 0 0 0 .001-.663ZM6.093 40.648l12.113-20.564a.687.687 0 0 1 1.172 0l3.63 6.157a1.31 1.31 0 0 1 0 1.328l-7.9 13.416c-.117.202-.288.37-.494.486-.206.116-.44.178-.677.177H6.68a.687.687 0 0 1-.59-.332.653.653 0 0 1 .003-.668Zm13.282.996H43.6a.686.686 0 0 0 .586-.333.654.654 0 0 0 0-.663l-3.624-6.16a1.34 1.34 0 0 0-.496-.486 1.373 1.373 0 0 0-.678-.178H23.592c-.238 0-.472.061-.678.178a1.34 1.34 0 0 0-.496.485l-3.627 6.16a.653.653 0 0 0 .246.907c.103.059.22.09.338.09Z"/></svg><svg xmlns="http://www.w3.org/2000/svg" fill="none" viewBox="5 5 40 40"><path fill="#0C0C0E" d="M37.845 29.9 25.733 9.338A.67.67 0 0 0 25.148 9a.687.687 0 0 0-.589.33l-3.628 6.161a1.307 1.307 0 0 0 0 1.327l7.899 13.415c.118.202.29.37.496.486.206.117.44.178.677.178h7.255a.688.688 0 0 0 .586-.333.655.655 0 0 0 .001-.663ZM6.093 40.648l12.113-20.564a.687.687 0 0 1 1.172 0l3.63 6.157a1.31 1.31 0 0 1 0 1.328l-7.9 13.416c-.117.202-.288.37-.494.486-.206.116-.44.178-.677.177H6.68a.687.687 0 0 1-.59-.332.653.653 0 0 1 .003-.668Zm13.282.996H43.6a.686.686 0 0 0 .586-.333.654.654 0 0 0 0-.663l-3.624-6.16a1.34 1.34 0 0 0-.496-.486 1.373 1.373 0 0 0-.678-.178H23.592c-.238 0-.472.061-.678.178a1.34 1.34 0 0 0-.496.485l-3.627 6.16a.653.653 0 0 0 .246.907c.103.059.22.09.338.09Z"/></svg>