<svg xmlns="http://www.w3.org/2000/svg" viewBox="0 0 134.9 135.4"><path fill="#222326" d="M77.6 91.5c-.3-.6-.6-1.3-.8-2.1-.2-.8-.4-1.6-.5-2.5-.7.8-1.5 1.5-2.4 2.2-.9.7-1.9 1.3-3 1.8s-2.3.9-3.7 1.2c-1.3.3-2.8.4-4.4.4-2.5 0-4.9-.4-7-1.1-2.1-.7-3.9-1.8-5.5-3.1-1.5-1.3-2.7-2.9-3.6-4.7-.9-1.8-1.3-3.8-1.3-5.9 0-5.2 1.9-9.3 5.8-12.1 3.9-2.9 9.7-4.3 17.4-4.3h7.1v-2.9c0-2.4-.8-4.3-2.3-5.7-1.6-1.4-3.8-2.1-6.7-2.1-2.6 0-4.5.6-5.7 1.7-1.2 1.1-1.8 2.6-1.8 4.5H46.5c0-2.1.5-4.1 1.4-6 .9-1.9 2.3-3.6 4.1-5 1.8-1.4 4-2.6 6.6-3.4 2.6-.8 5.5-1.3 8.9-1.3 3 0 5.8.4 8.4 1.1 2.6.7 4.8 1.8 6.7 3.3 1.9 1.4 3.4 3.2 4.4 5.4 1.1 2.2 1.6 4.7 1.6 7.6v21.3c0 2.7.2 4.9.5 6.6.3 1.7.8 3.2 1.5 4.5v.8h-13zm-12.1-8.9c1.3 0 2.5-.2 3.6-.5s2.1-.7 3-1.2c.9-.5 1.6-1 2.3-1.7.6-.6 1.1-1.3 1.5-1.9v-8.5h-6.5c-2 0-3.7.2-5.1.6-1.4.4-2.6.9-3.4 1.6-.9.7-1.5 1.5-2 2.5-.4 1-.6 2-.6 3.1 0 1.7.6 3.1 1.8 4.3 1.1 1.1 2.9 1.7 5.4 1.7z"/><circle cx="67.3" cy="68.1" r="61.7" fill="none" stroke="#222326" stroke-miterlimit="10" stroke-width="9.652"/></svg>