<svg xmlns="http://www.w3.org/2000/svg" viewBox="0 0 56 48"><path fill="#cc0fe0" d="m55.82 46.036-13.365-22.69-6.268-10.642L29.091.656c-.514-.874-1.802-.875-2.318-.002L13.38 23.327l-5.473 9.264c-.516.873.127 1.964 1.157 1.965l10.34.007c.478 0 .92-.25 1.16-.654l5.373-9.097.822-1.39c.033-.056.068-.107.106-.155.569-.715 1.73-.663 2.212.156l5.575 9.466 1.031 1.75c.06.101.102.204.132.308.229.802-.38 1.657-1.292 1.656l-12.163-.008c-.478 0-.92.25-1.16.655l-5.175 8.76c-.516.873.127 1.965 1.157 1.966l10.72.007 13.365.008L54.66 48c1.03 0 1.675-1.09 1.16-1.964"/></svg>