<svg xmlns="http://www.w3.org/2000/svg" width="60" height="60" fill="none"><path fill="#000" d="M47.909 36.673A24.13 24.13 0 0 1 0 39.892h6.326a2.565 2.565 0 0 1 2.4 1.634 16.086 16.086 0 1 0 20.728-20.695 2.58 2.58 0 0 1-1.65-2.424v-6.34A24.14 24.14 0 0 1 47.91 36.672Z"/><path fill="#574B90" d="M23.8 45.429a9.583 9.583 0 1 0 0-19.166 9.583 9.583 0 0 0 0 19.166ZM0 31.466V5.416A5.42 5.42 0 0 1 5.417 0a2.576 2.576 0 0 1 2.57 2.567V17.63a24.034 24.034 0 0 1 11.785-5.563v6.331a2.613 2.613 0 0 1-1.704 2.43 16.109 16.109 0 0 0-9.184 8.998c-.184.46-.496.86-.9 1.148-.434.32-.96.494-1.5.495L0 31.466Z"/></svg>