<svg xmlns="http://www.w3.org/2000/svg" width="30" height="30" fill="none"><path fill-rule="evenodd" clip-rule="evenodd" d="M22.8 2.265c0-.781-.633-1.414-1.414-1.414H18.29c-.782 0-1.415.633-1.415 1.414v3.066c0 .782.633 1.415 1.415 1.415h1.946c.781 0 1.415.634 1.415 1.415v19.573c0 .782.633 1.415 1.415 1.415h3.096c.781 0 1.415-.633 1.415-1.415V8.161c0-.782-.634-1.415-1.415-1.415h-1.946A1.415 1.415 0 0 1 22.8 5.33V2.265Zm-11.892 0c0-.78-.633-1.414-1.414-1.414H6.397c-.781 0-1.415.633-1.415 1.415V5.33c0 .782-.633 1.415-1.415 1.415H1.415C.633 6.746 0 7.38 0 8.161v19.573c0 .782.633 1.415 1.415 1.415h3.096c.782 0 1.415-.633 1.415-1.415V8.162c0-.781.634-1.415 1.415-1.415h2.153c.781 0 1.415-.633 1.415-1.415V2.266Zm5.885 11.286c0-.781-.634-1.415-1.415-1.415h-3.096c-.782 0-1.415.634-1.415 1.415v8.625c0 .781.633 1.415 1.415 1.415h3.096c.781 0 1.415-.634 1.415-1.415V13.55Z" fill="#2B6CB0"/></svg>