<svg xmlns="http://www.w3.org/2000/svg" viewBox="0.6 0.61 32.79 33.79"><path fill="#6c4cff" stroke="#6c4cff" d="M32.3451163,24.208593 L26.0753488,20.934686 L32.0102326,17.7705233 C32.1992558,17.6692209 32.1992558,17.5065233 32.0091163,17.407907 L25.315907,13.9133605 L32.3529302,10.16133721 C32.6948837,9.97830233 32.8976744,9.65367442 32.895814,9.29259302 C32.8935814,8.93227907 32.6870698,8.61072093 32.3451163,8.43267442 L18.6208372,1.267837209 C18.3666977,1.135453488 18.1013953,1.10744186 17.9231628,1.10744186 C17.7594419,1.10744186 17.5146047,1.131232558 17.2775814,1.245581395 L1.676465116,8.77763953 C1.321488372,8.94916279 1.107534884,9.26995349 1.104146355,9.63525581 C1.100837209,10.00094186 1.309581395,10.32595349 1.661953488,10.50476744 L9.15553488,14.3047558 L1.992372093,17.7628488 C1.801116279,17.8553256 1.800372093,18.0095814 1.990511628,18.1058953 L8.35106977,21.3314535 L1.676465116,24.5531744 C1.321116279,24.7246977 1.107162791,25.0454884 1.104146355,25.4107907 C1.101209302,25.7764767 1.309953488,26.1014884 1.661953488,26.2795349 L16.3797209,33.7436744 C16.6219535,33.8668488 16.8734884,33.8925581 17.0416744,33.8925581 C17.2187907,33.8925581 17.4829767,33.8645465 17.7382326,33.7294767 L32.3536744,25.9368721 C32.6956279,25.7538372 32.8984186,25.4292093 32.8965708,25.0681279 C32.8935814,24.7081977 32.6874419,24.3862558 32.3451163,24.208593 Z M17.8837209,2.64577907 C17.8874419,2.64501163 17.9019535,2.64232558 17.9231628,2.64232558 C17.9458605,2.64232558 17.9626047,2.64539535 17.9536744,2.64002326 L30.719814,9.30448837 L17.08,16.5790698 C17.0762791,16.5798372 17.0621395,16.582907 17.0416744,16.582907 L17.0364651,16.5909651 L3.36390698,9.65751163 L17.8837209,2.64577907 Z M17.0818605,32.3538372 C17.0777674,32.3549884 17.0628837,32.3576744 17.0413023,32.3576744 L17.0368372,32.3665 L3.36465116,25.4326628 L9.82976744,22.3114767 L16.3789767,25.6325814 C16.6215814,25.7557558 16.8731163,25.7818488 17.0413023,25.7818488 C17.2187907,25.7818488 17.4833488,25.7534535 17.7371163,25.6183837 L24.6706977,21.922 L30.7190698,25.0800233 L17.0818605,32.3538372 Z"/></svg>