<svg xmlns="http://www.w3.org/2000/svg" viewBox="0 0 27.36 28.19"><path fill="#ca312c" d="M26.4,9.72a4.33,4.33,0,0,0-1.06-1.8c-2.21-2.46-4.24-3.39-7.6-1.83h-.17a2.88,2.88,0,0,0-2.68,2.18c-1.24,3.57-2.57,7.1-3.87,10.64h0c-.19.26-.38.52-.58.77-2.38,1.75-4.68,3.38-8,2-1.21-.49-3.18-.34-2.15,2.13a1.3,1.3,0,0,0,.5.83,4.25,4.25,0,0,0,1.09.83c4.63,3,9.7,3.66,14.59,1.3,5.55-2.67,9.59-6.89,10-13.51A9.79,9.79,0,0,0,26.4,9.72Z"/><path fill="#91b949" d="M24.42,6.23a17.94,17.94,0,0,1,.3-2.75c.28-2.38-1-3.41-2-3.47a3.35,3.35,0,0,0-2.59,1A.93.93,0,0,0,20,2.27c.47.49.88.48,1.15-.54.45-1.65,2.37,0,2.31.84-.1,1.68-1.31,2.31-2.37,3A16.74,16.74,0,0,1,17.29,7a.56.56,0,0,0-.28.75.59.59,0,0,0,.22.25,4.94,4.94,0,0,0,1.33,0c1.41-.23,1.84.19,2.28,1.58a4.4,4.4,0,0,1,2.74-.38c.93.34.94.91,1.26,1.31a.41.41,0,0,0,.51-.25.77.77,0,0,0,0-.15A7.15,7.15,0,0,1,24.42,6.23Z"/><path fill="#fff" d="M42.11,20.54c-.27.06-.53.11-.8.15h-.76a3.88,3.88,0,0,1-1.35-.24,3.22,3.22,0,0,1-1-.7,3.62,3.62,0,0,1-.67-1.11,4.88,4.88,0,0,1,0-2.93,3,3,0,0,1,.63-1.12,2.64,2.64,0,0,1,1-.72,3.11,3.11,0,0,1,1.38-.26,6.27,6.27,0,0,1,1.55.19,6.8,6.8,0,0,1,1.51.54V11.72a8.18,8.18,0,0,0-1.37-.3,11.75,11.75,0,0,0-1.87-.12,6.55,6.55,0,0,0-2.48.43,5.26,5.26,0,0,0-3.12,3.12,6.81,6.81,0,0,0-.44,2.49,7.41,7.41,0,0,0,.4,2.51,4.76,4.76,0,0,0,3,2.92,7.77,7.77,0,0,0,2.44.37A10.92,10.92,0,0,0,42,23a8.25,8.25,0,0,0,1.68-.48V20.05c-.24.1-.48.19-.73.27S42.38,20.48,42.11,20.54Zm13.83-7.81a4.39,4.39,0,0,0-1.7-1.12A6.19,6.19,0,0,0,52,11.23a5.84,5.84,0,0,0-2.37.44,4.81,4.81,0,0,0-1.77,1.22,5.27,5.27,0,0,0-1.12,1.91,7.4,7.4,0,0,0-.39,2.48,8.39,8.39,0,0,0,.37,2.58,4.68,4.68,0,0,0,1.08,1.85,4.43,4.43,0,0,0,1.7,1.12,7,7,0,0,0,2.28.37,6.29,6.29,0,0,0,2.39-.44,5.11,5.11,0,0,0,1.77-1.24A5.61,5.61,0,0,0,57,19.59a7.46,7.46,0,0,0,.39-2.47A8.37,8.37,0,0,0,57,14.58,4.86,4.86,0,0,0,55.94,12.73Zm-1.59,5.89a3.82,3.82,0,0,1-.47,1.15,2.24,2.24,0,0,1-.82.77,2.49,2.49,0,0,1-1.2.28,2.38,2.38,0,0,1-2-.91,4.26,4.26,0,0,1-.72-2.7,6.46,6.46,0,0,1,.15-1.4,3.11,3.11,0,0,1,.48-1.14,2.3,2.3,0,0,1,.83-.78,2.5,2.5,0,0,1,1.23-.28,2.31,2.31,0,0,1,2,.9,4.41,4.41,0,0,1,.67,2.68A5.75,5.75,0,0,1,54.35,18.62Zm11.92-7.14h-6v2.14h3.24V20.8H59.82v2.14h9.76V20.8H66.27ZM63.42,9.61A1.73,1.73,0,0,0,64,10a2,2,0,0,0,1.43,0A2.06,2.06,0,0,0,66,9.61,1.84,1.84,0,0,0,66.36,9a1.86,1.86,0,0,0,0-1.39A1.77,1.77,0,0,0,66,7.07a1.81,1.81,0,0,0-.57-.39,1.87,1.87,0,0,0-1.43,0,1.7,1.7,0,0,0-.57.39,1.5,1.5,0,0,0-.38.58A1.8,1.8,0,0,0,63,9,1.54,1.54,0,0,0,63.42,9.61Zm17.74,2.72a2.89,2.89,0,0,0-1.09-.81,3.7,3.7,0,0,0-1.54-.29,4,4,0,0,0-1.14.14,3.23,3.23,0,0,0-.94.39,3.5,3.5,0,0,0-.82.61,9.23,9.23,0,0,0-.73.8l-.07-1.69H72.45V22.94h2.76V15.69a9.37,9.37,0,0,1,1.34-1.54,2,2,0,0,1,1.34-.56c.93,0,1.4.63,1.4,1.88v7.47H82V15.25a5.73,5.73,0,0,0-.22-1.66A3.66,3.66,0,0,0,81.16,12.33Zm13.2.46A3.71,3.71,0,0,0,93,11.64a3.9,3.9,0,0,0-1.81-.41,4,4,0,0,0-1.14.14,3.73,3.73,0,0,0-.95.39,4,4,0,0,0-.81.61,6.93,6.93,0,0,0-.73.8l-.07-1.69H85.15V27.41H87.9V22.94a6.69,6.69,0,0,0,.78.14,6.11,6.11,0,0,0,.86.06,7.56,7.56,0,0,0,2.36-.37,5.25,5.25,0,0,0,1.87-1.12A5.32,5.32,0,0,0,95,19.73,7.74,7.74,0,0,0,95.46,17a9.22,9.22,0,0,0-.28-2.4A5.4,5.4,0,0,0,94.36,12.79Zm-2,5.94a3.75,3.75,0,0,1-.58,1.21,2.8,2.8,0,0,1-.91.76,2.74,2.74,0,0,1-1.19.28,8.26,8.26,0,0,1-1-.08,5.34,5.34,0,0,1-.81-.21v-5a9.93,9.93,0,0,1,1.35-1.54,2,2,0,0,1,1.34-.56,1.59,1.59,0,0,1,1.46.82,3.52,3.52,0,0,1,.39,1.1,8.67,8.67,0,0,1,.13,1.61,5.84,5.84,0,0,1-.17,1.61Zm13.87-6.53a3.93,3.93,0,0,0-1.51-.73,8.09,8.09,0,0,0-2.19-.24,10.57,10.57,0,0,0-2.24.22,10.32,10.32,0,0,0-1.9.54v2.2a9.24,9.24,0,0,1,1.92-.65,7.87,7.87,0,0,1,2-.23,3.59,3.59,0,0,1,1.08.13,1.75,1.75,0,0,1,.72.39,1.44,1.44,0,0,1,.4.6,2.61,2.61,0,0,1,.12.79v.69h-1.5a9.83,9.83,0,0,0-2.48.28A5.31,5.31,0,0,0,98.9,17a3,3,0,0,0-1,1.19,3.1,3.1,0,0,0-.35,1.5,4.21,4.21,0,0,0,.23,1.44,3.18,3.18,0,0,0,.69,1.12,3.43,3.43,0,0,0,1.11.72,4.51,4.51,0,0,0,1.55.26,6.24,6.24,0,0,0,1.22-.13,5.23,5.23,0,0,0,1-.37,5,5,0,0,0,.87-.56,10.16,10.16,0,0,0,.76-.7l.07,1.5h2.35V15.11a4.67,4.67,0,0,0-.28-1.7,3,3,0,0,0-.88-1.21Zm-1.6,7.21a9.06,9.06,0,0,1-1.36,1.19,2.26,2.26,0,0,1-1.2.42,1.93,1.93,0,0,1-1.23-.37,1.28,1.28,0,0,1-.45-1.06,1.63,1.63,0,0,1,.14-.66,1.42,1.42,0,0,1,.45-.55,1.92,1.92,0,0,1,.79-.37,4.24,4.24,0,0,1,1.18-.14h1.68Zm15.12-6.62a3.68,3.68,0,0,0-1.33-1.15,3.89,3.89,0,0,0-1.8-.41,4,4,0,0,0-1.14.14,3.59,3.59,0,0,0-1,.39,4.06,4.06,0,0,0-.82.61,6.85,6.85,0,0,0-.72.8l-.07-1.69h-2.38V27.41h2.75V22.94a6.69,6.69,0,0,0,.78.14,6.11,6.11,0,0,0,.86.06,7.5,7.5,0,0,0,2.35-.37,5.14,5.14,0,0,0,1.88-1.12,5.38,5.38,0,0,0,1.24-1.92A7.47,7.47,0,0,0,120.8,17a10.16,10.16,0,0,0-.28-2.4,5.85,5.85,0,0,0-.76-1.82Zm-2,5.94a4,4,0,0,1-.58,1.21,3,3,0,0,1-.92.76,2.6,2.6,0,0,1-1.19.28,6.63,6.63,0,0,1-1-.08,5.34,5.34,0,0,1-.81-.21v-5a9.43,9.43,0,0,1,1.35-1.54,2,2,0,0,1,1.34-.56,1.59,1.59,0,0,1,1.46.82,3.78,3.78,0,0,1,.38,1.1,7.9,7.9,0,0,1,.14,1.61,6.24,6.24,0,0,1-.15,1.61Zm14.75-6.31a2.78,2.78,0,0,0-1.12-.89,3.71,3.71,0,0,0-1.54-.3,4.17,4.17,0,0,0-1.17.14,3.59,3.59,0,0,0-1,.39,3.51,3.51,0,0,0-.79.6,4.1,4.1,0,0,0-.64.79l-.1-1.67h-2.49V22.94h2.82V15.69A7.07,7.07,0,0,1,128,14a2.06,2.06,0,0,1,1.25-.5,1.23,1.23,0,0,1,.62.14,1.06,1.06,0,0,1,.46.43,1.88,1.88,0,0,1,.27.74,4.92,4.92,0,0,1,.06,1.09h2.77a7.85,7.85,0,0,0-.19-2,3.78,3.78,0,0,0-.68-1.48Zm9.94-.94h-6.05v2.14h3.23V20.8H136v2.14h9.76V20.8h-3.31Zm-2.85-1.87a1.92,1.92,0,0,0,.57.39,2,2,0,0,0,1.43,0,2.06,2.06,0,0,0,.57-.39,1.93,1.93,0,0,0,.37-.57,1.86,1.86,0,0,0,0-1.39,1.75,1.75,0,0,0-.37-.58,1.81,1.81,0,0,0-.57-.39,1.87,1.87,0,0,0-1.43,0,1.7,1.7,0,0,0-.57.39,1.5,1.5,0,0,0-.38.58,1.77,1.77,0,0,0,0,1.39,1.6,1.6,0,0,0,.4.57Zm19.34,1.87h-3.44l-4,4.85V7h-2.75V22.94h2.75V17.21l4.23,5.73h3.6l-5-6.24Zm11.65,1.93a3,3,0,0,0-.87-1.21,3.93,3.93,0,0,0-1.51-.73,8.09,8.09,0,0,0-2.19-.24,9.81,9.81,0,0,0-2.23.22,9,9,0,0,0-1.9.54v2.2a9.16,9.16,0,0,1,1.91-.65,7.87,7.87,0,0,1,2-.23,3.59,3.59,0,0,1,1.08.13,1.75,1.75,0,0,1,.72.39,1.44,1.44,0,0,1,.4.6,2.61,2.61,0,0,1,.12.79v.69h-1.5a9.37,9.37,0,0,0-2.47.28,5.16,5.16,0,0,0-1.76.78,3,3,0,0,0-1,1.19,3.1,3.1,0,0,0-.35,1.5,4,4,0,0,0,.24,1.44,3,3,0,0,0,.68,1.12,3.43,3.43,0,0,0,1.11.72,4.51,4.51,0,0,0,1.55.26,6.24,6.24,0,0,0,1.22-.13,5.23,5.23,0,0,0,1-.37,5,5,0,0,0,.87-.56,8.4,8.4,0,0,0,.76-.7l.07,1.5h2.35V15.11a4.67,4.67,0,0,0-.28-1.7Zm-2.47,6a8.6,8.6,0,0,1-1.36,1.19,2.26,2.26,0,0,1-1.2.42,1.93,1.93,0,0,1-1.23-.37,1.28,1.28,0,0,1-.45-1.06,1.63,1.63,0,0,1,.14-.66,1.42,1.42,0,0,1,.45-.55,1.92,1.92,0,0,1,.79-.37,4.24,4.24,0,0,1,1.18-.14h1.68Z"/><path fill="#a8a8a8" d="M182.48,17.68a1.89,1.89,0,0,0-.69-.6,2.2,2.2,0,0,0-2,0,2.4,2.4,0,0,0-.75.67l.06-1.17v-2h-1.43v8a7.94,7.94,0,0,0,1.07.26,9.71,9.71,0,0,0,1.21.1,4.25,4.25,0,0,0,1.22-.19,2.53,2.53,0,0,0,1.64-1.59,4.07,4.07,0,0,0,.23-1.42,5.7,5.7,0,0,0-.14-1.25A2.83,2.83,0,0,0,182.48,17.68Zm-1,3.08a2,2,0,0,1-.31.63,1.31,1.31,0,0,1-1.09.54,4.34,4.34,0,0,1-.51,0l-.41-.1V19.18a4.4,4.4,0,0,1,.7-.79,1,1,0,0,1,.69-.3.87.87,0,0,1,.44.11.82.82,0,0,1,.32.32,1.84,1.84,0,0,1,.2.57,4.61,4.61,0,0,1,.07.84,3.34,3.34,0,0,1-.13.83Zm7.36-3.15a2.3,2.3,0,0,0-.81-.54,3.13,3.13,0,0,0-2.28,0,2.27,2.27,0,0,0-.88.66,2.9,2.9,0,0,0-.56,1,3.92,3.92,0,0,0-.2,1.32,3.59,3.59,0,0,0,.2,1.29,2.57,2.57,0,0,0,.57.93,2.69,2.69,0,0,0,.91.57,3.85,3.85,0,0,0,1.22.2h.56l.57-.07a5.25,5.25,0,0,0,.55-.09,4.54,4.54,0,0,0,.5-.12V21.66c-.33.09-.66.16-1,.22s-.62.05-.93.06a2.24,2.24,0,0,1-.68-.1,1.48,1.48,0,0,1-.53-.31,1.31,1.31,0,0,1-.34-.5,1.65,1.65,0,0,1-.12-.69h3.91v-.82a3.47,3.47,0,0,0-.17-1.07,2.28,2.28,0,0,0-.52-.84Zm-3.26,1.7a1.68,1.68,0,0,1,.41-1,1.27,1.27,0,0,1,1.35-.28.84.84,0,0,1,.37.25,1.1,1.1,0,0,1,.26.43,2,2,0,0,1,.09.61Zm7.94-4.22-1.47.38V17h-1.6v1.11H192V21a3,3,0,0,0,.13.93,1.56,1.56,0,0,0,.41.64,1.86,1.86,0,0,0,.71.37,4.15,4.15,0,0,0,1,.13A6.34,6.34,0,0,0,195,23c.26,0,.52-.08.78-.14V21.75c-.2.05-.41.1-.61.13a3.91,3.91,0,0,1-.68.06,1,1,0,0,1-.79-.26,1.13,1.13,0,0,1-.23-.77v-2.8h2.31V17h-2.31ZM202.3,18a1.59,1.59,0,0,0-.45-.63A2,2,0,0,0,201,17a3.93,3.93,0,0,0-1.13-.13,5.73,5.73,0,0,0-1.17.11,5,5,0,0,0-1,.28V18.4a4.51,4.51,0,0,1,1-.33,4.21,4.21,0,0,1,1-.12,1.51,1.51,0,0,1,.56.07.79.79,0,0,1,.37.2.62.62,0,0,1,.21.31,1.14,1.14,0,0,1,.07.41v.36h-.78a4.65,4.65,0,0,0-1.29.15,2.48,2.48,0,0,0-.91.4,1.44,1.44,0,0,0-.55.62,1.6,1.6,0,0,0-.18.78,2.45,2.45,0,0,0,.12.75,1.55,1.55,0,0,0,.94.95,2.4,2.4,0,0,0,.8.14,4.64,4.64,0,0,0,.64-.07,3.35,3.35,0,0,0,.53-.19,2.66,2.66,0,0,0,.45-.29l.4-.37V23h1.23V18.88A2.59,2.59,0,0,0,202.3,18ZM201,21.12a7,7,0,0,1-.71.62,1.25,1.25,0,0,1-.62.22,1.1,1.1,0,0,1-.64-.2.63.63,0,0,1-.24-.55.77.77,0,0,1,.08-.34.66.66,0,0,1,.23-.29,1,1,0,0,1,.41-.19,1.79,1.79,0,0,1,.61-.07H201Z" opacity=".5"/></svg>