<svg xmlns="http://www.w3.org/2000/svg" fill="none" viewBox="5 5 40 40"><path fill="#fff" d="M27.268 14.926V5.988c-10.588 0-19.163 8.575-19.163 19.163 0 10.588 8.575 19.164 19.163 19.164v-8.939a10.219 10.219 0 0 1-10.224-10.225 10.219 10.219 0 0 1 10.224-10.225Z"/><path fill="#00D8D5" d="M37.528 14.926a4.469 4.469 0 1 1 0-8.937 4.469 4.469 0 0 1 0 8.937Z"/><path fill="#FF4C8B" d="M37.454 44.314a4.469 4.469 0 1 1 0-8.938 4.469 4.469 0 0 1 0 8.938Z"/><path fill="#fff" d="M37.495 25.15A10.22 10.22 0 0 1 27.27 35.377v-20.45A10.219 10.219 0 0 1 37.495 25.15"/></svg>