<svg xmlns="http://www.w3.org/2000/svg" viewBox="0 0 131 131"><path fill="#54FE6D" d="M126.342 34.05 90.934 3.866a14.234 14.234 0 0 0-9.21-3.36H14.588c-1.839 0-3.66.353-5.358 1.038a14.031 14.031 0 0 0-4.542 2.954 13.607 13.607 0 0 0-3.035 4.42 13.31 13.31 0 0 0-1.065 5.214v73.059a13.286 13.286 0 0 0 1.245 5.628 13.626 13.626 0 0 0 3.528 4.622l35.4 30.183A14.206 14.206 0 0 0 50.02 131h67.06c3.713 0 7.274-1.436 9.9-3.991 2.625-2.555 4.1-6.021 4.1-9.634v-73.06c.006-1.94-.414-3.86-1.231-5.63a13.666 13.666 0 0 0-3.508-4.635ZM65.847 90.812a26.275 26.275 0 0 1-14.32-4.223c-4.238-2.755-7.542-6.672-9.494-11.255a24.458 24.458 0 0 1-1.468-14.492c.994-4.866 3.448-9.335 7.052-12.843 3.605-3.508 8.197-5.897 13.197-6.864a26.416 26.416 0 0 1 14.89 1.43c4.709 1.898 8.733 5.114 11.564 9.24a24.606 24.606 0 0 1 4.34 13.936 24.5 24.5 0 0 1-1.966 9.599 25.047 25.047 0 0 1-5.59 8.135 25.832 25.832 0 0 1-8.366 5.434 26.386 26.386 0 0 1-9.864 1.903h.025Z"/></svg>