<svg xmlns="http://www.w3.org/2000/svg" fill="none" viewBox="0 0 200 200"><path fill="#00D8D5" d="M98.378 131.812v-29.79H70.332a21.154 21.154 0 0 1-6.138 13.183 21.154 21.154 0 0 1-15.005 6.215 21.155 21.155 0 0 1-15.005-6.215 21.153 21.153 0 0 1-6.138-13.183H0v87.858c0 5.81 4.71 10.52 10.52 10.52h87.858v-29.791c0-1.006.816-1.822 1.822-1.822 4.854 0 9.248-1.967 12.429-5.148a17.521 17.521 0 0 0 5.148-12.428c0-4.854-1.968-9.248-5.148-12.429a17.526 17.526 0 0 0-12.429-5.148 1.822 1.822 0 0 1-1.822-1.822Z"/><path fill="#FF4C8B" d="m79 50.104-.013-.35v-.026a18.627 18.627 0 0 1-.005-.248v-.043l-.002-.248c0-5.86 2.375-11.165 6.215-15.005a21.152 21.152 0 0 1 13.183-6.138V0H10.52C4.71 0 0 4.71 0 10.52v87.858h29.79c1.007 0 1.822.816 1.822 1.822 0 4.854 1.968 9.248 5.148 12.429a17.525 17.525 0 0 0 12.43 5.148c4.853 0 9.247-1.968 12.428-5.148a17.523 17.523 0 0 0 5.148-12.429c0-1.006.816-1.822 1.822-1.822h29.79V70.332a21.153 21.153 0 0 1-13.183-6.138 21.154 21.154 0 0 1-6.121-13l-.003-.025-.014-.157-.013-.164-.009-.12-.006-.092-.008-.117-.01-.165-.011-.25Z"/><path fill="#00D8D5" d="M102.022 0v29.79a1.822 1.822 0 0 1-1.822 1.822 17.522 17.522 0 0 0-12.429 5.148 17.523 17.523 0 0 0-5.146 12.64v.027l.004.208v.023c.005.143.01.285.017.427v.016a17.52 17.52 0 0 0 5.125 11.517 17.522 17.522 0 0 0 12.429 5.148c1.006 0 1.822.816 1.822 1.822v29.79h28.046a21.155 21.155 0 0 1 6.138-13.183 21.153 21.153 0 0 1 15.005-6.215c5.86 0 11.165 2.375 15.005 6.215a21.155 21.155 0 0 1 6.138 13.183H200.4V10.52C200.4 4.71 195.69 0 189.88 0h-87.858Z"/><path fill="#FF4C8B" d="M200.401 102.022H170.61a1.822 1.822 0 0 1-1.822-1.822 17.52 17.52 0 0 0-5.148-12.429 17.521 17.521 0 0 0-12.429-5.148 17.52 17.52 0 0 0-12.428 5.148 17.52 17.52 0 0 0-5.148 12.429 1.822 1.822 0 0 1-1.822 1.822h-29.791v28.046c5.133.436 9.746 2.7 13.184 6.138a21.154 21.154 0 0 1 6.215 15.005 21.155 21.155 0 0 1-6.215 15.005 21.158 21.158 0 0 1-13.184 6.138V200.4h87.859c5.81 0 10.52-4.71 10.52-10.52v-87.858Z"/></svg>