<svg xmlns="http://www.w3.org/2000/svg" viewBox="0 0 68 68"><path fill="#fff" d="M34.007 39.016c-1.036-2.836-3.252-5.05-6.017-6.017a10.334 10.334 0 0 0 6.019-6.017c.76 2.628 3.181 4.772 6.018 6.017a9.64 9.64 0 0 0-6.016 6.017M17.556 16.557c1.662-1.663 1.942-4.077.625-5.396-1.317-1.318-3.732-1.037-5.394.623-1.662 1.663-1.941 4.078-.624 5.396 1.316 1.319 3.732 1.038 5.393-.623ZM55.213 54.214c1.661-1.663 1.941-4.078.624-5.396-1.317-1.319-3.732-1.037-5.394.623-1.661 1.663-1.94 4.078-.624 5.396 1.317 1.316 3.732 1.037 5.394-.623ZM26.632 25.633c2.352-2.351 2.693-5.823.762-7.753-1.93-1.931-5.402-1.59-7.752.762-2.352 2.352-2.692 5.823-.762 7.754 1.93 1.93 5.402 1.588 7.752-.763ZM48.352 47.349c2.351-2.351 2.692-5.823.762-7.754-1.93-1.93-5.4-1.588-7.753.763-2.351 2.351-2.692 5.823-.762 7.754 1.93 1.93 5.403 1.588 7.753-.763ZM55.837 17.182c1.317-1.316 1.037-3.733-.624-5.395-1.662-1.663-4.077-1.942-5.394-.624-1.317 1.319-1.037 3.733.624 5.396 1.662 1.663 4.077 1.942 5.394.623ZM18.181 54.837c1.317-1.319 1.037-3.733-.625-5.396-1.661-1.663-4.077-1.942-5.393-.623-1.317 1.318-1.037 3.733.624 5.395 1.662 1.663 4.077 1.942 5.394.624ZM49.118 26.396c1.93-1.93 1.59-5.402-.762-7.754-2.352-2.351-5.822-2.693-7.753-.762-1.93 1.93-1.59 5.402.763 7.753 2.352 2.352 5.821 2.694 7.752.763ZM27.403 48.112c1.93-1.931 1.59-5.403-.762-7.754-2.352-2.351-5.822-2.693-7.752-.763-1.93 1.931-1.59 5.403.762 7.754 2.352 2.351 5.822 2.693 7.752.763ZM34 9.747c2.35 0 4.256-1.51 4.256-3.374C38.256 4.51 36.35 3 34 3c-2.35 0-4.256 1.51-4.256 3.373 0 1.864 1.906 3.374 4.256 3.374ZM34 63c2.35 0 4.256-1.51 4.256-3.373 0-1.863-1.906-3.374-4.256-3.374-2.35 0-4.256 1.51-4.256 3.374C29.744 61.49 31.65 63 34 63ZM60.626 37.255C62.49 37.255 64 35.35 64 33s-1.511-4.256-3.374-4.256c-1.862 0-3.374 1.905-3.374 4.256s1.511 4.256 3.374 4.256ZM7.374 37.255c1.863 0 3.374-1.905 3.374-4.256s-1.511-4.256-3.374-4.256C5.51 28.743 4 30.65 4 33.001c0 2.352 1.511 4.256 3.374 4.256"/></svg>