<svg xmlns="http://www.w3.org/2000/svg" width="459" height="145"><path d="M97 3h42l21 77 1-77h35v139h-41l-5.375-18.75c-.535-1.865-1.07-3.73-1.623-5.651C142.898 99.759 137.967 81.88 133 64l-1 78H97V3Z" fill="#FE9E45"/><path d="M442.313 10.25c13.612 13.101 16.22 32.083 16.799 50.253.847 55.91.847 55.91-14.92 73.517-9.71 9.279-22.714 11.062-35.7 11.015-13.18-.322-25.886-2.196-35.492-12.035-17.73-21.388-15.754-56.782-13.486-82.742 1.583-14.707 5.091-30.088 16.244-40.504 17.662-13.816 49.4-14.226 66.555.496ZM400 31c-4.359 11.987-3.162 26.336-3.13 38.95.005 2.546 0 5.093-.007 7.64-1.198 21.81-1.198 21.81 6.45 41.035 3.28 1.679 5.048 1.981 8.687 1.375 4-2.047 5.378-4.376 6.75-8.5 2.855-11.532 2.436-23.556 2.435-35.36.002-2.739.02-5.476.04-8.214.029-8.668-.165-17.26-1.05-25.887l-.21-2.2c-.524-4.49-1.593-7.985-3.965-11.839-6.261-4.174-11.763-2.981-16 3Z" fill="#FDCD0B"/><path d="M201 3h39c1.222 6.723 2.4 13.384 3.329 20.143l.355 2.547c.381 2.732.759 5.464 1.136 8.197l.799 5.737c.696 4.999 1.389 9.998 2.081 14.998.709 5.115 1.42 10.23 2.132 15.345 1.392 10.01 2.78 20.022 4.168 30.033a180.933 180.933 0 0 0 3.313-17.992l.35-2.57c.249-1.824.495-3.647.74-5.471.388-2.883.78-5.766 1.174-8.648.974-7.148 1.942-14.296 2.908-21.445.82-6.064 1.644-12.127 2.472-18.19.387-2.845.77-5.691 1.151-8.537l.709-5.19c.105-.796.21-1.592.32-2.411.75-5.432.75-5.432 1.863-6.546a233.75 233.75 0 0 1 8.629-.098l2.619.005c2.771.005 5.543.018 8.315.03A6730.23 6730.23 0 0 1 308 3c-1.314 8.33-2.902 16.566-4.69 24.805l-.795 3.69c-.71 3.3-1.423 6.598-2.138 9.897-.75 3.465-1.497 6.93-2.245 10.395-1.253 5.805-2.508 11.61-3.765 17.414-1.453 6.712-2.902 13.424-4.349 20.137-1.395 6.473-2.793 12.945-4.193 19.417-.595 2.75-1.188 5.5-1.781 8.25-.825 3.83-1.655 7.657-2.485 11.484l-.744 3.463-.684 3.143-.593 2.74C279 140 279 140 278 142h-48c-3.635-17.237-7.269-34.475-10.9-51.712a123880.9 123880.9 0 0 0-5.062-24.012c-1.471-6.976-2.942-13.953-4.411-20.93-.778-3.694-1.556-7.387-2.336-11.08-.734-3.479-1.467-6.957-2.199-10.436a8395.64 8395.64 0 0 0-1.19-5.643l-.719-3.416-.623-2.956C201.978 8.89 201.49 5.944 201 3Z" fill="#FEB12D"/><path d="M0 3h83v30H37v23h43v29H37v27h48v30H0V3Z" fill="#FE8A5D"/><path d="M311 3h37v139h-37V3Z" fill="#FDBF1D"/></svg>