<svg xmlns="http://www.w3.org/2000/svg" viewBox="-9 -10 50 50"><rect width="50" height="50" x="-9" y="-10" fill="#855DCD" rx="12"/><path fill="#FFF" d="M5.507.072h20.59v4.095h5.855l-1.227 4.096h-1.039v16.57c.521 0 .944.416.944.93v1.117h.189c.522 0 .945.417.945.931v1.117H21.185v-1.117c0-.514.423-.931.945-.931h.189v-1.117c0-.447.32-.82.746-.91l-.02-9.143c-.334-3.653-3.449-6.516-7.243-6.516-3.794 0-6.909 2.863-7.243 6.516l-.02 9.135c.504.074 1.124.457 1.124.918v1.117h.189c.521 0 .944.417.944.931v1.117H.218v-1.117c0-.514.423-.931.944-.931h.189v-1.117c0-.514.423-.93.945-.93V8.263H1.257L.029 4.167h5.478V.072Z"/><path fill="#FFF" d="M26.097.072h.069V.004h-.069Zm-20.59 0V.004h-.069v.068Zm20.59 4.095h-.069v.068h.069Zm5.855 0 .067.02.026-.088h-.093v.068Zm-1.227 4.096v.068h.051l.015-.049Zm-1.039 0v-.068h-.069v.068Zm0 16.57h-.069v.068h.069Zm.944 2.047h-.069v.068h.069Zm1.134 2.048v.068h.068v-.068Zm-10.579 0h-.069v.068h.069Zm1.134-2.048v.068h.069v-.068Zm.746-2.027.015.066.054-.011v-.055Zm-.02-9.143h.069v-.003l-.001-.003Zm-14.486 0-.069-.006v.006Zm-.02 9.135H8.47l-.001.059.059.009Zm1.124 2.035h-.069v.068h.069Zm1.133 2.048v.068h.069v-.068Zm-10.578 0H.149v.068h.069Zm1.133-2.048v.068h.069v-.068Zm.945-2.047v.068h.069v-.068Zm0-16.57h.069v-.068h-.069Zm-1.039 0-.066.019.014.049h.052ZM.029 4.167V4.1h-.092l.026.087.066-.02Zm5.478 0v.068h.069v-.068ZM26.097.004H5.507v.135h20.59Zm.069 4.163V.072h-.138v4.095h.138Zm5.786-.068h-5.855v.136h5.855Zm-1.161 4.183 1.228-4.095-.133-.039-1.228 4.096Zm-1.105.049h1.039v-.136h-1.039Zm.069 16.502V8.263h-.138v16.57Zm.944.93c0-.551-.454-.998-1.013-.998v.135a.87.87 0 0 1 .875.863Zm0 1.117v-1.117h-.138v1.117Zm.12-.067h-.189v.135h.189Zm1.013.998c0-.551-.453-.998-1.013-.998v.135a.87.87 0 0 1 .876.863Zm0 1.117v-1.117h-.137v1.117Zm-5.735.068h5.667v-.136h-5.667Zm-3.023 0h3.023v-.136h-3.023Zm-1.889 0h1.889v-.136h-1.889Zm-.069-1.185v1.117h.138v-1.117Zm1.014-.998c-.56 0-1.014.447-1.014.998h.138a.87.87 0 0 1 .876-.863Zm.189 0h-.189v.135h.189Zm-.069-1.05v1.117h.138v-1.117Zm.801-.976a1.002 1.002 0 0 0-.801.976h.138c0-.414.296-.76.692-.844Zm-.075-9.077.02 9.143h.138l-.02-9.143Zm-7.174-6.448c3.757 0 6.843 2.836 7.174 6.454l.137-.012c-.337-3.688-3.481-6.578-7.311-6.578Zm-7.174 6.454c.331-3.618 3.416-6.454 7.174-6.454v-.136c-3.83 0-6.974 2.89-7.312 6.578Zm-.02 9.129.02-9.135H8.49l-.02 9.135Zm1.124.918c0-.261-.175-.49-.401-.658a1.802 1.802 0 0 0-.782-.327l-.021.134c.241.036.511.145.72.301.211.157.346.35.346.55Zm0 1.117v-1.117h-.138v1.117Zm.12-.067h-.189v.135h.189Zm1.013.998c0-.551-.454-.998-1.013-.998v.135a.87.87 0 0 1 .875.863Zm0 1.117v-1.117h-.138v1.117Zm-2.336.068h2.267v-.136H8.529Zm-.157 0h.157v-.136h-.157Zm-2.865 0h2.865v-.136H5.507Zm-5.289 0h5.289v-.136H.218Zm-.069-1.185v1.117h.138v-1.117Zm1.013-.998c-.559 0-1.013.447-1.013.998h.138a.87.87 0 0 1 .875-.863Zm.189 0h-.189v.135h.189Zm-.069-1.05v1.117h.138v-1.117Zm1.014-.998c-.56 0-1.014.447-1.014.998h.138a.87.87 0 0 1 .876-.863ZM2.227 8.263v16.57h.138V8.263Zm-.97.068h1.039v-.136H1.257ZM-.037 4.187l1.228 4.095.132-.038L.095 4.148Zm5.544-.088H.029v.136h5.478v-.136ZM5.438.072v4.095h.138V.072Z"/></svg>