<svg xmlns="http://www.w3.org/2000/svg" fill="none" viewBox="0 0 131 43"><path fill="#fff" stroke="#fff" stroke-miterlimit="10" stroke-width=".25" d="M6.462 12.088v6.57h11.03V22.7H6.462v9.853H2.04V8.04h16.785v4.043H6.462v.004ZM22.081 32.554V14.576h4.352v17.978H22.08ZM46.809 34.941c0 1.177-.262 2.154-.787 2.938a5.69 5.69 0 0 1-2.02 1.85c-.821.45-1.749.767-2.774.95a16.917 16.917 0 0 1-3.015.277c-1.095 0-2.187-.081-3.269-.243a6.913 6.913 0 0 1-3.031-1.245c-.684-.483-1.216-1.048-1.591-1.694-.376-.645-.567-1.393-.567-2.248 0-.785.185-1.505.55-2.16a3.656 3.656 0 0 1 1.574-1.505 3.35 3.35 0 0 1-1.32-1.332 3.601 3.601 0 0 1-.462-1.748c0-1.546.707-2.753 2.124-3.632a6.192 6.192 0 0 1-1.3-1.937c-.322-.737-.479-1.566-.479-2.489 0-1.061.194-2.005.583-2.836a5.934 5.934 0 0 1 1.578-2.077 6.913 6.913 0 0 1 2.31-1.26 9.02 9.02 0 0 1 2.825-.434c.73 0 1.44.099 2.123.295a8.504 8.504 0 0 1 1.92.811c.388-.784.9-1.352 1.54-1.71a4.203 4.203 0 0 1 2.09-.535h.584c.25 0 .445.024.583.068v3.354l-.342-.034c-.503 0-.955.081-1.353.243-.399.163-.67.464-.804.9a6.15 6.15 0 0 1 .924 3.25c0 1.037-.2 1.96-.6 2.765a6.191 6.191 0 0 1-1.59 2.039A7.137 7.137 0 0 1 40.5 26.84c-.88.3-1.799.45-2.757.45a8.613 8.613 0 0 1-2.877-.484 2.42 2.42 0 0 0-.6.5c-.194.22-.291.48-.291.778 0 .53.211.883.633 1.055.422.172.861.26 1.32.26h2.944c.432 0 .901.007 1.404.017.502.014 1.011.058 1.524.139a9.996 9.996 0 0 1 1.507.362c.493.162.941.392 1.353.69.778.53 1.33 1.166 1.662 1.9.322.75.486 1.558.486 2.434Zm-4.04.105c0-.555-.148-.98-.446-1.278a2.653 2.653 0 0 0-1.078-.656 5.055 5.055 0 0 0-1.37-.24 28.244 28.244 0 0 0-1.353-.034h-3.357c-.459.139-.84.399-1.149.778-.308.382-.462.858-.462 1.433 0 .575.154 1.025.462 1.35.308.32.69.57 1.15.743.455.173.947.28 1.473.328.526.047.995.068 1.403.068.433 0 .925-.017 1.474-.051a5.907 5.907 0 0 0 1.541-.294c.48-.162.885-.41 1.216-.744.328-.338.496-.805.496-1.403ZM40.883 20.73c0-.967-.281-1.768-.84-2.404-.56-.636-1.33-.95-2.312-.95-.981 0-1.752.318-2.311.95-.56.632-.841 1.434-.841 2.404 0 .967.278 1.765.84 2.387.56.622 1.33.933 2.312.933.981 0 1.752-.31 2.311-.933.563-.622.841-1.417.841-2.387ZM70.307 32.554V21.386c0-1.106-.188-1.964-.566-2.576-.376-.61-1.103-.917-2.174-.917-.617 0-1.143.146-1.575.433-.432.287-.794.67-1.078 1.14a5.514 5.514 0 0 0-.633 1.572 7.293 7.293 0 0 0-.205 1.694v9.819H59.83V21.386c0-1.106-.188-1.964-.566-2.576-.375-.61-1.102-.917-2.174-.917-.617 0-1.142.146-1.575.433-.432.287-.8.67-1.095 1.14a5.182 5.182 0 0 0-.65 1.572 7.293 7.293 0 0 0-.204 1.694v9.819h-4.247V14.575h3.56l.342 2.387a6.157 6.157 0 0 1 2.02-2.038c.844-.531 1.862-.795 3.048-.795 1.256 0 2.308.26 3.152.778a5.17 5.17 0 0 1 1.953 2.16 5.457 5.457 0 0 1 2.174-2.177c.924-.507 1.993-.761 3.202-.761 1.92 0 3.363.582 4.335 1.748.971 1.167 1.457 2.678 1.457 4.548V32.56h-4.254v-.007ZM94.009 23.705a3.14 3.14 0 0 0-.034.45v.76H82.058c0 .694.108 1.35.325 1.972.218.622.546 1.14.975 1.555.322.301.693.558 1.115.778.422.22.928.328 1.525.328.616 0 1.125-.064 1.524-.19.398-.125.76-.351 1.078-.672.409-.416.697-.923.858-1.522h4.11c-.047.531-.225 1.113-.533 1.748-.308.636-.633 1.157-.975 1.573-.753.899-1.654 1.545-2.706 1.937a9.33 9.33 0 0 1-3.286.588c-1.236 0-2.301-.203-3.202-.605A8.585 8.585 0 0 1 80.45 30.8a8.744 8.744 0 0 1-2.04-3.144c-.47-1.221-.704-2.57-.704-4.044 0-1.45.211-2.797.633-4.027a8.255 8.255 0 0 1 1.933-3.165 7.465 7.465 0 0 1 2.415-1.66c.948-.416 2.037-.622 3.273-.622 1.326 0 2.556.27 3.701.811 1.139.541 2.077 1.376 2.81 2.506.66.99 1.082 2.001 1.267 3.026a18.78 18.78 0 0 1 .271 3.225Zm-4.28-1.937c-.028-1.312-.393-2.364-1.1-3.145a3.111 3.111 0 0 0-1.112-.76c-.445-.183-.974-.277-1.594-.277-.66 0-1.243.128-1.749.382-.499.253-.914.588-1.232 1.004-.322.392-.55.808-.687 1.244a6.017 6.017 0 0 0-.238 1.555h7.711v-.003ZM108.225 32.554v-11.03c0-1.058-.208-1.89-.616-2.488-.412-.598-1.186-.9-2.328-.9-.754 0-1.384.214-1.886.64-.503.426-.901.974-1.199 1.643-.298.67-.469 1.447-.513 2.333-.047.89-.07 1.71-.07 2.472v7.33h-4.281V14.576h3.597l.309 2.316a4.848 4.848 0 0 1 2.244-2.092 7.058 7.058 0 0 1 2.995-.677c.961 0 1.812.163 2.552.484.74.324 1.37.767 1.886 1.332a5.82 5.82 0 0 1 1.182 2.039c.275.794.412 1.653.412 2.576v11.997h-4.284v.003ZM126.96 32.314a14.504 14.504 0 0 1-3.665.483c-1.805 0-3.152-.49-4.043-1.47-.891-.981-1.336-2.334-1.336-4.061v-9.13h-3.256v-3.56h3.256v-4.564l4.281-1.072v5.636h4.488v3.56h-4.488v8.748c0 .693.157 1.193.479 1.504.321.311.824.467 1.507.467.455 0 .884-.01 1.283-.034.398-.024.894-.068 1.49-.139v3.632h.004Z"/><path fill="#fff" fill-rule="evenodd" d="M26.788 10.59a2.53 2.53 0 0 0-2.54-2.53c-1.49 0-2.539 1.184-2.539 2.53 0 1.41 1.049 2.465 2.54 2.465 1.46 0 2.539-1.055 2.539-2.465Z" clip-rule="evenodd"/></svg>