<svg width="37" height="42" fill="none" xmlns="http://www.w3.org/2000/svg"><path fill-rule="evenodd" clip-rule="evenodd" d="M23.09 15.71a12.474 12.474 0 0 1-3.47-.47 14.116 14.116 0 0 0-3.7-.48A13.255 13.255 0 0 0 2.63 27.97c0 .97.107 1.935.32 2.88l.01.06A20.179 20.179 0 0 1 0 20.36 20.406 20.406 0 0 1 20.46 0c2.76-.007 5.492.562 8.02 1.67a6.94 6.94 0 0 0 2.63.47A7.144 7.144 0 0 0 36.16.1c.145.792.218 1.595.22 2.4a13.247 13.247 0 0 1-13.29 13.21Zm-11.84 1.28-.01.05a6.45 6.45 0 0 0-.11 1.17 6.325 6.325 0 0 0 6.34 6.31 6.791 6.791 0 0 0 1.02-.08c.326-.05.647-.128.96-.23-.01.06-.02.11-.03.16 0 .03-.01.05-.01.08s-.01.05-.02.07c-.01.04-.01.08-.02.11a.038.038 0 0 0-.01.03 5.082 5.082 0 0 1-3.44 3.67 10.093 10.093 0 0 0-7.42 9.76 10.7 10.7 0 0 0 .71 3.81l.06.1a15.667 15.667 0 0 1 1.98-25.01Zm-.79 6.42a1.308 1.308 0 0 0 1.31 1.31c.12.02.24.02.36 0a3.518 3.518 0 0 0-1.67-1.67v.36Z" fill="#1a4fc9"/></svg>