<svg xmlns="http://www.w3.org/2000/svg" fill="none" viewBox="7.5 7.5 42 42"><path fill="#02E2AC" fill-rule="evenodd" d="M37.258 23.8a10.77 10.77 0 0 1 2.001 6.311c0 2.21-.71 4.42-2.001 6.218l2.73 2.078a14.16 14.16 0 0 0 2.694-8.277 14.191 14.191 0 0 0-2.899-8.671l-1.566 1.412-.959.929Z" clip-rule="evenodd"/><path fill="#0E0333" fill-rule="evenodd" d="m42.42 40.249-9.184-6.986a5.415 5.415 0 0 0 1.085-2.996 5.388 5.388 0 0 0-.823-3.072l4.396-3.97 4.601-4.307c.3-.281.318-.768.02-1.068l-.637-.636a18.153 18.153 0 0 0-12.326-5.394l.018-2.528c.02-.169 0-.337-.037-.506a1.31 1.31 0 0 0-.243-.45 1.116 1.116 0 0 0-.412-.299 1.09 1.09 0 0 0-.486-.112 1.09 1.09 0 0 0-.486.112c-.15.075-.3.169-.412.3a1.11 1.11 0 0 0-.243.43.936.936 0 0 0-.037.506l-.02 2.603a17.737 17.737 0 0 0-3.272.637l.018-3.24c.019-.169 0-.337-.037-.506a1.307 1.307 0 0 0-.243-.45 1.115 1.115 0 0 0-.412-.299 1.09 1.09 0 0 0-.486-.112 1.09 1.09 0 0 0-.486.112c-.15.075-.3.169-.412.3a1.11 1.11 0 0 0-.243.43.936.936 0 0 0-.038.506l-.056 4.14a18.2 18.2 0 0 0-8.772 8.314 18.341 18.341 0 0 0-1.665 11.986 18.297 18.297 0 0 0 6.191 10.394 18.18 18.18 0 0 0 11.317 4.232l13.374.056a.75.75 0 0 0 .748-.749v-6.76a.79.79 0 0 0-.3-.618Zm-13.56 4.813a15.048 15.048 0 0 1-9.091-3.128 15.07 15.07 0 0 1-5.312-8.034 15.11 15.11 0 0 1 .655-9.607 15.046 15.046 0 0 1 6.36-7.23l-.02 4.926c-.018.169 0 .337.038.506.056.168.13.318.243.45.112.13.243.224.412.299.15.075.317.112.486.112.168 0 .337-.037.486-.112.15-.075.3-.169.412-.3a1.11 1.11 0 0 0 .243-.43.936.936 0 0 0 .037-.506l.019-6.05c1.646-.598 3.386-.88 5.144-.88 3.236 0 6.378 1.068 8.94 3.016.188.15.206.412.038.58l-6.996 6.424a5.334 5.334 0 0 0-2.02-.412c-.767 0-1.533.15-2.244.468a5.294 5.294 0 0 0-1.833 1.367 5.543 5.543 0 0 0-1.104 2.004 5.252 5.252 0 0 0-.168 2.285c.112.768.374 1.498.785 2.154a5.563 5.563 0 0 0 1.609 1.629 5.557 5.557 0 0 0 2.151.805 5.214 5.214 0 0 0 2.282-.168l8.941 6.798c.093.075.15.187.15.3l-.02 2.397a.375.375 0 0 1-.373.374l-10.25-.037Zm2.188-14.982c0 .412-.13.824-.355 1.18a2.17 2.17 0 0 1-.954.786 1.952 1.952 0 0 1-1.216.112 2.278 2.278 0 0 1-1.085-.58 2.06 2.06 0 0 1-.58-1.087 2.079 2.079 0 0 1 .131-1.217c.168-.393.43-.712.786-.955a2.227 2.227 0 0 1 1.178-.356c.561 0 1.104.225 1.497.637.374.375.598.899.598 1.48Z" clip-rule="evenodd"/></svg>