<svg xmlns="http://www.w3.org/2000/svg" viewBox="74 74 932 932"><path fill="#073A53" d="M943 772.369V307.631L539.466 75.262 136 307.631v464.738l403.466 232.371 403.5-232.371H943Z"/><path fill="#F7DF1E" fill-rule="evenodd" d="m942.966 772.369-403.5 232.371L136 772.369V307.631L539.466 75.262 943 307.631v464.738h-.034ZM936 768.303V311.678L539.467 83.34 143 311.677v456.646L539.467 996.66 936 768.303Z" clip-rule="evenodd"/><path fill="#F7DF1E" d="m386.599 823.784-32.73 41.344 14.332-41.344s18.381.483 18.381 0h.035-.018Zm-60.327-89.578c-10.095 5.082-19.174 17.399-21.516 28.389-2.343 10.991-6.012 32.386-21.516 37.503 0 0 9.354 4.462 20.568-3.187 11.215-7.631 20.086-23.721 18.054-37.192-2.791-18.347 5.064-25.806 4.41-25.479v-.034Zm279.777-76.004s5.599 8.837 28.665 8.631c23.05-.241 27.976-9.492 17.658-21.344-10.354-11.852-22.826-15.487-38.967-11.197-16.159 4.323-31.869 16.589-22.377 35.09 9.492 18.502 49.974 74.729 66.977 90.664 0 0 15.107-23.911 17.726-42.929 2.98-21.206 4.238-45.771-8.269-41.895-12.472 3.842-49.974 14.522-61.413-17.037v.034-.017Zm113.058-37.692s10.509 24.996 17.606 36.538c7.097 11.576 11.197 14.987 31.818 22.257 20.62 7.252 100.913 35.659 110.75 37.692 0 0-80.569-58.14-88.321-64.014-7.77-5.909-19.949-6.426-29.751-5.668-15.331 1.12-29.302-7.028-42.136-26.77h.034v-.035Zm30.715 91.336s-5.099 17.554 3.756 34.935c8.889 17.382 18.725 19.622 28.527 20.965 9.802 1.344 26.236 6.305 30.767 19.863 0 0 5.478-17.589-9.802-29.803-15.28-12.179-35.349-12.075-43.704-22.411-9.699-12.007-8.682-17.709-9.526-23.584v.035h-.018Zm-53.678 53.368 43.601 93.024-37.864-42.309s.207-27.993-8.648-39.552l2.877-11.163h.034Zm-44.255 82.688-5.133 37.898-12.093-20.224 17.226-17.674Z"/><path fill="#F7DF1E" d="M857.954 600.958c-21.55-1.533-22.877-24.634-45.392-29.578-22.515-4.944-44.066 3.342-67.735-4.014l-4.152-6.443 4.031-9.164 173.128-26.925-173.162-26.943c-.31-.723-.396-.93-.689-1.671 5.667-7.993 15.177-17.915 26.684-16.227 18.846 2.756 34.384 9.612 46.495-.172 12.11-9.785 13.161-27.236 35.452-21.551 24.324 6.184 39.173 3.377 46.77-17.743 0 0-18.398 8.682-35.487.361-17.088-8.32-29.044-13.901-44.737-5.391-15.694 8.509-23.928 6.89-30.457 4.72-6.477-2.154-26.167-10.061-56.968 4.013l135.28-108.941-162.739 62.981c.086-9.837 2.222-23.98 12.954-29.182 17.14-8.321 33.833-11.387 38.346-26.288 4.514-14.901-4.427-29.905 17.193-37.761 23.6-8.561 34.298-19.242 28.699-40.982 0 0-10.319 17.52-29.13 20.259-18.812 2.739-31.835 4.84-40.018 20.706-8.182 15.866-15.917 19.156-22.515 21.034-6.511 1.843-26.908 6.322-44.358 34.574l-.552-.276 63.394-163.808L618.16 333.325c-.138-.103-.086-.068-.224-.172 15.797-29.216 9.509-49.13 7.855-55.711-1.671-6.666-2.67-15.004 6.994-30.008 9.664-15.005 4.996-27.339-1.998-45.014-6.994-17.674 3.032-35.366 3.032-35.366-21.637 5.978-25.547 20.586-21.224 45.306 3.98 22.67-13.488 22.395-24.168 33.73-10.664 11.335-4.996 27.339-3.67 46.34.844 12.041-10.629 21.016-19.156 25.96l-26.856-172.662-26.994 173.541c-.569-.035-.345-.018-.913-.069-1.051-33.127-16.486-47.167-21.206-52.007-4.789-4.927-9.854-11.628-9.027-29.458s-9.423-26.15-24.358-37.899c-14.936-11.748-15.142-32.093-15.142-32.093-15.694 16.055-11.749 30.646 4.427 49.837 14.832 17.588-.414 26.15-3.928 41.309-3.531 15.16 9.423 26.15 20.121 41.913 6.632 9.767 1.602 22.911-3.187 31.49l-109.32-135.763 63.394 163.808-.552.275c-17.45-28.251-37.846-32.713-44.358-34.573-6.615-1.878-14.333-5.168-22.515-21.034-8.183-15.866-21.206-17.967-40.018-20.706-18.811-2.739-29.13-20.259-29.13-20.259-5.599 21.74 5.099 32.421 28.7 40.982 21.619 7.855 12.678 22.86 17.192 37.761 4.513 14.901 21.206 17.967 38.346 26.288 10.732 5.202 12.869 19.345 12.955 29.182l-162.74-62.981 135.28 108.941c-30.801-14.074-50.491-6.167-56.968-4.014-6.529 2.171-14.763 3.79-30.457-4.72-15.693-8.51-27.631-2.928-44.737 5.392-17.089 8.321-35.487-.362-35.487-.362 7.597 21.12 22.446 23.928 46.77 17.744 22.292-5.668 23.342 11.766 35.453 21.55 12.11 9.785 27.631 2.929 46.494.173 11.508-1.689 21.017 8.234 26.684 16.227-.31.724-.396.93-.689 1.671l-173.162 26.943 173.128 26.925-13.024 8.01a25.716 25.716 0 0 0-10.732 13.23l-2.343 6.563c-2.515 7.046-7.751 12.834-14.59 15.832-9.458 4.134-18.795 4.082-29.837 1.946-18.019-3.514-32.782 2.016-44.806 10.13-8.424 5.684-15.401 21.636-21.861 27.355-6.46 5.72-21.723 1.12-21.723 1.12 9.957 15.676 38.829 16.555 45.858 7.976 12.713-15.538 32.678-18.742 49.543-13.333 15.47 4.978 35.125-3.48 46.133-13.627 10.439-9.578 9.595-21.774 24.272-30.422 12.817-7.562 28.872-7.39 28.872-7.39-.551 7.425-3.566 20.758-13.023 30.526-11.352 11.714-145.117 122.67-145.117 122.67l146.064-69.957c1.913 44.841 10.784 94.006 18.898 113.472 3.497 8.355 8.303 16.176 14.143 24.083 16.417 22.222 37.468 40.551 61.206 54.66l.172-.104c25.22 15.022 59.673 32.886 83.033 34.729 16.52-3.376 19.07-13.282 19.07-28.183s-6.702-19.19-13.696-19.586c-7.011-.414-11.696-4.979-16.106-11.284-4.428-6.305 8.062-6.942 25.254-7.218 17.209-.31 20.672-8.579 24.582-18.673 3.876-10.078-11.387-11.043-42.153-7.391-26.013 3.067-34.212-1.154-36.314-4.702 14.487-13.196 31.49-25.151 40.362-22.86 14.901 3.945 17.778-4.496 14.143-7.046-3.239-2.257-18.639-17.45-25.323-22.084-.706-.517-7.856-5.117-7.58-5.926 4.617-13.196 12.851-8.39 27.098-5.375 14.246 2.997 27.131-13.454 24.237-19.018-4.289-8.252-7.579-3.618-15.469-19.449-8.131-33.454-.241-88.872 34.643-99.019 30.491-8.889 63.79.913 71.645 3.549.775.276 1.533-.413 1.395-1.189l-8.699-48.665-6.701-30.663c.207-.913 1.051-1.568 1.998-1.43 36.073 4.944 60.242 49.819 72.076 66.684 11.835 16.865 34.247 34.936 52.731 39.966 18.501 5.082 26.012-3.204 38.519-2.86 12.506.345 19.311 12.128 39.466 12.231 20.121.104 27.511-9.371 39.466-9.543 8.975-.138 17.812 4.772 17.812 4.772-4.358-11.663-26.925-21.74-48.493-23.274l.052-.017Zm-456.712 85.685c4.014 11.025-14.263 17.899-21.878 9.079-6.821-7.959-5.013-35.987 33.041-31.714h.034s-16.365 8.458-11.197 22.635Zm64.049-2.98c-37.485 4.634-47.218-19.966-47.218-19.966v-.034c24.961 8.699 44.117 11.301 46.684-6.667 2.566-17.967-18.295-27.648-35.504-30.542-16.521-2.757-37.486-8.889-37.486-17.382 0-8.493 11.594-21.292 54.402-21.292s54.074 24.22 56.796 35.521c2.739 11.335-.206 55.728-37.692 60.362h.018Z"/></svg>