<svg xmlns="http://www.w3.org/2000/svg" fill="none" viewBox="0 0 72 72"><path fill="#fff" d="M51.17 55.034a.75.75 0 0 0 1.072.11 25.63 25.63 0 0 0 6.078-31.4 25.603 25.603 0 0 0-7.01-8.364.75.75 0 0 0-1.067.161.788.788 0 0 0 .163 1.084 24.064 24.064 0 0 1 9.298 18.448 24.093 24.093 0 0 1-8.423 18.872.788.788 0 0 0-.112 1.089ZM48.273 14.248a.751.751 0 0 0-.276-1.043 25.594 25.594 0 0 0-20.533-1.831 25.62 25.62 0 0 0-15.235 13.898.75.75 0 0 0 .41.998.788.788 0 0 0 1.013-.417A24.092 24.092 0 0 1 27.955 12.83a24.068 24.068 0 0 1 19.26 1.7.788.788 0 0 0 1.058-.282ZM11.63 29.279a.75.75 0 0 0-.928.548 25.628 25.628 0 0 0-.666 5.29.75.75 0 0 0 .764.762.788.788 0 0 0 .773-.776c.038-1.644.244-3.28.615-4.882a.788.788 0 0 0-.557-.942ZM11.019 38.962a.75.75 0 0 0-.648.862A25.613 25.613 0 0 0 20.617 56.4a25.594 25.594 0 0 0 18.944 4.56.75.75 0 0 0 .616-.884.788.788 0 0 0-.898-.627 24.061 24.061 0 0 1-27.384-19.83.788.788 0 0 0-.876-.657ZM42.642 59.485a.75.75 0 0 0 .95.51 25.614 25.614 0 0 0 5.035-2.275.75.75 0 0 0 .247-1.05.788.788 0 0 0-1.066-.251 24.08 24.08 0 0 1-4.65 2.1.788.788 0 0 0-.516.966Z"/><path fill="#fff" d="M53.819 48.112c-6.922 9.98-20.623 12.46-30.603 5.538-9.98-6.92-12.46-20.622-5.539-30.602 6.922-9.98 20.623-12.46 30.603-5.539 9.98 6.921 12.46 20.623 5.539 30.603ZM20.348 24.9c-5.898 8.505-3.785 20.181 4.72 26.08 8.505 5.898 20.182 3.785 26.08-4.72 5.898-8.505 3.785-20.182-4.72-26.08-8.505-5.899-20.182-3.785-26.08 4.72Z"/></svg>