<svg xmlns="http://www.w3.org/2000/svg" xmlns:xlink="http://www.w3.org/1999/xlink" viewBox="0 -22 81.551 80"><defs><path id="a" d="M8.286 1.408c-1.44.667-2.795 1.6-4.009 2.815l-.066.066a14.533 14.533 0 0 0-4.032 7.975C.062 13.004.002 13.752 0 14.5v.087c.002.719.057 1.438.164 2.15a14.533 14.533 0 0 0 2.54 6.279c.449.629.954 1.231 1.513 1.797l.06.06a14.012 14.012 0 0 0 4.013 2.821c5.307 2.467 11.767 1.323 16.599-2.788.012-.012.025-.022.038-.033 5.455-4.668 10.461-8.896 15.849-8.896 5.387 0 10.393 4.228 15.848 8.896a17.527 17.527 0 0 0 4.826 2.944c2.237.903 4.6 1.294 6.909 1.132 3.247-.227 6.386-1.547 8.916-4.076l.058-.06a14.519 14.519 0 0 0 4.054-8.076 14.68 14.68 0 0 0-.014-4.473 14.54 14.54 0 0 0-4.032-7.975c-.023-.022-.044-.045-.067-.066-2.529-2.53-5.668-3.84-8.915-4.059-2.312-.157-4.678.238-6.916 1.139a17.698 17.698 0 0 0-4.819 2.92c-5.476 4.639-10.434 8.896-15.848 8.896-5.414 0-10.372-4.257-15.849-8.896a.645.645 0 0 0-.029-.025C21.761 1.552 17.935.13 14.185.13c-2.029 0-4.035.416-5.899 1.278"/><path id="b" d="M.844.773h146.478V36H.844z"/><path id="c" d="m4.277 4.223-.066.066A14.595 14.595 0 0 0 0 14.501v.086c.002.719.057 1.438.164 2.15a14.533 14.533 0 0 0 4.053 8.077l.06.059a14.035 14.035 0 0 0 4.013 2.822c5.307 2.466 11.767 1.322 16.599-2.789l.038-.033c5.455-4.668 10.461-8.896 15.849-8.896 5.387 0 10.393 4.228 15.848 8.896a17.527 17.527 0 0 0 4.826 2.944c2.237.903 4.6 1.294 6.909 1.132 3.247-.227 6.386-1.547 8.916-4.076a14.694 14.694 0 0 0 1.573-1.857 14.519 14.519 0 0 0 2.539-6.279 14.68 14.68 0 0 0-.014-4.473 14.54 14.54 0 0 0-4.032-7.975c-.023-.022-.044-.045-.067-.066A13.776 13.776 0 0 0 68.359.164c-2.312-.157-4.678.239-6.916 1.139a17.723 17.723 0 0 0-4.819 2.92C51.148 8.862 46.19 13.12 40.776 13.12c-5.414 0-10.372-4.258-15.849-8.897a.645.645 0 0 0-.029-.025C21.761 1.552 17.935.13 14.185.13c-2.029 0-4.035.416-5.899 1.278-1.44.667-2.795 1.6-4.009 2.815Z"/><radialGradient id="d" cx="-6.67%" cy="50%" r="323.615%" fx="-6.67%" fy="50%" gradientTransform="matrix(.35383 0 0 .54302 -.043 .228)"><stop offset="0%" stop-color="#1CE5C3"/><stop offset="10.253%" stop-color="#1CE5C3"/><stop offset="47.473%" stop-color="#5440D7"/><stop offset="63.081%" stop-color="#8B2CE4"/><stop offset="79.571%" stop-color="#D421EB"/><stop offset="100%" stop-color="#AC39FD"/></radialGradient></defs><g fill="none" fill-rule="evenodd"><use xlink:href="#c" fill="url(#d)" transform="translate(0 1)"/></g></svg>