<svg xmlns="http://www.w3.org/2000/svg" viewBox="0 0 260 260"><g fill="#2F332C"><path d="m36.709 16.852 17.365 24.077a4.087 4.087 0 0 0 5.137 1.34c4.445-2.178 13.703-5.863 27.36-7.415a4.132 4.132 0 0 0 2.658-6.868c-4.522-5.104-12.82-11.927-26.467-15.166-10.81-2.613-18.292-2.836-23.083-2.479-3.194.224-4.835 3.942-2.97 6.51Zm200.512 91.573c.346 10.196-8.733 12.843-21.151 11.737h-.346c-.76-.122-1.463-.223-2.267-.256-.268 0-.447 0-.67-.09-19.097-2.177-40.762-2.177-61.377 3.138-42.727 11.045-76.9 37.143-91.037 49.249a9.236 9.236 0 0 1-13.167-1.195l-22.335-27.472a9.224 9.224 0 0 1 1.854-13.435c16.36-11.368 55.38-36.227 95.136-44.502a95.46 95.46 0 0 1 17.5-1.865 11.436 11.436 0 0 0 13.735 6.12 11.525 11.525 0 0 0 7.237-14.63 11.525 11.525 0 0 0-14.406-7.627 11.033 11.033 0 0 0-6.779 6.254 107.69 107.69 0 0 0-9.972-.179c-28.723.894-62.672 19.677-76.643 28.187a8.186 8.186 0 0 1-11.078-2.39L27.35 78.988a8.163 8.163 0 0 1 3.015-11.916c12.229-6.388 37.892-17.734 73.293-23.184 29.795-4.522 67.954 9.314 86.213 17.064 0 0 .179.09.536.224 4.824 1.775 41.655 16.137 46.312 42.86.312 1.452.446 2.926.49 4.434z"/><path d="M39.98 216.616a9.291 9.291 0 0 1 1.196-12.954c15.333-12.843 52.71-43.207 78.54-55.927A231.837 231.837 0 0 1 153.8 134.49c3.506-1.072 7.27.045 9.66 2.837l15.78 18.393a9.224 9.224 0 0 1-3.362 14.484c-11.57 4.97-30.632 15.478-54.386 37.054a5712.489 5712.489 0 0 0-43.754 40.069 9.224 9.224 0 0 1-13.423-.927l-24.379-29.74Z"/></g></svg>