<svg xmlns="http://www.w3.org/2000/svg" viewBox="0 0 36 41"><path fill="#f56284" d="m35.15 15.294-7.328 4.233c-.361.214-.79.214-1.165 0l-8.024-4.635V5.756l16.49 9.524s.013.014.04.027l-.013-.013Zm.696 1.218v8.453c0 .415-.227.804-.59 1.018l-7.394 4.26.04-.214c.014-.08.014-.148.014-.228v-8.05c0-.095 0-.202-.027-.296 0-.066-.013-.12-.027-.2-.013-.08-.026-.161-.053-.255.241-.054.469-.134.696-.268l7.328-4.233.013.013Zm-9.308 5.224v8.051c0 .121-.08.201-.12.215a.224.224 0 0 1-.229 0l-7.568-4.354v-9.163l7.327 4.247c.188.094.322.254.429.428.094.161.147.362.147.576h.014ZM16.53 4.537 8.611 9.118 1.057 4.751a2.098 2.098 0 0 0-.402-.16L8.05.276l.442-.255a.351.351 0 0 1 .2-.013l7.837 4.528Zm.696 1.219v29.953c0 .428-.228.803-.59 1.018L9.23 41a1.7 1.7 0 0 0 .067-.456V10.31l7.917-4.568.013.014ZM7.917 10.31v30.234c0 .12-.08.201-.12.215-.04.026-.121.053-.228 0l-6.98-4.033A1.193 1.193 0 0 1 0 35.708V6.158c0-.108.067-.188.107-.202.027-.027.067-.04.12-.04.04 0 .081.013.121.04l7.556 4.354h.013Z"/></svg>