<svg xmlns="http://www.w3.org/2000/svg" fill="none" viewBox="75 74 3457 1052"><path fill="#000" fill-rule="evenodd" d="M3215.5 1125.01h-627c-73.5 0-106.5-33-106.5-106.5V180.5C2482 107 2515 74 2588.5 74h627c73.5 0 106.5 33 106.5 106.5s28.5 102 102 102S3532 317 3532 389v421.011c0 72.001-34.5 106.501-108 106.501s-102 28.5-102 101.998c0 73.5-33 106.5-106.5 106.5ZM2695 401.51v408.501c0 73.5 28.5 102.001 102 102.001h418.5c75 0 102-28.501 102-102.001V389c0-73.5-27-102-102-102H2797c-73.5 0-102 28.5-102 102v12.51ZM1125 1018.5c0 73.5-34.5 106.5-108 106.5-72 0-106.5-33-106.5-106.5V600c0-73.5-27-102-102-102s-102 28.5-102 102S672 708 600 708c-73.5 0-108-34.5-108-108s-27-102-102-102c-73.5 0-102 28.5-102 102v418.5c0 73.5-33 106.5-106.5 106.5S75 1092 75 1018.5V183c0-73.5 33-108 106.5-108S288 109.5 288 183s28.5 102 102 102 108 33 108 106.5c0 75 27 102 102 102 73.5 0 102-27 102-102C702 318 735 285 808.5 285c75 0 102-28.5 102-102S945 75 1017 75c73.5 0 108 34.5 108 108v835.5Zm677.64-525c72 0 106.5 33 106.5 106.5s-34.5 106.5-106.5 106.5c-73.5 0-108-33-108-106.5s34.5-106.5 108-106.5Zm417-210c73.5 0 108 34.5 108 108v417c0 73.5-34.5 108-108 108s-102 27-102 102c0 72-33 106.5-106.5 106.5h-418.5c-72 0-106.5-34.5-106.5-106.5 0-75-28.5-102-102-102s-106.5-34.5-106.5-108v-417c0-73.5 33-108 106.5-108s102-27 102-102c0-73.5 34.5-106.5 106.5-106.5h418.5c73.5 0 106.5 33 106.5 106.5 0 75 28.5 102 102 102Zm-106.5 525v-417c0-75-27-103.5-102-103.5h-418.5c-73.5 0-102 28.5-102 103.5v417c0 75 28.5 102 102 102h418.5c75 0 102-27 102-102Z"/></svg>