<svg xmlns="http://www.w3.org/2000/svg" fill="none" viewBox="0 -6 53 52"><path fill="#fff" d="M.001 15.313C.205 6.82 7.063 0 15.484 0c8.433 0 15.278 6.823 15.482 15.313.067 2.773-2.096 5.075-4.831 5.142-2.735.068-5.006-2.125-5.072-4.897-.074-3.059-2.54-5.515-5.58-5.515-3.012 0-5.475 2.43-5.576 5.46.016 4.062 1.536 8.058 3.263 11.235a34.94 34.94 0 0 0 2.327 3.706 26.298 26.298 0 0 0 .917 1.199l.034.04-.002-.002-.003-.002.006.006c1.79 2.088 1.577 5.253-.48 7.075a4.907 4.907 0 0 1-6.989-.477l3.73-3.304a793.48 793.48 0 0 1-3.732 3.302l-.007-.008-.011-.014-.032-.038a15.923 15.923 0 0 1-.407-.498 36.214 36.214 0 0 1-1.022-1.352 44.983 44.983 0 0 1-3.006-4.786C2.351 27.644 0 21.895 0 15.435v-.06l.001-.062Zm16.442 16.364v.001Z" clip-rule="evenodd"/><path fill="#fff" fill-rule="evenodd" d="M31.359 15.454v.665a4.957 4.957 0 0 1-4.954 4.96 4.957 4.957 0 0 1-4.953-4.96v-.795l.002-.06C21.658 6.874 28.516.137 36.936.137c8.42 0 15.278 6.737 15.482 15.127l.002.06v.06c0 5.265-1.642 9.986-3.154 13.253a39.12 39.12 0 0 1-2.124 3.978 30.667 30.667 0 0 1-.956 1.464l-.07.1-.025.034-.01.013-.005.008c-.001.001-.002.002-3.833-2.807l3.831 2.81a4.949 4.949 0 0 1-6.923 1.071 4.964 4.964 0 0 1-1.062-6.945 20.634 20.634 0 0 0 .608-.937 29.207 29.207 0 0 0 1.58-2.96c1.176-2.539 2.222-5.752 2.236-9.016a5.588 5.588 0 0 0-5.577-5.393 5.588 5.588 0 0 0-5.577 5.397Z" clip-rule="evenodd"/><path fill="#B7E803" d="M41.936 36.774a5.161 5.161 0 1 0 0-10.322 5.161 5.161 0 0 0 0 10.322Z"/></svg>