<svg xmlns="http://www.w3.org/2000/svg" viewBox="-5 -5 45.08 45.08"><path fill="#E8DDFF" d="M5.846 26.309H2.923v2.923H0v5.846h8.77v-5.846H5.846zm26.309 0v2.923h-2.923v-2.923h-2.923v8.77h8.77v-8.77z"/><path fill="#8E55FF" d="M14.616 5.845v2.923h-2.923v2.923H8.77V8.769H5.846v2.923H0v-8.77h2.923v2.924H8.77V2.922h2.923v2.923zm17.538 0V2.922H29.23v2.923h-2.924V2.922h-2.923v2.923H20.46v2.923h2.923v2.923h2.923V8.769h5.847v2.923h2.923V5.845z"/><path fill="#8E55FF" d="M20.464 8.77h-5.847v2.923h5.847z"/><path fill="#6A2DE0" d="M8.77 0v5.846H2.923V2.923H0V0zm17.539 0v5.846h2.923V2.923h2.923v2.923h2.923V0z"/><path fill="#A577FF" d="M35.079 11.693v5.846h-2.923v-2.923h-2.924v2.923H26.31v-2.923h-2.923v2.923H17.54v-2.923h-2.923v2.923h-2.923v-2.923H8.77v2.923H2.923v-2.923H0v-2.923h5.846V8.77H8.77v2.923h2.923V8.77h2.923v2.923h5.847V8.77h2.923v2.923h2.923V8.77h5.847v2.923z"/><path fill="#B9F" d="M11.693 14.617H8.77v2.923h2.923zm5.849 2.923v-2.923h-2.924v2.923h-2.923v2.924h2.923v2.923h5.847v-2.923h2.923V17.54zm14.613 0v-2.923h-2.923v2.923h-2.923v5.847h2.923v-2.923h2.923v2.923h2.923V17.54z"/><path fill="#B9F" d="M26.306 14.617h-2.923v2.923h2.923zM2.923 17.54v-2.923H0v8.77h5.846v-2.923H8.77V17.54z"/><path fill="#D2BBFF" d="M32.155 23.384v-2.923h-2.923v2.923h-2.923v2.923h2.923v2.924h2.923v-2.924h2.923v-2.923zm-26.309 0H0v5.847h2.923v-2.924h2.923v2.924H8.77v-8.77H5.846z"/></svg>