<svg width="12" height="10" fill="none" xmlns="http://www.w3.org/2000/svg"><path d="M4.794 4.63c.06.111.143.443-.06.847-.103.207-.17.349-.213.44-.046.096-.104.058-.133 0L2.824 3.054c-.052-.099-.2-.296-.374-.296-.217 0-.335.177-.394.276-.044.072-.577 1.024-.903 1.607l-.012.02a.677.677 0 0 0 .012.63c.258.451 1.176 2.03 1.651 2.845.073.118.182.422.04.69l-.255.474c-.067.122-.221.097-.28 0L.074 5.263a.65.65 0 0 1 0-.603L2.16.812c.066-.15.344-.36.53-.019L4.794 4.63Z" fill="#000"/><path d="m2.686 4.117 1.3 2.442c.244.457.666.572.847.572h3.172c.205 0 .19.131.158.197-.112.216-.351.677-.414.788a.287.287 0 0 1-.236.138H3.848a.364.364 0 0 1-.295-.158c-.519-.893-1.58-2.722-1.674-2.896-.095-.173-.066-.308-.04-.354.079-.158.236-.433.394-.71.15-.262.394-.117.453-.019Zm4.688-3.053c.142 0 .217-.053.237-.079.1-.166.297-.5.404-.695.044-.097.083-.29-.118-.29H3.605c-.464 0-.413.326-.329.489L5.424 4.52a.282.282 0 0 0 .237.148h.67c.074 0 .216-.038.148-.171a745.38 745.38 0 0 1-1.271-2.489c-.158-.315-.217-.433-.158-.65.07-.256.302-.289.433-.295h1.891v.001Z" fill="#000"/><path d="M7.209 4.521 5.992 2.165a.31.31 0 0 1 .275-.451h1.121a.31.31 0 0 1 .271.16L8.954 4.23a.31.31 0 0 1-.27.459h-1.2a.31.31 0 0 1-.275-.168Z" fill="#000"/><path d="M7.768 8.904c.205 0 .375-.184.434-.276l1.653-3.174a.982.982 0 0 0 .023-.868l-.023-.042L8.188 1.55a.309.309 0 0 1 .002-.304c.12-.208.276-.479.376-.647.046-.078.205-.186.307 0l2.253 4.118c.052.095.124.336 0 .548-.84 1.487-1.677 2.975-2.51 4.466-.048.094-.191.118-.257.118H3.353c-.096 0-.311-.074-.216-.24.096-.167.207-.359.278-.47.096-.15.199-.213.254-.23a.136.136 0 0 1 .043-.006h4.056v.001Z" fill="#000"/><path d="M5.78 5.318h3.112c.127 0 .23.095.139.25-.174.295-.423.73-.474.814a.235.235 0 0 1-.197.118H5.247c-.236 0-.203-.184-.157-.275l.335-.73c.047-.11.118-.177.216-.177h.139Z" fill="#000"/></svg>