<svg xmlns="http://www.w3.org/2000/svg" width="62" height="31"><circle cx="15" cy="15" r="14.576" fill="#fff" stroke="#855DCD" stroke-width=".847" transform="matrix(-1 0 0 1 45.893 0)"/><path fill="#fff" fill-rule="evenodd" d="M15.9 15.429c4.114 1.665 8.616 3.177 13.385 4.455 4.988 1.336 9.85 2.305 14.423 2.917C41.074 27.118 36.32 30 30.893 30c-8.14 0-14.767-6.485-14.994-14.571Z" clip-rule="evenodd"/><path fill="url(#svg1105880556_9003_a)" fill-rule="evenodd" d="M15.9 15.429c4.114 1.665 8.616 3.177 13.385 4.455 4.988 1.336 9.85 2.305 14.423 2.917C41.074 27.118 36.32 30 30.893 30c-8.14 0-14.767-6.485-14.994-14.571Z" clip-rule="evenodd"/><path fill="#855DCD" d="m15.9 15.429.317-.786-1.201-.486.036 1.296.847-.024Zm13.385 4.455-.22.818.22-.818ZM43.708 22.8l.723.442.676-1.11-1.287-.172-.112.84ZM15.58 16.214c4.148 1.679 8.683 3.202 13.485 4.488l.438-1.637c-4.737-1.269-9.206-2.77-13.287-4.422l-.635 1.571Zm13.485 4.488c5.021 1.346 9.92 2.321 14.53 2.939l.224-1.68c-4.535-.607-9.362-1.568-14.316-2.895l-.439 1.636Zm1.827 10.145c5.735 0 10.757-3.046 13.538-7.605l-1.447-.882c-2.486 4.075-6.971 6.793-12.09 6.793v1.694Zm-15.84-15.394c.24 8.543 7.24 15.394 15.84 15.394v-1.694c-7.68 0-13.933-6.12-14.147-13.748l-1.694.048Z" mask="url(#svg1105880556_9003_b)"/><path fill="#fff" fill-rule="evenodd" d="M18.843 6.068c-2.874-.422-5.507-.673-7.804-.754-2.794-.097-4.988.063-6.484.426-.75.182-1.229.392-1.505.575a.986.986 0 0 0-.208.17c.008.042.03.123.095.251.148.297.458.718 1.016 1.25 1.115 1.063 2.934 2.299 5.403 3.611 4.91 2.611 12.025 5.336 20.172 7.52 8.147 2.182 15.671 3.38 21.23 3.574 2.793.097 4.987-.063 6.484-.426.75-.182 1.228-.392 1.505-.575a.99.99 0 0 0 .207-.17.986.986 0 0 0-.094-.25c-.148-.297-.458-.72-1.016-1.251-1.115-1.063-2.935-2.298-5.403-3.611-1.904-1.012-4.14-2.042-6.638-3.05a15.109 15.109 0 0 0-.393-2.134c9.754 3.802 16.063 8.031 15.328 10.774-1.02 3.805-15.206 3.31-31.686-1.106S.04 9.812 1.058 6.007c.748-2.79 8.576-3.268 19.198-1.583-.51.512-.982 1.061-1.413 1.644Zm-16.004.38v.01-.01ZM58.975 21.49l-.004.008.005-.008Zm-.017.058v.009-.01ZM2.825 6.507l-.004.008.004-.008Z" clip-rule="evenodd"/><path fill="#855DCD" d="m11.04 5.314-.036 1 .035-1Zm7.803.754.803.595a1 1 0 0 1-.948.394l.145-.99ZM4.555 5.74l.235.972-.235-.972Zm-1.505.575.55.834-.55-.834Zm-.208.17-.984.179a1 1 0 0 1 .221-.826l.763.647Zm.095.251.894-.447-.894.447Zm1.016 1.25-.69.724.69-.724Zm5.403 3.611-.47.883.47-.883Zm20.172 7.52.259-.967-.259.966Zm21.23 3.574-.036 1 .035-1Zm6.484-.426.235.972-.235-.972Zm1.505-.575-.551-.834.55.834Zm.207-.17.984-.179a1 1 0 0 1-.221.826l-.763-.647Zm-.094-.25-.895.446.895-.447Zm-1.016-1.251.69-.724-.69.724Zm-5.403-3.611.47-.883-.47.883Zm-6.638-3.05-.374.927a1 1 0 0 1-.62-.818l.994-.11Zm-.099-.732-.987.158.987-.158Zm-.294-1.402-.967.252a1 1 0 0 1 1.33-1.183l-.363.931Zm15.328 10.774.966.26-.966-.26Zm-31.686-1.106-.259.966.26-.966ZM1.058 6.007l.966.259-.966-.26Zm19.198-1.583.157-.987a1 1 0 0 1 .552 1.692l-.71-.705ZM2.839 6.448l-.346.939.346-.939Zm0 .01.994.109a1 1 0 0 1-1.993-.052l.999-.057ZM58.975 21.49l.173-.985.007.001-.18.984Zm-.004.008.836.549a1 1 0 0 1-1.752-.95l.916.401Zm-.013.05-.994-.11a1 1 0 0 1 1.992.053l-.998.057Zm0 .009.331-.943-.331.943ZM2.825 6.507l-.836-.549a1 1 0 0 1 1.752.95l-.916-.401Zm-.004.008-.186.983h-.003l.189-.983Zm8.253-2.2c2.341.082 5.011.338 7.914.763l-.29 1.98c-2.846-.418-5.44-.665-7.694-.744l.07-1.999Zm-6.755.453c1.624-.393 3.921-.552 6.755-.453l-.07 1.999c-2.754-.096-4.845.066-6.214.398l-.47-1.944ZM2.5 5.48c.407-.269 1.008-.515 1.82-.712l.471 1.944c-.686.166-1.044.341-1.19.437L2.499 5.48Zm-.42.358c.104-.122.242-.24.42-.358l1.1 1.67c-.03.019-.041.028-.04.027l.013-.012a.536.536 0 0 0 .03-.033L2.08 5.838Zm-.037 1.345a1.956 1.956 0 0 1-.184-.52l1.968-.357a.535.535 0 0 0-.015-.06c0-.003.004.011.02.043l-1.789.894Zm1.22 1.527c-.604-.577-1.001-1.09-1.22-1.527l1.79-.894c.077.156.3.486.81.974L3.263 8.71Zm5.624 3.77c-2.504-1.33-4.415-2.617-5.624-3.77l1.38-1.448c1.02.973 2.749 2.158 5.182 3.452l-.939 1.766Zm20.383 7.602c-8.197-2.196-15.388-4.946-20.383-7.602l.94-1.766c4.825 2.566 11.865 5.267 19.96 7.436l-.517 1.932Zm21.453 3.608c-5.654-.197-13.255-1.411-21.453-3.608l.518-1.932c8.096 2.17 15.543 3.35 21.005 3.541l-.07 2Zm6.755-.453c-1.624.394-3.921.552-6.755.453l.07-1.999c2.755.097 4.845-.066 6.214-.398l.471 1.944Zm1.821-.712c-.408.27-1.008.515-1.82.712l-.472-1.944c.687-.166 1.044-.341 1.19-.437l1.102 1.669Zm.419-.358a1.95 1.95 0 0 1-.419.358l-1.102-1.669c.03-.02.04-.03.039-.028a.544.544 0 0 0-.043.045l1.525 1.294Zm.037-1.345c.095.19.156.362.184.52l-1.968.357a.566.566 0 0 0 .015.06c.001.003-.004-.011-.02-.043l1.79-.894Zm-1.22-1.527c.605.577 1.002 1.09 1.22 1.527l-1.789.894c-.078-.156-.3-.486-.811-.973l1.38-1.448Zm-5.624-3.77c2.504 1.331 4.414 2.617 5.624 3.77l-1.38 1.448c-1.02-.972-2.75-2.158-5.183-3.452l.94-1.766Zm-6.733-3.095c2.525 1.02 4.792 2.063 6.733 3.095l-.939 1.766c-1.867-.993-4.07-2.008-6.542-3.006l.748-1.855Zm.514.037c.042.26.077.52.106.781l-1.988.22a13.982 13.982 0 0 0-.092-.684l1.974-.317Zm-.313-1.494c.128.492.233.99.313 1.494l-1.974.317a14.19 14.19 0 0 0-.274-1.308l1.935-.503Zm-.605-.68c4.914 1.915 9.01 3.956 11.804 5.893 1.393.966 2.513 1.94 3.244 2.9.718.944 1.185 2.046.883 3.171l-1.931-.518c.066-.246.02-.701-.544-1.441-.55-.723-1.479-1.558-2.791-2.468-2.615-1.813-6.55-3.787-11.39-5.674l.725-1.863Zm15.931 11.964c-.208.778-.737 1.368-1.393 1.802-.648.428-1.472.74-2.4.964-1.859.45-4.346.606-7.253.504-5.83-.203-13.574-1.448-21.865-3.67l.518-1.931c8.19 2.194 15.779 3.406 21.417 3.603 2.827.098 5.108-.06 6.711-.45.803-.194 1.383-.434 1.77-.69.38-.25.517-.476.563-.65l1.932.518Zm-32.91-.4c-8.291-2.22-15.62-5.015-20.77-7.754-2.569-1.365-4.645-2.743-6.03-4.062C1.304 9.38.746 8.7.399 8.005.046 7.302-.116 6.526.092 5.748l1.932.518c-.046.173-.04.438.163.845.207.414.59.913 1.187 1.482 1.195 1.138 3.09 2.416 5.588 3.744 4.982 2.649 12.16 5.395 20.35 7.589l-.519 1.932ZM.091 5.749c.307-1.144 1.29-1.87 2.41-2.328 1.142-.467 2.64-.747 4.376-.88 3.487-.266 8.185.048 13.535.897l-.314 1.975c-5.27-.838-9.798-1.128-13.068-.879-1.64.126-2.905.383-3.772.737-.89.364-1.167.744-1.234.995L.092 5.748Zm17.947-.276c.46-.62.965-1.207 1.508-1.753l1.418 1.41c-.475.478-.916.99-1.319 1.534l-1.607-1.19ZM2.492 7.386a1 1 0 0 0 1.28-.577c.037-.097.05-.176.053-.194a.984.984 0 0 0 .012-.215l-1.997.115a1.072 1.072 0 0 1 .012-.232c.004-.018.017-.099.054-.195a1 1 0 0 1 .189-.308c.133-.148.54-.473 1.09-.27l-.693 1.876Zm-.647-1.038a.934.934 0 0 0 .026.353 1 1 0 0 0 .622.686l.692-1.877c.378.14.526.447.545.485a1.001 1.001 0 0 1 .103.572l-1.988-.219Zm56.958 16.127a1 1 0 0 0 1.084-.575l-1.832-.804a1.09 1.09 0 0 1 .111-.194 1.006 1.006 0 0 1 .265-.25c.036-.024.319-.217.717-.147l-.345 1.97Zm-.668-1.525a.941.941 0 0 0-.096.19 1.001 1.001 0 0 0 .758 1.333l.358-1.967c.574.105.76.589.8.78a1 1 0 0 1 .008.36c-.016.101-.044.177-.05.195a1 1 0 0 1-.106.206l-1.672-1.097Zm1.817.707a.948.948 0 0 0-.027-.355 1.01 1.01 0 0 0-.22-.409 1 1 0 0 0-.416-.28l-.663 1.887c-.386-.136-.538-.447-.558-.486a.997.997 0 0 1-.104-.576l1.988.22Zm-.662-1.043a1 1 0 0 0-1.081.28c-.12.136-.171.27-.185.305-.037.095-.05.175-.053.193a.98.98 0 0 0-.011.213l1.996-.114a1.054 1.054 0 0 1-.012.23c-.003.018-.016.098-.053.194a1 1 0 0 1-.184.305c-.128.143-.529.475-1.081.28l.664-1.886ZM3.66 7.056a.931.931 0 0 0 .096-.19 1 1 0 0 0-.748-1.332l-.377 1.963c-.582-.111-.757-.608-.792-.79a1 1 0 0 1-.006-.351c.016-.1.044-.175.05-.192a1.015 1.015 0 0 1 .105-.206L3.66 7.056Zm-.654-1.523a1 1 0 0 0-1.098.573l1.832.802a1.066 1.066 0 0 1-.21.312c-.024.023-.082.08-.17.136-.036.024-.324.218-.726.142l.372-1.965Z" mask="url(#svg1105880556_9003_c)"/></svg>