<svg xmlns="http://www.w3.org/2000/svg" fill="none" shape-rendering="crispEdges" viewBox="0 0 16 6"><path fill="#D53C5E" d="M9 0H3v1h6V0ZM16 0h-6v1h6V0ZM4 1H3v1h1V1Z"/><path fill="#fff" d="M6 1H4v1h2V1Z"/><path fill="#000" d="M8 1H6v1h2V1Z"/><path fill="#D53C5E" d="M9 1H8v1h1V1ZM11 1h-1v1h1V1Z"/><path fill="#fff" d="M13 1h-2v1h2V1Z"/><path fill="#000" d="M15 1h-2v1h2V1Z"/><path fill="#D53C5E" d="M16 1h-1v1h1V1ZM4 2H0v1h4V2Z"/><path fill="#fff" d="M6 2H4v1h2V2Z"/><path fill="#000" d="M8 2H6v1h2V2Z"/><path fill="#D53C5E" d="M11 2H8v1h3V2Z"/><path fill="#fff" d="M13 2h-2v1h2V2Z"/><path fill="#000" d="M15 2h-2v1h2V2Z"/><path fill="#D53C5E" d="M16 2h-1v1h1V2ZM1 3H0v1h1V3ZM4 3H3v1h1V3Z"/><path fill="#fff" d="M6 3H4v1h2V3Z"/><path fill="#000" d="M8 3H6v1h2V3Z"/><path fill="#D53C5E" d="M9 3H8v1h1V3ZM11 3h-1v1h1V3Z"/><path fill="#fff" d="M13 3h-2v1h2V3Z"/><path fill="#000" d="M15 3h-2v1h2V3Z"/><path fill="#D53C5E" d="M16 3h-1v1h1V3ZM1 4H0v1h1V4ZM4 4H3v1h1V4Z"/><path fill="#fff" d="M6 4H4v1h2V4Z"/><path fill="#000" d="M8 4H6v1h2V4Z"/><path fill="#D53C5E" d="M9 4H8v1h1V4ZM11 4h-1v1h1V4Z"/><path fill="#fff" d="M13 4h-2v1h2V4Z"/><path fill="#000" d="M15 4h-2v1h2V4Z"/><path fill="#D53C5E" d="M16 4h-1v1h1V4ZM9 5H3v1h6V5ZM16 5h-6v1h6V5Z"/></svg>