<svg xmlns="http://www.w3.org/2000/svg" shape-rendering="crispEdges" viewBox="0 0 16 6"><path fill="#D53C5E" d="M9 0H3v1h6V0Zm7 0h-6v1h6V0ZM4 1H3v1h1V1Zm5 0H8v1h1V1Zm2 0h-1v1h1V1Zm5 0h-1v1h1V1ZM4 2H0v1h4V2Zm7 0H8v1h3V2Zm5 0h-1v1h1V2ZM1 3H0v1h1V3Zm3 0H3v1h1V3Zm5 0H8v1h1V3Zm2 0h-1v1h1V3Zm5 0h-1v1h1V3ZM1 4H0v1h1V4Zm3 0H3v1h1V4Zm5 0H8v1h1V4Zm2 0h-1v1h1V4Zm5 0h-1v1h1V4ZM9 5H3v1h6V5Zm7 0h-6v1h6V5Z"/><path fill="#fff" d="M6 1H4v1h2V1Zm7 0h-2v1h2V1ZM6 2H4v1h2V2Zm7 0h-2v1h2V2ZM6 3H4v1h2V3Zm7 0h-2v1h2V3ZM6 4H4v1h2V4Zm7 0h-2v1h2V4Z"/><path fill="#000" d="M8 1H6v1h2V1Zm7 0h-2v1h2V1ZM8 2H6v1h2V2Zm7 0h-2v1h2V2ZM8 3H6v1h2V3Zm7 0h-2v1h2V3ZM8 4H6v1h2V4Zm7 0h-2v1h2V4Z"/></svg>