<svg xmlns="http://www.w3.org/2000/svg" viewBox="0 0 32.5 23.63"><path fill="url(#a)" d="M32.4986 17.8456V23.6356H28.9472C25.1438 23.6356 21.3936 22.7295 18.0093 20.9901L10.9379 17.3563C7.55364 15.6186 3.80427 14.7118 0 14.7109L0 8.92336H1.40024C5.20366 8.92336 8.95136 9.82939 12.3333 11.5664L19.4096 15.2002C22.7922 16.9371 26.54 17.8431 30.3426 17.8432H32.4962L32.4986 17.8456Z"/><path fill="url(#b)" d="M0 17.8602V23.6356H9.0628V19.9509C6.24778 18.587 3.12753 17.8602 0 17.8602Z"/><path fill="url(#c)" d="M32.4986 8.92335V14.7108H31.0936C27.2901 14.7108 23.5424 13.8048 20.1581 12.0654L13.0842 8.43157C9.70099 6.69364 5.95234 5.78679 2.14881 5.78614H0V0.00106049H3.54905C7.35247 0.00106049 11.1002 0.907098 14.4821 2.64407L21.5608 6.28034C24.9434 8.0175 28.6912 8.92354 32.4938 8.92335H32.4962H32.4986Z"/><path fill="url(#d)" d="M32.4983 5.7716V0.00106049H23.4355V3.68335C26.2506 5.04483 29.3684 5.7716 32.4959 5.7716H32.4983Z"/><defs><linearGradient id="a" x1="40.5294" x2="9.69509" y1="0.299041" y2="20.5928" gradientUnits="userSpaceOnUse"><stop stop-color="#3CF"/><stop offset="1" stop-color="#93C"/></linearGradient><linearGradient id="b" x1="39.0396" x2="8.20764" y1="-1.96605" y2="18.3302" gradientUnits="userSpaceOnUse"><stop stop-color="#3CF"/><stop offset="1" stop-color="#93C"/></linearGradient><linearGradient id="c" x1="36.4305" x2="5.59854" y1="-5.92695" y2="14.3668" gradientUnits="userSpaceOnUse"><stop stop-color="#3CF"/><stop offset="1" stop-color="#93C"/></linearGradient><linearGradient id="d" x1="37.92" x2="7.08811" y1="-3.66427" y2="16.6295" gradientUnits="userSpaceOnUse"><stop stop-color="#3CF"/><stop offset="1" stop-color="#93C"/></linearGradient></defs></svg>