<svg xmlns="http://www.w3.org/2000/svg" viewBox="0 0 42 40"><path fill="#151218" d="M19.175 22.32c-1.37-1.932-3.607-3.19-6.134-3.19-4.17 0-7.55 3.426-7.55 7.652s3.38 7.652 7.55 7.652c2.527 0 4.764-1.258 6.134-3.19a10.5 10.5 0 0 1-.986-4.462c0-1.597.353-3.11.986-4.462Zm2.427 1.31a7.714 7.714 0 0 0-.668 3.152c0 4.226 3.38 7.652 7.55 7.652s7.55-3.426 7.55-7.652c0-3.918-2.906-7.149-6.653-7.598-1.741 2.527-4.558 4.237-7.779 4.446Zm-.092-2.783c3.901-.298 6.974-3.6 6.974-7.63 0-4.226-3.38-7.652-7.55-7.652s-7.55 3.426-7.55 7.652a7.7 7.7 0 0 0 .682 3.181c3.084.309 5.769 1.998 7.444 4.449Z"/><path fill="#151218" d="M18.202 38.923a12.835 12.835 0 0 1-5.161 1.076C5.838 39.999 0 34.082 0 26.782c0-7.3 5.838-13.217 13.041-13.217 2.889 0 5.559.952 7.721 2.565a13.14 13.14 0 0 0-2.074 1.926 10.149 10.149 0 0 0-5.647-1.708c-5.686 0-10.295 4.671-10.295 10.434 0 5.763 4.609 10.435 10.295 10.435a10.16 10.16 0 0 0 3.086-.478 15.883 15.883 0 0 0 2.075 2.184Z"/><path fill="#151218" d="M36.425 16.297c-.194.996-.48 1.973-.856 2.915a10.471 10.471 0 0 1 3.21 7.57c0 5.763-4.61 10.435-10.296 10.435-5.685 0-10.295-4.672-10.295-10.435 0-1.179.193-2.312.548-3.369-.911-.2-1.777-.523-2.581-.951a13.38 13.38 0 0 0-.712 4.32c0 7.3 5.838 13.217 13.04 13.217 7.203 0 13.041-5.917 13.041-13.217 0-4.271-1.998-8.069-5.099-10.485Z"/><path fill="#151218" d="M28.822 23.742a12.94 12.94 0 0 1-7.161 2.672l-.153-2.778a10.212 10.212 0 0 0 5.654-2.11 10.432 10.432 0 0 0 3.521-4.956 10.57 10.57 0 0 0 .181-6.104 10.447 10.447 0 0 0-3.219-5.161 10.226 10.226 0 0 0-5.518-2.452A10.169 10.169 0 0 0 16.2 3.951a10.36 10.36 0 0 0-4.306 4.271 10.528 10.528 0 0 0-.988 2.628c-.978.091-1.945.275-2.889.548.216-1.58.713-3.107 1.467-4.507a13.12 13.12 0 0 1 5.454-5.411 12.893 12.893 0 0 1 14.496 1.715 13.227 13.227 0 0 1 4.078 6.538 13.384 13.384 0 0 1-.23 7.732 13.216 13.216 0 0 1-4.46 6.277Z"/></svg>