<svg xmlns="http://www.w3.org/2000/svg" viewBox="0 0 452 665"><path fill="#603F99" d="M269.551 596.011h88.532v23.863c0 24.406-19.835 44.22-44.266 44.22-24.431 0-44.266-19.814-44.266-44.22v-23.863Z"/><path fill="#CE3F8F" d="m368.606 548.94 12.137 48.541-136.082-.339 17.435-48.473-17.435-.045 17.458-48.518h106.42l12.204 48.857-12.137-.023Z"/><path fill="#603F99" d="M70.667 596.011h88.532v23.863c0 24.406-19.834 44.22-44.266 44.22-24.431 0-44.266-19.814-44.266-44.22v-23.863Z"/><path fill="#CE3F8F" d="m169.69 548.94 12.136 48.541-136.082-.339 17.435-48.473-17.435-.045 17.458-48.518h106.42l12.204 48.857-12.136-.023Z"/><path fill="#FD0" d="m361.602 455.584 21.669 47.364-331.94-2.94 28.394-46.935-28.394-.249 30.635-50.644-21.804-.249 26.718-53.833 86.268 11.762h182.725l18.567 45.691-14.196-.159 23.027 50.373-21.669-.181Z"/><path fill="#1DB9D2" d="m353.774 312.593 16.257 47.952H175.26l18.861-47.952H175.26l19.223-48.857h158.974l16.574 48.857h-16.257Z"/><path fill="#FD0" d="M375.873 263.963H172.09l26.492-54.512-21.964-.453 39.851-79.166 159.63 35.286-.226 98.845Z"/><path fill="#603F99" d="M86.879 348.105c0-14.453-2.65-33.476-9.442-44.333-9.057-14.476-25.36-24.428-57.06-24.655l-.453 18.096c11.322-.453 22.19.678 31.474 6.559 7.924 4.976 14.49 13.119 19.472 26.691-27.624-9.5-43.474-6.56-54.568.678-5.887 3.845-10.416 8.595-14.718 13.798l12.453 11.535c.68-1.13 1.585-2.035 2.265-2.94 13.585-16.06 29.209-15.607 45.738-6.786-36.002 17.191-41.663 47.5-39.851 69.441 1.585.226 17.66 0 17.66 0-1.584-21.262 11.073-50.554 42.773-59.149l4.257-8.935Z"/><path fill="#008599" d="M325.596 154.034c53.21-73.738 79.475-110.155 58.417-128.024-13.812-11.762-34.145-1.832-64.486 20.787C318.395 71 314.32 104.16 306.621 149.85l18.952 4.185h.023Z"/><path fill="#1DB9D2" d="M303.41 2.03c-28.756-7.012-45.285 38.678-86.947 127.797l92.631 20.561c7.698-45.69 11.932-79.03 11.751-104.93 1.132-26.011-3.396-40.035-17.435-43.428Z"/><path fill="#F99D2A" d="m331.499 454.393-2.694-.181-.023-.023 2.717.204Z"/><path fill="#fff" d="M313.145 220.262c12.13 0 21.963-9.823 21.963-21.94 0-12.118-9.833-21.941-21.963-21.941s-21.963 9.823-21.963 21.941c0 12.117 9.833 21.94 21.963 21.94Z"/><path fill="#FFE600" d="m331.499 454.393-2.694-.181-.023-.023 2.717.204Z"/><path fill="#CE3F8F" d="m375.867 263.96.227-98.845s58.236 13.141 70.803 45.667c.906 2.353 1.291 4.863 1.291 7.374 2.354 44.22-72.321 45.804-72.321 45.804Z"/><path fill="#000006" d="M375.865 260.188v3.778h-12.068l-26.152-11.287c-2.016-.815-4.665-3.755-3.578-5.859.657-1.312 3.261-2.872 7.495-1.221l34.303 14.589ZM77.562 409.477l19.087 17.937 31.7-29.857 30.794 30.536 31.473-29.857 31.473 29.857 30.794-30.536 31.473 29.857 31.7-30.083 5.864 5.858 20.197 19.046 18.137-16.829 5.706 12.463-23.616 23.592-.159-.159-26.582-26.328-31.473 31.44-31.473-31.44-31.474 31.44-30.793-30.762-31.474 29.858-30.567-30.31-31.473 31.441-26.152-25.922m243.104-211.445c6.158-.452 10.732-5.7 10.279-11.649-.453-6.152-5.706-10.721-11.661-10.269-6.158.453-10.732 5.7-10.279 11.649.226 5.926 5.479 10.721 11.661 10.269Z"/></svg>