<svg xmlns="http://www.w3.org/2000/svg" viewBox="5 5 40 40"><path fill="#1D8AED" d="M31.12 5.853v7.41c0 2.405-1.982 4.35-4.432 4.35h-.064c-1.229-.007-2.335 0-2.335 0-.209 0-.439-.02-.64 0-1.379.142-2.579.755-3.584 1.848a.895.895 0 0 0-.08.091c-.811 1.03-1.257 2.362-1.257 3.8v.071c0 .924.194 1.805.546 2.595.352.79.173 1.706-.503 2.256a154.65 154.65 0 0 1-1.968 1.593 9.48 9.48 0 0 1-2.428-6.366v-.07c0-5.296 4.317-9.71 10.18-9.71h2.119V5.057A19.412 19.412 0 0 0 25.237 5C14.059 5 5 13.89 5 24.861c0 8.962 6.049 16.534 14.353 19.002v-7.354c0-2.425 2.005-4.392 4.476-4.392h.021c1.229.007 2.335 0 2.335 0 .209 0 .439.02.64 0 1.379-.141 2.579-.755 3.584-1.848a.896.896 0 0 0 .08-.091c.811-1.03 1.257-2.362 1.257-3.8v-.071c0-.72-.31-1.685-.618-2.46a2.15 2.15 0 0 1 .646-2.454 127.21 127.21 0 0 1 1.897-1.523 9.48 9.48 0 0 1 2.428 6.366v.07c0 5.296-4.317 9.71-10.18 9.71H23.8v8.65c.474.036.956.057 1.437.057 11.178 0 20.237-8.89 20.237-19.861 0-8.962-6.049-16.534-14.353-19.009Z"/></svg>