<svg xmlns="http://www.w3.org/2000/svg" viewBox="15 12 48 48"><g clip-path="url(#a)"><path fill="url(#b)" d="M55.501 20.756 20.063 41.22v3.094l38.12-21.99-2.682-1.567Z"/><path fill="url(#c)" d="M49.396 17.25 20.063 34.208V37.3l32.055-18.483-2.722-1.567Z"/><path fill="url(#d)" d="m43.331 13.743-23.268 13.45v3.094l25.99-14.976-2.722-1.568Z"/><path fill="url(#e)" d="M59.667 39.362 33.8 54.297l2.682 1.568 23.185-13.409v-3.094Z"/><path fill="url(#f)" d="M59.669 25.337 21.672 47.284l2.682 1.568 35.315-20.38v-3.136Z"/><path fill="url(#g)" d="M59.668 32.35 27.736 50.79l2.682 1.568 29.25-16.914v-3.095Z"/><path fill="url(#h)" d="m57.605 36.681-29.25 16.874 3.383 1.939 25.867-14.935v-3.878Z"/><path fill="url(#i)" d="M37.885 13 18 24.51v3.878L41.268 14.94 37.885 13Z"/><path fill="url(#j)" d="M43.95 16.507 18 31.483v3.92l29.333-16.957-3.383-1.939Z"/><path fill="url(#k)" d="M50.056 20.013 18 38.495v3.92l35.397-20.463-3.341-1.94Z"/><path fill="url(#l)" d="m57.605 24.387-1.485-.867L18 45.51v2.062l1.568.908 38.037-21.948v-2.145Z"/><path fill="url(#m)" d="M57.606 29.668 22.29 50.048l3.383 1.94 31.932-18.442v-3.878Z"/><path fill="url(#n)" d="M57.605 43.654 34.419 57.062 37.802 59l19.803-11.428v-3.92Z"/></g><defs><linearGradient id="b" x1="25.375" x2="57.691" y1="39.691" y2="21.037" gradientUnits="userSpaceOnUse"><stop offset=".054" stop-color="#0090FF" stop-opacity="0"/><stop offset=".894" stop-color="#0090FF"/></linearGradient><linearGradient id="c" x1="22.341" x2="54.657" y1="34.436" y2="15.781" gradientUnits="userSpaceOnUse"><stop offset=".054" stop-color="#0090FF" stop-opacity="0"/><stop offset=".894" stop-color="#0090FF"/></linearGradient><linearGradient id="d" x1="19.306" x2="51.622" y1="29.178" y2="10.524" gradientUnits="userSpaceOnUse"><stop offset=".054" stop-color="#0090FF" stop-opacity="0"/><stop offset=".894" stop-color="#0090FF"/></linearGradient><linearGradient id="e" x1="34.477" x2="66.792" y1="55.462" y2="36.808" gradientUnits="userSpaceOnUse"><stop offset=".054" stop-color="#0090FF" stop-opacity="0"/><stop offset=".894" stop-color="#0090FF"/></linearGradient><linearGradient id="f" x1="28.41" x2="60.726" y1="44.949" y2="26.295" gradientUnits="userSpaceOnUse"><stop offset=".054" stop-color="#0090FF" stop-opacity="0"/><stop offset=".894" stop-color="#0090FF"/></linearGradient><linearGradient id="g" x1="31.444" x2="63.76" y1="50.206" y2="31.551" gradientUnits="userSpaceOnUse"><stop offset=".054" stop-color="#0090FF" stop-opacity="0"/><stop offset=".894" stop-color="#0090FF"/></linearGradient><linearGradient id="h" x1="53.214" x2="20.525" y1="40.291" y2="61.899" gradientUnits="userSpaceOnUse"><stop stop-color="#39C1CB"/><stop offset="1" stop-color="#0090FF"/></linearGradient><linearGradient id="i" x1="36.579" x2="3.89" y1="15.126" y2="36.733" gradientUnits="userSpaceOnUse"><stop stop-color="#39C1CB"/><stop offset="1" stop-color="#0090FF"/></linearGradient><linearGradient id="j" x1="39.92" x2="7.231" y1="20.181" y2="41.788" gradientUnits="userSpaceOnUse"><stop stop-color="#39C1CB"/><stop offset="1" stop-color="#0090FF"/></linearGradient><linearGradient id="k" x1="43.261" x2="10.572" y1="25.234" y2="46.841" gradientUnits="userSpaceOnUse"><stop stop-color="#39C1CB"/><stop offset="1" stop-color="#0090FF"/></linearGradient><linearGradient id="l" x1="46.566" x2="13.877" y1="30.234" y2="51.842" gradientUnits="userSpaceOnUse"><stop stop-color="#39C1CB"/><stop offset=".383" stop-color="#23AEDF"/><stop offset="1" stop-color="#0090FF"/></linearGradient><linearGradient id="m" x1="49.873" x2="17.184" y1="35.238" y2="56.846" gradientUnits="userSpaceOnUse"><stop stop-color="#39C1CB"/><stop offset="1" stop-color="#0090FF"/></linearGradient><linearGradient id="n" x1="56.554" x2="23.865" y1="45.346" y2="66.954" gradientUnits="userSpaceOnUse"><stop stop-color="#39C1CB"/><stop offset="1" stop-color="#0090FF"/></linearGradient><clipPath id="a"><path fill="#fff" d="M18 13h190v46H18z"/></clipPath></defs></svg>