<svg xmlns="http://www.w3.org/2000/svg" fill="none" viewBox="0 0 511 511"><circle id="svg_5" cx="255" cy="255" r="255" fill="#2B50AA"/><path id="svg_2" fill="#C5D5EA" d="M186.793 359.032c1.093 1.002 2.46 1.549 3.736 1.549 1.275 0 2.733-.547 3.736-1.549l12.575-12.028a5.39 5.39 0 0 0 1.731-3.919 5.387 5.387 0 0 0-1.731-3.918l-87.295-83.377 87.295-83.376a5.39 5.39 0 0 0 1.731-3.919 5.389 5.389 0 0 0-1.731-3.918l-12.575-12.028c-1.094-1.002-2.369-1.549-3.736-1.549a5.317 5.317 0 0 0-3.736 1.549L82.731 251.872A5.387 5.387 0 0 0 81 255.79a5.39 5.39 0 0 0 1.731 3.919l104.062 99.323zM392.455 255.79l-87.295 83.377a5.387 5.387 0 0 0-1.731 3.918 5.39 5.39 0 0 0 1.731 3.919l12.575 12.028c1.094 1.002 2.461 1.549 3.736 1.549 1.276 0 2.734-.547 3.736-1.549l104.062-99.323A5.39 5.39 0 0 0 431 255.79a5.389 5.389 0 0 0-1.731-3.918l-104.062-99.323c-1.093-1.002-2.46-1.549-3.736-1.549a5.319 5.319 0 0 0-3.736 1.549l-12.575 12.028a5.389 5.389 0 0 0-1.731 3.918 5.39 5.39 0 0 0 1.731 3.919l87.295 83.376z"/><path id="svg_3" fill="#C5D5EA" d="M186.064 245.585c-.091 3.553 1.276 6.925 3.827 9.476l.091.091c2.46 2.461 5.65 3.828 9.112 3.828 3.19 0 6.197-1.185 8.566-3.281l35.446-31.528v96.68c0 7.108 5.832 12.94 12.94 12.94 7.107 0 12.939-5.832 12.939-12.94V224.08l35.446 31.528c2.37 2.096 5.468 3.28 8.566 3.28 3.463 0 6.743-1.366 9.203-3.827l.091-.091c2.552-2.551 3.828-5.832 3.828-9.477-.092-3.553-1.55-6.834-4.192-9.294l-57.225-52.577a12.755 12.755 0 0 0-8.656-3.372c-3.19 0-6.288 1.185-8.657 3.372l-57.225 52.577c-2.551 2.551-4.1 5.832-4.1 9.386z"/></svg>