<svg xmlns="http://www.w3.org/2000/svg" fill="none" viewBox="0 0 1564 1622"><path fill="url(#a)" d="M1340.92 895.962c-37.52 0-68 30.421-68 68.006v179.582l-568.46 331.87-568.465-331.87V498.325c344.919 46.217 605.047 343.961 605.047 692.625 0 11.74-.294 23.66-.881 35.35-1.879 37.53 27.011 69.41 64.533 71.24 1.174 0 2.29.05 3.406.05 35.995 0 66.001-28.24 67.821-64.6a834.77 834.77 0 0 0 1.057-42.04c0-203.491-74.046-399.521-208.455-551.975-103.405-117.277-236.64-202.431-384.026-247.122L704.46 146.67l197.063 115.045c32.413 18.91 74.045 7.987 92.953-24.43 18.904-32.417 7.984-74.054-24.427-92.964L738.693 9.249c-21.139-12.332-47.328-12.332-68.526 0L33.705 380.754C12.86 392.91 0 415.285 0 439.481v743.009c0 24.2 12.86 46.51 33.705 58.73l636.462 371.5a67.974 67.974 0 0 0 34.234 9.28 67.97 67.97 0 0 0 34.233-9.28l636.466-371.5c20.84-12.16 33.7-34.53 33.7-58.73V963.909c0-37.526-30.42-68.005-68-68.005l.12.058Z"/><path fill="url(#b)" d="M1262.3 216.436c-166.35 0-301.703 135.365-301.703 301.738 0 166.372 135.353 301.737 301.703 301.737 166.35 0 301.7-135.365 301.7-301.737 0-166.373-135.35-301.738-301.7-301.738Zm0 467.582c-91.43 0-165.77-74.407-165.77-165.785 0-91.379 74.4-165.786 165.77-165.786s165.76 74.407 165.76 165.786c0 91.378-74.39 165.785-165.76 165.785Z"/><defs><radialGradient id="a" cx="0" cy="0" r="1" gradientTransform="matrix(1859.4973 -1134.99745 1178.40673 1930.6159 -180.664 1331.895)" gradientUnits="userSpaceOnUse"><stop stop-color="#5000BF"/><stop offset="0.06" stop-color="#6900C2"/><stop offset="0.13" stop-color="#9700C7"/><stop offset="0.2" stop-color="#BC00CC"/><stop offset="0.27" stop-color="#D900D0"/><stop offset="0.35" stop-color="#EE00D2"/><stop offset="0.43" stop-color="#FA00D4"/><stop offset="0.5" stop-color="#FF00D5"/><stop offset="0.56" stop-color="#FB26E2"/><stop offset="0.65" stop-color="#F55DF7"/><stop offset="0.7" stop-color="#F373FF"/><stop offset="0.8" stop-color="#EABFFF"/><stop offset="0.9" stop-color="#9CF"/></radialGradient><radialGradient id="b" cx="0" cy="0" r="1" gradientTransform="matrix(1859.4973 -1134.99745 1178.40673 1930.6159 -180.664 1331.895)" gradientUnits="userSpaceOnUse"><stop stop-color="#5000BF"/><stop offset="0.06" stop-color="#6900C2"/><stop offset="0.13" stop-color="#9700C7"/><stop offset="0.2" stop-color="#BC00CC"/><stop offset="0.27" stop-color="#D900D0"/><stop offset="0.35" stop-color="#EE00D2"/><stop offset="0.43" stop-color="#FA00D4"/><stop offset="0.5" stop-color="#FF00D5"/><stop offset="0.56" stop-color="#FB26E2"/><stop offset="0.65" stop-color="#F55DF7"/><stop offset="0.7" stop-color="#F373FF"/><stop offset="0.8" stop-color="#EABFFF"/><stop offset="0.9" stop-color="#9CF"/></radialGradient></defs></svg>