<svg xmlns="http://www.w3.org/2000/svg" viewBox="0 0 36 36"><path fill="#9573F5" d="m26.44 10.526 9.78-5.447.007 10.584-7.575 4.22c-5.168 2.878-8.146 6.653-9.349 10.006C18.1 33.24 18.277 35.162 18.238 36c0-5.336.018-6.931.018-11.424 0-1.107.127-2.325.276-2.908 0 0 1.287-7.453 7.908-11.142Z"/><path fill="#6837F1" d="M18.234 24.806 18.239 36l-9.252-5.14-.004-8.671C8.98 16.274 7.129 11.836 4.785 9.154 2.44 6.474.676 5.664-.037 5.222 4.58 7.7 5.803 8.37 9.74 10.484c.975.524 2.245 1.521 2.682 1.935 0 0 5.808 4.808 5.812 12.387Z"/><path fill="#D2C3FB" d="M26.424 10.526c3.948-2.169 6.815-3.794 9.795-5.447-.751.38-2.353 1.482-5.886 2.083-3.535.601-8.505.472-13.625-2.624L9.2 0-.037 5.224l10.1 5.42c2.516 1.51 8.796 4.038 16.361-.118Z"/></svg>