<svg xmlns="http://www.w3.org/2000/svg" fill="none" viewBox="0 0 191 191"><g clip-path="url(#a)"><path fill="#2461ED" d="M95.5 191C42.758 191 0 148.242 0 95.5S42.758 0 95.5 0 191 42.758 191 95.5 148.252 191 95.5 191Z"/><path fill="#fff" fill-rule="evenodd" d="M108.208 93.368c-17.303-9.35-38.355-21.474-54.2-31.357-4.675-3.368-2.312-10.516 3.348-10.516h78.399c4.373 0 7.299 4.876 5.107 8.566-5.268 9.098-12.959 20.65-19.384 29.809-3.448 4.916-9.068 5.76-13.27 3.498Zm-25.235 3.037c16.73 8.918 40.175 22.48 56.833 32.735 5.148 3.177 3.097 10.797-2.915 10.797-9.838 0-25.825.003-41.728.005-15.74.003-31.397.005-40.933.005-4.806 0-7.27-4.986-5.228-8.465 6.896-11.752 14.648-23.616 21.092-32.473 2.866-3.951 8.697-4.836 12.879-2.604Z" clip-rule="evenodd"/></g><defs><clipPath id="a"><path fill="#fff" d="M0 0h191v191H0z"/></clipPath></defs></svg>