<svg width="93" height="93" viewBox="0 0 93 93" fill="none" xmlns="http://www.w3.org/2000/svg">
<path d="M46.5 93C72.1812 93 93 72.1812 93 46.5C93 20.8188 72.1812 0 46.5 0C20.8188 0 0 20.8188 0 46.5C0 72.1812 20.8188 93 46.5 93Z" fill="#E84142"/>
<path d="M32.811 67.176H22.9888C20.9249 67.176 19.9054 67.176 19.2837 66.7781C18.6123 66.343 18.202 65.6219 18.1523 64.8261C18.115 64.0926 18.6248 63.1974 19.6443 61.407L43.0186 20.4149C44.0506 18.5997 44.5728 17.6921 45.2317 17.3564C45.9404 16.9958 46.7859 16.9958 47.4945 17.3564C48.1535 17.6921 48.6757 18.5997 49.7076 20.4149L54.6933 29.1181C55.8248 31.095 56.3967 32.0896 56.6453 33.134C56.9189 34.2654 56.9189 35.459 56.6453 36.5904C56.3967 37.6348 55.8372 38.6295 54.7058 40.6064L42.8445 61.3697C41.7007 63.3715 41.1288 64.3785 40.333 65.137C39.4752 65.9576 38.4432 66.5543 37.3118 66.89C36.2798 67.176 35.1236 67.176 32.811 67.176Z" fill="white"/>
<path d="M71.6895 67.1765H57.6152C55.5388 67.1765 54.4945 67.1765 53.8852 66.7786C53.2138 66.3435 52.8036 65.6099 52.7538 64.8142C52.7165 64.0806 53.2387 63.1854 54.2831 61.3826L61.3078 49.3225C62.3398 47.5445 62.862 46.6618 63.5085 46.3261C64.2172 45.9655 65.0502 45.9655 65.7589 46.3261C66.4179 46.6618 66.9276 47.5445 67.972 49.31L75.0216 61.3702C76.066 63.173 76.6006 64.0682 76.5633 64.8018C76.526 65.5975 76.1033 66.331 75.4319 66.7662C74.8103 67.1765 73.7659 67.1765 71.6895 67.1765Z" fill="white"/>
</svg>
