<svg xmlns="http://www.w3.org/2000/svg" viewBox="5 5 40 40"><path fill="#000" d="M34.423 28.769C40.718 29.954 45 32.286 45 34.97 45 38.855 36.045 42 25 42S5 38.853 5 34.97c0-2.684 4.283-5.016 10.577-6.201 2.735.724 5.965 1.14 9.423 1.14s6.688-.416 9.423-1.138v-.002Zm-2.41-11.385c5.347.908 9.03 2.817 9.03 5.029C41.043 25.498 33.86 28 25 28S8.957 25.498 8.957 22.413c0-2.21 3.683-4.121 9.03-5.029 2.055.532 4.451.836 7.013.836 2.562 0 4.958-.306 7.013-.836ZM25.073 8c6.635 0 12.015 1.894 12.015 4.231 0 2.336-5.38 4.23-12.015 4.23-6.635 0-12.015-1.894-12.015-4.23C13.058 9.894 18.438 8 25.073 8Z"/></svg>