<svg xmlns="http://www.w3.org/2000/svg" height="81.293" width="71.893" xml:space="preserve" id="svg2" version="1.1"><script>try { Object.defineProperty(navigator, &quot;globalPrivacyControl&quot;, { value: false, configurable: false, writable: false }); document.currentScript.parentElement.removeChild(document.currentScript); } catch(e) {};</script><g transform="matrix(1.33333 0 0 -1.33333 0 81.293)" id="g10"><g transform="scale(.1)" id="g12" fill-opacity="1" fill-rule="nonzero" stroke="none"><path id="path30" d="M304.863 467.527V609.73C136.414 609.73 0 473.313 0 304.867 0 136.414 136.414-.003 304.863-.003v142.202c-89.91 0-162.664 72.754-162.664 162.668 0 89.906 72.754 162.66 162.664 162.66" fill="#25275b"/><path id="path32" d="M468.117 467.527c-39.269 0-71.105 31.832-71.105 71.098 0 39.27 31.836 71.105 71.105 71.105 39.266 0 71.098-31.835 71.098-71.105 0-39.266-31.832-71.098-71.098-71.098" fill="#52aee5"/><path id="path34" d="M466.93 0c-39.266 0-71.098 31.832-71.098 71.102 0 39.265 31.832 71.097 71.098 71.097 39.269 0 71.105-31.832 71.105-71.097C538.035 31.832 506.199 0 466.93 0" fill="#ea048c"/><path id="path36" d="M467.527 304.867c0-89.914-72.754-162.668-162.664-162.668v325.328c89.91 0 162.664-72.754 162.664-162.66" fill="#25275b"/></g></g></svg>