<svg xmlns="http://www.w3.org/2000/svg" viewBox="0 0 71.893 81.293"><path fill="#25275b" d="M40.648 18.956V-.004C18.188-.004 0 18.185 0 40.644c0 22.46 18.188 40.65 40.648 40.65v-18.96c-11.988 0-21.688-9.701-21.688-21.69 0-11.987 9.7-21.688 21.688-21.688"/><path fill="#52aee5" d="M62.415 18.956a9.48 9.48 0 1 1 0-18.96 9.48 9.48 0 0 1 0 18.96"/><path fill="#ea048c" d="M62.257 81.293a9.48 9.48 0 0 1-9.48-9.48 9.48 9.48 0 0 1 9.48-9.48 9.48 9.48 0 0 1 0 18.96"/><path fill="#25275b" d="M62.337 40.644c0 11.989-9.7 21.69-21.689 21.69V18.955c11.988 0 21.689 9.7 21.689 21.688"/></svg>