<svg xmlns="http://www.w3.org/2000/svg" viewBox="0 0 340.64 81.293"><path fill="#25275b" d="M92.062 41.833c0-13.284 7.074-19.872 20.952-19.872 5.67 0 9.018 1.026 11.881 2.322l-2.43 6.642c-3.619-.972-5.13-1.35-9.343-1.405-6.912-.107-11.717 3.78-11.717 11.772 0 7.993 5.076 12.259 12.798 12.259 3.725 0 5.94-.324 8.854-1.08l1.945 6.912c-3.672 1.35-6.857 1.836-11.771 1.836-13.986 0-21.169-6.858-21.169-19.386m58.648 4.104c0-4.752-1.187-8.37-6.158-8.37-4.859 0-6.208 3.618-6.208 8.425 0 5.075 1.512 8.153 6.317 8.153 4.862 0 6.048-3.186 6.048-8.208zm-21.44.27c0-9.775 6.103-15.769 15.445-15.769 10.476 0 15.176 5.887 15.176 15.5 0 10.043-6.591 15.39-15.663 15.39-9.719 0-14.958-5.887-14.958-15.122m33.54-15.011h9.666l4.968 15.984 1.512 5.886 1.675-5.886 5.506-15.984h9.452L184.14 60.679h-10.693L162.81 31.195m53.46 21.978V48.53l-4.425.109c-2.648.053-4.59.917-4.59 3.077 0 1.728 1.673 2.484 3.293 2.484 1.728 0 3.78-.487 5.723-1.026zm-17.765-.918c0-7.452 6.806-8.964 12.638-8.964h5.128v-1.837c0-2.591-1.674-3.347-5.344-3.347-2.918 0-6.05.648-8.804 1.295l-1.78-6.534c3.348-1.295 7.236-2.375 11.933-2.375 9.127 0 12.799 2.592 12.799 9.234v13.122c0 .972.972 1.188 2.645 1.242l-.324 6.804c-.701.054-1.405.054-2.107.054-3.562 0-7.342-.594-8.152-3.132-2.16 1.675-5.238 3.348-8.48 3.348-6.478 0-10.152-3.024-10.152-8.91m35.914-32.293h9.018V60.68h-9.018V19.962m34.022 22.951c.108-3.564-1.458-6.048-4.374-6.048-3.078 0-5.075 2.16-5.238 6.048zm-18.848 3.455c0-12.041 6.32-15.875 15.23-15.875 9.288 0 12.853 6.048 12.853 14.958v3.24H258.56c-.053 4.644 3.617 5.508 8.313 5.508 2 0 5.348-.648 8.427-1.188l1.35 6.857c-3.294.973-7.506 1.46-11.07 1.46-9.72 0-15.987-3.187-15.987-14.96m34.242-15.173h9.018v2.97c1.783-1.35 5.671-3.727 9.614-3.727 9.233 0 9.881 5.076 9.881 11.773V60.68h-8.965V42.967c0-4.05-.916-4.752-3.943-4.752-2.699 0-5.128.864-6.587 1.566v20.898h-9.018V31.195m37.37 20.304V37.837h-4.318v-6.642h4.318v-6.049h8.964v6.049h9.128v6.642h-9.128v13.608c0 2.16.811 2.322 3.242 2.322 1.997 0 6.372-.594 6.372-.594l.864 7.074c-2.107.594-4.968 1.026-7.128 1.026-5.671 0-12.314.27-12.314-9.774M40.648 18.956V-.004C18.188-.004 0 18.185 0 40.644c0 22.46 18.189 40.65 40.648 40.65v-18.96c-11.988 0-21.688-9.701-21.688-21.69 0-11.987 9.7-21.688 21.688-21.688"/><path fill="#52aee5" d="M62.416 18.956a9.48 9.48 0 1 1 0-18.96 9.48 9.48 0 0 1 0 18.96"/><path fill="#ea048c" d="M62.257 81.293a9.48 9.48 0 0 1-9.48-9.48 9.48 9.48 0 0 1 9.48-9.48 9.48 9.48 0 1 1 0 18.96"/><path fill="#25275b" d="M62.337 40.644c0 11.989-9.7 21.69-21.689 21.69V18.955c11.988 0 21.689 9.7 21.689 21.688"/></svg>