<svg xmlns="http://www.w3.org/2000/svg" viewBox="4 4 42 42"><mask id="a" width="41" height="39" x="4" y="5" maskUnits="userSpaceOnUse" style="mask-type:alpha"><path fill="#000" d="M20.282 34.374c-5.598 2.735-12.163-.01-14.665-6.13-2.501-6.12.009-13.299 5.606-16.034 5.598-2.735 12.164.01 14.665 6.13 2.502 6.12-.008 13.299-5.606 16.034ZM40.444 21.89c-3.875 1.893-8.42-.006-10.152-4.244-1.732-4.237.006-9.207 3.881-11.1 3.875-1.894 8.42.006 10.152 4.244 1.732 4.237-.005 9.207-3.88 11.1ZM37.73 42.791c-3.121 1.526-6.783-.005-8.178-3.418-1.395-3.413.005-7.417 3.127-8.942 3.121-1.526 6.783.005 8.178 3.418 1.395 3.414-.005 7.417-3.127 8.942Z"/></mask><g mask="url(#a)"><path fill="#2E69C3" d="M6.34 32.584C11.864 43.9 26.37 48.972 38.735 43.916c12.367-5.056 17.912-18.327 12.386-29.64C45.596 2.96 31.092-2.114 18.725 2.942 6.358 8 .813 21.27 6.339 32.584Z"/><path fill="#6ACDE2" d="M14.856 30.133c2.946 7.18 10.68 10.399 17.273 7.19 6.594-3.208 9.55-11.629 6.604-18.808-2.946-7.18-10.68-10.399-17.273-7.19-6.594 3.208-9.55 11.628-6.604 18.808Z"/></g></svg>