<svg xmlns="http://www.w3.org/2000/svg" width="567" height="270"><path d="M62.137 270V0H0v270h62.137zm155.342 0c74.953 0 132.042-58.629 132.042-135 0-76.371-57.089-135-132.042-135H108.74v270h108.74zm0-59.4h-46.602V59.4h46.602c42.72 0 72.235 29.314 72.235 75.6 0 46.286-29.515 75.6-72.235 75.6zM408.551 0l40.859 69.514L492.58 0h70.536l-80.118 126.701 2.836 4.828L567 270h-70.68l-45.827-77.914L404.667 270h-70.68l81.166-138.471L337.87 0h70.68zM62.137 59.786v57.857H0V59.786h62.137zm108.74 0v57.857H108.74V59.786h62.137z" fill="#FFF" fill-rule="nonzero"/></svg>