<svg xmlns="http://www.w3.org/2000/svg" version="1.0" width="2933.333" height="2533.333" viewBox="0 0 2200 1900"><path d="M0 427.5V851h213l.2-205.3.3-205.3 268.4 220.8C629.5 782.6 750.9 882 751.7 882c1.1 0 1.3-68.8 1.3-422.5V37H540l-.2 203.5-.3 203.6-260-212.2C136.5 115.2 15.1 16.2 9.8 11.8L0 3.9v423.6zM886 444v407h222V551h334V363l-166.7-.2-166.8-.3-.3-62.8-.2-62.7h367V37H886v407zM1508 137.5V238h220v613h222V238h215V37h-657v100.5zM0 1444v407h146v-285h90.4c54.6 0 94.5-.4 100.7-1 59.8-6 109-28.4 155.6-70.9 46-42 72.4-92.3 81.5-155.6 1.8-12.2 1.7-61.8-.1-74.5-9.9-70.9-39.3-122.7-94.6-167.3-37.2-30-77.3-48.1-125.6-56.9l-12.4-2.3-170.7-.3L0 1037v407zm334.8-271.7c50 13.1 83.6 49 93.9 100.2 2.6 13.1 2.6 46.4-.1 59-5.6 26.8-16.7 47.9-34.5 65.6-19.6 19.5-42.9 31.2-71.1 35.4-7.7 1.2-25.4 1.5-93.2 1.5H146v-265.1l89.3.3 89.2.4 10.3 2.7zM1855 1149.5V1262h-76v128h76v461h140v-461h128v-128h-128v-225h-140v112.5zM912.5 1245.6c-1.6.2-7.9.9-14 1.5-49 4.9-98.1 22.5-139.5 50-19.8 13.3-33.9 24.8-51 41.9-41.2 41-67.2 86.4-80.6 140.5-17.6 71.1-9.3 152.8 21.9 215 32.1 64.1 91.3 119.9 157.2 148 58.2 24.9 127.5 32.6 193.5 21.5 64.9-11 120.7-39.5 168.9-86.4 27.6-27 46.8-53.3 62.7-86.1 13-26.9 21.7-55.7 26.5-87.5 2.1-13.9 2.4-18.9 2.4-47.5-.1-28.1-.4-33.8-2.3-46.5-9.1-58.5-29.5-104.7-65.4-148.2-9.1-11-32.1-34-43.3-43.3-47.8-39.7-99.6-62.2-163.5-71.1-10.9-1.5-65.8-2.9-73.5-1.8zm46 127.4c46.1 4.4 82.3 22.4 114.9 57.2 13.2 14 21.3 25.7 29.6 42.3 13.2 26.6 19 52 19 83.9 0 44.4-12 81.4-37.4 115.1-7 9.4-26.6 29.2-35.1 35.6-8.8 6.7-31.2 19.8-36.8 21.6-.4.2-2.2.9-4.1 1.7-4.2 1.7-19 6.2-23.1 7-1.6.3-4.6.8-6.5 1-1.9.3-5.1 1-7 1.6-2.2.7-13.9.9-32 .7-26.1-.4-29.5-.7-40.6-3-54-11.7-95.6-43.1-120.3-90.8-9.9-19-15.4-35.3-19.3-56.9-2.1-12.1-1.8-56.8.6-69.5 7.9-43.1 30.4-81.2 64.6-109.5 34.9-28.9 83.4-42.7 133.5-38zM1659.5 1251.1c-39.8 1.9-76.8 13.7-106.8 34.2-18.5 12.6-38.9 35.3-48.8 54.2l-4.4 8.4-.5-42.7-.5-42.7h-139l-.3 294.2-.2 294.3h139.9l.4-168.2c.3-151.1.5-169.1 2-176.1 7.6-36.4 20-60.4 42.3-81.8 4.9-4.7 12.3-10.8 16.4-13.6 16.9-11.4 39.4-20.3 61-24.3 22.1-4.1 57.6-3.7 84.8.8l10.2 1.8v-135.4l-2.3-.6c-9.2-2.3-33.7-3.4-54.2-2.5z"/></svg>