<svg width="129" height="31" viewBox="0 0 129 31" fill="none" xmlns="http://www.w3.org/2000/svg">
<path fill-rule="evenodd" clip-rule="evenodd" d="M56.8166 21.1895C57.513 19.2072 57.8549 17.1162 57.8264 15.0136C57.8538 12.9178 57.5119 10.8338 56.8166 8.8585C56.1962 7.09964 55.2291 5.48542 53.9734 4.11294C52.7406 2.7921 51.2403 1.7539 49.5742 1.06877C47.777 0.339597 45.8541 -0.0232479 43.9169 0.00122775C41.9824 -0.0241179 40.0626 0.343196 38.2719 1.08128C36.6123 1.7721 35.1161 2.80799 33.881 4.12128C32.6246 5.48998 31.6573 7.10166 31.0378 8.8585C30.3425 10.8338 30.0006 12.9178 30.028 15.0136C29.9995 17.1162 30.3414 19.2072 31.0378 21.1895C31.6573 22.9463 32.6246 24.558 33.881 25.9267C35.1143 27.2401 36.6112 28.2736 38.2719 28.9583C41.907 30.3816 45.9392 30.3816 49.5742 28.9583C51.238 28.2747 52.7378 27.2411 53.9734 25.9267C55.2299 24.558 56.1972 22.9463 56.8166 21.1895ZM54.8004 9.48832C55.3806 11.2706 55.6604 13.1382 55.6281 15.0137C55.6623 16.892 55.3825 18.7627 54.8004 20.5474C54.2913 22.0783 53.4757 23.4877 52.4042 24.6883C51.3726 25.8258 50.0994 26.7139 48.6796 27.2863C45.6156 28.471 42.2249 28.471 39.161 27.2863C37.743 26.7104 36.4706 25.8228 35.4363 24.6883C34.3598 23.4886 33.5387 22.0793 33.0236 20.5474C32.431 18.7646 32.1428 16.8936 32.171 15.0137C32.1483 13.1434 32.4379 11.2826 33.0277 9.50917C33.5392 7.96692 34.3605 6.54739 35.4405 5.33907C36.4766 4.20472 37.7484 3.31478 39.1651 2.73277C42.226 1.53164 45.6228 1.53164 48.6837 2.73277C50.1024 3.31122 51.3749 4.20167 52.4084 5.33907C53.4793 6.54249 54.2935 7.95476 54.8004 9.48832Z" fill="white"/>
<path fill-rule="evenodd" clip-rule="evenodd" d="M79.4886 30.025C80.1802 30.025 80.5714 29.2317 80.1503 28.6831L71.2059 17.0309C70.9639 16.699 70.6647 16.4163 70.3234 16.1968C71.5055 16.0661 72.6632 15.7599 73.761 15.2878C74.7232 14.8701 75.6051 14.2769 76.3644 13.5363C77.0754 12.8294 77.6367 11.9774 78.0127 11.0342C78.4055 10.0378 78.6015 8.97011 78.589 7.89408C78.5809 5.30581 77.7454 3.34307 76.0823 2.00584C74.4192 0.668613 71.9206 0 68.5864 0H61.9971C61.5365 0 61.1631 0.373417 61.1631 0.834051V29.191C61.1631 29.6516 61.5365 30.025 61.9971 30.025H62.4408C62.9014 30.025 63.2748 29.6516 63.2748 29.191V17.2811C63.2748 16.8205 63.6482 16.4471 64.1089 16.4471H67.0792C67.3231 16.4448 67.5668 16.4601 67.8086 16.4929C67.985 16.5118 68.1575 16.5582 68.3204 16.6305C68.4692 16.6918 68.6058 16.7809 68.7234 16.8933C68.8479 17.0217 68.9612 17.1612 69.062 17.3103L78.3714 29.4913C78.4801 29.6676 78.6315 29.8114 78.8106 29.9083C78.9945 29.9921 79.1942 30.032 79.395 30.025H79.4886ZM71.7386 14.3538C70.6165 14.6891 69.4527 14.8507 68.2849 14.8334H64.1096C63.649 14.8334 63.2755 14.46 63.2755 13.9994V2.55235C63.2755 2.09172 63.649 1.7183 64.1096 1.7183H68.5912C71.1677 1.72108 73.1276 2.23818 74.471 3.26959C75.8143 4.30101 76.486 5.88427 76.486 8.01939C76.5005 8.9906 76.3122 9.95361 75.9339 10.8426C75.5647 11.6769 75.0128 12.4108 74.3219 12.986C73.5568 13.6144 72.6787 14.0793 71.7386 14.3538Z" fill="white"/>
<path d="M95.6373 28.1131C96.9401 28.1372 98.2334 27.8845 99.4334 27.3714C100.513 26.8981 101.479 26.1945 102.264 25.3089C103.055 24.4014 103.659 23.3431 104.038 22.1963C104.451 20.9518 104.655 19.6462 104.641 18.3337V1.05838C104.641 0.473852 105.115 0 105.699 0C106.284 0 106.757 0.473851 106.757 1.05838V18.3337C106.771 19.8953 106.511 21.4469 105.99 22.9172C105.504 24.2896 104.753 25.5504 103.778 26.6256C102.799 27.7002 101.605 28.5524 100.275 29.1256C97.2975 30.3259 93.9771 30.3259 90.9994 29.1256C89.6688 28.5535 88.4745 27.7011 87.4962 26.6256C86.5205 25.5515 85.7685 24.2904 85.2846 22.9172C84.7635 21.4469 84.5036 19.8953 84.5171 18.3337V1.0625C84.5171 0.475698 84.9928 0 85.5796 0C86.1664 0 86.6421 0.475699 86.6421 1.0625V18.3087C86.6301 19.6231 86.8366 20.9301 87.2528 22.1755C87.6327 23.3203 88.2329 24.3781 89.0188 25.2881C89.7972 26.181 90.7589 26.892 91.837 27.3714C93.0371 27.8889 94.3327 28.1418 95.6373 28.1131Z" fill="white"/>
<path d="M127.699 3.89982C127.608 4.11514 127.4 4.25466 127.169 4.25423C126.904 4.20945 126.662 4.07411 126.483 3.87063C126.127 3.56401 125.748 3.28524 125.35 3.03673C124.788 2.68134 124.187 2.39312 123.559 2.17781C121.794 1.6249 119.904 1.63946 118.147 2.21951C117.402 2.49295 116.72 2.91867 116.143 3.47036C115.61 3.98403 115.19 4.60641 114.911 5.29661C114.635 5.98774 114.495 6.72728 114.5 7.47309C114.466 8.33968 114.681 9.19771 115.121 9.94145C115.548 10.607 116.108 11.175 116.763 11.6093C117.488 12.0858 118.267 12.4721 119.083 12.76C119.946 13.0686 120.837 13.3771 121.748 13.6815C122.66 13.9859 123.551 14.3236 124.414 14.6864C125.246 15.0349 126.027 15.4994 126.734 16.0665C127.415 16.6241 127.975 17.3199 128.376 18.1095C128.819 19.0507 129.031 20.0861 128.996 21.1283C129.007 22.3146 128.8 23.4925 128.385 24.6015C127.983 25.6635 127.366 26.628 126.574 27.4326C125.745 28.2594 124.758 28.905 123.674 29.3297C122.421 29.8116 121.089 30.0465 119.749 30.0218C118.05 30.0678 116.364 29.7168 114.821 28.9961C113.764 28.4688 112.794 27.7822 111.944 26.9615C111.485 26.5184 111.439 25.813 111.778 25.2727C111.908 25.0823 112.12 24.9662 112.349 24.96C112.529 24.9878 112.695 25.0759 112.821 25.2102L113.515 25.819C113.786 26.065 114.114 26.3276 114.496 26.6112C114.912 26.917 115.356 27.1809 115.823 27.3992C117.066 27.9816 118.421 28.2751 119.79 28.2581C120.836 28.2764 121.876 28.0968 122.857 27.7286C123.704 27.4036 124.476 26.907 125.128 26.2693C125.748 25.6582 126.231 24.9187 126.545 24.1011C126.877 23.2464 127.044 22.3348 127.038 21.4159C127.073 20.5185 126.856 19.6293 126.413 18.8517C125.991 18.1815 125.431 17.6125 124.771 17.1839C124.046 16.7143 123.269 16.3349 122.455 16.054C121.588 15.7496 120.701 15.4535 119.786 15.1617C118.87 14.8698 117.987 14.5488 117.12 14.186C116.285 13.8454 115.503 13.3818 114.8 12.8101C114.113 12.242 113.553 11.5312 113.158 10.7253C112.71 9.74159 112.496 8.66464 112.533 7.5815C112.533 6.60633 112.72 5.64046 113.084 4.73789C113.452 3.82882 114.001 3.0069 114.698 2.32374C115.457 1.59727 116.35 1.03045 117.326 0.655938C118.463 0.208665 119.675 -0.0135334 120.894 0.00132407C122.273 -0.0204204 123.643 0.225837 124.931 0.72682C125.827 1.09707 126.661 1.60141 127.405 2.22139C127.897 2.63041 127.991 3.3312 127.699 3.89982Z" fill="white"/>
<path fill-rule="evenodd" clip-rule="evenodd" d="M2.81098 0C1.25852 0 0 1.25852 0 2.81098V6.08556C0 7.63802 1.25852 8.89654 2.81098 8.89654H7.78437V27.2148C7.78437 28.7673 9.04289 30.0258 10.5954 30.0258H13.8699C15.4224 30.0258 16.6809 28.7673 16.6809 27.2148V6.10936C16.681 6.10143 16.681 6.0935 16.681 6.08556V2.81098C16.681 1.25852 15.4225 0 13.87 0H10.5954H2.81098Z" fill="white"/>
<path d="M23.3535 8.89654C25.8103 8.89654 27.8018 6.90498 27.8018 4.44827C27.8018 1.99156 25.8103 0 23.3535 0C20.8968 0 18.9053 1.99156 18.9053 4.44827C18.9053 6.90498 20.8968 8.89654 23.3535 8.89654Z" fill="white"/>
</svg>
