<svg xmlns="http://www.w3.org/2000/svg" width="72" height="72" fill="none"><path fill-rule="evenodd" clip-rule="evenodd" d="M6.74056 0C3.01785 0 0 3.01784 0 6.74055V14.5928C0 18.3155 3.01785 21.3333 6.74055 21.3333H18.6664V65.2594C18.6664 68.9821 21.6843 72 25.407 72H33.2592C36.9819 72 39.9998 68.9821 39.9998 65.2594V14.6499C39.9999 14.6308 40 14.6118 40 14.5928V6.74056C40 3.01785 36.9821 0 33.2594 0H25.407H6.74056Z" fill="#0364FF"/><path d="M56.0006 21.3333C61.8917 21.3333 66.6673 16.5577 66.6673 10.6667C66.6673 4.77563 61.8917 0 56.0006 0C50.1096 0 45.334 4.77563 45.334 10.6667C45.334 16.5577 50.1096 21.3333 56.0006 21.3333Z" fill="#0364FF"/></svg>