<svg xmlns="http://www.w3.org/2000/svg" viewBox="5 5 40 40"><path fill="url(#a)" fill-rule="evenodd" d="M45 25c0-2.6-.52-5.24-1.52-7.64-1-2.4-2.48-4.64-4.32-6.52-1.88-1.84-4.08-3.32-6.52-4.32C30.2 5.52 27.6 5 25 5c-2.6 0-5.24.52-7.64 1.52-2.4 1-4.64 2.48-6.52 4.32-1.84 1.88-3.32 4.08-4.32 6.52C5.52 19.8 5 22.4 5 25c0 2.6.52 5.24 1.52 7.64 1 2.4 2.48 4.64 4.32 6.52 1.84 1.84 4.08 3.32 6.48 4.32 2.4 1 5.08 1.52 7.68 1.52 2.6 0 5.24-.52 7.64-1.52 2.4-1 4.64-2.48 6.52-4.32 1.84-1.84 3.32-4.08 4.32-6.48 1-2.4 1.52-5.08 1.52-7.68Z" clip-rule="evenodd"/><path fill="#fff" fill-rule="evenodd" d="M23.96 15.96h2.08v18.08h-2.08V15.96Z" clip-rule="evenodd"/><path fill="#fff" fill-rule="evenodd" d="M22.797 24.48v-2.16c-1.64-.8-2.8-2.52-2.8-4.48 0-2.76 2.24-5 5-5 3.12 0 5.36 2.24 5.36 5 0 .68-.16 1.36-.48 2.16l-.88-2.88-1.76.56 1.56 5.96 6.08-2.24-.76-1.76-2.28.76c.4-.88.48-1.56.48-2.6 0-3.88-3.12-7-7.36-7-3.88 0-7 3.12-7 7 .04 3.12 2.04 5.76 4.84 6.68Zm4.404 1.04v2.16c1.64.8 2.8 2.52 2.8 4.48 0 2.76-2.24 5-5 5-3.12 0-5.36-2.24-5.36-5 0-.68.16-1.36.48-2.16l.88 2.88 1.76-.56-1.56-5.96-6.08 2.24.76 1.76 2.28-.76c-.4.88-.48 1.56-.48 2.6 0 3.88 3.12 7 7.36 7 3.88 0 7-3.12 7-7-.04-3.12-2.04-5.76-4.84-6.68Z" clip-rule="evenodd"/><defs><linearGradient id="a" x1="5" x2="45" y1="5" y2="45" gradientUnits="userSpaceOnUse"><stop stop-color="#0077FC"/><stop offset="1" stop-color="#095EB5"/></linearGradient></defs></svg>