<svg xmlns="http://www.w3.org/2000/svg" viewBox="0 0 500 500"><circle cx="250" cy="250" r="250" fill="#a36efe"/><path fill="#4c2896" d="M358.06 146.39c-.69-11.34-4.86-20.41-30.53-20.54-10.98-.39-148.11-.39-155.05 0-25.67.13-29.84 9.2-30.53 20.54-.43 23.76 6.43 89.65 7.8 110.81 31.05 11.77 64.75 17.24 100.25 16.85 35.5.39 69.21-5.08 100.25-16.85 1.38-21.16 8.24-87.05 7.81-110.81z"/><path fill="#4c2896" d="M378.84 266.98c-8.81.66-23.79 11.15-23.79 11.15-1.14 11.44-1.6 24.36-1.6 24.36-14.17 20.45-51.51 36.68-103.46 37.45-51.94-.77-89.29-16.99-103.46-37.45 0 0-.46-12.92-1.6-24.36 0 0-14.98-10.49-23.79-11.15-32.59 0-22.18 48.2 15.09 77.02 6.88 6.42 45.3 29.46 113.62 30.44v.01h.26v-.01c68.32-.98 106.74-24.02 113.62-30.44 37.3-28.83 47.7-77.02 15.11-77.02z"/></svg>