<svg xmlns="http://www.w3.org/2000/svg" viewBox="0 0 512 512"><circle cx="256" cy="256" r="256" fill="#000"/><path fill="#fff" fill-rule="evenodd" d="M276.433 125.861 286.61 60.35A200.652 200.652 0 0 0 255.999 58h-.158v133.65h.158c5.636 0 11.207.726 16.579 2.151l17.292-65.128a133.204 133.204 0 0 0-13.424-2.812h-.013Zm-52.655 74.422-33.264-57.302h-.013c-3.921 2.284-7.749 4.752-11.405 7.419l-39.719-54.424a199.25 199.25 0 0 1 26.44-16.288l30.228 59.003a132.73 132.73 0 0 1 19.047-7.92l-20.565-63.03a197.695 197.695 0 0 1 30.228-7.286l10.573 66.541c-4.475.713-8.923 1.69-13.306 2.865l17.213 63.98a64.129 64.129 0 0 0-15.457 6.442ZM79.45 166.281l60.047 30.571a130.55 130.55 0 0 0-7.814 18.916L67.57 195.031a197.027 197.027 0 0 1 11.88-28.75Zm289.529 24.167-57.288 33.291a63.612 63.612 0 0 1 6.442 15.457l63.98-17.239c1.175 4.382 2.152 8.831 2.864 13.292l66.542-10.599a196.22 196.22 0 0 0-7.3-30.228l-63.017 20.605a131.116 131.116 0 0 0-7.933-19.048l58.991-30.267a197.878 197.878 0 0 0-16.302-26.427l-54.41 39.745a130.116 130.116 0 0 1 7.418 11.405l.013.013Zm-23.37-111.053.006.002v-.013l-.006.01ZM316.852 67.53a197.695 197.695 0 0 1 28.757 11.864l-30.526 60.062a129.897 129.897 0 0 0-18.929-7.801l20.698-64.125Zm4.843 74.277-33.647 58.384a64.77 64.77 0 0 1 13.359 10.23l94.353-94.671a198.499 198.499 0 0 0-23.628-20.13l-38.913 53.658a129.246 129.246 0 0 0-11.524-7.471Zm-121.478 82.104-58.371-33.674h-.013a134.118 134.118 0 0 1 7.485-11.51l-53.645-38.94a199.643 199.643 0 0 1 20.143-23.615l94.644 94.38a64.866 64.866 0 0 0-10.243 13.359Zm-71.518-1.848 65.116 17.332h-.014a64.776 64.776 0 0 0-2.151 16.606H58c0-10.283.805-20.619 2.376-30.717l65.512 10.204a129.458 129.458 0 0 1 2.811-13.425Zm243.804 93.084 60.046 30.571a196.871 196.871 0 0 0 11.88-28.75l-64.112-20.737a130.616 130.616 0 0 1-7.814 18.916Zm-84.283-3.431 33.264 57.302.013.013c3.921-2.284 7.749-4.752 11.405-7.419l39.719 54.424a199.347 199.347 0 0 1-26.44 16.289l-30.228-59.004a132.73 132.73 0 0 1-19.047 7.92l20.565 63.03a197.81 197.81 0 0 1-30.228 7.286l-10.573-66.554c4.475-.713 8.923-1.69 13.306-2.865l-17.213-63.98a64.145 64.145 0 0 0 15.457-6.442Zm-145.199 9.834 57.288-33.29a63.632 63.632 0 0 1-6.441-15.458l-63.981 17.24c-1.175-4.383-2.151-8.831-2.864-13.293l-66.554 10.6a196.207 196.207 0 0 0 7.3 30.228l63.016-20.605a131.104 131.104 0 0 0 7.933 19.047l-58.99 30.268a197.744 197.744 0 0 0 16.301 26.426l54.411-39.745a129.6 129.6 0 0 1-7.419-11.405v-.013Zm23.368 111.054-.005-.003v.013l.005-.01Zm0 0a197.75 197.75 0 0 0 28.758 11.864l20.697-64.126a129.832 129.832 0 0 1-18.929-7.801l-30.526 60.063Zm23.914-62.413.003-.005.01.005h-.013Zm.003-.005 33.644-58.378a64.84 64.84 0 0 1-13.359-10.23l-94.34 94.67a198.426 198.426 0 0 0 23.628 20.13l38.913-53.658a129.181 129.181 0 0 0 11.514 7.466Zm121.49-82.099 58.37 33.673v.013a134.123 134.123 0 0 1-7.484 11.511l53.645 38.94a199.621 199.621 0 0 1-20.144 23.614l-94.63-94.393a64.868 64.868 0 0 0 10.243-13.358Zm-72.376 30.11v.004l-.013-.004h.013Zm0 .004-17.292 65.125a133.165 133.165 0 0 0 13.425 2.812l-10.177 65.511a200.579 200.579 0 0 0 30.61 2.35h.159V320.35h-.159a64.635 64.635 0 0 1-16.566-2.148Zm78.778-45.597a64.762 64.762 0 0 0 2.151-16.592h133.65c0 10.283-.805 20.618-2.376 30.716l-65.498-10.217c-.7 4.515-1.637 9.003-2.812 13.425l-65.115-17.332Z" clip-rule="evenodd"/></svg>