<svg xmlns="http://www.w3.org/2000/svg" fill="none" viewBox="0 0 96 96"><path fill="#fff" d="M48 95a47 47 0 1 0 0-94 47 47 0 0 0 0 94Z"/><path fill="#F6941A" d="M58.71 46.143c2.515-1.362 4.09-3.76 3.722-7.756-.495-5.46-4.933-7.291-10.535-7.813L51.896 23h-4.34l-.002 7.375c-1.142 0-2.306.024-3.465.049V23h-4.337l-.001 7.572c-.94.02-1.863.04-2.764.04v-.023L31 30.588v4.923s3.206-.064 3.153-.002c1.758.001 2.332 1.086 2.497 2.022l.001 8.628v12.12c-.077.588-.403 1.526-1.632 1.528.056.052-3.157 0-3.157 0L31 65.31h5.647c1.053.002 2.087.02 3.101.028l.004 7.66 4.335.001v-7.58c1.192.026 2.343.037 3.468.036L47.554 73h4.34l.003-7.647c7.296-.445 12.404-2.398 13.039-9.677.512-5.86-2.085-8.477-6.227-9.533Zm-14.517-10.3c2.448 0 10.147-.828 10.148 4.605-.001 5.209-7.698 4.6-10.148 4.6v-9.205Zm-.002 24.001.002-10.149c2.941 0 12.166-.9 12.167 5.072.002 5.727-9.226 5.075-12.169 5.077Z"/><circle cx="48" cy="48" r="37" stroke="#657786" stroke-width="4"/><circle cx="48" cy="48" r="45" stroke="#283947" stroke-width="4"/><path stroke="#fff" stroke-width="4" d="M77.065 79 63.676 66.048M27.478 31.031 16 20m3.049 59 13.388-12.952m36.198-35.017L80 20"/></svg>