<svg xmlns="http://www.w3.org/2000/svg" viewBox="0 0 16 17"><path fill="url(#a)" d="M15.958 2.887c.528 7.147-4.066 10.525-8.184 10.885C3.945 14.107.34 11.754.024 8.14-.235 5.153 1.61 3.882 3.06 3.755c1.491-.13 2.745.898 2.853 2.143.105 1.198-.642 1.743-1.162 1.788-.41.036-.927-.213-.974-.75-.04-.46.135-.522.092-1.011-.076-.87-.835-.972-1.25-.936-.504.044-1.416.631-1.288 2.093.129 1.475 1.543 2.64 3.396 2.478 2-.174 3.394-1.732 3.498-3.917a.794.794 0 0 1 .072-.335v-.003a.941.941 0 0 1 .076-.131 1.75 1.75 0 0 1 .168-.212c0-.002 0-.002.002-.002.051-.058.113-.121.183-.188.874-.825 4.021-2.77 6.998-2.154a.298.298 0 0 1 .234.27Z"/><defs><linearGradient id="a" x1="15.553" x2="5.196" y1="2.816" y2="17.475" gradientUnits="userSpaceOnUse"><stop stop-color="#11C4D1"/><stop offset="1" stop-color="#0062AD"/></linearGradient></defs></svg>