<svg xmlns="http://www.w3.org/2000/svg" viewBox="0 0 664.3 202.7"><path d="M205.3 200.7h-22V53.8h22v10.4c8.7-8.7 18.5-13 29.5-13 13.1 0 23.9 4.8 32.3 14.5 8.6 9.6 12.9 21.6 12.9 36.2 0 14.3-4.3 26.1-12.8 35.6-8 9.2-19.8 14.4-32 14.2-11.1 0-21.1-4.5-29.9-13.4v62.4zm52.3-98.8c0-9.1-2.5-16.5-7.4-22.3-4.6-5.6-11.6-8.8-18.9-8.7-8.1 0-14.6 2.8-19.6 8.4s-7.5 13-7.5 22.1c0 8.9 2.5 16.3 7.5 22.1s11.5 8.5 19.5 8.5c7.3.2 14.2-3 18.8-8.6 5-5.7 7.6-12.9 7.6-21.5zm41.2-1.2c-.2-13.2 5.1-26 14.7-35.1 9.5-9.5 22.5-14.7 35.9-14.5 14.2 0 26.2 4.9 36.1 14.6s14.6 21.6 14.6 35.7c0 14.3-4.9 26.2-14.7 35.8s-22 14.4-36.4 14.4-26.2-4.9-35.8-14.6-14.4-21.8-14.4-36.3zm22.5.4c0 9.5 2.5 17 7.6 22.6 5.1 5.6 12.1 8.4 20.6 8.4s15.5-2.8 20.6-8.3 7.7-12.9 7.7-22.2-2.6-16.6-7.7-22.2S358 71 349.5 71s-15.2 2.8-20.4 8.4-7.8 12.8-7.8 21.7zm102.2-47.3h22v8.5c4-4.2 7.6-7.1 10.7-8.7 3.5-1.7 7.4-2.5 11.3-2.4 5.8 0 11.8 1.9 18.2 5.7L475.6 77c-4.2-3-8.2-4.5-12.2-4.5-12 0-18 9-18 27.1v49.3h-22l.1-95.1zM521 74.3v74.6h-22V74.3h-9.4V53.8h9.4V18.9h22v34.9h17.1v20.5H521zm28.7-60.1c0-3.8 1.5-7.4 4.2-10 5.6-5.6 14.7-5.6 20.3 0 2.8 2.6 4.3 6.3 4.2 10.1.1 3.8-1.5 7.5-4.2 10.2-2.6 2.8-6.3 4.3-10.1 4.2-3.8.1-7.5-1.5-10.2-4.2-2.8-2.7-4.3-6.4-4.2-10.3zM575 53.8v95.1h-22V53.8h22zM658.1 70l-18.2 9.7c-2.9-5.9-6.4-8.8-10.6-8.8-1.9 0-3.8.7-5.2 2-1.4 1.3-2.2 3.2-2.1 5.1 0 3.6 4.2 7.3 12.7 10.8 11.7 5 19.5 9.6 23.5 13.9s6.1 9.9 6.1 17.1c.2 8.8-3.6 17.2-10.2 23-6.5 5.9-15 9-23.8 8.8-16 0-27.2-7.8-33.9-23.3l18.8-8.7c2.6 4.6 4.6 7.5 6 8.7 2.6 2.4 6 3.8 9.6 3.7 7.4 0 11.1-3.4 11.1-10.2 0-3.9-2.9-7.6-8.6-10.9-2.2-1.1-4.4-2.2-6.6-3.2s-4.5-2.1-6.7-3.2c-6.4-3.1-10.9-6.2-13.5-9.4-3.3-4-5-9.1-5-15.3 0-8.3 2.8-15.1 8.5-20.5s13.3-8.3 21.1-8.1c12-.1 21 6.2 27 18.8zm-591 20.1-2.4 1v2.6l2.4-1 2.4 1v-2.6l-2.4-1zm2.3-1.6-2.4-1-2.4 1v5.1l2.4-1 2.4 1v-5.1zm0 2.6-2.4-1-2.4 1v2.6l2.4-1 2.4 1v-2.6zm0 0-2.4-1v2.6l2.4 1v-2.6zm0 0-2.4-1v2.6l2.4 1v-2.6zm0 0-2.4-1v2.6l2.4 1v-2.6zm0 0-2.4-1v2.6l2.4 1v-2.6zm0 0-2.4-1v2.6l2.4 1v-2.6zm0 0-2.4-1v2.6l2.4 1v-2.6zm0 0-2.4-1v2.6l2.4 1v-2.6zm0 0-2.4-1v2.6l2.4 1v-2.6zm0 0-2.4-1v2.6l2.4 1v-2.6zm0 0-2.4-1v2.6l2.4 1v-2.6zm0 0-2.4-1v2.6l2.4 1v-2.6zm0 0-2.4-1v2.6l2.4 1v-2.6zm0 0-2.4-1v2.6l2.4 1v-2.6zm62.7 25.7-.3-1.1-2.2-.9-8.5-3.7-2.7-1.2-2.7-1.2-2.5 1.5-2.5 1.5 2.7 1.2 2.7 1.2 8.5 3.7 2 .9-.5 1-1.9 3.9 3.7-2.2.3-.2c.2 1.2.4 2.5.6 3.8l1.8-3.7 1.7-3.5c-.1-.3-.2-.7-.2-1zm-65-26.7v2.6l2.4 1v-2.6l-2.4-1zm2.3 1-2.4-1v2.6l2.4 1v-2.6zm0 0-2.4-1v2.6l2.4 1v-2.6zm0 0-2.4-1v2.6l2.4 1v-2.6zm0 0-2.4-1v2.6l2.4 1v-2.6zm0 0-2.4-1v2.6l2.4 1v-2.6zm0 0-2.4-1v2.6l2.4 1v-2.6zm0 0-2.4-1v2.6l2.4 1v-2.6zm0 0-2.4-1v2.6l2.4 1v-2.6zm0 0-2.4-1v2.6l2.4 1v-2.6zm0 0-2.4-1v2.6l2.4 1v-2.6zm0 0-2.4-1v2.6l2.4 1v-2.6zm0 0-2.4-1v2.6l2.4 1v-2.6zm-4.7 0v2.6l2.4-1v-2.6l-2.4 1zm0 0v2.6l2.4-1v-2.6l-2.4 1zm1 78.2-2.7.4-2.7.4-.6 1.5c-.2.4-.3.7-.5 1.1l-.3.6-.3.6c-.2.3-.3.6-.5.9l-.3.5 2.9-.4 2.8-.4c.4-.8.8-1.6 1.1-2.5v-.1c.1-.3.3-.7.4-1s.3-.7.4-1l.3-.6zm-1-78.2v2.6l2.4-1v-2.6l-2.4 1zm0 0v2.6l2.4-1v-2.6l-2.4 1zm0 0v2.6l2.4-1v-2.6l-2.4 1zm0 0v2.6l2.4-1v-2.6l-2.4 1zm0 0v2.6l2.4-1v-2.6l-2.4 1zm0 0v2.6l2.4-1v-2.6l-2.4 1zm0 0v2.6l2.4-1v-2.6l-2.4 1zm0 0v2.6l2.4-1v-2.6l-2.4 1zm0 0v2.6l2.4-1v-2.6l-2.4 1zm0 0v2.6l2.4-1v-2.6l-2.4 1zm0 0v2.6l2.4-1v-2.6l-2.4 1zm0 0v2.6l2.4-1v-2.6l-2.4 1zm-46.2 17.5-2.6 1.1-2.6 1.1-8.5 3.7-2.2.9-.3 1.1c0 .1-.1.3-.1.4l.9 8.9.2 2.3 1.8 2c.1-1.4.2-2.8.3-4.3.2-1.7.4-3.4.8-5.1l1.1.7-.3-2.9 2.7-1.2 8.6-3.7 2.6-1.1 2.6-1.1-2.5-1.5-2.5-1.3zm46.2-17.5v2.6l2.4-1v-2.6l-2.4 1zm0 0v2.6l2.4-1v-2.6l-2.4 1zm0 0v2.6l2.4-1v-2.6l-2.4 1zm0 0v2.6l2.4-1v-2.6l-2.4 1zm0 0v2.6l2.4-1v-2.6l-2.4 1zm0 0v2.6l2.4-1v-2.6l-2.4 1zm0 0v2.6l2.4-1v-2.6l-2.4 1zm0 0v2.6l2.4-1v-2.6l-2.4 1zm0 0v2.6l2.4-1v-2.6l-2.4 1zm0 0v2.6l2.4-1v-2.6l-2.4 1zm0 0v2.6l2.4-1v-2.6l-2.4 1zm0 0v2.6l2.4-1v-2.6l-2.4 1zm9.3 79.4c-.1-.2-.2-.3-.2-.5-.2-.6-.4-1.2-.7-1.7l-2.4.3-2.4.3c.1.3.2.5.3.8l.6 1.5c.1.2.2.4.2.6.2.6.5 1.1.7 1.7l2.4-.3 2.4-.3c-.2-.8-.5-1.6-.9-2.4zm-4.6-79.4-2.4-1-2.4 1v2.6l2.4-1 2.4 1v-2.6zm0 0-2.4-1-2.4 1v2.6l2.4-1 2.4 1v-2.6z"/><path d="m58.5 81.3-2.4 1v2.6l2.4-1.1 2.4-1.1 3.9-1.8v-2.6l-6.3 3zm0 0-2.4 1v2.6l2.4-1.1 2.4-1.1 3.9-1.8v-2.6l-6.3 3zm60.2 4.7c-2.3-2.8-4.7-5.2-7.3-7.5-1.7-1.5-3.5-2.9-5.3-4.2l3.5 5.8 6 10 2.1 3.6 3.8 1.7 3.8 1.7-6.6-11.1zM67.1 61.7h-2.4v9.9l2.4-1.1 2.4 1.1v-9.9h-2.4zm2.3 12L67 74.8l-.6.3-1.7.8-3.9 1.7-2.3 1.1-2.4 1v5.2l2.4-1.1 2.4-1.1 3.9-1.8v55l-3.9-2.3-2.4-1.4-2.4-1.4-32.6-19.2-2.5-1.5-2.5-1.4-6.3-3.8-1.9-1.1.5-.9 2.1-3.6 3.5-5.8 2.1-3.6.8-1.2 1.4-2.3 3.9-6.4 3.5-5.8c-1.8 1.3-3.6 2.7-5.3 4.2-2.6 2.3-5 4.8-7.2 7.4l-.1.1-2.3 3.9-7.8 12.9-.2.3v.1c-.1.2-.1.3-.2.5l-.8 2 1.5.9.1.1 1.1.6 6.2 3.7 2.5 1.5 2.5 1.5 38 22.5 8.6 5.1 1.7 1 .6.4.6-.4 1.7-1 .1-67.8zm-10.9 7.6-2.4 1v2.6l2.4-1.1 2.4-1.1 3.9-1.8v-2.6l-6.3 3zm0 0-2.4 1v2.6l2.4-1.1 2.4-1.1 3.9-1.8v-2.6l-6.3 3z"/><path d="m67.5 156.9-.1-.4c-.1-.3-.1-.5-.1-.8v-.4c0-.3-.1-.5-.1-.8 0 .2-.1.4-.1.6s0 .3-.1.4c0 .1 0 .3-.1.4 0 .2-.1.4-.1.7 0 .1-.1.3-.1.4l.4.2.4-.3zm0 0c0-.1 0-.3-.1-.4-.1-.3-.1-.5-.1-.8v-.4c0-.3-.1-.5-.1-.8 0 .2-.1.4-.1.6s0 .3-.1.4c0 .1 0 .3-.1.4 0 .2-.1.4-.1.7 0 .1-.1.3-.1.4l.4.2.4-.3zm0 0c0-.1 0-.3-.1-.4-.1-.3-.1-.5-.1-.8v-.4c0-.3-.1-.5-.1-.8 0 .2-.1.4-.1.6s0 .3-.1.4c0 .1 0 .3-.1.4 0 .2-.1.4-.1.7 0 .1-.1.3-.1.4l.4.2.4-.3zm0 0c0-.1 0-.3-.1-.4-.1-.3-.1-.5-.1-.8v-.4c0-.3-.1-.5-.1-.8 0 .2-.1.4-.1.6s0 .3-.1.4c0 .1 0 .3-.1.4 0 .2-.1.4-.1.7 0 .1-.1.3-.1.4l.4.2.4-.3zm0 0c0-.1 0-.3-.1-.4-.1-.3-.1-.5-.1-.8v-.4c0-.3-.1-.5-.1-.8 0 .2-.1.4-.1.6s0 .3-.1.4c0 .1 0 .3-.1.4 0 .2-.1.4-.1.7 0 .1-.1.3-.1.4l.4.2.4-.3zm0 0c0-.1 0-.3-.1-.4-.1-.3-.1-.5-.1-.8v-.4c0-.3-.1-.5-.1-.8 0 .2-.1.4-.1.6s0 .3-.1.4c0 .1 0 .3-.1.4 0 .2-.1.4-.1.7 0 .1-.1.3-.1.4l.4.2.4-.3zm0 0c0-.1 0-.3-.1-.4-.1-.3-.1-.5-.1-.8v-.4c0-.3-.1-.5-.1-.8 0 .2-.1.4-.1.6s0 .3-.1.4c0 .1 0 .3-.1.4 0 .2-.1.4-.1.7 0 .1-.1.3-.1.4l.4.2.4-.3zm0 0c0-.1 0-.3-.1-.4-.1-.3-.1-.5-.1-.8v-.4c0-.3-.1-.5-.1-.8 0 .2-.1.4-.1.6s0 .3-.1.4c0 .1 0 .3-.1.4 0 .2-.1.4-.1.7 0 .1-.1.3-.1.4l.4.2.4-.3zm0 0c0-.1 0-.3-.1-.4-.1-.3-.1-.5-.1-.8v-.4c0-.3-.1-.5-.1-.8 0 .2-.1.4-.1.6s0 .3-.1.4c0 .1 0 .3-.1.4 0 .2-.1.4-.1.7 0 .1-.1.3-.1.4l.4.2.4-.3zm0 0c0-.1 0-.3-.1-.4-.1-.3-.1-.5-.1-.8v-.4c0-.3-.1-.5-.1-.8 0 .2-.1.4-.1.6s0 .3-.1.4c0 .1 0 .3-.1.4 0 .2-.1.4-.1.7 0 .1-.1.3-.1.4l.4.2.4-.3zm0 0c0-.1 0-.3-.1-.4-.1-.3-.1-.5-.1-.8v-.4c0-.3-.1-.5-.1-.8 0 .2-.1.4-.1.6s0 .3-.1.4c0 .1 0 .3-.1.4 0 .2-.1.4-.1.7 0 .1-.1.3-.1.4l.4.2.4-.3zm0 0c0-.1 0-.3-.1-.4-.1-.3-.1-.5-.1-.8v-.4c0-.3-.1-.5-.1-.8 0 .2-.1.4-.1.6s0 .3-.1.4c0 .1 0 .3-.1.4 0 .2-.1.4-.1.7 0 .1-.1.3-.1.4l.4.2.4-.3zm0 0c0-.1 0-.3-.1-.4-.1-.3-.1-.5-.1-.8v-.4c0-.3-.1-.5-.1-.8 0 .2-.1.4-.1.6s0 .3-.1.4c0 .1 0 .3-.1.4 0 .2-.1.4-.1.7 0 .1-.1.3-.1.4l.4.2.4-.3zm0 0c0-.1 0-.3-.1-.4-.1-.3-.1-.5-.1-.8v-.4c0-.3-.1-.5-.1-.8 0 .2-.1.4-.1.6s0 .3-.1.4c0 .1 0 .3-.1.4 0 .2-.1.4-.1.7 0 .1-.1.3-.1.4l.4.2.4-.3zm0 0c0-.1 0-.3-.1-.4-.1-.3-.1-.5-.1-.8v-.4c0-.3-.1-.5-.1-.8 0 .2-.1.4-.1.6s0 .3-.1.4c0 .1 0 .3-.1.4 0 .2-.1.4-.1.7 0 .1-.1.3-.1.4l.4.2.4-.3zm-.1-.4c-.1-.3-.1-.5-.1-.8v-.4c0-.3-.1-.5-.1-.8 0 .2-.1.4-.1.6s0 .3-.1.4c0 .1 0 .3-.1.4 0 .2-.1.4-.1.7 0 .1-.1.3-.1.4l.4.2.4-.2c0-.2 0-.4-.1-.5zm64.9-38.9c-.1-.3-.1-.6-.2-.8l-.3-1.1-2.2-.9-2.5 1.5-2.5 1.5-55.7 32.9-1.8 1.1-1.8-1.1-55.7-33-2.5-1.5-2.6-1.5-2.2.9-.3 1.1c0 .1-.1.3-.1.4C.6 122.3 0 127.6 0 132.9v1c0 .7 0 1.4.1 2.1v1.6c0 .7.1 1.3.2 2 .1.6.1 1.1.2 1.7 0 .3.1.6.1.8l.6 3.6.3 1.5c.4 1.7.8 3.4 1.3 5 .2.6.3 1.1.5 1.7 1.1 3.4 2.4 6.8 4 10 .3.5.5 1.1.8 1.6l.6 1.2c.2.4.5.9.7 1.3s.6 1.1.9 1.6l.4.7c.4.7.9 1.4 1.4 2.1s1 1.4 1.4 2.1c.3.5.7.9 1 1.4.4.6.9 1.2 1.4 1.7l.2.2.5.7c.4.4.7.9 1.1 1.3l.6.6c.4.4.8.8 1.1 1.2l.6.6.6.6.6.6.6.6.7.7.5.5c.2.2.5.4.7.6.3.2.5.4.7.7l.6.5.4.3.2.2.3.3.2.2c.2.1.3.3.5.4l.5.4.1.1h.1l.8.6.3.2.4.3.9.6 1 .7.2.1.1.1c.1.1.2.1.3.2l.3.2c.8.6 1.7 1.1 2.5 1.6l.5.3.3.2c7.2 4.2 15.1 7 23.3 8.2.6.1 1.3.2 1.9.2l.5.1h.6c.2 0 .4 0 .6.1h1.6c.4 0 .9.1 1.3.1H67c5 0 10-.6 14.8-1.8.6-.1 1.2-.3 1.8-.5l3-.9.9-.3c.7-.2 1.4-.5 2-.7.9-.4 1.9-.8 2.8-1.2 4.3-1.9 8.3-4.2 12.1-6.9.3-.3.7-.5 1-.7l.2-.2.2-.2c.2-.2.5-.3.7-.5s.4-.3.6-.5l.5-.4.2-.2.2-.1c1.7-1.4 3.4-2.9 5-4.5l1.4-1.4c1.3-1.4 2.5-2.8 3.7-4.2 10.3-12.6 15.9-28.3 16-44.6 0-5.2-.6-10.3-1.8-15.3zm-3 15.3c0 1.3 0 2.6-.1 3.9 0 .5-.1 1.1-.1 1.6-.1.9-.2 1.9-.3 2.8 0 .3-.1.6-.1.8l-.3 1.8c-.1.5-.2.9-.3 1.4 0 .1 0 .3-.1.4-.1.3-.1.6-.2.9l-.9 3.6c-.2.6-.3 1.1-.5 1.7v.1c-.2.6-.3 1.1-.5 1.7s-.5 1.3-.7 2c-.1.2-.2.5-.3.7-.9 2.3-1.9 4.5-3 6.7-.1.3-.3.5-.4.8s-.3.5-.4.8c-.9 1.6-1.8 3.2-2.8 4.7-.2.3-.3.5-.5.8s-.3.5-.5.8c-.6.8-1.1 1.6-1.7 2.3-.2.2-.3.4-.5.6-.4.5-.8 1-1.1 1.4-.5.7-1.1 1.3-1.7 1.9-.2.2-.3.4-.5.5-.7.8-1.4 1.6-2.2 2.3l-1.3 1.3c-1.1 1-2.1 2-3.3 2.9l-.2.2c-2.1 1.7-4.3 3.3-6.6 4.7-1.7 1-3.4 2-5.1 2.9-1.9.9-3.8 1.8-5.7 2.5l-.9.3-1.3.5c-.8.3-1.5.5-2.3.7l-1.1.3c-.4.1-.7.2-1 .3-4.5 1.1-9.1 1.7-13.7 1.7h-2.2c-2-.1-3.9-.2-5.9-.5-2.2-.3-4.4-.8-6.5-1.3l-.2-.1-.8-.2c-.8-.2-1.6-.5-2.5-.8-.7-.2-1.3-.5-2-.7l-.6-.2c-.4-.2-.9-.3-1.3-.5l-.5-.2-.8-.3c-.9-.4-1.8-.8-2.6-1.2-1.8-.9-3.5-1.8-5.2-2.9C18.1 178 6.6 158.8 5.1 137.7c0-.3 0-.6-.1-.9v-3.7c0-.9 0-1.7.1-2.6.1-1.4.2-2.8.3-4.3.2-1.7.4-3.4.8-5.1l1.2.7 57.3 33.9.4.3 1.7 1 .4.2.4-.2 1.7-1 .4-.3 54.6-32.3 3.7-2.2.3-.2c.2 1.2.4 2.5.6 3.8.3 2.7.4 5.4.4 8.1zm-61.8 24c0-.1 0-.3-.1-.4-.1-.3-.1-.5-.1-.8v-.4c0-.3-.1-.5-.1-.8 0 .2-.1.4-.1.6s0 .3-.1.4c0 .1 0 .3-.1.4 0 .2-.1.4-.1.7 0 .1-.1.3-.1.4l.4.2.4-.3zm0 0c0-.1 0-.3-.1-.4-.1-.3-.1-.5-.1-.8v-.4c0-.3-.1-.5-.1-.8 0 .2-.1.4-.1.6s0 .3-.1.4c0 .1 0 .3-.1.4 0 .2-.1.4-.1.7 0 .1-.1.3-.1.4l.4.2.4-.3zm0 0c0-.1 0-.3-.1-.4-.1-.3-.1-.5-.1-.8v-.4c0-.3-.1-.5-.1-.8 0 .2-.1.4-.1.6s0 .3-.1.4c0 .1 0 .3-.1.4 0 .2-.1.4-.1.7 0 .1-.1.3-.1.4l.4.2.4-.3zm0 0c0-.1 0-.3-.1-.4-.1-.3-.1-.5-.1-.8v-.4c0-.3-.1-.5-.1-.8 0 .2-.1.4-.1.6s0 .3-.1.4c0 .1 0 .3-.1.4 0 .2-.1.4-.1.7 0 .1-.1.3-.1.4l.4.2.4-.3zm0 0c0-.1 0-.3-.1-.4-.1-.3-.1-.5-.1-.8v-.4c0-.3-.1-.5-.1-.8 0 .2-.1.4-.1.6s0 .3-.1.4c0 .1 0 .3-.1.4 0 .2-.1.4-.1.7 0 .1-.1.3-.1.4l.4.2.4-.3zm0 0c0-.1 0-.3-.1-.4-.1-.3-.1-.5-.1-.8v-.4c0-.3-.1-.5-.1-.8 0 .2-.1.4-.1.6s0 .3-.1.4c0 .1 0 .3-.1.4 0 .2-.1.4-.1.7 0 .1-.1.3-.1.4l.4.2.4-.3zm0 0c0-.1 0-.3-.1-.4-.1-.3-.1-.5-.1-.8v-.4c0-.3-.1-.5-.1-.8 0 .2-.1.4-.1.6s0 .3-.1.4c0 .1 0 .3-.1.4 0 .2-.1.4-.1.7 0 .1-.1.3-.1.4l.4.2.4-.3zm0 0c0-.1 0-.3-.1-.4-.1-.3-.1-.5-.1-.8v-.4c0-.3-.1-.5-.1-.8 0 .2-.1.4-.1.6s0 .3-.1.4c0 .1 0 .3-.1.4 0 .2-.1.4-.1.7 0 .1-.1.3-.1.4l.4.2.4-.3zm0 0c0-.1 0-.3-.1-.4-.1-.3-.1-.5-.1-.8v-.4c0-.3-.1-.5-.1-.8 0 .2-.1.4-.1.6s0 .3-.1.4c0 .1 0 .3-.1.4 0 .2-.1.4-.1.7 0 .1-.1.3-.1.4l.4.2.4-.3zm0 0c0-.1 0-.3-.1-.4-.1-.3-.1-.5-.1-.8v-.4c0-.3-.1-.5-.1-.8 0 .2-.1.4-.1.6s0 .3-.1.4c0 .1 0 .3-.1.4 0 .2-.1.4-.1.7 0 .1-.1.3-.1.4l.4.2.4-.3zm0 0c0-.1 0-.3-.1-.4-.1-.3-.1-.5-.1-.8v-.4c0-.3-.1-.5-.1-.8 0 .2-.1.4-.1.6s0 .3-.1.4c0 .1 0 .3-.1.4 0 .2-.1.4-.1.7 0 .1-.1.3-.1.4l.4.2.4-.3zm0 0c0-.1 0-.3-.1-.4-.1-.3-.1-.5-.1-.8v-.4c0-.3-.1-.5-.1-.8 0 .2-.1.4-.1.6s0 .3-.1.4c0 .1 0 .3-.1.4 0 .2-.1.4-.1.7 0 .1-.1.3-.1.4l.4.2.4-.3zm0 0c0-.1 0-.3-.1-.4-.1-.3-.1-.5-.1-.8v-.4c0-.3-.1-.5-.1-.8 0 .2-.1.4-.1.6s0 .3-.1.4c0 .1 0 .3-.1.4 0 .2-.1.4-.1.7 0 .1-.1.3-.1.4l.4.2.4-.3zm0 0c0-.1 0-.3-.1-.4-.1-.3-.1-.5-.1-.8v-.4c0-.3-.1-.5-.1-.8 0 .2-.1.4-.1.6s0 .3-.1.4c0 .1 0 .3-.1.4 0 .2-.1.4-.1.7 0 .1-.1.3-.1.4l.4.2.4-.3zm0 0-.1-.4c-.1-.3-.1-.5-.1-.8v-.4c0-.3-.1-.5-.1-.8 0 .2-.1.4-.1.6s0 .3-.1.4c0 .1 0 .3-.1.4 0 .2-.1.4-.1.7 0 .1-.1.3-.1.4l.4.2.4-.3zm-.4-89L64.7 69v-2.1z"/><path d="m67.1 74.8-.6.3-1.7.8-3.9 1.7-2.4 1.1-2.4 1.1V85l2.4-1.1 2.4-1.1 3.9-1.7v55l-3.9-2.3-2.4-1.4-2.4-1.4v5.5l8.6 5.1 1.7 1 .6.4.6-.4 1.7-1V73.7l-2.2 1.1z"/><path d="m67.1 79.9-2.4-1.1V91l2.4-1 2.4 1V80.9l-2.4-1zm61.7 22.9-3.8-1.7-3.8-1.7-51.8-23.5-4.7-2.1v67.8l1.7 1 .6.4.6-.4 1.7-1 46.6-27.6 2.5-1.5 2.5-1.5 6.2-3.7 3.1-1.8-1.4-2.7zm-15.6 7.3-2.5 1.5L69.4 136V81l52.6 23.9-6.3 3.7-2.5 1.5z"/><path d="M67.1 67.9 64.7 69v6.8l1.7-.8.6-.3 2.4-1.1v-4.7l-2.3-1zm0 0L64.7 69v6.8l1.7-.8.6-.3 2.4-1.1v-4.7l-2.3-1zm0 2.6v4.2l2.4-1.1v-2.1l-2.4-1zm0 0v4.2l2.4-1.1v-2.1l-2.4-1zm0 0v4.2l2.4-1.1v-2.1l-2.4-1zm0 0v4.2l2.4-1.1v-2.1l-2.4-1zm0 0v4.2l2.4-1.1v-2.1l-2.4-1zm0 0v4.2l2.4-1.1v-2.1l-2.4-1zm0 0v4.2l2.4-1.1v-2.1l-2.4-1zm0 0v4.2l2.4-1.1v-2.1l-2.4-1zm0 0v4.2l2.4-1.1v-2.1l-2.4-1zm0 0v4.2l2.4-1.1v-2.1l-2.4-1zm0 0v4.2l2.4-1.1v-2.1l-2.4-1zm0 0v4.2l2.4-1.1v-2.1l-2.4-1zm0 0v4.2l2.4-1.1v-2.1l-2.4-1zm0 0v4.2l2.4-1.1v-2.1l-2.4-1zm61.7 32.3L118.7 86 69.5 4.4 67.1.5l-2.4 3.9V79l2.4 1.1 2.4 1.1 52.6 23.9 2.6 1.2 2.6 1.2 3.1-1.8-1.6-2.9zM69.4 13.4 106 74.1l3.5 5.8 6 10 2.1 3.6 3.5 5.8-51.8-23.5.1-62.4zm-2.3 57.1v4.2l2.4-1.1v-2.1l-2.4-1zm0 0v4.2l2.4-1.1v-2.1l-2.4-1zm0 0v4.2l2.4-1.1v-2.1l-2.4-1zm0 0v4.2l2.4-1.1v-2.1l-2.4-1zm0 0v4.2l2.4-1.1v-2.1l-2.4-1zm0 0v4.2l2.4-1.1v-2.1l-2.4-1zm0 0v4.2l2.4-1.1v-2.1l-2.4-1zm0 0v4.2l2.4-1.1v-2.1l-2.4-1zm0 0v4.2l2.4-1.1v-2.1l-2.4-1zm0 0v4.2l2.4-1.1v-2.1l-2.4-1zm0 0v4.2l2.4-1.1v-2.1l-2.4-1zm0 0v4.2l2.4-1.1v-2.1l-2.4-1zm0 0v4.2l2.4-1.1v-2.1l-2.4-1zm0 0-2.4 1.1v4.2l1.7-.8.6-.3 2.4-1.1v-2.1l-2.3-1zm0-2.5-2.4 1.1v6.8l1.7-.8.6-.3 2.4-1.1V69l-2.3-1z"/><path d="m58.5 81.3-2.4 1v2.6l2.4-1.1 2.4-1.1 3.9-1.8v-2.6l-6.3 3zm0 0-2.4 1v2.6l2.4-1.1 2.4-1.1 3.9-1.8v-2.6l-6.3 3zm8.6-6.5-.6.3-1.7.8-3.9 1.8-2.4 1-2.4 1v5.2l2.4-1.1 2.4-1.1 3.9-1.8v55l-3.9-2.3-4.7-2.8-32.7-19.2-2.5-1.5-2.5-1.4-6.3-3.8-1.9-1.1.5-.9 2.1-3.6 3.5-5.8 2.1-3.6.7-1.2 1.4-2.3-3.8 1.7-3.8 1.7-7.8 12.9-.2.3-1.4 2.3.4.2 1.5.9.1.1 1.1.7 6.2 3.7 2.5 1.5 2.5 1.5 38 22.5 8.6 5.1 1.7 1 .6.4.6-.4 1.7-1V73.7l-2 1.1zm-8.6 6.5-2.4 1v2.6l2.4-1.1 2.4-1.1 3.9-1.8v-2.6l-6.3 3zm0 0-2.4 1v2.6l2.4-1.1 2.4-1.1 3.9-1.8v-2.6l-6.3 3z"/><path d="m67.1 74.8-.6.3-1.7.8-3.9 1.7-2.4 1.1-2.4 1.1-43.2 19.6-3.8 1.7-3 1.4-.8.4-.2.3-1.4 2.3.4.2 1.6 1 1.1.6L13 111l2.5 1.5L18 114l38 22.5 8.6 5.1 1.7 1 .6.4.6-.4 1.7-1V73.7l-2.1 1.1zm-55 30.1 44-20 2.4-1.1 2.4-1.1 3.9-1.7v55l-3.9-2.3-4.7-2.8-32.7-19.3-2.5-1.5-2.5-1.5-6.4-3.7z"/><path d="m60.9 77.6 3.9-1.8-3.9 1.8zm-2.4 3.6v-2.5l-2.4 1.1v2.6l2.4-1.2 6.2-2.8-6.2 2.8zm2.4-3.6 3.9-1.8-3.9 1.8zm-2.4 3.6v-2.5l-2.4 1.1v2.6l2.4-1.2 6.2-2.8-6.2 2.8zm6.2-9.6v4.2l1.7-.8.6-.3v-4.2l-2.3 1.1zm-3.8 6-2.4 1.1-2.4 1.1-43.2 19.6 3.5-5.8-3.5 5.8-2.1 3.6 45.4-20.6 2.4-1.1 6.2-2.8v-2.6l-3.9 1.7zm3.8-6v4.2l1.7-.8.6-.3v-4.2l-2.3 1.1zm-3.8 6-2.4 1.1-2.4 1.1-43.2 19.6 3.5-5.8-3.5 5.8-2.1 3.6 45.4-20.6 2.4-1.1 6.2-2.8v-2.6l-3.9 1.7zm3.8-6v4.2l1.7-.8.6-.3v-4.2l-2.3 1.1zm-3.8 6-2.4 1.1-2.4 1.1-43.2 19.6 3.5-5.8-3.5 5.8-2.1 3.6 45.4-20.6 2.4-1.1 6.2-2.8v-2.6l-3.9 1.7zm3.8-6v4.2l1.7-.8.6-.3v-4.2l-2.3 1.1zm-3.8 6-2.4 1.1-2.4 1.1-43.2 19.6 3.5-5.8-3.5 5.8-2.1 3.6 45.4-20.6 2.4-1.1 6.2-2.8v-2.6l-3.9 1.7zm3.8-6v4.2l1.7-.8.6-.3v-4.2l-2.3 1.1zm-3.8 6-2.4 1.1-2.4 1.1-43.2 19.6 3.5-5.8-3.5 5.8-2.1 3.6 45.4-20.6 2.4-1.1 6.2-2.8v-2.6l-3.9 1.7zm3.8-6v4.2l1.7-.8.6-.3v-4.2l-2.3 1.1zm-3.8 6-2.4 1.1-2.4 1.1-43.2 19.6 3.5-5.8-3.5 5.8-2.1 3.6 45.4-20.6 2.4-1.1 6.2-2.8v-2.6l-3.9 1.7zm3.8-6v4.2l1.7-.8.6-.3v-4.2l-2.3 1.1zm-3.8 6-2.4 1.1-2.4 1.1-43.2 19.6 3.5-5.8-3.5 5.8-2.1 3.6 45.4-20.6 2.4-1.1 6.2-2.8v-2.6l-3.9 1.7zm3.8-6v4.2l1.7-.8.6-.3v-4.2l-2.3 1.1zm-3.8 6-2.4 1.1-2.4 1.1-43.2 19.6 3.5-5.8-3.5 5.8-2.1 3.6 45.4-20.6 2.4-1.1 6.2-2.8v-2.6l-3.9 1.7zm3.8-6v4.2l1.7-.8.6-.3v-4.2l-2.3 1.1zm-3.8 6-2.4 1.1-2.4 1.1-43.2 19.6 3.5-5.8-3.5 5.8-2.1 3.6 45.4-20.6 2.4-1.1 6.2-2.8v-2.6l-3.9 1.7zm3.8-6v4.2l1.7-.8.6-.3v-4.2l-2.3 1.1zm-3.8 6-2.4 1.1-2.4 1.1-43.2 19.6 3.5-5.8-3.5 5.8-2.1 3.6 45.4-20.6 2.4-1.1 6.2-2.8v-2.6l-3.9 1.7zm3.8-6v4.2l1.7-.8.6-.3v-4.2l-2.3 1.1zm-3.8 6-2.4 1.1-2.4 1.1-43.2 19.6 3.5-5.8-3.5 5.8-2.1 3.6 45.4-20.6 2.4-1.1 6.2-2.8v-2.6l-3.9 1.7zm3.8-6v4.2l1.7-.8.6-.3v-4.2l-2.3 1.1zm-3.8 6-2.4 1.1-2.4 1.1-43.2 19.6 3.5-5.8-3.5 5.8-2.1 3.6 45.4-20.6 2.4-1.1 6.2-2.8v-2.6l-3.9 1.7zm3.8-6v4.2l1.7-.8.6-.3v-4.2l-2.3 1.1zm-3.8 6-2.4 1.1-2.4 1.1-43.2 19.6 3.5-5.8-3.5 5.8-2.1 3.6 45.4-20.6 2.4-1.1 6.2-2.8v-2.6l-3.9 1.7zm3.8-6v4.2l1.7-.8.6-.3v-4.2l-2.3 1.1zm-3.8 6-2.4 1.1-2.4 1.1-43.2 19.6 3.5-5.8-3.5 5.8-2.1 3.6 45.4-20.6 2.4-1.1 6.2-2.8v-2.6l-3.9 1.7zM67.1.4l-2.4 3.9L15.5 86l-2.3 3.9-7.8 12.9-.2.3-1.4 2.3.4.2 1.6 1 1.1.6 2.6-1.2 2.7-1.2 44-20 2.4-1.1 2.4-1.1 3.9-1.7 2.4-1.1 2.4-1.1V4.1L67.1.4zm-2.4 75.4-3.9 1.7-2.3 1.2-2.4 1.1-43.2 19.6 3.5-5.8 2.1-3.6.7-1.2 1.4-2.3 3.9-6.4 3.5-5.8 36.6-60.7.1 62.2zm-3.8 1.8-2.4 1.1-2.4 1.1-43.2 19.6 3.5-5.8-3.5 5.8-2.1 3.6 45.4-20.6 2.4-1.1 6.2-2.8v-2.6l-3.9 1.7zm3.8-6v4.2l1.7-.8.6-.3v-4.2l-2.3 1.1zm-3.8 6-2.4 1.1-2.4 1.1-43.2 19.6 3.5-5.8-3.5 5.8-2.1 3.6 45.4-20.6 2.4-1.1 6.2-2.8v-2.6l-3.9 1.7zm3.8-6v4.2l1.7-.8.6-.3v-4.2l-2.3 1.1zm-3.8 6-2.4 1.1-2.4 1.1-43.2 19.6 3.5-5.8-3.5 5.8-2.1 3.6 45.4-20.6 2.4-1.1 6.2-2.8v-2.6l-3.9 1.7zm3.8-6v4.2l1.7-.8.6-.3v-4.2l-2.3 1.1zm-3.8 6-2.4 1.1-2.4 1.1-43.2 19.6 3.5-5.8-3.5 5.8-2.1 3.6 45.4-20.6 2.4-1.1 6.2-2.8v-2.6l-3.9 1.7zm3.8-6v4.2l1.7-.8.6-.3v-4.2l-2.3 1.1zm-3.8 6-2.4 1.1-2.4 1.1-43.2 19.6 3.5-5.8-3.5 5.8-2.1 3.6 45.4-20.6 2.4-1.1 6.2-2.8v-2.6l-3.9 1.7zm3.8-6v4.2l1.7-.8.6-.3v-4.2l-2.3 1.1zm-3.8 6-2.4 1.1-2.4 1.1-43.2 19.6 3.5-5.8-3.5 5.8-2.1 3.6 45.4-20.6 2.4-1.1 6.2-2.8v-2.6l-3.9 1.7zm3.8-6v4.2l1.7-.8.6-.3v-4.2l-2.3 1.1zm-3.8 6-2.4 1.1-2.4 1.1-43.2 19.6 3.5-5.8-3.5 5.8-2.1 3.6 45.4-20.6 2.4-1.1 6.2-2.8v-2.6l-3.9 1.7zm3.8-6v4.2l1.7-.8.6-.3v-4.2l-2.3 1.1zm-3.8 6-2.4 1.1-2.4 1.1-43.2 19.6 3.5-5.8-3.5 5.8-2.1 3.6 45.4-20.6 2.4-1.1 6.2-2.8v-2.6l-3.9 1.7zm3.8-6v4.2l1.7-.8.6-.3v-4.2l-2.3 1.1zm-3.8 6-2.4 1.1-2.4 1.1-43.2 19.6 3.5-5.8-3.5 5.8-2.1 3.6 45.4-20.6 2.4-1.1 6.2-2.8v-2.6l-3.9 1.7zm3.8-6v4.2l1.7-.8.6-.3v-4.2l-2.3 1.1zm-3.8 6-2.4 1.1-2.4 1.1-43.2 19.6 3.5-5.8-3.5 5.8-2.1 3.6 45.4-20.6 2.4-1.1 6.2-2.8v-2.6l-3.9 1.7zm3.8-6v4.2l1.7-.8.6-.3v-4.2l-2.3 1.1zm-3.8 6-2.4 1.1-2.4 1.1-43.2 19.6 3.5-5.8-3.5 5.8-2.1 3.6 45.4-20.6 2.4-1.1 6.2-2.8v-2.6l-3.9 1.7zm3.8-6v4.2l1.7-.8.6-.3v-4.2l-2.3 1.1zm-3.8 6-2.4 1.1-2.4 1.1-43.2 19.6 3.5-5.8-3.5 5.8-2.1 3.6 45.4-20.6 2.4-1.1 6.2-2.8v-2.6l-3.9 1.7zm3.8-6v4.2l1.7-.8.6-.3v-4.2l-2.3 1.1zm-3.8 6-2.4 1.1-2.4 1.1-43.2 19.6 3.5-5.8-3.5 5.8-2.1 3.6 45.4-20.6 2.4-1.1 6.2-2.8v-2.6l-3.9 1.7zm3.8-6v4.2l1.7-.8.6-.3v-4.2l-2.3 1.1zm-6.2 9.6v-2.5l-2.4 1.1v2.6l2.4-1.2 6.2-2.8-6.2 2.8zm2.4-3.6 3.9-1.8-3.9 1.8zm-2.4 3.6v-2.5l-2.4 1.1v2.6l2.4-1.2 6.2-2.8-6.2 2.8zm2.4-3.6 3.9-1.8-3.9 1.8zM46.3 194.2l-.9 2.2-.8 2.2-.3-.1c-.4-.1-.8-.3-1.1-.5-.5-.2-.9-.4-1.4-.6l1-2.1 1-2.1.2.1c.6.2 1.1.5 1.7.7l.6.2zm1.2 5.4c-1-.3-1.9-.7-2.9-1l1.7-4.4c.9.3 1.8.7 2.7 1l-1.5 4.4zm4.7 1.3-1.2-.3-1-.3 1.3-4.5 1 .3c.3.1.7.2 1.1.3l-1.2 4.5zm7-28.3-.3.6c.2-.2.3-.4.3-.6.2-.4.4-.7.5-1.1-.1.4-.3.8-.5 1.1zm-1.3 2.6.2-.5-.2.5zm1.3-2.6-.3.6c.2-.2.3-.4.3-.6.2-.4.4-.7.5-1.1-.1.4-.3.8-.5 1.1zm-1.3 2.6.2-.5-.2.5zm1.3-2.6-.3.6c.2-.2.3-.4.3-.6.2-.4.4-.7.5-1.1-.1.4-.3.8-.5 1.1zm-1.3 2.6.2-.5-.2.5zm1.3-2.6-.3.6c.2-.2.3-.4.3-.6.2-.4.4-.7.5-1.1-.1.4-.3.8-.5 1.1zm-1.3 2.6.2-.5-.2.5zM69.4 153l-.1-.1-2.2-1.3-1.8-1.1-55.7-33-2.5-1.5-2.6-1.3-2.2.9-.3 1.1c0 .1-.1.3-.1.4C.6 122.3 0 127.6 0 132.9v1c0 .7 0 1.4.1 2.1v1.6c0 .7.1 1.3.2 2 .1.6.1 1.1.2 1.7 0 .3.1.6.1.8l.6 3.6.3 1.5c.4 1.7.8 3.4 1.3 5 .2.6.3 1.1.5 1.7 1.1 3.4 2.4 6.8 4 10 .3.5.5 1.1.8 1.6l.6 1.2c.2.4.5.9.7 1.3s.6 1.1.9 1.6l.4.7c.4.7.9 1.4 1.4 2.1s1 1.4 1.4 2.1c.3.5.7.9 1 1.4.4.6.9 1.2 1.4 1.7l.2.2.5.7c.4.4.7.9 1.1 1.3l.6.6c.4.4.8.8 1.1 1.2l.6.6.6.6.6.6.6.6.7.7.5.5c.2.2.5.4.7.6.3.2.5.4.7.7l.6.5.6.5.3.3.2.2.2.1c2.6 1.4 5.4 2.4 8.3 3 1.8.4 3.7.7 5.6.7h.4c1.6 0 3.2-.2 4.8-.6h.2l.4-.1.9-.3.9-.3c.7-.2 1.3-.5 1.9-.8l1.2-.6c1.3-.7 2.5-1.6 3.6-2.5.4-.3.7-.7 1.1-1l.5-.5 1.1-1.1c.9-1.1 1.8-2.2 2.6-3.3.3-.3.5-.7.7-1.1 1-1.6 1.9-3.3 2.7-5 .4-.8.8-1.6 1.1-2.5v-.1c.1-.3.3-.7.4-1s.3-.7.4-1c.1-.1.1-.3.1-.4.1-.2.2-.4.2-.6.2-.7.5-1.4.7-2.1.1-.4.2-.7.3-1.1 0-.1.1-.2.1-.3.5-1.5.9-3 1.2-4.5.4-1.6.7-3.2.9-4.8.1-.4.1-.7.2-1.1l.1-.4.2-1.2.3-.5zm-6.8 10.8-.3.9-.3.9-.6 1.8c-.3.9-.6 1.8-1 2.6v.1l-.6 1.5c-.2.4-.3.7-.5 1.1l-.3.6-.3.6c-.2.3-.3.6-.5.9l-.3.5c-.1.2-.2.4-.4.6-.5.9-1.1 1.7-1.6 2.5-.4.6-.8 1.2-1.3 1.7-.1.2-.3.3-.4.5-.4.5-.8 1-1.3 1.4-.6.6-1.2 1.1-1.9 1.6-.5.4-1 .7-1.5 1l-.4.2c-.2.2-.5.3-.8.4-.1.1-.3.1-.4.2-.5.3-1 .5-1.6.7-.2.1-.5.2-.7.2l-1.2.3c-.4.1-.9.2-1.3.2-.4.1-.8.1-1.2.1-3.5.2-6.9-.4-10.1-1.7-1-.4-1.9-.8-2.9-1.3-14-11.6-22.7-28.4-24.1-46.6 0-.3 0-.6-.1-.9v-3.7c0-.9 0-1.7.1-2.6.1-1.4.2-2.8.3-4.3.2-1.7.4-3.4.8-5.1l1.2.7 57.3 33.9c-.1.3-.1.7-.2 1-.1.7-.3 1.4-.4 2.1s-.3 1.4-.5 2c-.1 1.2-.3 2.3-.7 3.4zm-4.7 11.4.2-.5-.2.5zm1.3-2.6-.3.6c.2-.2.3-.4.3-.6.2-.4.4-.7.5-1.1-.1.4-.3.8-.5 1.1zm-1.3 2.6.2-.5-.2.5zm1.3-2.6-.3.6c.2-.2.3-.4.3-.6.2-.4.4-.7.5-1.1-.1.4-.3.8-.5 1.1zm-1.3 2.6.2-.5-.2.5zm1.3-2.6-.3.6c.2-.2.3-.4.3-.6.2-.4.4-.7.5-1.1-.1.4-.3.8-.5 1.1z"/><path d="m112.5 180.4-7.2 3.6-.2.1c-.8.4-1.6.8-2.5 1.1-.2.1-.4.2-.6.2-.7.3-1.4.5-2.1.7l-.4.1-.5.1c-.7.2-1.4.3-2.1.5-.2 0-.5.1-.7.1-.5.1-.9.1-1.4.2h-.5c-1.5.1-3 0-4.5-.4l-2.1-.6c-.6-.2-1.1-.4-1.6-.7l-.6-.3c-.5-.2-.9-.5-1.3-.8-.2-.1-.4-.3-.6-.4l-1.2-.9c-.4-.3-.8-.7-1.2-1.1-.9-1-1.8-2-2.6-3-.3-.4-.6-.8-.8-1.2l-.4-.6-.3-.5c-.3-.4-.5-.9-.8-1.4l-.3-.6c-.3-.6-.6-1.2-1-1.9s-.7-1.4-1-2.2c-.1-.2-.2-.3-.2-.5-.2-.6-.5-1.1-.7-1.7l-.6-1.8-.3-.9-.3-.9c-.1-.2-.1-.4-.2-.6s-.2-.7-.3-1-.2-.7-.3-1-.2-.7-.3-1c-.1-.3-.2-.7-.2-1 0-.4-.2-.7-.2-1-.1-.3-.2-.7-.2-1-.1-.3-.1-.7-.2-1s-.1-.7-.2-1-.1-.3-.1-.5c-.1-.4-.1-.8-.2-1.2 0-.1 0-.2-.1-.3l-.1-1v-.2l-.3-2.4-1.8 1.1-1.8-1.1-.3 2.3v.2l-.1 1c0 .1 0 .2-.1.3-.1.4-.1.8-.2 1.2-.1.3-.1.7-.2 1-.1.7-.3 1.4-.4 2.1s-.3 1.4-.5 2c-.3 1-.5 2-.8 3l-.3.9-.3.9-.6 1.8c-.3.9-.6 1.8-1 2.6v.1l-.6 1.5c-.2.4-.3.7-.5 1.1l-.3.6-.3.6c-.2.3-.3.6-.5.9l-.2.5c-.1.2-.2.4-.4.6-.5.9-1.1 1.7-1.6 2.5-.4.6-.8 1.2-1.3 1.7-.1.2-.3.3-.4.5-.4.5-.8 1-1.3 1.4-.6.6-1.2 1.1-1.9 1.6-.5.4-1 .7-1.5 1l-.4.2c-.2.2-.5.3-.8.4-.1.1-.3.1-.4.2-.5.3-1 .5-1.6.7-.2.1-.5.2-.7.2l-1.2.3c-.4.1-.9.2-1.3.2-.4.1-.8.1-1.2.1-3.5.2-6.9-.4-10.1-1.7-1-.4-2-.8-2.9-1.3l-.1-.1H29l-7.2-3.6-5.6-2.8.2.2.5.7c.4.4.7.9 1.1 1.3l.6.6c.4.4.8.8 1.1 1.2l.6.6.6.6.6.6.6.6.7.7.5.5c.2.2.5.4.7.6.3.2.5.4.7.7l.6.5.4.3.2.2.5.4.1.1.4.4.5.4.1.1h.1c.3.2.5.4.8.6l.3.2.4.3.9.6 1 .7.2.1.1.1c.1.1.2.1.3.2l.3.2.6.4.2.1c.4.3.8.5 1.2.8l.1.1.4.3.5.3.3.2c.4.3.9.5 1.4.8s.9.5 1.3.7h.1c.4.2.9.5 1.4.7l.5.2c.3.1.6.3.9.4l.7.3.6.3c.5.2.9.4 1.4.6.4.1.7.3 1.1.5l.3.1c1 .4 1.9.7 2.8 1 .4.1.8.3 1.2.4l1.3.4c.8.2 1.5.4 2.2.6.3.1.6.1.9.2l.5.1 1.1.2h.1l1.1.2 1 .2c.4.1.7.1 1.1.2h.1l.3.1h.4c.3 0 .5.1.7.1l.4.1.4.1.5.1.6.1c.2 0 .4 0 .6.1h10.3c.4 0 .8-.1 1.1-.1s.6-.1 1-.1l1.3-.2c.2 0 .4-.1.6-.1l.9-.1h.2l.8-.1h.2c.3-.1.6-.1 1-.2h.1l1.2-.3.4-.1c.3-.1.6-.1.9-.2.7-.2 1.4-.4 2.2-.6l1.3-.4c.4-.1.8-.2 1.2-.4 1-.3 1.9-.7 2.9-1 .9-.4 1.9-.7 2.8-1.1h.1c.3-.1.6-.3.9-.4l.4-.2c.5-.2 1-.5 1.4-.7l.6-.3.7-.3h.1c.4-.2.9-.5 1.3-.7.5-.2.9-.5 1.3-.8.4-.2.8-.5 1.2-.7.1 0 .1 0 .2-.1l1.1-.7.2-.1c.4-.2.7-.5 1.1-.7l.7-.5.5-.4.3-.2c.3-.3.7-.5 1-.7l.2-.2.2-.2c.2-.2.5-.3.7-.5l.1-.1.5-.4.5-.4.2-.2h.1l.1-.1c1.7-1.4 3.4-2.9 5-4.5l1.4-1.4c1.3-1.4 2.5-2.8 3.7-4.2l-5.9 2.6zM64.6 198h-2l-1-.1h-.5l-.5-.1-.5-.1h-.2c-.2 0-.5-.1-.7-.1h-.6c-.3 0-.7-.1-1-.2-.3-.1-.6-.1-.9-.2s-.7-.1-1-.2h-.1c-.3-.1-.7-.1-1-.2l-.5-.1-.8-.2c-.6-.2-1.3-.3-2-.5l-1.3-.4-1.1-.3c-.9-.3-1.8-.6-2.7-1l-.6-.2-.6-.3-.5-.2-.5-.2-.2-.1-.6-.3c-.2-.1-.5-.2-.7-.3-.3-.1-.6-.2-.8-.4l-.5-.3c1.6 0 3.2-.2 4.8-.6h.2l.4-.1.9-.3.9-.3c.7-.2 1.3-.5 1.9-.8l1.2-.6c1.3-.7 2.5-1.6 3.6-2.5.4-.3.7-.7 1.1-1l.5-.5 1.1-1.1c.9-1.1 1.8-2.2 2.6-3.3.3-.3.5-.7.7-1.1 1-1.6 1.9-3.3 2.7-5 .4-.8.8-1.6 1.1-2.5v-.1c.1-.3.3-.7.4-1s.3-.7.4-1c.1-.1.1-.3.2-.4.1-.2.2-.4.2-.6.2-.7.5-1.4.7-2.1.1-.4.2-.7.3-1.1 0-.1.1-.2.1-.3l.1.4.3.9c.1.3.2.7.3 1.1v.1l.3 1c0 .1.1.2.1.3.1.3.2.5.3.8l.6 1.5c.1.2.2.4.2.6.2.6.5 1.1.7 1.7 0 .1 0 .1.1.1.4.9.8 1.7 1.2 2.5.3.5.6 1.1.9 1.6 1.5 2.7 3.3 5.1 5.4 7.3l.5.5c.3.4.7.7 1.1 1 .2.1.3.3.5.4.3.3.7.5 1 .8.7.5 1.4.9 2.1 1.4.2.1.3.2.5.3.4.2.8.4 1.3.6.4.2.9.4 1.3.5l1.8.6c.3.1.6.2.9.2.3.1.6.1.9.2 1.1.2 2.3.3 3.4.3h-.1l-1.2.6-.5.2c-.2.1-.5.2-.7.3h-.1c-.9.4-1.7.7-2.6 1.1s-1.8.7-2.7 1l-1.1.3c-.4.1-.8.3-1.2.4-.8.2-1.4.4-2.1.6-.2.1-.5.1-.8.2l-.4.1c-.4.1-.7.2-1.1.2h-.1l-.9.2h-.2l-.7.1h-.2l-.9.1h-.1l-.4.1-1.3.2c-.3 0-.5.1-.9.1s-.7.1-1 .1h-6.9l-.2-.3zm2.7-58-.2-1.6v.1l-.2 1.6-.4 2.5.6.4.6-.4-.4-2.6z"/><path d="m81.9 200.9-1.1-4.6c.6-.2 1.3-.3 2.1-.5l1.3 4.5c-.7.3-1.5.5-2.3.6zm4.7-1.3-1.5-4.5c.9-.3 1.8-.6 2.7-1l1.7 4.4c-.9.4-1.9.8-2.9 1.1z"/><path d="m89.5 198.6-1.7-4.4c.9-.3 1.8-.7 2.6-1.1l1.9 4.3c-.9.4-1.8.8-2.8 1.2zm42.8-81c-.1-.3-.1-.6-.2-.8l-.3-1.1-2.2-.9-2.5 1.5-2.5 1.5-55.7 32.9-1.8 1.1-2.1 1.3-.2.1-.2.1.2 1.2.1.3c.1.4.1.7.2 1.1l.9 4.8 1.2 4.5.1.4.3.9c.1.3.2.7.3 1.1v.1l.3 1c0 .1.1.2.1.3.1.3.2.5.3.8l.6 1.5c.1.2.1.4.2.6.2.6.5 1.1.7 1.7 0 .1 0 .1.1.1.4.9.8 1.7 1.2 2.5.3.5.6 1.1.9 1.6 1.5 2.7 3.3 5.1 5.4 7.3l.5.5c.3.4.7.7 1.1 1 .2.1.3.3.5.4.3.3.7.5 1 .8.7.5 1.4.9 2.1 1.4.2.1.3.2.5.3.4.2.8.4 1.3.6.4.2.9.4 1.3.5l1.8.6c.3.1.6.2.9.2.3.1.6.1.9.2 1.1.2 2.3.3 3.4.3h.4c1.9 0 3.8-.2 5.7-.7 2.8-.7 5.6-1.7 8.2-3l.2-.1.2-.2h.1l.1-.1c1.7-1.4 3.4-2.9 5-4.5l1.4-1.4c1.3-1.4 2.5-2.8 3.7-4.2 10.3-12.6 15.9-28.3 16-44.6 0-5.2-.6-10.4-1.7-15.5zm-3 15.3c0 1.3 0 2.6-.1 3.9 0 .5-.1 1.1-.1 1.6-.1.9-.2 1.9-.3 2.8 0 .3-.1.6-.1.8l-.3 1.8c-.1.5-.2.9-.3 1.4 0 .1 0 .3-.1.4-.1.3-.1.6-.2.9l-.9 3.6c-.2.6-.3 1.1-.5 1.7v.1c-.2.6-.3 1.1-.5 1.7s-.5 1.3-.7 2c-.1.2-.2.5-.3.7-.9 2.3-1.9 4.5-3 6.7-.1.3-.3.5-.4.8s-.3.5-.4.8c-.9 1.6-1.8 3.2-2.8 4.7-.2.3-.3.5-.5.8s-.3.5-.5.8c-.6.8-1.1 1.6-1.7 2.3-.2.2-.3.4-.5.6-.4.5-.8 1-1.1 1.4-.5.7-1.1 1.3-1.7 1.9-.2.2-.3.4-.5.5-.7.8-1.4 1.6-2.2 2.3l-1.3 1.3c-1.1 1-2.1 2-3.3 2.9-.8.4-1.6.8-2.5 1.1-.2.1-.4.2-.6.2-.7.3-1.4.5-2.1.7l-.4.1-.5.1c-.7.2-1.4.3-2.1.5-.2 0-.5.1-.7.1-.5.1-.9.1-1.4.2h-.5c-1.5.1-3 0-4.5-.4l-2.1-.6c-.6-.2-1.1-.4-1.6-.7l-.6-.3c-.5-.2-.9-.5-1.3-.8-.2-.1-.4-.3-.6-.4l-1.2-.9c-.4-.3-.8-.7-1.2-1.1-.9-1-1.8-2-2.6-3-.3-.4-.6-.8-.8-1.2l-.4-.6-.3-.5c-.3-.4-.5-.9-.8-1.4l-.3-.6c-.3-.6-.6-1.2-1-1.9s-.7-1.5-1-2.2c-.1-.2-.2-.3-.2-.5-.2-.6-.4-1.2-.7-1.7l-.6-1.8-.3-.9-.3-.9c-.1-.2-.1-.4-.2-.6s-.2-.7-.3-1-.2-.7-.3-1-.2-.7-.3-1c-.1-.3-.2-.7-.2-1 0-.4-.2-.7-.2-1-.1-.3-.2-.7-.2-1-.1-.3-.1-.7-.2-1s-.1-.7-.2-1-.1-.3-.1-.5l54.6-32.3 3.7-2.2.3-.2c.2 1.2.4 2.5.6 3.8.3 2.7.5 5.5.5 8.2z"/></svg>