<svg xmlns="http://www.w3.org/2000/svg" fill="none" viewBox="549 13 24 24"><path fill="url(#a)" d="M549 25c0-5.118 0-7.676 1.353-9.44a6.474 6.474 0 0 1 1.208-1.207C553.324 13 555.882 13 561 13s7.676 0 9.439 1.353c.454.348.86.754 1.208 1.208C573 17.324 573 19.882 573 25s0 7.676-1.353 9.44a6.553 6.553 0 0 1-1.208 1.207C568.676 37 566.118 37 561 37s-7.676 0-9.439-1.353a6.531 6.531 0 0 1-1.208-1.208C549 32.676 549 30.118 549 25Z"/><path fill="#001413" fill-rule="evenodd" d="M570.042 24.288c.207.168.347.405.394.667.01.077.01.154.003.23-.02.06-.02.11-.02.164-.017.106-.041.21-.072.314a2.098 2.098 0 0 1-.379.724l.004.018c.007.024.019.065.019.117.034.21.043.423.029.636-.029.41-.126.812-.288 1.19a2.681 2.681 0 0 1-.739 1.023l-.037.032-.052.02a8.738 8.738 0 0 1-1.23.356c-.431.1-.872.144-1.314.13h-.075a13.098 13.098 0 0 0-2.811-.575 5.448 5.448 0 0 1-.774-.11 6.007 6.007 0 0 1-.759-.255 9.64 9.64 0 0 0-1.178-.34 1.341 1.341 0 0 0-.245.906c.029.354.348.963.576 1.399l.129.248a3.366 3.366 0 0 1-.457 3.51c-.623-1.3-1.789-1.918-2.834-2.471-1.504-.796-2.755-1.458-1.766-3.833.28-.695.453-1.458.594-2.083.121-.532.219-.964.34-1.168v.017c-.08.476-.08.961 0 1.437.038.223.122.436.248.624.13.172.305.304.505.382.434.172.892.275 1.357.305.239.034.478.034.719.034a5.81 5.81 0 0 1 .765.063 9.62 9.62 0 0 1 1.477.363c.433.172.892.269 1.357.288.989.077 1.966.27 2.91.574a5.1 5.1 0 0 0 1.403-.145l.123-.027c.647-.19 1.386-1.193.541-1.098-.235.01-.469.04-.699.086-.209.043-.372.082-.511.115-.421.1-.605.144-1.099.057a4.482 4.482 0 0 0-1.078-.23 1.636 1.636 0 0 1 1.038-.252c.269.034.542.022.808-.035.134-.038.27-.112.418-.192.118-.063.244-.131.381-.187.39-.123.799-.177 1.207-.159a.95.95 0 0 0 .245-.816.618.618 0 0 0-.354-.256l-.213-.043c-.427-.083-1.126-.218-1.406-.483-.192-.184-.296-.745.383-.9a3.899 3.899 0 0 1 1.086-.037c.156.017.578.057.676-.023-.066-.228-.811-.636-1.552-1.042-.651-.356-1.298-.71-1.484-.942a11.662 11.662 0 0 1-2.055-2.851 1.921 1.921 0 0 0-.926-1.01c.502-.036.999.113 1.397.42.058.048.131.179.225.346.263.469.687 1.226 1.379 1.256a.406.406 0 0 0 .213-.038c-.343-.323-.574-.713-.791-1.079-.329-.554-.624-1.05-1.221-1.172l-.027-.01c-.136-.054-.264-.104-.407-.177l-.406-.2-.805-.392a13.56 13.56 0 0 0-1.638-.664 8.463 8.463 0 0 0-1.705-.37 4.18 4.18 0 0 0-.414-.032.704.704 0 0 0-.319.077c-.069.029-.147.07-.226.11-.063.032-.126.065-.185.091l-.077.035c-.107.05-.215.098-.32.15a7.9 7.9 0 0 0-1.477.928 3.866 3.866 0 0 0-.892.877c.433-.032.867.024 1.277.164a4.603 4.603 0 0 0-3.263 1.59c-.739.79-1.314 4.823-.477 5.89.408-.191.96-1.126 1.588-2.187.967-1.636 2.113-3.575 3.187-3.563-.647.578-1.147 2.13-1.648 3.87-.402 1.411-1.768 4.63-2.63 4.709-.336.02-.46-.141-.687-.469l-.19-.259a5.126 5.126 0 0 1-.747-1.518 7.409 7.409 0 0 1-.27-1.633c-.03-.543-.017-1.088.037-1.63.058-.536.149-1.069.27-1.595.121-.526.278-1.044.469-1.55.052-.129.103-.255.169-.385a1.84 1.84 0 0 1 .115-.21 1.67 1.67 0 0 1 .164-.19c.21-.199.447-.367.705-.5a4.725 4.725 0 0 1 1.193-.43c.131-.295.311-.565.531-.8.219-.229.456-.438.71-.627a8.504 8.504 0 0 1 1.576-.988 6.04 6.04 0 0 1 .42-.196c.06-.026.124-.059.195-.095.063-.033.131-.068.207-.103.172-.082.359-.125.549-.127.163 0 .325.012.486.035.619.067 1.229.2 1.82.393a14.65 14.65 0 0 1 1.704.69l.817.397.405.201c.099.054.226.102.363.155l.031.012c.15.058.288.118.437.193.081.041.159.088.233.14.071.058.138.12.201.185.22.239.413.502.575.784l.053.094c.284.497.548.958.959 1.229l.287.19a.163.163 0 0 1-.02.046l-.06.112-.288.146a.248.248 0 0 0-.14.219v.184a.998.998 0 0 1-.038.287c-.011.038-.025.071-.037.1a.306.306 0 0 0-.032.104.168.168 0 0 0 0 .09c.081.364 1.141.976 2.017 1.482.554.32 1.034.598 1.145.742Zm-7.092-2.526c.032.4-.454.713-1.029.78-.739.071-1.112-.334-1.029-.846.083-.512-.276-.512-.518-.224a.037.037 0 0 1-.021.014.038.038 0 0 1-.025-.001.044.044 0 0 1-.02-.017.043.043 0 0 1-.005-.025c.12-.854.621-.891.845-.891.674.048 1.342.162 1.995.34a.099.099 0 0 1 .074.075.103.103 0 0 1-.034.1.727.727 0 0 0-.233.695Z" clip-rule="evenodd"/><defs><linearGradient id="a" x1="556.584" x2="569.784" y1="36.761" y2="13" gradientUnits="userSpaceOnUse"><stop stop-color="#D08E39"/><stop offset="1" stop-color="#E3BB88"/></linearGradient></defs></svg>