<svg xmlns="http://www.w3.org/2000/svg" viewBox="0 0 129 31"><path fill="#0364FF" fill-rule="evenodd" d="M56.817 21.19a17.903 17.903 0 0 0 1.01-6.176 17.837 17.837 0 0 0-1.01-6.155 13.86 13.86 0 0 0-2.844-4.746 12.545 12.545 0 0 0-4.399-3.044A14.557 14.557 0 0 0 43.917 0a14.32 14.32 0 0 0-5.645 1.08 12.76 12.76 0 0 0-4.391 3.04 13.782 13.782 0 0 0-2.843 4.737 17.837 17.837 0 0 0-1.01 6.156 17.903 17.903 0 0 0 1.01 6.175 13.783 13.783 0 0 0 2.843 4.738 12.626 12.626 0 0 0 4.39 3.031 15.492 15.492 0 0 0 11.303 0 12.623 12.623 0 0 0 4.4-3.031 13.78 13.78 0 0 0 2.843-4.738ZM54.8 9.487c.58 1.783.86 3.65.828 5.526a16.858 16.858 0 0 1-.828 5.533 11.82 11.82 0 0 1-2.396 4.141 10.155 10.155 0 0 1-3.724 2.598 13.19 13.19 0 0 1-9.519 0 10.271 10.271 0 0 1-3.725-2.598 11.86 11.86 0 0 1-2.412-4.14 16.748 16.748 0 0 1-.853-5.534c-.023-1.87.267-3.731.857-5.505a11.859 11.859 0 0 1 2.413-4.17 10.396 10.396 0 0 1 3.724-2.606 13.022 13.022 0 0 1 9.519 0 10.276 10.276 0 0 1 3.724 2.606A11.822 11.822 0 0 1 54.8 9.49Zm24.689 20.538a.834.834 0 0 0 .661-1.342l-8.944-11.652a3.307 3.307 0 0 0-.883-.834c1.183-.13 2.34-.437 3.438-.91a8.681 8.681 0 0 0 2.603-1.75 7.38 7.38 0 0 0 1.649-2.503 8.303 8.303 0 0 0 .576-3.14c-.008-2.588-.844-4.55-2.507-5.888C74.42.669 71.921 0 68.586 0h-6.589a.834.834 0 0 0-.834.834v28.357c0 .46.373.834.834.834h.444c.46 0 .834-.373.834-.834v-11.91c0-.46.373-.834.834-.834h2.97a5.07 5.07 0 0 1 .73.046c.176.019.349.065.511.138a1.3 1.3 0 0 1 .403.262c.125.129.238.268.339.417l9.31 12.181c.108.177.26.32.439.417a1.3 1.3 0 0 0 .584.117h.094Zm-7.75-15.671a11.466 11.466 0 0 1-3.454.48H64.11a.834.834 0 0 1-.834-.835V2.552c0-.46.373-.834.834-.834h4.481c2.577.003 4.537.52 5.88 1.552 1.343 1.031 2.015 2.614 2.015 4.75a6.95 6.95 0 0 1-.552 2.823 5.885 5.885 0 0 1-1.612 2.143 7.29 7.29 0 0 1-2.583 1.368Z" clip-rule="evenodd"/><path fill="#0364FF" d="M95.637 28.113a9.22 9.22 0 0 0 3.796-.742 8.164 8.164 0 0 0 2.831-2.062 9.07 9.07 0 0 0 1.774-3.113 11.86 11.86 0 0 0 .603-3.862V1.058a1.058 1.058 0 0 1 2.116 0v17.276a13.366 13.366 0 0 1-.767 4.583 10.969 10.969 0 0 1-2.212 3.709 10.202 10.202 0 0 1-3.503 2.5 12.397 12.397 0 0 1-9.276 0 10.164 10.164 0 0 1-3.503-2.5 10.905 10.905 0 0 1-2.211-3.709 13.376 13.376 0 0 1-.768-4.583V1.063a1.063 1.063 0 0 1 2.125 0v17.246a11.86 11.86 0 0 0 .61 3.866 9.19 9.19 0 0 0 1.767 3.113 8.113 8.113 0 0 0 2.818 2.083 9.09 9.09 0 0 0 3.8.742ZM127.699 3.9a.575.575 0 0 1-.53.354 1.175 1.175 0 0 1-.686-.383 9.215 9.215 0 0 0-1.133-.834 8.522 8.522 0 0 0-1.791-.86 8.83 8.83 0 0 0-5.412.043 5.786 5.786 0 0 0-2.004 1.25 5.288 5.288 0 0 0-1.232 1.827 5.766 5.766 0 0 0-.411 2.176 4.502 4.502 0 0 0 .621 2.468 5.684 5.684 0 0 0 1.642 1.668c.725.477 1.504.863 2.32 1.151.863.309 1.754.617 2.665.921a37.63 37.63 0 0 1 2.666 1.005 9.695 9.695 0 0 1 2.32 1.38 6.367 6.367 0 0 1 1.642 2.044c.443.94.655 1.976.62 3.018a9.656 9.656 0 0 1-.611 3.474 8.145 8.145 0 0 1-1.811 2.83 8.497 8.497 0 0 1-2.9 1.898 10.397 10.397 0 0 1-3.925.692 10.941 10.941 0 0 1-4.928-1.026 11.594 11.594 0 0 1-2.877-2.034c-.459-.444-.505-1.149-.166-1.69a.715.715 0 0 1 .571-.312.82.82 0 0 1 .472.25l.694.609c.271.246.599.509.981.792.416.306.86.57 1.327.788a9.08 9.08 0 0 0 3.967.86 8.312 8.312 0 0 0 3.067-.53 6.66 6.66 0 0 0 2.271-1.46 6.128 6.128 0 0 0 1.417-2.168 7.286 7.286 0 0 0 .493-2.685 4.804 4.804 0 0 0-.625-2.564 5.448 5.448 0 0 0-1.642-1.668 10.65 10.65 0 0 0-2.316-1.13c-.867-.304-1.754-.6-2.669-.892a32.219 32.219 0 0 1-2.666-.976 9.163 9.163 0 0 1-2.32-1.376 6.305 6.305 0 0 1-1.642-2.085 7.01 7.01 0 0 1-.625-3.143 7.6 7.6 0 0 1 .551-2.844 7.119 7.119 0 0 1 1.614-2.414 7.888 7.888 0 0 1 2.628-1.668A9.434 9.434 0 0 1 120.894 0a10.669 10.669 0 0 1 4.037.726 9.58 9.58 0 0 1 2.474 1.494c.492.41.586 1.11.294 1.679Z"/><path fill="#0364FF" fill-rule="evenodd" d="M2.811 0A2.811 2.811 0 0 0 0 2.811v3.275a2.811 2.811 0 0 0 2.811 2.81h4.973v18.319a2.811 2.811 0 0 0 2.811 2.81h3.275a2.811 2.811 0 0 0 2.81-2.81V6.109l.001-.023V2.81A2.811 2.811 0 0 0 13.87 0H2.811Z"/><path fill="#0364FF" d="M23.354 8.897a4.448 4.448 0 1 0 0-8.897 4.448 4.448 0 0 0 0 8.897Z"/></svg>