<svg width="16" height="16" xmlns="http://www.w3.org/2000/svg"><path d="M0 4a4 4 0 0 1 4-4h8a4 4 0 0 1 4 4v8a4 4 0 0 1-4 4H4a4 4 0 0 1-4-4V4Z" fill="#3083FC"/><path d="M5.047 6.172c1.631-1.563 4.275-1.563 5.906 0l.196.188a.194.194 0 0 1 0 .283l-.671.644a.108.108 0 0 1-.148 0l-.27-.259c-1.138-1.09-2.982-1.09-4.12 0l-.29.277a.108.108 0 0 1-.147 0l-.671-.643a.194.194 0 0 1 0-.283l.215-.207Zm7.294 1.331.598.573a.194.194 0 0 1 0 .283l-2.694 2.582a.215.215 0 0 1-.296 0L8.037 9.11a.054.054 0 0 0-.074 0L6.051 10.94a.215.215 0 0 1-.295 0L3.06 8.36a.194.194 0 0 1 0-.283l.598-.573a.215.215 0 0 1 .295 0l1.912 1.833c.02.02.054.02.074 0l1.912-1.833a.215.215 0 0 1 .296 0l1.912 1.833c.02.02.053.02.074 0l1.912-1.833a.215.215 0 0 1 .295 0Z" fill="#fff"/></svg>