<svg xmlns="http://www.w3.org/2000/svg" viewBox="0 0 76 75"><defs><linearGradient id="a" x1="101.681%" x2="-1.557%" y1="15.268%" y2="84.917%"><stop offset="0%" stop-color="#F1D961"/><stop offset="100%" stop-color="#CDA146"/></linearGradient></defs><g fill="none" fill-rule="evenodd"><rect width="75" height="75" fill="#000" rx="16"/><path fill="url(#a)" fill-rule="nonzero" d="M61.44 0a13.714 13.714 0 0 1 9.68 4.01 13.661 13.661 0 0 1 4.008 9.668v47.646a13.66 13.66 0 0 1-4.007 9.666A13.713 13.713 0 0 1 61.44 75H13.686a13.713 13.713 0 0 1-9.68-4.01A13.66 13.66 0 0 1 0 61.324V13.678c0-3.625 1.44-7.102 4.007-9.667A13.714 13.714 0 0 1 13.687 0ZM20.063 46.231h-4.825a10.032 10.032 0 0 0 2.946 7.086 10.07 10.07 0 0 0 7.1 2.942 10.065 10.065 0 0 0 7.108-2.935 10.03 10.03 0 0 0 2.946-7.093h-4.824a5.207 5.207 0 0 1-1.53 3.688 5.225 5.225 0 0 1-3.696 1.528 5.234 5.234 0 0 1-3.695-1.528 5.213 5.213 0 0 1-1.53-3.688ZM54.33 33.716a11.763 11.763 0 0 0-12.799 2.538A11.697 11.697 0 0 0 38.99 49.03a11.723 11.723 0 0 0 4.328 5.259 11.757 11.757 0 0 0 6.526 1.97 11.766 11.766 0 0 0 8.29-3.435 11.72 11.72 0 0 0 3.442-8.274 11.702 11.702 0 0 0-1.975-6.514 11.736 11.736 0 0 0-5.269-4.32Zm-4.488 3.92a6.937 6.937 0 0 1 4.9 2.025 6.91 6.91 0 0 1 2.028 4.892 6.897 6.897 0 0 1-1.17 3.834 6.932 6.932 0 0 1-10.643 1.042 6.902 6.902 0 0 1-1.5-7.522 6.909 6.909 0 0 1 2.544-3.1 6.928 6.928 0 0 1 3.841-1.167Zm.17 4.552a2.431 2.431 0 0 0-2.241 1.154 2.418 2.418 0 0 0-.356 1.257 2.395 2.395 0 0 0 1.619 2.29v1.753h1.618v-1.754a2.427 2.427 0 0 0 1.594-1.95 2.418 2.418 0 0 0-1-2.31 2.431 2.431 0 0 0-1.234-.44Zm-20.22-22.552a11.762 11.762 0 0 0-12.796 2.531 11.697 11.697 0 0 0-2.554 12.769 11.723 11.723 0 0 0 4.32 5.262 11.757 11.757 0 0 0 14.825-1.446 11.717 11.717 0 0 0 3.445-8.284 11.703 11.703 0 0 0-1.974-6.512 11.736 11.736 0 0 0-5.266-4.32Zm-4.51 3.917a6.945 6.945 0 0 1 4.897 2.029 6.918 6.918 0 0 1 2.032 4.886 6.906 6.906 0 0 1-1.168 3.842 6.94 6.94 0 0 1-10.66 1.048 6.911 6.911 0 0 1-1.5-7.536 6.918 6.918 0 0 1 2.55-3.103 6.937 6.937 0 0 1 3.85-1.166Zm24.56-4.81a10.059 10.059 0 0 0-7.103 2.94 10.02 10.02 0 0 0-2.94 7.09 9.9 9.9 0 0 0 1.23 4.795 13.575 13.575 0 0 1 4.214-2.322 5.082 5.082 0 0 1-.625-2.477 5.206 5.206 0 0 1 1.503-3.736 5.223 5.223 0 0 1 3.722-1.554 5.234 5.234 0 0 1 3.72 1.554 5.213 5.213 0 0 1 1.505 3.736 5.279 5.279 0 0 1-.623 2.473 13.574 13.574 0 0 1 4.213 2.322 9.903 9.903 0 0 0 1.23-4.795 10.032 10.032 0 0 0-2.946-7.086 10.07 10.07 0 0 0-7.1-2.94Zm-23.75 7.99h-1.617v1.75a2.419 2.419 0 0 0-1.582 2.687 2.414 2.414 0 0 0 2.39 2.006 2.45 2.45 0 0 0 1.555-.574 2.414 2.414 0 0 0-.746-4.119v-1.75Z"/></g></svg>