<svg xmlns="http://www.w3.org/2000/svg" fill="none" viewBox="0 0 81 81"><path fill="url(#a)" fill-rule="evenodd" d="M17.006 17.006A10.262 10.262 0 0 1 24.262 14H67.33v7.874a7.377 7.377 0 0 1-7.377 7.376H39.705a10.263 10.263 0 0 0-10.263 10.263v2.611a10.262 10.262 0 0 0 10.263 10.262h20.248a7.376 7.376 0 0 1 7.377 7.377v7.567H24.262A10.263 10.263 0 0 1 14 57.068V24.263c0-2.722 1.081-5.332 3.006-7.257Zm23.142 16.536h20.768a6.414 6.414 0 0 1 6.413 6.414v1.726a6.414 6.414 0 0 1-6.413 6.413H40.148a6.414 6.414 0 0 1-6.414-6.413v-1.726a6.414 6.414 0 0 1 6.414-6.414Z" clip-rule="evenodd"/><defs><linearGradient id="a" x1="19.3602" x2="56.7696" y1="14" y2="69.8005" gradientUnits="userSpaceOnUse"><stop stop-color="#C549FF"/><stop offset="1" stop-color="#654BFF"/></linearGradient></defs></svg>