<svg xmlns="http://www.w3.org/2000/svg" viewBox="-2 -2 20 20"><g stroke-linecap="round" stroke-linejoin="round" stroke-width=".05"><path fill="#E2761B" stroke="#E2761B" d="M15.204.533 8.962 5.2l1.152-2.75 5.09-1.917Z"/><path fill="#E4761B" stroke="#E4761B" d="m.79.533 6.195 4.711L5.886 2.45.791.533Zm12.17 10.822-1.665 2.564 3.558.983 1.02-3.493-2.914-.054ZM.132 11.41l1.015 3.492 3.558-.983-1.664-2.564-2.91.054Z"/><path fill="#E4761B" stroke="#E4761B" d="m4.505 7.022-.99 1.509 3.533.157-.127-3.822-2.416 2.156Zm6.985 0-2.45-2.2-.078 3.866 3.524-.157-.996-1.509ZM4.705 13.92l2.124-1.042-1.836-1.444-.288 2.485Zm4.462-1.042 2.128 1.041-.293-2.485-1.835 1.444Z"/><path fill="#D7C1B3" stroke="#D7C1B3" d="m11.295 13.92-2.128-1.042.17 1.395-.02.585 1.978-.939Zm-6.59 0 1.977.938-.015-.585.162-1.395-2.124 1.041Z"/><path fill="#233447" stroke="#233447" d="M6.711 10.515 4.944 9.99l1.25-.574.517 1.1Zm2.568 0 .522-1.1 1.255.574-1.777.526Z"/><path fill="#CD6116" stroke="#CD6116" d="m4.705 13.92.303-2.565-1.967.054 1.664 2.51Zm6.287-2.565.303 2.564 1.664-2.51-1.967-.054Zm1.494-2.825-3.524.158.327 1.827.517-1.1 1.254.574 1.426-1.458ZM4.944 9.99 6.2 9.414l.512 1.1.337-1.827-3.534-.157 1.43 1.458Z"/><path fill="#E4751F" stroke="#E4751F" d="m3.514 8.53 1.48 2.904-.05-1.445-1.43-1.458Zm7.546 1.46-.058 1.444 1.484-2.903-1.426 1.458ZM7.048 8.688l-.337 1.827.415 2.152.098-2.835-.176-1.144Zm1.914 0-.171 1.14.073 2.839.425-2.152-.327-1.827Z"/><path fill="#F6851B" stroke="#F6851B" d="m9.289 10.515-.425 2.152.303.21 1.835-1.443.058-1.445-1.771.526ZM4.944 9.99l.05 1.444 1.835 1.444.297-.211-.415-2.152-1.767-.526Z"/><path fill="#C0AD9E" stroke="#C0AD9E" d="m9.318 14.858.02-.585-.157-.143H6.814l-.147.143.015.585-1.977-.939.689.565 1.4.983h2.407l1.405-.983.689-.565-1.977.939Z"/><path fill="#161616" stroke="#161616" d="m9.167 12.878-.303-.211H7.126l-.297.21-.162 1.396.147-.143H9.18l.156.143-.17-1.395Z"/><path fill="#763D16" stroke="#763D16" d="M15.468 5.505 16 2.93 15.204.533l-6.037 4.51 2.323 1.98 3.28.962.727-.85-.312-.226.503-.461-.39-.305.502-.383-.332-.255ZM0 2.93l.532 2.575-.337.255.503.383-.386.305.503.461-.312.226.722.85 3.28-.963 2.324-1.98L.79.534 0 2.931Z"/><path fill="#F6851B" stroke="#F6851B" d="m14.77 7.985-3.28-.963.996 1.509-1.484 2.903 1.957-.025h2.914L14.77 7.985ZM4.505 7.022l-3.28.963L.132 11.41H3.04l1.952.025L3.514 8.53l.991-1.509Zm4.457 1.666.205-3.645.956-2.594H5.887l.942 2.594.22 3.645.072 1.15.005 2.829h1.738l.015-2.83.083-1.15Z"/></g></svg>