<svg xmlns="http://www.w3.org/2000/svg" fill="none" viewBox="5 5 40 40"><path fill="#1896A4" d="M25 45c11.046 0 20-8.954 20-20S36.046 5 25 5 5 13.954 5 25s8.954 20 20 20Z"/><path fill="#fff" d="M28.03 31.564a6.5 6.5 0 0 1-2.49.502c-3.706 0-6.71-3.115-6.71-6.957 0-.284.022-.564.052-.84l-6.758-1.14C12.043 23.75 12 24.374 12 25c0 7.731 6.046 14 13.502 14 2.614 0 5.052-.774 7.118-2.108l-4.59-5.328Zm3.822-8.827-8.98 2.053 15.772 3.399A14.61 14.61 0 0 0 39 25c0-7.731-6.046-14-13.502-14-2.993 0-5.753 1.011-7.992 2.718l4.665 5.375a6.477 6.477 0 0 1 3.368-.945c2.903 0 5.379 1.913 6.313 4.589Z"/></svg>