<svg xmlns="http://www.w3.org/2000/svg" viewBox="0 0 309 309"><rect width="309" height="309" fill="#9886E5" rx="74.3889"/><path fill="#FFFDF8" fill-rule="evenodd" d="M133.117 200.077C120.181 219.899 98.5052 244.983 69.6618 244.983C56.0267 244.983 42.916 239.37 42.916 214.987C42.916 152.891 127.698 56.7637 206.362 56.7637C251.113 56.7637 268.944 87.812 268.944 123.07C268.944 168.327 239.576 220.074 210.383 220.074C201.118 220.074 196.573 214.987 196.573 206.918C196.573 204.813 196.923 202.533 197.622 200.077C187.658 217.092 168.429 232.88 150.423 232.88C137.313 232.88 130.67 224.635 130.67 213.058C130.67 208.848 131.544 204.463 133.117 200.077ZM200.877 121.845C200.877 132.119 194.815 137.256 188.034 137.256C181.151 137.256 175.192 132.119 175.192 121.845C175.192 111.571 181.151 106.434 188.034 106.434C194.815 106.434 200.877 111.571 200.877 121.845ZM239.404 121.845C239.404 132.119 233.342 137.256 226.561 137.256C219.677 137.256 213.719 132.119 213.719 121.845C213.719 111.571 219.677 106.434 226.561 106.434C233.342 106.434 239.404 111.571 239.404 121.845Z" clip-rule="evenodd"/></svg>