<svg xmlns="http://www.w3.org/2000/svg" fill="none" viewBox="0 0 32 32"><path fill="#7084FF" d="M32 16c0-8.837-7.163-16-16-16S0 7.163 0 16s7.163 16 16 16 16-7.163 16-16Z"/><path fill="url(#a)" d="M27.602 17.388c.92-2.062-3.627-7.822-7.971-10.221-2.738-1.86-5.591-1.604-6.169-.788-1.268 1.792 4.2 3.31 7.855 5.08-.786.343-1.526.958-1.962 1.744-1.363-1.493-4.355-2.78-7.865-1.743-2.366.698-4.332 2.343-5.092 4.828a1.492 1.492 0 0 0-2.093 1.366c0 .826.666 1.495 1.489 1.495.152 0 .629-.103.629-.103l7.617.056c-3.046 4.848-5.454 5.557-5.454 6.397 0 .84 2.304.613 3.169.3 4.14-1.5 8.587-6.171 9.35-7.516 3.204.401 5.897.449 6.497-.895Z"/><path fill="url(#b)" fill-rule="evenodd" d="m21.303 11.454.011.005c.17-.067.142-.318.096-.515-.107-.454-1.953-2.282-3.686-3.101-2.361-1.116-4.1-1.059-4.357-.544.48.99 2.71 1.918 5.04 2.889.99.412 1.997.831 2.896 1.266Z" clip-rule="evenodd"/><path fill="url(#c)" fill-rule="evenodd" d="M18.323 21.417a14 14 0 0 0-1.63-.504c.654-1.174.791-2.912.173-4.01-.866-1.543-1.954-2.364-4.483-2.364-1.39 0-5.134.47-5.2 3.606-.008.329 0 .63.023.907l6.837.05c-.922 1.467-1.785 2.556-2.541 3.383.907.234 1.656.43 2.344.61.652.17 1.249.326 1.873.486a28.49 28.49 0 0 0 2.604-2.164Z" clip-rule="evenodd"/><path fill="url(#d)" d="M6.309 18.728c.279 2.382 1.628 3.316 4.386 3.592 2.757.277 4.338.091 6.444.284 1.759.16 3.329 1.06 3.912.749.524-.28.23-1.29-.471-1.939-.91-.84-2.168-1.424-4.382-1.631.441-1.213.317-2.913-.368-3.838-.991-1.337-2.82-1.941-5.135-1.677-2.42.276-4.737 1.47-4.386 4.46Z"/><defs><linearGradient id="a" x1="11.2142" x2="27.4119" y1="15.562" y2="20.1399" gradientUnits="userSpaceOnUse"><stop stop-color="#fff"/><stop offset="1" stop-color="#fff"/></linearGradient><linearGradient id="b" x1="24.6745" x2="12.9536" y1="15.2518" y2="3.54163" gradientUnits="userSpaceOnUse"><stop stop-color="#8697FF"/><stop offset="1" stop-color="#8697FF" stop-opacity="0"/></linearGradient><linearGradient id="c" x1="18.6478" x2="7.40802" y1="21.8261" y2="15.3859" gradientUnits="userSpaceOnUse"><stop stop-color="#8697FF"/><stop offset="1" stop-color="#8697FF" stop-opacity="0"/></linearGradient><linearGradient id="d" x1="12.1827" x2="19.7991" y1="15.4394" y2="25.0843" gradientUnits="userSpaceOnUse"><stop stop-color="#fff"/><stop offset="0.983895" stop-color="#D1D8FF"/></linearGradient></defs></svg>