<svg xmlns="http://www.w3.org/2000/svg" fill="none" viewBox="0 0 300 300"><circle cx="150" cy="150" r="150" fill="#D08E39"/><path fill="#002522" fill-rule="evenodd" d="M241.377 139.857a11.625 11.625 0 0 1 4.096 6.987 8.049 8.049 0 0 1-.03 2.469 14.972 14.972 0 0 1-.211 1.716 24.985 24.985 0 0 1-.723 3.313 22.76 22.76 0 0 1-3.011 6.264c-.25.362-.567.776-.786 1.061l-.178.234v.15l.012.091c.034.243.097.695.229 1.355.363 2.188.474 4.411.331 6.625a38.065 38.065 0 0 1-3.011 12.498 27.827 27.827 0 0 1-7.71 10.69l-.391.362-.542.18a89.167 89.167 0 0 1-12.919 3.765 53.88 53.88 0 0 1-13.733 1.325h-.783a137.188 137.188 0 0 0-29.482-6.023 58.416 58.416 0 0 1-8.101-1.175 66.15 66.15 0 0 1-7.709-2.469 94.077 94.077 0 0 0-12.317-3.554 13.976 13.976 0 0 0-2.56 9.456 38.841 38.841 0 0 0 4.487 13.673 73.842 73.842 0 0 1 7.198 14.665 36.837 36.837 0 0 1 1.325 17.075l-.813 5.21-4.397-3.011c-.529-.453-1.521-1.054-2.466-1.626l-.546-.332-3.011-1.656a66.766 66.766 0 0 1 2.108 12.046 68.703 68.703 0 0 1-.211 10.57A36.665 36.665 0 0 1 143.233 272c-12.484-18.97-22.673-24.404-31.598-29.164-5.994-3.197-11.419-6.09-16.585-12.575-7.65-10.871-9.576-23.369 1.084-47.009 2.952-7.305 4.773-15.317 6.262-21.869 1.262-5.548 2.285-10.05 3.555-12.191v.181a44.007 44.007 0 0 0 0 15.057 16.833 16.833 0 0 0 2.56 6.565 12.345 12.345 0 0 0 5.331 4.006 45.936 45.936 0 0 0 14.214 3.011c2.469.392 4.969.392 7.528.392a36.907 36.907 0 0 1 3.976.15c1.355.121 2.68.301 4.005.482a97.653 97.653 0 0 1 15.479 3.825 43.497 43.497 0 0 0 14.244 2.86 134.854 134.854 0 0 1 30.476 6.023 53.58 53.58 0 0 0 11.654-.903c1.386-.241 2.771-.572 4.156-.903 6.806-1.988 14.455-13.552 5.601-12.588a48.534 48.534 0 0 0-7.317.903c-1.382.327-2.75.845-4.2 1.394-1.489.563-3.065 1.16-4.835 1.618a20.458 20.458 0 0 1-10.118-.271 29.813 29.813 0 0 0-9.035-2.109 11.431 11.431 0 0 1 4.728-1.445c1.218-.122 2.298-.08 3.334-.039.502.02.993.039 1.485.039 2.809.386 5.665.264 8.432-.361 1.421-.402 2.86-1.174 4.406-2.004 1.239-.664 2.546-1.365 3.966-1.941a27.32 27.32 0 0 1 9.907-2.108h-.06a21.41 21.41 0 0 1 3.704 0 12.047 12.047 0 0 0 3.012-9.426 6.51 6.51 0 0 0-3.674-2.681 96.928 96.928 0 0 0-2.256-.453c-4.47-.867-11.786-2.285-14.729-5.027-2.018-1.958-3.102-7.83 4.005-9.456a40.882 40.882 0 0 1 11.414-.362l.145.014c1.705.162 5.937.563 6.932-.285a28.034 28.034 0 0 1-1.339-.964c-.214-.16-.428-.321-.649-.481l-9.335-7.107c-.644-.453-1.269-.911-1.882-1.36-.937-.686-1.846-1.353-2.756-1.953a8.878 8.878 0 0 0-.964-.602 6.721 6.721 0 0 0-1.024-.452 28.817 28.817 0 0 1-3.011-1.355 38.102 38.102 0 0 1-9.818-7.258 122.687 122.687 0 0 1-21.531-29.904 20.72 20.72 0 0 0-10.812-9.787 17.796 17.796 0 0 1 13.281 4.818c.603.5 1.372 1.876 2.357 3.637 2.751 4.92 7.188 12.857 14.417 13.167 1.246-.1 2.473-.374 3.644-.813-3.589-3.397-6.019-7.489-8.293-11.319-3.45-5.81-6.544-11.02-12.788-12.29a41.735 41.735 0 0 1-4.577-1.958l-4.216-2.078-8.432-4.126a151.67 151.67 0 0 0-17.166-6.956 87.085 87.085 0 0 0-17.858-3.855c-1.438-.19-2.886-.3-4.336-.331a7.56 7.56 0 0 0-3.373.783c-.61.261-1.297.628-2.004 1.005-.759.405-1.54.821-2.272 1.133a74.472 74.472 0 0 0-4.186 1.927 83.56 83.56 0 0 0-15.449 9.697 40.415 40.415 0 0 0-9.336 9.185 34.239 34.239 0 0 1 13.341 1.747 50.683 50.683 0 0 0-16.02 2.289 55.079 55.079 0 0 0-7.439 2.74 50.797 50.797 0 0 0-6.957 3.644 30.356 30.356 0 0 0-6.022 4.547 7.712 7.712 0 0 0-1.687 2.59c-.511 1.143-.962 2.376-1.414 3.61l-.001.004a116.078 116.078 0 0 0-4.186 15.479 125.278 125.278 0 0 0-2.41 31.891 61.923 61.923 0 0 0 6.596 24.755 466.502 466.502 0 0 0 10.81-14.847 231.943 231.943 0 0 0 12.499-20.087c1.984-3.559 3.746-7.283 5.527-11.047 1.624-3.433 3.264-6.899 5.103-10.304a65.456 65.456 0 0 1 6.535-10.42 24.806 24.806 0 0 1 4.397-4.487 10.115 10.115 0 0 1 5.782-2.318c-6.746 6.053-11.986 22.315-17.226 40.534-4.216 14.786-18.55 48.485-27.585 49.328-3.493.18-4.788-1.476-7.167-4.909l-1.988-2.71a53.969 53.969 0 0 1-7.83-15.901 79.662 79.662 0 0 1-3.011-17.105c-.277-5.694-.146-11.4.391-17.075a141.56 141.56 0 0 1 3.012-16.714 121.47 121.47 0 0 1 4.909-16.262c.542-1.355 1.084-2.68 1.746-4.035a19.01 19.01 0 0 1 1.235-2.168 19.424 19.424 0 0 1 1.717-2.018 31.528 31.528 0 0 1 7.348-5.21 50.018 50.018 0 0 1 12.527-4.547 29.876 29.876 0 0 1 5.541-8.342 60.713 60.713 0 0 1 7.469-6.595 90.572 90.572 0 0 1 16.502-10.36c.929-.464 2.06-.968 3.059-1.414.491-.22.951-.424 1.338-.603.52-.24 1.075-.527 1.676-.837a52.885 52.885 0 0 1 2.51-1.24A13.946 13.946 0 0 1 127.122 54c1.574 0 2.733.12 3.923.245.381.04.765.08 1.167.116a93.357 93.357 0 0 1 19.032 4.126 154.816 154.816 0 0 1 17.858 7.258l8.583 4.155 4.246 2.109c1.037.56 2.36 1.068 3.801 1.621l.325.125a46.255 46.255 0 0 1 4.577 2.018 20.21 20.21 0 0 1 2.439 1.476 23.61 23.61 0 0 1 2.108 1.927 43.917 43.917 0 0 1 6.023 8.221l.647 1.127c2.938 5.124 5.687 9.92 9.954 12.726l3.011 1.987a2.943 2.943 0 0 1-.181.482l-.632 1.145-3.012 1.535a2.44 2.44 0 0 0-1.295 1.386 2.683 2.683 0 0 0-.18.903v1.928a10.567 10.567 0 0 1-.392 3.011c-.125.388-.276.734-.41 1.041-.188.432-.343.785-.343 1.067-.095.314-.095.65 0 .964a32.093 32.093 0 0 0 8.192 6.023l2.409 1.114c.567.204 1.121.445 1.656.723l1.536.933c1.347.855 2.451 1.695 3.549 2.531.449.341.897.682 1.36 1.023l9.365 7.137 2.229 1.656c.944.616 1.849 1.29 2.71 2.018Zm-73.993-27.796c.301 3.734-4.156 6.655-9.606 7.258-6.867.692-10.541-3.283-9.577-7.89 1.807-7.71-2.168-5.09-4.818-2.078a.364.364 0 0 1-.449.152.36.36 0 0 1-.214-.423c1.114-7.951 5.782-8.282 7.86-8.282a94.985 94.985 0 0 1 18.611 3.162.908.908 0 0 1 .688.683.9.9 0 0 1-.327.913 6.782 6.782 0 0 0-2.168 6.505Z" clip-rule="evenodd"/></svg>