<svg xmlns="http://www.w3.org/2000/svg" fill="none" viewBox="0 0 96 96"><rect width="96" height="96" fill="#FEF4FF" rx="18"/><g fill="#F50DB4"><path d="M71.937 18.39c.111-1.937.377-3.215.913-4.383.212-.461.41-.84.44-.84.031 0-.06.341-.204.758-.39 1.133-.453 2.682-.185 4.484.34 2.287.534 2.617 2.983 5.088 1.149 1.158 2.485 2.62 2.97 3.247l.88 1.141-.88-.815c-1.078-.997-3.555-2.942-4.102-3.22-.367-.186-.421-.183-.648.04-.208.204-.252.512-.281 1.967-.045 2.268-.358 3.724-1.114 5.18-.41.786-.474.618-.104-.27.277-.664.305-.955.303-3.15-.005-4.412-.535-5.472-3.647-7.289a34.258 34.258 0 0 0-2.887-1.475c-.799-.351-1.434-.657-1.41-.68.087-.086 3.122.788 4.344 1.252 1.817.69 2.117.779 2.337.696.148-.056.22-.481.292-1.731Z"/><path d="M33.547 11.973c-1.078-.165-1.124-.184-.616-.261.972-.147 3.267.053 4.849.424 3.692.864 7.052 3.08 10.639 7.013l.953 1.045 1.363-.216c5.742-.91 11.584-.187 16.47 2.037 1.344.611 3.464 1.83 3.729 2.142.084.1.239.742.344 1.427.363 2.37.181 4.186-.555 5.543-.4.738-.422.972-.153 1.604.215.504.814.877 1.407.876 1.214-.001 2.521-1.935 3.127-4.625l.24-1.069.477.532c2.614 2.917 4.667 6.895 5.02 9.727l.091.738-.44-.671c-.755-1.155-1.515-1.941-2.488-2.575-1.754-1.144-3.608-1.532-8.519-1.787-4.435-.23-6.945-.604-9.434-1.403-4.235-1.36-6.37-3.172-11.4-9.673-2.235-2.887-3.616-4.485-4.99-5.772-3.12-2.923-6.188-4.456-10.114-5.056Zm2.093 13.983c-2.188-2.967-3.542-7.517-3.249-10.918l.091-1.053.498.09c.936.168 2.548.76 3.303 1.211 2.073 1.24 2.97 2.872 3.883 7.064.267 1.227.618 2.617.78 3.087.26.757 1.241 2.525 2.04 3.674.575.827.193 1.219-1.079 1.106-1.94-.173-4.57-1.96-6.267-4.26Zm33.64 22.086c-10.226-4.056-13.828-7.576-13.828-13.516 0-.874.03-1.59.068-1.59.037 0 .433.289.88.642 2.073 1.638 4.395 2.338 10.823 3.261 3.783.544 5.912.983 7.876 1.625 6.241 2.039 10.103 6.177 11.024 11.813.267 1.637.11 4.708-.324 6.327-.342 1.278-1.387 3.583-1.664 3.671-.077.025-.153-.266-.172-.66-.105-2.117-1.191-4.177-3.014-5.72-2.074-1.755-4.859-3.152-11.67-5.853Zm-7.18 1.685c-.127-.751-.35-1.71-.493-2.132l-.26-.765.484.535c.67.742 1.2 1.69 1.65 2.955.342.964.381 1.251.378 2.819-.002 1.538-.045 1.861-.362 2.73-.499 1.368-1.118 2.339-2.158 3.381-1.868 1.873-4.27 2.91-7.735 3.34-.602.074-2.358.2-3.902.28-3.89.199-6.45.61-8.751 1.406-.33.115-.626.184-.656.154-.093-.09 1.473-1.01 2.767-1.624 1.824-.866 3.64-1.338 7.709-2.006 2.01-.33 4.086-.73 4.613-.889 4.977-1.503 7.536-5.382 6.717-10.184Z"/><path d="M66.789 57.928c-1.36-2.877-1.671-5.655-.927-8.246.08-.277.208-.503.285-.503.077 0 .398.17.712.38.627.414 1.882 1.114 5.228 2.91 4.174 2.242 6.554 3.978 8.173 5.962 1.417 1.737 2.295 3.715 2.717 6.127.239 1.367.099 4.655-.257 6.03-1.123 4.34-3.731 7.748-7.452 9.736-.545.291-1.034.53-1.087.532-.053 0 .145-.497.441-1.106 1.252-2.577 1.394-5.084.448-7.874-.58-1.709-1.76-3.794-4.146-7.317-2.773-4.097-3.453-5.187-4.135-6.631ZM28.378 73.45c3.795-3.156 8.517-5.398 12.818-6.086 1.853-.297 4.941-.179 6.658.254 2.751.693 5.212 2.247 6.492 4.098 1.251 1.809 1.788 3.385 2.347 6.892.22 1.384.46 2.773.532 3.087.42 1.818 1.236 3.271 2.248 4 1.608 1.16 4.375 1.232 7.097.185.463-.177.864-.3.892-.272.099.096-1.272 1-2.24 1.476-1.3.64-2.336.888-3.71.888-2.494 0-4.564-1.25-6.291-3.797-.34-.501-1.104-2.003-1.698-3.337-1.824-4.098-2.725-5.346-4.842-6.712-1.843-1.189-4.22-1.401-6.007-.538-2.349 1.134-3.004 4.09-1.322 5.964.668.745 1.915 1.387 2.934 1.512 1.908.234 3.547-1.196 3.547-3.092 0-1.232-.481-1.935-1.69-2.472-1.653-.735-3.429.124-3.42 1.653.003.651.291 1.061.955 1.357.426.19.435.204.088.133-1.516-.31-1.87-2.11-.652-3.305 1.464-1.434 4.49-.801 5.529 1.157.436.823.487 2.461.106 3.45-.851 2.214-3.335 3.379-5.855 2.745-1.715-.431-2.414-.898-4.482-2.997-3.594-3.647-4.99-4.353-10.17-5.15l-.994-.153 1.13-.94Z"/><path fill-rule="evenodd" d="M11.515 8.181c12.002 14.35 20.268 20.27 21.187 21.52.759 1.033.473 1.962-.826 2.69-.723.404-2.208.814-2.952.814-.841 0-1.13-.32-1.13-.32-.488-.455-.763-.376-3.268-4.756-3.478-5.315-6.388-9.725-6.468-9.799-.183-.17-.18-.165 6.114 10.927 1.016 2.312.202 3.16.202 3.49 0 .67-.186 1.022-1.025 1.944-1.398 1.536-2.023 3.263-2.474 6.836-.506 4.006-1.929 6.836-5.87 11.679-2.309 2.835-2.686 3.354-3.268 4.497-.734 1.439-.935 2.244-1.017 4.061-.087 1.921.082 3.163.678 5 .521 1.607 1.066 2.669 2.457 4.793 1.202 1.832 1.893 3.194 1.893 3.727 0 .424.083.424 1.944.01 4.455-.99 8.072-2.733 10.106-4.869 1.26-1.322 1.555-2.052 1.564-3.863.007-1.185-.036-1.433-.36-2.115-.53-1.11-1.494-2.032-3.617-3.462-2.783-1.873-3.972-3.382-4.3-5.456-.27-1.703.043-2.904 1.583-6.082 1.593-3.29 1.988-4.691 2.255-8.007.172-2.142.411-2.987 1.036-3.665.652-.707 1.239-.947 2.851-1.164 2.63-.354 4.304-1.024 5.68-2.273 1.194-1.084 1.694-2.128 1.77-3.7l.058-1.191-.667-.766C33.235 25.906 9.897 6 9.748 6c-.032 0 .763.982 1.767 2.181Zm5.59 55.757a2.088 2.088 0 0 0-.658-2.776c-.863-.566-2.205-.3-2.205.437 0 .225.127.389.411.533.48.243.514.516.137 1.074-.382.565-.35 1.062.087 1.4.706.544 1.704.245 2.228-.668Zm20.873-26.702c-1.235.373-2.434 1.662-2.806 3.013-.227.825-.098 2.27.241 2.717.549.721 1.079.911 2.515.901 2.81-.019 5.255-1.206 5.539-2.691.232-1.217-.84-2.903-2.32-3.644-.762-.382-2.384-.533-3.17-.296Zm3.286 2.531c.433-.607.244-1.262-.494-1.706-1.404-.844-3.527-.145-3.527 1.161 0 .65 1.107 1.36 2.122 1.36.676 0 1.6-.397 1.899-.815Z" clip-rule="evenodd"/></g></svg>