<svg xmlns="http://www.w3.org/2000/svg" viewBox="0 0 96 96"><g clip-path="url(#a)"><g filter="url(#b)"><path fill="#00D395" d="M48.074 95.252c26.076 0 47.215-21.139 47.215-47.215C95.29 21.96 74.15.822 48.074.822 21.998.822.86 21.961.86 48.037.86 74.113 22 95.252 48.074 95.252Z"/></g><path fill="url(#c)" d="M48.075 91.733c24.132 0 43.695-19.564 43.695-43.696 0-24.133-19.563-43.696-43.695-43.696-24.133 0-43.696 19.563-43.696 43.696 0 24.132 19.563 43.696 43.696 43.696Z"/><path fill="#F9FAFB" fill-rule="evenodd" d="M28.155 63.88a4.758 4.758 0 0 1-2.276-4.054v-9.224c0-.352.095-.693.271-.996a1.978 1.978 0 0 1 2.711-.712L49.68 61.03a3.965 3.965 0 0 1 1.968 3.424v9.558a2.378 2.378 0 0 1-3.619 2.03L28.155 63.88Zm31.032-17.514a3.965 3.965 0 0 1 1.967 3.423v19.393a1.58 1.58 0 0 1-.807 1.381L55.79 73.13a.93.93 0 0 1-.183.076V62.436a3.97 3.97 0 0 0-1.93-3.404L35.394 48.093V35.938a1.978 1.978 0 0 1 2.982-1.709l20.812 12.137Zm9.11-14.324a3.96 3.96 0 0 1 1.974 3.43v28.326a1.59 1.59 0 0 1-.832 1.394l-4.32 2.332v-19.72c0-1.394-.73-2.68-1.922-3.399l-18.688-11.21v-11.53c0-.354.095-.694.265-.997a1.986 1.986 0 0 1 2.711-.719l20.812 12.093Z" clip-rule="evenodd"/><path fill="#070A0E" d="M48.037 96C74.527 96 96 74.526 96 48.037 96 21.547 74.526.074 48.037.074 21.547.074.074 21.548.074 48.037.074 74.527 21.548 96 48.037 96Z"/><path fill="#00D395" fill-rule="evenodd" d="M27.801 64.13a4.834 4.834 0 0 1-2.312-4.117v-9.37a2 2 0 0 1 .276-1.012 2.01 2.01 0 0 1 2.754-.724l21.148 12.329a4.028 4.028 0 0 1 1.998 3.478v9.709a2.416 2.416 0 0 1-3.676 2.062L27.8 64.131ZM59.325 46.34a4.028 4.028 0 0 1 1.998 3.478v19.7c0 .583-.314 1.12-.82 1.403l-4.63 2.606a.946.946 0 0 1-.186.077V62.664a4.033 4.033 0 0 0-1.96-3.458L35.154 48.094V35.746a2 2 0 0 1 .275-1.012 2.01 2.01 0 0 1 2.754-.724L59.325 46.34Zm9.255-14.551a4.023 4.023 0 0 1 2.004 3.484v28.776c0 .589-.326 1.133-.845 1.415l-4.387 2.37V47.799a4.031 4.031 0 0 0-1.954-3.452L44.415 32.96V21.246c0-.359.096-.704.269-1.012a2.017 2.017 0 0 1 2.754-.73L68.58 31.788Z" clip-rule="evenodd"/></g><defs><linearGradient id="c" x1="48.075" x2="48.075" y1="4.341" y2="91.733" gradientUnits="userSpaceOnUse"><stop stop-color="#141E27"/><stop offset="1" stop-color="#141E27"/></linearGradient><clipPath id="a"><path fill="#fff" d="M0 0h96v96H0z"/></clipPath><filter id="b" width="94.43" height="94.659" x=".859" y=".592" color-interpolation-filters="sRGB" filterUnits="userSpaceOnUse"><feFlood flood-opacity="0" result="BackgroundImageFix"/><feBlend in="SourceGraphic" in2="BackgroundImageFix" result="shape"/><feColorMatrix in="SourceAlpha" result="hardAlpha" values="0 0 0 0 0 0 0 0 0 0 0 0 0 0 0 0 0 0 127 0"/><feOffset dy="-.689"/><feGaussianBlur stdDeviation=".115"/><feComposite in2="hardAlpha" k2="-1" k3="1" operator="arithmetic"/><feColorMatrix values="0 0 0 0 0.0699479 0 0 0 0 0.9875 0 0 0 0 0.717887 0 0 0 1 0"/><feBlend in2="shape" result="effect1_innerShadow"/></filter></defs></svg>