<svg xmlns="http://www.w3.org/2000/svg" viewBox="0 0 500 500"><rect width="500" height="500" fill="url(#a)" rx="250"/><path fill="#fff" d="M141.423 163.173a39.441 39.441 0 0 1 12.896-14.142L244.912 86l-92.824 152.931s-8.11-13.656-11.274-20.566a65.22 65.22 0 0 1-5.824-27.663 65.217 65.217 0 0 1 6.433-27.529Zm-37.389 105.496a102.626 102.626 0 0 0 12.164 41.761 102.997 102.997 0 0 0 28.388 33.028l100.204 69.617s-62.694-90.021-115.573-179.598a90.238 90.238 0 0 1-10.625-30.546 48.728 48.728 0 0 1 0-14.667c-1.379 2.546-4.055 7.758-4.055 7.758a118.264 118.264 0 0 0-10.828 34.546 210.464 210.464 0 0 0 .325 38.101Zm255.478 12.121c-3.245-6.909-11.274-20.566-11.274-20.566l-92.661 152.851 90.593-62.991a39.447 39.447 0 0 0 12.896-14.141 65.239 65.239 0 0 0 6.433-27.529 65.211 65.211 0 0 0-5.825-27.664l-.162.04Zm36.78-50.344a102.644 102.644 0 0 0-12.163-41.761 103.009 103.009 0 0 0-28.389-33.027L255.698 86s62.653 90.021 115.574 179.598a90.273 90.273 0 0 1 10.584 30.546c.74 4.861.74 9.806 0 14.667 1.379-2.546 4.055-7.758 4.055-7.758a118.232 118.232 0 0 0 10.827-34.546 210.462 210.462 0 0 0-.283-38.101l-.163.04Z"/><defs><linearGradient id="a" x1="333.042" x2="-152.934" y1="559.259" y2="-296.125" gradientUnits="userSpaceOnUse"><stop stop-color="#44BCF0"/><stop offset=".379" stop-color="#7298F8"/><stop offset="1" stop-color="#A099FF"/></linearGradient></defs></svg>