<svg xmlns="http://www.w3.org/2000/svg" viewBox="0 0 32 32"><circle cx="16" cy="16" r="16" fill="#2775c9"/><path fill="#FFF" d="M16 27.75C9.51 27.75 4.25 22.49 4.25 16S9.51 4.25 16 4.25 27.75 9.51 27.75 16A11.75 11.75 0 0 1 16 27.75zm-.7-16.11a2.58 2.58 0 0 0-2.45 2.47c0 1.21.74 2 2.31 2.33l1.1.26c1.07.25 1.51.61 1.51 1.22S17 19.13 16 19.13a1.9 1.9 0 0 1-1.8-.91.68.68 0 0 0-.61-.39H13a.35.35 0 0 0-.28.41 2.73 2.73 0 0 0 2.61 2.08v.84a.705.705 0 0 0 1.41 0v-.85a2.62 2.62 0 0 0 2.59-2.58c0-1.27-.73-2-2.46-2.37l-1-.22c-1-.25-1.47-.58-1.47-1.14 0-.56.6-1.18 1.6-1.18a1.64 1.64 0 0 1 1.59.81.8.8 0 0 0 .72.46h.47a.42.42 0 0 0 .31-.5 2.65 2.65 0 0 0-2.38-2v-.69a.705.705 0 0 0-1.41 0v.74zM7.19 16a8.79 8.79 0 0 0 6 8.33h.14a.45.45 0 0 0 .45-.45v-.21a.94.94 0 0 0-.58-.87 7.36 7.36 0 0 1 0-13.65.93.93 0 0 0 .58-.86v-.23a.42.42 0 0 0-.56-.4A8.79 8.79 0 0 0 7.19 16zm17.62 0a8.79 8.79 0 0 0-6-8.32h-.15a.47.47 0 0 0-.47.47v.15a1 1 0 0 0 .61.9 7.36 7.36 0 0 1 0 13.64 1 1 0 0 0-.6.89v.17a.47.47 0 0 0 .62.44A8.79 8.79 0 0 0 24.81 16z"/></svg>