<svg xmlns="http://www.w3.org/2000/svg" viewBox="5 7.5 40 40"><path fill="#E84142" d="M11.643 38.963h5.198c1.224 0 1.836 0 2.382-.15a3.924 3.924 0 0 0 1.6-.929c.416-.397.717-.924 1.31-1.962l.018-.032 6.743-11.918c.598-1.046.895-1.573 1.026-2.125a3.906 3.906 0 0 0 0-1.83c-.13-.548-.43-1.07-1.02-2.101l-2.652-4.63c-.546-.96-.822-1.441-1.17-1.619a1.325 1.325 0 0 0-1.199 0c-.348.178-.625.658-1.17 1.619L9.872 35.91c-.54.948-.81 1.422-.79 1.81.026.42.244.803.599 1.033.329.21.868.21 1.96.21Zm25.774 0H29.97c-1.1 0-1.652 0-1.974-.21a1.333 1.333 0 0 1-.599-1.04c-.02-.385.252-.854.796-1.794l.013-.022 3.718-6.383c.546-.94.823-1.408 1.165-1.586a1.31 1.31 0 0 1 1.19 0c.34.173.605.62 1.129 1.506v.002l.043.072 3.731 6.383.008.012.046.08c.517.893.781 1.348.762 1.724-.02.42-.243.81-.599 1.04-.329.216-.882.216-1.98.216Z"/></svg>