<svg xmlns="http://www.w3.org/2000/svg" viewBox="0 0 20.74 24"><path fill="#F0B90B" d="M4.004 3.676 10.373 0l6.368 3.676L14.4 5.034l-4.027-2.318-4.028 2.318-2.341-1.358ZM16.74 8.312 14.4 6.954l-4.027 2.318-4.028-2.318-2.341 1.358v2.716l4.027 2.318v4.636l2.342 1.358 2.341-1.358v-4.636l4.027-2.318V8.312Zm0 7.352v-2.716l-2.34 1.358v2.716l2.341-1.358Zm1.663.96-4.027 2.318v2.716l6.368-3.676V10.63l-2.341 1.358v4.636Zm-2.341-10.63 2.34 1.358v2.716l2.342-1.358V5.994l-2.341-1.358-2.341 1.358ZM8.03 19.926v2.716L10.373 24l2.341-1.358v-2.716l-2.341 1.358-2.342-1.358Zm-4.027-4.262 2.341 1.358v-2.716l-2.341-1.358v2.716Zm4.027-9.67 2.342 1.358 2.341-1.358-2.341-1.358L8.03 5.994ZM2.34 7.352l2.342-1.358L2.34 4.636 0 5.994V8.71l2.341 1.358V7.352Zm0 4.636L0 10.63v7.352l6.369 3.677v-2.717L2.34 16.624v-4.636Z"/></svg>