<svg xmlns="http://www.w3.org/2000/svg" fill="none" viewBox="0 0 52 60"><path fill="#002D74" d="M25.84 0 0 14.92v29.83l25.84 14.91 25.82-14.91V14.92L25.84 0Zm18.17 40.33L25.84 50.82 7.66 40.33v-21L25.84 8.84l18.17 10.49v21Z"/><path fill="url(#a)" d="m25.84 59.66 25.82-14.91V14.92L25.84 0v8.85l18.17 10.49v21L25.84 50.82v8.84Z" style="mix-blend-mode:multiply"/><path fill="url(#b)" d="M25.82 0 0 14.91v29.83l25.82 14.92v-8.85L7.65 40.32v-21L25.82 8.84V0Z" style="mix-blend-mode:multiply"/><path fill="#002D74" d="m37.89 36.8-12.06 6.96-12.07-6.96V22.87l12.07-6.97 12.06 6.97-5.02 2.9-7.04-4.07-7.04 4.07v8.12l7.04 4.07 7.04-4.07 5.02 2.91Z"/><defs><linearGradient id="a" x1="38.75" x2="38.75" y1="59.66" y2="29.83" gradientUnits="userSpaceOnUse"><stop stop-color="#002D74"/><stop offset="1" stop-color="#002D74" stop-opacity="0"/></linearGradient><linearGradient id="b" x1="12.91" x2="12.91" y1="0" y2="29.83" gradientUnits="userSpaceOnUse"><stop stop-color="#002D74"/><stop offset="1" stop-color="#002D74" stop-opacity="0"/></linearGradient></defs></svg>