<svg xmlns="http://www.w3.org/2000/svg" fill="none" viewBox="0 0 156 156"><circle cx="77.571" cy="77.571" r="77.571" fill="#ED4E33"/><path fill="#fff" d="M63.587 41.543C42.425 49.68 40.487 70.518 34.42 80.25c-6.14 9.848-20.206 15.281-18.282 20.3 1.923 5.018 16.006-.372 27.147 2.83 11.01 3.164 26.371 17.352 47.533 9.215 10.78-4.145 18.586-12.677 22.176-22.782.386-1.084-.336-2.244-1.481-2.352a1.737 1.737 0 0 0-1.716.946c-3.247 6.478-8.817 11.813-16.107 14.615-12.033 4.627-25.2.994-33.287-8.117a30.011 30.011 0 0 1-4.648-7.027 30.006 30.006 0 0 1-.952-2.198 30.465 30.465 0 0 1-.76-2.273c6.36-2.97 13.7-6.114 22.02-9.313 8.159-3.137 15.584-5.681 22.195-7.717a251.801 251.801 0 0 1 12.272-3.456l.794-.2c.56-.138 1.135.161 1.342.7l.004.01c.122.32.227.641.34.963a38.471 38.471 0 0 1 1.643 6.27 1.361 1.361 0 0 0 1.984.978 161.264 161.264 0 0 0 8.3-4.761c9.254-5.708 14.384-10.549 13.331-13.292-1.051-2.745-8.097-2.903-18.787-.944-3.397.622-7.164 1.46-11.223 2.495-.702.18-1.412.365-2.131.556a273.795 273.795 0 0 0-10.77 3.11c-6.977 2.165-14.463 4.757-22.19 7.728a360.496 360.496 0 0 0-20.364 8.536c-.077-12.191 7.28-23.716 19.315-28.343a29.935 29.935 0 0 1 21.733.067c.665.262 1.422.08 1.908-.447.779-.845.54-2.19-.471-2.74-9.419-5.1-20.92-6.208-31.7-2.064Z"/></svg>