<svg xmlns="http://www.w3.org/2000/svg" viewBox="-20 -20 40 40"><circle r="20" fill="#0090ff"/><path fill="#fff" d="M1.9-2.4 1.3.8l5.7.8-.4 1.5L1 2.3C.6 3.6.4 5-.1 6.2c-.5 1.4-1 2.8-1.6 4.1-.8 1.7-2.2 2.9-4.1 3.2-1.1.2-2.3.1-3.2-.6-.3-.2-.6-.6-.6-.9 0-.4.2-.9.5-1.1.2-.1.7 0 1 .1.3.3.6.7.8 1.1.6.8 1.4.9 2.2.3.9-.8 1.4-1.9 1.7-3 .6-2.4 1.2-4.7 1.7-7.1v-.4L-7 1.1l.2-1.5 5.5.8.7-3.1-5.7-.9.2-1.6 5.9.8C0-5 .1-5.5.3-6c.5-1.8 1-3.6 2.2-5.2 1.2-1.6 2.6-2.6 4.7-2.5.9 0 1.8.3 2.4 1 .1.1.3.3.3.5 0 .4 0 .9-.3 1.2-.4.3-.9.2-1.3-.2-.3-.3-.5-.6-.8-.9-.6-.8-1.5-.9-2.2-.2-.5.5-1 1.2-1.3 1.9-.7 2.1-1.2 4.3-1.9 6.5l5.5.8-.4 1.5-5.3-.8"/></svg>