<svg xmlns="http://www.w3.org/2000/svg" viewBox="0 0 74 111"><path fill="currentColor" d="m72.307 83.674-13.82-8.011a.58.58 0 0 0-.236 0L46.94 69.09l10.896-6.331h.266l13.79-8.012c.273-.136.5-.351.653-.618.152-.267.223-.574.204-.883V37.375a1.792 1.792 0 0 0-.235-.864 1.755 1.755 0 0 0-.622-.636l-6.998-3.991 6.969-4.051.384-.27c.3-.338.468-.775.472-1.23V10.458a1.792 1.792 0 0 0-.235-.864 1.757 1.757 0 0 0-.621-.636l-13.82-7.922a1.778 1.778 0 0 0-1.683 0L1.317 32.663a1.658 1.658 0 0 0-.826 1.47v15.934c0 .3.08.595.23.854.15.258.367.471.626.616l6.969 4.021-6.999 4.111a1.658 1.658 0 0 0-.826 1.47v15.934c0 .3.08.595.23.854.15.259.367.471.626.616l13.82 7.922.384.24h.265l27.286 15.814a.587.587 0 0 1 .236 0l13.466 7.771c.212.106.443.167.679.18h.266c.247-.024.487-.095.708-.21l13.79-7.922c.26-.144.476-.357.627-.616a1.7 1.7 0 0 0 .23-.854V84.935a1.666 1.666 0 0 0-.25-.728 1.636 1.636 0 0 0-.547-.533zm-15.621-5.04h.236l11.014 6.39-10.394 6.002-12.964-7.502h-.265L33.09 77.013l10.336-6.001zM4.152 64.23l10.04 5.731v12.003l-10.04-5.821zm52.534-31.777h-.237L29.164 48.237h-.266l-11.192 6.48V42.716l12.875-7.441 7.117-4.111 6.615-3.811.502-.27 13.2-7.652L68.88 13.16l.325-.21v12zM16.88 27.592 57.306 4.217 67.7 10.218l-1.329.78-9.685 5.521h-.148L43.87 23.841l-1.034.6-6.172 3.571-7.382 4.29h-.177L16.14 39.836 5.747 33.833zM3.887 37.044l10.453 6.001v12.003L3.887 49.047zm7.884 20.435 3.425 1.95c.177.085.367.136.561.15h.266c.236-.014.467-.075.68-.18l13.465-7.802h.266l27.285-15.813h.266l3.396-1.98 6.171 3.51-10.926 6.331h-.236l-7.855 4.531-5.906 3.391L29.164 59.4h-.266l-12.963 7.5-3.16-1.8-7.235-4.142zm32.778 42.009L17.706 83.915V70.02l12.64-7.321h.235l27.286-15.814h.265l11.28-6.541v12.002L56.687 59.4h-.237L29.016 75.362c-.255.147-.467.36-.613.62a1.67 1.67 0 0 0-.214.85c-.001.302.074.6.219.862.145.263.354.483.608.64h.295l13.82 7.981h.237l1.27.72 11.368 6.602v12.002l-11.132-6.091zm25.277.63-10.424 6.001V94.117l10.424-6.002z"/></svg>