<svg xmlns="http://www.w3.org/2000/svg" viewBox="0 0 50 50"><path fill="url(#a)" d="M36.371 5a8.613 8.613 0 0 0-6.095 2.523 8.66 8.66 0 0 0-2.536 6.103v9.564c-.889.06-1.798.098-2.74.098-.942 0-1.847.038-2.74.091v-9.753a8.666 8.666 0 0 0-2.576-6.03A8.62 8.62 0 0 0 13.63 5.11c-2.265 0-4.44.893-6.054 2.486A8.666 8.666 0 0 0 5 13.626v22.858a8.667 8.667 0 0 0 2.576 6.03A8.62 8.62 0 0 0 13.63 45a8.62 8.62 0 0 0 6.054-2.486 8.667 8.667 0 0 0 2.576-6.03V26.92c.889-.06 1.798-.098 2.74-.098.942 0 1.847-.038 2.74-.091v9.753a8.667 8.667 0 0 0 2.576 6.03A8.62 8.62 0 0 0 36.37 45a8.62 8.62 0 0 0 6.054-2.486A8.667 8.667 0 0 0 45 36.484V13.626a8.66 8.66 0 0 0-2.535-6.102A8.612 8.612 0 0 0 36.37 5ZM13.63 8.534c1.348 0 2.642.535 3.597 1.49a5.112 5.112 0 0 1 1.496 3.602v10.128a28.971 28.971 0 0 0-7.333 2.079 13.324 13.324 0 0 0-2.845 1.702v-13.91a5.112 5.112 0 0 1 1.494-3.598 5.084 5.084 0 0 1 3.59-1.493Zm5.093 27.95a5.114 5.114 0 0 1-1.492 3.611 5.086 5.086 0 0 1-7.203 0 5.114 5.114 0 0 1-1.491-3.611v-2.293c0-2.026 1.6-3.944 4.282-5.138 1.89-.818 3.873-1.4 5.904-1.732v9.163Zm17.65 5.092a5.084 5.084 0 0 1-3.598-1.49 5.112 5.112 0 0 1-1.496-3.602V26.356a28.971 28.971 0 0 0 7.333-2.079 13.325 13.325 0 0 0 2.845-1.702v13.909a5.113 5.113 0 0 1-1.494 3.599 5.084 5.084 0 0 1-3.59 1.493Zm.81-20.532c-1.89.818-3.873 1.4-5.904 1.731v-9.15c0-1.354.536-2.653 1.492-3.61a5.086 5.086 0 0 1 7.203 0 5.114 5.114 0 0 1 1.491 3.61v2.294c0 2.016-1.6 3.935-4.282 5.125Z"/><defs><linearGradient id="a" x1="7.533" x2="42.334" y1="42.02" y2="7.22" gradientUnits="userSpaceOnUse"><stop stop-color="#00AEE9"/><stop offset="1" stop-color="#69FABD"/></linearGradient></defs></svg>