<svg xmlns="http://www.w3.org/2000/svg" viewBox="0 0 292 292"><rect width="292" height="292" fill="#fff" rx="146"/><rect width="292" height="292" fill="url(#a)" rx="146"/><path fill="#fff" fill-rule="evenodd" d="M132.701 79.508c0-7.31 5.946-13.246 13.298-13.246s13.298 5.923 13.298 13.246v77.701c0 7.309-5.946 13.246-13.298 13.246-7.338 0-13.298-5.923-13.298-13.246v-77.7Zm-61.526 0c0-7.323 5.96-13.246 13.298-13.246 7.352 0 13.312 5.923 13.298 13.246v119.634h64.352c7.309 0 13.246 5.946 13.246 13.298 0 7.351-5.923 13.297-13.246 13.297H84.638l-.165.001a13.174 13.174 0 0 1-9.174-3.657 13.18 13.18 0 0 1-4.124-9.589V79.508Zm136.352-13.246c-7.352 0-13.298 5.937-13.298 13.246v77.701c0 7.323 5.96 13.246 13.298 13.246 7.352 0 13.298-5.937 13.298-13.246v-77.7c0-7.324-5.946-13.248-13.298-13.248Z" clip-rule="evenodd"/><defs><linearGradient id="a" x1="0" x2="283.496" y1="146" y2="-14.977" gradientUnits="userSpaceOnUse"><stop stop-color="#4400E2"/><stop offset="0.421875" stop-color="#F94E6C"/><stop offset="1" stop-color="#FFCB00"/></linearGradient></defs></svg>