<svg xmlns="http://www.w3.org/2000/svg" viewBox="0 0 1839 1839"><path fill="#00CFFF" d="M1839.2 919.308a919.264 919.264 0 0 0-154.93-510.74 919.278 919.278 0 0 0-412.57-338.59A919.314 919.314 0 0 0 269.845 269.26a919.307 919.307 0 0 0 139.309 1414.42 919.276 919.276 0 0 0 510.74 154.94 919.168 919.168 0 0 0 351.816-69.96 919.171 919.171 0 0 0 497.54-497.53 918.978 918.978 0 0 0 69.95-351.822Z"/><path fill="#000" d="M1523.59 873.358a676.11 676.11 0 0 0-60.69-40.936 152.053 152.053 0 0 1-25.07-19.854c-15.66-15.453-41.75-42.572-50.25-59.254-5.52-10.234-3.27-29.78 1.03-48.099a125.4 125.4 0 0 0-15.56-93.844l-27.22-44.415a295.54 295.54 0 0 1-29.99-64.473 187.908 187.908 0 0 0-47.69-76.652c-44.31-43.289-167.01-64.473-268.841-67.953a186.696 186.696 0 0 0-19.137-4.503c-45.439-7.778-93.742-20.468-137.236-12.076-64.371 11.974-129.561 32.135-178.172 81.871-10.234 10.234-25.175 14.839-35.716 24.357-20.979 18.932-49.123 18.932-67.748 39.912-10.951 12.28-15.965 52.192-44.517 67.441-47.281 25.38-81.872 53.216-93.64 67.441-8.699 10.745-15.351 23.231-23.743 34.181-8.392 10.95-49.327 30.702-61.403 42.061a86.268 86.268 0 0 0-20.468 74.912c.717 3.173 1.228 5.731 1.638 7.778 4.707 17.397 17.397 48.815 14.429 63.245-3.377 17.091-47.382 144.4 51.17 178.372a43.993 43.993 0 0 1 22.516 15.74 43.996 43.996 0 0 1 8.799 26.02c2.012 17 6.891 33.54 14.43 48.92a81.913 81.913 0 0 0 28.041 30.7 455.82 455.82 0 0 1 35.716 38.17c34.795 64.37 25.073 96.51 92.105 118.41a246.149 246.149 0 0 1 49.02 22.41 262.46 262.46 0 0 0 60.073 26.61l2.661.92c14.839-35.72 29.78-69.7 44.824-101.63a296.768 296.768 0 0 1-76.959-297.8 6.858 6.858 0 0 1 11.155-3.173c25.175 22.105 101.725 101.723 92.719 245.613 26.505-52.91 52.192-99.47 75.73-139.18a300.16 300.16 0 0 1-2.353-309.268 6.954 6.954 0 0 1 5.833-3.164 6.954 6.954 0 0 1 5.833 3.164c17.705 26.199 65.599 112.572 35.921 235.89 21.594-32.953 39.093-57.309 50.453-72.558 30.702-204.677 185.437-271.709 226.067-285.934a6.856 6.856 0 0 1 6.55.988 6.816 6.816 0 0 1 2.11 2.695 6.76 6.76 0 0 1 .55 3.379 355.93 355.93 0 0 1-65.75 172.524 355.965 355.965 0 0 1-143.328 116.378c-21.594 28.347-42.266 58.23-62.12 88.936 68.465-53.63 164.558-78.805 244.388-59.463a6.95 6.95 0 0 1 3.03 1.569 6.972 6.972 0 0 1 1.93 2.826 7 7 0 0 1-.97 6.555c-22.93 30.702-114.21 133.043-286.55 109.293-28.962 49.03-55.672 98.66-79.21 146.04 74.195-56.08 182.674-77.67 266.8-49.33 1.12.35 2.14.98 2.95 1.82.82.85 1.41 1.88 1.71 3.02.31 1.13.32 2.33.04 3.47a6.961 6.961 0 0 1-1.63 3.05c-26.1 28.15-126.699 120.46-292.18 83.82-15.556 32.85-38.684 86.68-49.941 113.29-3.889 9.21-7.471 18.42-10.234 27.83-7.266 21.7-17.193 48.82-28.962 75.94a30.682 30.682 0 0 0-2.426 12.21c.034 4.2.928 8.34 2.625 12.18a30.803 30.803 0 0 0 7.244 10.13 30.824 30.824 0 0 0 10.671 6.42 673.735 673.735 0 0 0 405.873 15.04c4.42-1.26 8.49-3.5 11.93-6.55 3.43-3.04 6.14-6.82 7.93-11.05 2.76-6.55 5.52-12.8 5.52-12.8s57.72-134.06 66.21-192.49c2.45-18.41 8.17-36.22 16.89-52.61a55.193 55.193 0 0 1 45.34-28.45c43.9-2.35 137.54-8.49 171.62-19.24 45.33-14.43 25.69-96.91 23.23-105.71-2.46-8.8 21.8-29.58 26.81-41.65 5.02-12.08-12.28-16.17-19.34-29.48-7.06-13.3 17.5-22.72 20.98-34.792 3.48-12.076-7.98-25.176-12.59-34.079a72.876 72.876 0 0 1-6.45-20.468s33.16-24.254 51.17-39.605c18.02-15.351 14.33-27.938 14.23-30.701"/></svg>