<svg xmlns="http://www.w3.org/2000/svg" viewBox="5 5 40 40"><path fill="#8247E5" d="M35 18.3c-.7-.4-1.6-.4-2.4 0L27 21.6l-3.8 2.1-5.5 3.3c-.7.4-1.6.4-2.4 0L11 24.4c-.7-.4-1.2-1.2-1.2-2.1v-5c0-.8.4-1.6 1.2-2.1l4.3-2.5c.7-.4 1.6-.4 2.4 0l4.3 2.6c.7.4 1.2 1.2 1.2 2.1v3.3l3.8-2.2v-3.4c0-.8-.4-1.6-1.2-2.1l-8-4.7c-.7-.4-1.6-.4-2.4 0l-8.2 4.8c-.8.4-1.2 1.2-1.2 2v9.4c0 .8.4 1.6 1.2 2.1l8.1 4.7c.7.4 1.6.4 2.4 0l5.5-3.2 3.8-2.2 5.5-3.2c.7-.4 1.6-.4 2.4 0l4.3 2.5c.7.4 1.2 1.2 1.2 2.1v5c0 .8-.4 1.6-1.2 2.1L35 36.9c-.7.4-1.6.4-2.4 0l-4.3-2.5c-.7-.4-1.2-1.2-1.2-2.1v-3.2l-3.8 2.2v3.3c0 .8.4 1.6 1.2 2.1l8.1 4.7c.7.4 1.6.4 2.4 0l8.1-4.7c.7-.4 1.2-1.2 1.2-2.1v-9.5c0-.8-.4-1.6-1.2-2.1L35 18.3Z"/></svg>