<svg xmlns="http://www.w3.org/2000/svg" viewBox="0 0 150 150"><g clip-path="url(#a)"><path fill="#7F3CE0" d="M75 150c41.421 0 75-33.579 75-75S116.421 0 75 0 0 33.579 0 75s33.579 75 75 75Z"/><path fill="#fff" d="M56.898 48.353c-3.809 0-6.896 3.032-6.896 6.773v10.16h6.896v-10.16h8.62v10.16h6.896v-10.16c0-3.74-3.088-6.773-6.896-6.773h-8.62ZM84.482 48.353c-3.808 0-6.896 3.032-6.896 6.773v10.16h6.896v-10.16h8.62v10.16h6.896v-10.16c0-3.74-3.087-6.773-6.896-6.773h-8.62ZM50.002 92.38c0 3.74 3.087 6.773 6.896 6.773h8.62c3.808 0 6.896-3.032 6.896-6.773V82.22h-6.896v10.16h-8.62V82.22h-6.896v10.16ZM77.586 92.38c0 3.74 3.088 6.773 6.896 6.773h8.62c3.809 0 6.896-3.032 6.896-6.773V82.22h-6.896v10.16h-8.62V82.22h-6.896v10.16Z"/><path fill="#fff" fill-rule="evenodd" d="M80.172 25.361a10.507 10.507 0 0 0-10.344 0l-35.656 20.22c-3.2 1.815-5.172 5.17-5.172 8.8V94.82c0 3.63 1.972 6.984 5.172 8.799l35.656 20.22a10.506 10.506 0 0 0 10.344 0l35.656-20.22c3.2-1.815 5.172-5.17 5.172-8.8V54.38c0-3.63-1.972-6.984-5.172-8.799l-35.656-20.22Zm-6.896 5.866a3.501 3.501 0 0 1 3.448 0l35.656 20.22a3.376 3.376 0 0 1 1.724 2.933v9.387a23.94 23.94 0 0 1-3.012 3.24c-2.169 1.929-4.675 3.36-7.115 3.36H45.493c-3.858 0-7.155 1.754-9.597 3.62V54.38c0-1.21.657-2.328 1.724-2.933l35.656-20.22ZM35.896 83.72v11.1c0 1.21.657 2.328 1.724 2.933l35.656 20.22a3.501 3.501 0 0 0 3.448 0l35.656-20.22a3.376 3.376 0 0 0 1.724-2.933V73.357c-2.558 1.931-6.047 3.783-10.127 3.783H45.493c-2.24 0-4.597 1.377-6.687 3.312a23.439 23.439 0 0 0-2.91 3.268Z" clip-rule="evenodd"/></g><defs><clipPath id="a"><path fill="#fff" d="M0 0h150v150H0z"/></clipPath></defs></svg>