<svg xmlns="http://www.w3.org/2000/svg" viewBox="0 0 30 30"><g fill="#F34242"><path d="M11.25 11.25H7.5V7.5h3.75v3.75Z" opacity="0.75"/><path d="M11.25 15H7.5v-3.75h3.75V15Zm0 3.75H7.5V15h3.75v3.75Z"/><path d="M11.25 22.5H7.5v-3.75h3.75v3.75ZM22.5 11.25h-3.75V7.5h3.75v3.75Z" opacity="0.75"/><path d="M22.5 15h-3.75v-3.75h3.75V15Zm0 3.75h-3.75V15h3.75v3.75Z"/><path d="M22.5 22.5h-3.75v-3.75h3.75v3.75Z" opacity="0.75"/><path d="M15 22.5h-3.75v-3.75H15v3.75Zm3.75 0H15v-3.75h3.75v3.75ZM15 11.25h-3.75V7.5H15v3.75Zm3.75 0H15V7.5h3.75v3.75Z"/><path fill-opacity="0.25" d="M15 0h-3.75v3.75H15V0Z"/><path fill-opacity="0.75" d="M18.75 26.25H15V22.5h3.75v3.75ZM26.25 15H22.5v3.75h3.75V15ZM7.5 18.75H3.75V15H7.5v3.75Zm11.25-15H15V7.5h3.75V3.75Z"/><path fill-opacity="0.25" d="M18.75 0H15v3.75h3.75V0ZM15 30h-3.75v-3.75H15V30Zm3.75 0H15v-3.75h3.75V30ZM30 11.25h-3.75V15H30v-3.75ZM30 15h-3.75v3.75H30V15ZM3.75 18.75H0V15h3.75v3.75Zm0-3.75H0v-3.75h3.75V15Z"/><path fill-opacity="0.75" d="M15 3.75h-3.75V7.5H15V3.75Zm0 22.5h-3.75V22.5H15v3.75Zm11.25-15H22.5V15h3.75v-3.75ZM7.5 15H3.75v-3.75H7.5V15Z"/></g></svg>