<svg xmlns="http://www.w3.org/2000/svg" viewBox="5 5 40 40"><path fill="url(#a)" d="M39.72 28c-.24 0-.464.032-.673.096a1.92 1.92 0 0 0-.547.245 1.337 1.337 0 0 0-.372.363.77.77 0 0 0-.128.422.62.62 0 0 0 .105.34c.07.104.162.196.279.275.124.079.267.14.43.185.163.05.337.074.523.074.225 0 .438-.032.64-.096.202-.06.376-.141.523-.245.155-.108.275-.232.36-.37a.77.77 0 0 0 .14-.437c0-.242-.12-.445-.36-.608-.233-.163-.54-.244-.92-.244Z"/><path fill="#000" d="M28.096 26.774c.088-.203.194-.413.319-.63a8.06 8.06 0 0 1 .417-.675c.161-.226.34-.425.538-.6a2.67 2.67 0 0 1 .67-.434c.242-.109.502-.163.78-.163h.1c.028 0 .06.003.097.01a.418.418 0 0 1 .231.12.33.33 0 0 1 .11.261c0 .13-.062.287-.186.468-.125.174-.352.363-.681.566a9.745 9.745 0 0 0-.385.25 14.63 14.63 0 0 1-.626.414 42.4 42.4 0 0 1-.78.479c-.27.166-.534.315-.79.446.044-.138.106-.309.186-.512Zm-7.413-.63a8.06 8.06 0 0 1 .417-.675c.161-.226.34-.425.538-.6.205-.18.428-.326.67-.434a1.88 1.88 0 0 1 .78-.163h.099c.029 0 .062.003.098.01a.42.42 0 0 1 .231.12.33.33 0 0 1 .11.261c0 .13-.062.287-.187.468-.124.174-.351.363-.68.566a9.698 9.698 0 0 0-.385.25 15.09 15.09 0 0 1-.626.414c-.242.152-.502.312-.78.479-.25.154-.494.291-.733.415a.422.422 0 0 0-.033-.042 8.89 8.89 0 0 1 .162-.439 6.35 6.35 0 0 1 .319-.63Zm23.185-7.096a1.764 1.764 0 0 0-.351-.61 1.33 1.33 0 0 0-.495-.358 1.444 1.444 0 0 0-.582-.12c-.439 0-.9.076-1.383.228-.476.153-.967.425-1.472.816-.505.392-1.022.925-1.549 1.6-.52.675-1.04 1.53-1.56 2.569H35.18c-.35 0-.618.083-.801.25-.183.16-.275.326-.275.5 0 .167.073.312.22.436.146.123.42.184.824.184h.582l-1.214 2.55a7.705 7.705 0 0 0-.324.182c-.19.116-.432.254-.725.413-.285.16-.608.33-.966.512-.36.174-.73.337-1.11.49a9.099 9.099 0 0 1-1.142.38 4.45 4.45 0 0 1-1.076.142c-.315 0-.568-.058-.758-.174a.728.728 0 0 1-.34-.5c.995-.364 1.822-.723 2.482-1.078.666-.363 1.197-.715 1.592-1.056.395-.348.674-.689.835-1.023.16-.333.241-.652.241-.957 0-.515-.15-.918-.45-1.208-.3-.29-.754-.435-1.362-.435-.578 0-1.124.083-1.637.25-.505.167-.97.388-1.394.664-.425.276-.81.595-1.153.957a6.898 6.898 0 0 0-.857 1.1 5.29 5.29 0 0 0-.538 1.131 3.41 3.41 0 0 0-.179.85c-.265.146-.56.302-.887.467-.358.174-.728.337-1.11.49a9.084 9.084 0 0 1-1.141.38c-.38.095-.74.142-1.077.142-.315 0-.567-.058-.757-.174a.727.727 0 0 1-.34-.5c.995-.364 1.822-.723 2.481-1.078.667-.363 1.197-.715 1.593-1.056.395-.348.673-.689.834-1.023.162-.333.242-.652.242-.957 0-.515-.15-.918-.45-1.208-.3-.29-.754-.435-1.362-.435-.579 0-1.124.083-1.637.25-.505.167-.97.388-1.395.664a6.361 6.361 0 0 0-1.152.957 6.867 6.867 0 0 0-.857 1.1 5.281 5.281 0 0 0-.538 1.131c-.125.37-.187.711-.187 1.023 0 .193.015.382.043.566a5.378 5.378 0 0 1-.733.37 3.68 3.68 0 0 1-1.428.261h-.154a1.35 1.35 0 0 1-.164-.01c-.293-.023-.571-.168-.835-.436a4.872 4.872 0 0 1-.725-.969 8.624 8.624 0 0 1-.55-1.207 8.766 8.766 0 0 1-.318-1.154c.469-.08.952-.21 1.45-.392a10.27 10.27 0 0 0 1.472-.663 9.31 9.31 0 0 0 1.34-.893 6.93 6.93 0 0 0 1.11-1.11c.314-.406.563-.838.746-1.295.19-.464.285-.95.285-1.458 0-.754-.157-1.415-.472-1.98a4.066 4.066 0 0 0-1.252-1.404 5.68 5.68 0 0 0-1.823-.85A7.987 7.987 0 0 0 13.765 15c-.761 0-1.482.08-2.164.24-.68.152-1.31.358-1.889.62a8.181 8.181 0 0 0-1.548.892 7.23 7.23 0 0 0-1.176 1.045 5.01 5.01 0 0 0-.735 1.088c-.169.362-.253.7-.253 1.012 0 .334.092.595.274.783.183.182.458.273.824.273.271 0 .498-.062.681-.186a2.05 2.05 0 0 0 .495-.478c.153-.196.3-.421.439-.675.139-.254.293-.515.461-.784a6 6 0 0 1 .615-.783 3.79 3.79 0 0 1 .879-.675 5.247 5.247 0 0 1 1.241-.479c.483-.123 1.058-.185 1.724-.185.594 0 1.102.07 1.527.207.432.138.784.323 1.054.555.279.232.48.504.605.816.131.312.197.642.197.99 0 .487-.124.987-.373 1.502a4.903 4.903 0 0 1-1 1.404c-.424.42-.922.77-1.494 1.045a4.138 4.138 0 0 1-1.8.402h-.155a.81.81 0 0 1-.131-.01c.19-.4.373-.788.549-1.165.176-.384.33-.736.461-1.056.132-.319.238-.601.319-.848.08-.247.12-.44.12-.577a.745.745 0 0 0-.066-.337.53.53 0 0 0-.153-.207.424.424 0 0 0-.198-.098.67.67 0 0 0-.187-.033c-.19 0-.406.11-.648.327-.234.21-.486.493-.757.849-.264.355-.539.765-.824 1.23a46.46 46.46 0 0 0-.835 1.425l-3.24 5.876a2.192 2.192 0 0 0-.253 1.001c0 .116.015.24.044.37.037.13.096.25.176.36a.92.92 0 0 0 .34.271c.147.073.337.11.572.11.285 0 .549-.102.79-.305.242-.204.47-.468.681-.795.213-.334.407-.707.582-1.12.176-.422.345-.846.506-1.274.16-.428.311-.841.45-1.24.14-.407.275-.758.406-1.056.235.754.502 1.473.802 2.155.3.674.634 1.266 1 1.773.366.508.772.91 1.219 1.208.447.298.933.447 1.46.447.645 0 1.326-.16 2.044-.48a6.814 6.814 0 0 0 1.052-.6c.051.076.106.15.165.22.241.283.53.508.867.674.345.167.736.25 1.176.25a6.15 6.15 0 0 0 1.56-.206 10.31 10.31 0 0 0 1.515-.5 13.872 13.872 0 0 0 2.116-1.094c.122.327.286.62.498.876.242.283.53.508.867.674.345.167.736.25 1.176.25a6.15 6.15 0 0 0 1.56-.206c.526-.13 1.032-.297 1.515-.5a13.872 13.872 0 0 0 2-1.022l-1.637 3.437a4.467 4.467 0 0 0-.187.435 1.092 1.092 0 0 0-.066.338c0 .188.07.326.208.413.14.087.297.131.473.131.124 0 .26-.03.406-.087.147-.05.29-.127.428-.229.14-.101.268-.224.385-.37.117-.137.216-.29.296-.457a487.354 487.354 0 0 0 1.099-2.263c.234-.493.48-1.012.736-1.556l.78-1.633c.263-.536.512-1.048.746-1.534.242-.493.458-.925.648-1.295h1.912l.988-.022a66.35 66.35 0 0 0 1.087-.032 1.97 1.97 0 0 0 .484-.087.867.867 0 0 0 .285-.174.633.633 0 0 0 .198-.468c0-.16-.044-.28-.132-.36a.675.675 0 0 0-.351-.184 2.564 2.564 0 0 0-.517-.066 17.58 17.58 0 0 0-.637-.01h-2.559a7.08 7.08 0 0 1 .703-1.274c.286-.42.582-.794.89-1.12.315-.327.622-.588.922-.784.308-.196.575-.294.802-.294.19 0 .34.065.45.196.118.13.176.348.176.653 0 .08-.007.16-.022.24-.007.079-.01.166-.01.26 0 .145.062.254.186.327.124.065.26.098.407.098.058 0 .127-.008.208-.022.08-.022.161-.055.242-.098a.95.95 0 0 0 .22-.163.554.554 0 0 0 .131-.261A4.59 4.59 0 0 0 44 19.897c0-.327-.044-.61-.132-.849"/><defs><linearGradient id="a" x1="39.5" x2="39.5" y1="28" y2="30" gradientUnits="userSpaceOnUse"><stop stop-color="#681CFF"/><stop offset="1" stop-color="#FD3F83"/></linearGradient></defs></svg>