<svg xmlns="http://www.w3.org/2000/svg" viewBox="38 38 223 223"><style>.a{fill:#2b2129}.b{fill:#bb9168}</style><path fill="#cba68d" d="M71.1 61.7c-3.3-.2-6.7-.3-9.6 2-1.4 1.2-3.3 3.1-2.6 5.5.1.2.2.5.3.7 0 .1.1.1.1.2.1.1.2.3.3.4 0 .1.1.1.1.2l.3.3c.1 0 .1.1.2.1.1.1.3.2.4.3.1 0 .2.1.2.1.1.1.3.2.5.2.1 0 .2.1.3.1.2.1.3.1.5.1.1 0 .2 0 .3.1.2 0 .4.1.6.1h1c3.4-.1 6.9-.1 10.3 0h4c0 .2 0 .3-.1.5 0 .2-.1.4-.1.6 0 .2-.1.4-.1.6 0 .2-.1.4-.1.6 0 .2-.1.4-.1.6 0 .2-.1.4-.1.5-.1.2-.1.4-.2.5-.1.2-.1.3-.2.5s-.1.3-.2.5-.1.3-.2.5-.2.3-.2.5c-.1.1-.1.3-.2.4-.1.2-.2.3-.3.4-.1.2-.2.4-.2.5-.1.1-.2.3-.3.4-.1.1-.2.3-.3.4-.1.1-.2.3-.3.4-.1.1-.2.2-.3.4l-.4.4-.3.3c-.1.1-.3.2-.4.3l-.3.3c-.1.1-.3.2-.4.3-.1.1-.2.2-.4.3-.2.1-.3.2-.5.3-.1.1-.2.2-.4.2-.2.1-.3.2-.5.3-.1.1-.2.1-.4.2l-.6.3c-.1 0-.2.1-.3.1-.3.1-.7.3-1 .4-.5.2-.9.3-1.4.4-.2 0-.3.1-.5.1-.3.1-.6.1-1 .2-.2 0-.4.1-.7.1-.3 0-.5.1-.8.1h-4.2c-.3 0-.6 0-.9-.1h-.5c-.3 0-.5-.1-.8-.1-.2 0-.4 0-.6-.1-7.5-6-10.1-14.6-6.8-23 3.4-8.7 10.6-12.9 20.9-12.3 2.3.8 4.6 1.7 6.7 2.9.4.2.7.4 1 .6.3.2.7.4 1 .7.3.2.6.5 1 .7.3.2.6.5.9.8h.1c.3.3.6.5.8.8l.1.1c.2.3.5.5.7.8 0 .1.1.1.1.2.2.3.4.5.6.8.1.1.1.2.2.3.2.2.3.5.5.7.1.2.2.3.3.5l.3.6c.1.3.3.5.4.8 0 .1.1.2.1.3H72.5c-.3.3-.8.3-1.4.2"/><g fill="#2b2129"><path d="M62.9 86.4h-1.8l-3.8-.3-.2-.2c-7.9-6.3-10.5-15.3-7.1-24 3.5-9.1 11.1-13.5 21.8-12.9l.3.1c2.9 1 5 1.9 6.9 3 .4.2.7.4 1.1.7.4.2.7.5 1.1.7.4.3.7.5 1 .8.3.3.7.6 1 .8l.9.9c.4.4.6.7.9 1l.2.2c.2.3.4.6.6.8l.2.2c.2.4.4.6.6.9.1.1.2.3.2.4l-.7.6.8-.4.3.6c.1.3.3.6.4.9l.7 1.6H73c-.6 0-1.1 0-1.7-.1-3.2-.2-6.3-.3-8.9 1.8-2 1.7-2.7 3-2.3 4.5.1.2.1.4.2.5.1.2.2.4.3.5l.4.4c.2.2.3.3.4.3l.2.1c.1.1.2.1.4.2l-.1 1 .3-.9c.1 0 .3.1.4.1h.3c.2 0 .3.1.5.1h1c3.5-.1 7.1-.1 10.3 0h5l-.2 1.5-.9.1.8.1-.4.9-1 .1.9.2-.2.9h-1l.9.2-.3.8h-1l.9.3-.2.9-1-.1.9.3-.3.8-1-.2.8.4-.2.3c-.1.1-.1.2-.2.4l-.9-.2.8.5-.2.3c-.1.1-.2.2-.2.3l-.9-.3.8.5-.2.3-.3.3-.9-.3.7.6-.2.3-.3.3-.9-.4.7.6-.2.2-.3.3-.9-.5.6.7-.2.2-.3.3-.8-.6.6.7-.3.2c-.1.1-.3.2-.4.2l-.8-.6.5.8-.3.2c-.1.1-.3.2-.4.2l-.7-.7.4.8-.3.1-.6.3-.6-.8.4.8-.1.2c-.3.1-.7.3-1.1.4-.5.2-1 .3-1.5.4l-.3.1-.3-.9.1.9c-.3.1-.6.1-.9.2-.2 0-.3 0-.5.1l-.4.1c-.2 0-.4.1-.6.1h-1.9zm-.5-1.8h2.1c.2 0 .3 0 .5-.1l.9-.1c.3 0 .5-.1.8-.2l.6-.1c.4-.1.9-.2 1.3-.4l.9-.3.3-.1c.3-.1.4-.2.6-.3l.5-.2c.1-.1.2-.1.4-.2l3.1-2.7 1.9-3.2 1-3.4H63.6l-.2-.9v.9h-.3c-.2 0-.4 0-.6-.1-.2 0-.3 0-.4-.1-.2 0-.4-.1-.6-.2-.2 0-.3-.1-.3-.1-.2-.1-.4-.2-.6-.2-.1-.1-.2-.1-.3-.1-.2-.1-.3-.2-.5-.3-.1-.1-.2-.1-.2-.2l-.4-.4-.2-.2c-.1-.2-.2-.4-.3-.5-.1-.1-.1-.1-.1-.2-.1-.3-.2-.5-.3-.9-1-3.3 1.9-5.7 2.9-6.5 3.2-2.6 6.9-2.4 10.2-2.3v.9-.9c.5 0 1.1.1 1.6.1h12.4c0-.1-.1-.2-.1-.3l-.5-.8c-.1-.2-.3-.5-.4-.7l-.3-.3c-.2-.3-.4-.5-.6-.8l.6-.8-.7.6c-.2-.3-.4-.5-.7-.8-.3-.4-.6-.6-.9-.9-.3-.3-.6-.5-.9-.8-.3-.3-.6-.5-.9-.7-.3-.2-.6-.4-1-.7-.3-.2-.7-.4-1-.6-1.8-1-3.7-1.9-6.4-2.8-9.8-.6-16.7 3.5-19.9 11.7-3.1 7.9-.7 16 6.3 21.7l2.9.2h1.2l.3.3z"/><path d="M73.2 62.6c.1.1.2.1.3.2.1.1.2.1.3.2.1.1.2.2.3.2.1.1.2.1.3.2.1.1.2.1.2.2l.3.3c.8.8 1.6 1.7 2.2 2.7l.3.6.3.6c.1.2.2.4.2.6v.1c.1.2.1.4.2.6v.1c0 .2.1.4.1.6v.2c0 .2 0 .4.1.6v1H64c-2.7 0-4.2-.8-4.8-2.6-.6-2.2 1.1-3.9 2.4-5 .2-.2.5-.4.7-.5.1 0 .1-.1.2-.1.2-.1.4-.3.7-.4.2-.1.5-.2.7-.3.1 0 .1 0 .2-.1.2-.1.4-.1.7-.2h.1c.3-.1.5-.1.8-.2h.2c.2 0 .4-.1.7-.1h.1c.3 0 .5 0 .8-.1h2.2c.4 0 .8 0 1.2.1.5 0 1.1.1 1.6.1.1.1.2.1.2.2.3.1.4.2.5.2z"/><path d="M64 72.7c-3 0-4.8-1.1-5.5-3.3-.9-3 1.8-5.3 2.7-6 .3-.2.5-.4.8-.6l.2-.1c.2-.2.5-.3.7-.4.3-.2.6-.3.9-.4l.2-.1c.2-.1.5-.2.7-.2.4-.1.6-.2.9-.2h.2c.2 0 .5-.1.7-.1.4 0 .7-.1 1-.1h2.3l1.3.1c.5 0 1.1.1 1.6.1h.3l.4.3-.4.8.6-.7.4.3-.4.9.6-.7.4.3-.4.8.6-.7.4.3-.5.8.6-.7.2.2c1 1 1.8 1.9 2.4 2.9.1.2.3.4.4.7.1.2.2.5.3.7.1.3.2.5.3.7.1.3.2.5.2.8.1.3.1.6.2.8.1.4.1.6.1.8v2H64zm1.9-10.4.2.9c-.2 0-.5.1-.7.1-.3.1-.5.1-.7.2-.4.1-.6.2-.8.3-.2.1-.4.2-.6.4l-.3.2c-.2.1-.4.3-.6.5-1.9 1.5-2.5 2.8-2.1 4.1.3.9 1 2 3.9 2 2.5-.1 5-.1 7.4 0h6.5l.3-.1-.9.1c0-.2 0-.3-.1-.5-.1-.3-.1-.5-.1-.7-.1-.3-.1-.5-.2-.7-.1-.3-.2-.4-.2-.6l-.3-.6-.3-.6c-.5-.9-1.2-1.7-2.1-2.5l-1.8-1.5c-.4 0-.9 0-1.3-.1l-1.3-.2h-2l-.2-.9v.9c-.2 0-.5 0-.7.1-.3 0-.5.1-.7.1l-.3-.9z"/></g><path d="M81.3 89.3c-5.5.1-11.1.3-16.6-.8-2.3-.5-4.6-1.1-6.5-2.8h.3c.2 0 .5 0 .7.1h.6c.2 0 .5 0 .8.1h4.2c.3 0 .6-.1 1-.1.2 0 .4 0 .6-.1.3-.1.7-.1 1-.2.2 0 .3-.1.5-.1.5-.1 1-.3 1.5-.4.4-.1.7-.2 1-.4 5-2 7.8-6.1 8.7-12.4v-1.4c0-.2 0-.4-.1-.5 0-.1 0-.2-.1-.3 0-.2-.1-.3-.1-.5 0-.1-.1-.2-.1-.3 0-.1-.1-.3-.1-.4 0-.1-.1-.2-.1-.3 0-.1-.1-.3-.1-.4 0-.1-.1-.2-.1-.3-.1-.1-.1-.2-.2-.4 0-.1-.1-.2-.2-.3-.1-.1-.1-.2-.2-.3-.1-.1-.1-.2-.2-.3-.1-.1-.1-.2-.2-.3-.1-.1-.1-.2-.2-.3-.1-.1-.2-.2-.2-.3-.1-.1-.1-.2-.2-.3-.1-.1-.2-.2-.2-.3-.1-.1-.1-.2-.2-.3l-.3-.3-.2-.2-.3-.3-.2-.2-.3-.3-.2-.2c-.1-.1-.2-.2-.3-.2-.1-.1-.2-.1-.3-.2-.1-.1-.2-.2-.3-.2-.1-.1-.2-.1-.2-.2h13.5c.1.2.2.4.3.5.1.2.2.3.3.5l.3.6c.1.2.2.3.2.5.1.2.1.4.2.6.1.2.1.3.2.5s.1.4.2.6c0 .2.1.3.1.5s.1.4.1.6c0 .2.1.3.1.5s.1.5.1.7v.4c0 .3 0 .5.1.8v1.4c.1 4.4.1 8.8.1 13.1v5.2c-2.9-.2-5.6-.1-8.2-.1z" class="b"/><path d="M75.8 90.4c-3.8 0-7.5-.2-11.3-1-2.4-.5-4.9-1.2-6.9-3.1l-2.1-1.9 2.8.3.1.7.1-.1.1-.6 3.8.2.2.9v-.9h1.9c.3 0 .6-.1.9-.1l.5-.1c.3 0 .7-.1 1-.2l.5-.1c.5-.1 1-.2 1.4-.4.3-.1.7-.2 1-.4 4.7-1.9 7.3-5.7 8.1-11.6v-.9l.9-.3-.9.1v-.5l-.6-2.3-1.4-2.3-3-2.8-2.1-1.7h16.6l.3.4c.1.1.2.3.3.5l.2.3c.1.1.2.3.2.4.1.2.2.3.2.5l.1.3c.1.1.1.3.2.4.1.2.1.3.2.5l.1.3c0 .1.1.3.1.4.1.2.1.3.1.5l.1.3c0 .1.1.2.1.4s.1.3.1.5l.1.7c0 .2 0 .4.1.6l-.9.4.9-.1v.3c0 .3 0 .5.1.8v1.4c.1 4.3.1 8.8.1 13v6.3h-1c-2.7-.1-5.3 0-7.9.1v-.9.9c-1.8-.2-3.6-.1-5.4-.1zm5.4-2v.9-.9c2.3-.1 4.7-.1 7.1-.1V84c0-4.3 0-8.8-.1-13.1v-1l.9-.3h-.9v-1.2c0-.3-.1-.5-.1-.7l-.1-.5c-.1-.3-.1-.5-.1-.6l-.1-.5c-.1-.3-.1-.4-.2-.6l-.2-.5c-.1-.3-.1-.4-.2-.6 0-.1-.1-.2-.1-.3l-.1.1c-.1-.3-.2-.4-.3-.5 0-.1-.1-.2-.2-.3l-.1-.2s0-.1-.1-.1H75.8l2 2.4 1.1 2.1c.1.1.1.3.1.4l.1.4c0 .1.1.3.1.4l.1.4c0 .1.1.3.1.4l.1.4c0 .2 0 .4.1.6v.1h.2l-.1 1.3v1h-.1c-1 6.2-4 10.2-9.1 12.3-.4.1-.7.3-1.1.4-.5.2-1.1.3-1.6.4l-.4.1c-.5.1-.9.2-1.3.2l-.6.1c-.4 0-.7.1-1 .1H62c.9.3 1.8.5 2.8.7 5.4 1.4 11 1.2 16.4 1.1z" class="a"/><path fill="#e5d1b8" d="M119.2 248.7c-.1.1-.1.2-.1.2 0 .1-.1.2-.1.2h-8.6c-1.2 0-2.3-.3-3.5-.6l-.3-.1c-10.7-2.6-17.3-11.5-17.2-23.3.3-32.8.2-66.2.2-98.5V84.2c0-4.3 0-8.7-.1-13.1 0-2.5-.3-5.4-1.7-8-.2-.4-.4-.7-.7-1.1-.2-.4-.3-.8-.5-1.2-.1-.1-.1-.3-.2-.4-.1-.3-.3-.5-.4-.8-.1-.2-.2-.3-.3-.4-.1-.2-.3-.4-.4-.7-.1-.1-.2-.3-.3-.4-.1-.2-.3-.4-.4-.6-.1-.1-.2-.3-.3-.4-.1-.2-.3-.4-.5-.5l-.4-.4-.5-.5-.4-.4c-.2-.1-.3-.3-.5-.4-.1-.1-.3-.2-.4-.4-.2-.1-.3-.3-.5-.4-.1-.1-.3-.2-.5-.3-.2-.1-.4-.2-.5-.4-.2-.1-.3-.2-.5-.3-.2-.1-.4-.2-.5-.3-.2-.1-.3-.2-.5-.3l-.6-.3c-.2-.1-.3-.2-.5-.3l-.6-.3c-.2-.1-.4-.2-.5-.3-.2-.1-.4-.2-.6-.2-.2-.1-.4-.2-.6-.2-.2-.1-.4-.1-.5-.2-.2-.1-.4-.2-.6-.2-.2-.1-.3-.1-.5-.2s-.4-.2-.7-.2h.4c1-.1 2.1-.1 3.1-.1h37.3c30.1 0 61.2.1 91.9-.1h.1c5.8 0 11.3 2.4 15.5 6.6 4.3 4.4 6.8 10.2 6.7 16-.3 33.2-.2 67-.1 99.7 0 12.3 0 24.6.1 36.9h-1.6c-1.3 0-2.6.1-3.9.1H120.3c-.4 0-.7 0-1.1-.1-6.7-.9-12.6 1.4-16.3 6.2-.1.1-.2.2-.2.3-.4.5-.8 1.1-1.1 1.7-.3.6-.7 1.2-.9 1.9-3.3 7.7-1.3 15.8 5.1 21.1l.5.5h.1-.1l1.3.4h-1c1.8 1.8 4.2 2.8 7.1 3.1.7.1 1.4.1 2.1.2h.8c.5 0 .9 0 1.4.1h.1c1.4 0 2.7.1 4.1.1h3.1l-.5.5s-.1 0-.1.1c-.2.1-.4.3-.6.4 0 0-.1 0-.1.1l-.6.3s-.1 0-.1.1l-.6.3c-.2.1-.5.2-.7.3-.1 0-.2.1-.3.1-.1 0-.1.1-.2.1-.1.1-.2.1-.3.2-.1 0-.1.1-.2.1-.1.1-.2.1-.3.2-.1 0-.1.1-.2.1-.1.1-.2.1-.3.2l-.2.2c-.1.1-.2.1-.2.2l-.2.2c-.3.1-.4.2-.4.3z"/><path d="M118.9 250.1h-8.6c-1.3 0-2.5-.3-3.7-.6l-.3-.1c-11.1-2.7-18-11.9-17.9-24.2.3-32.8.2-66.2.2-98.4V84.3c0-4.3 0-8.7-.1-13.1 0-2.3-.2-5.1-1.6-7.5-.2-.3-.4-.7-.6-1l-.1-.2c-.2-.4-.3-.8-.5-1.2l-.2-.4c-.1-.3-.3-.5-.4-.7l-.3-.4c-.2-.3-.3-.4-.4-.6l-.3-.5c-.1-.2-.2-.3-.4-.5l-.2-.3c-.2-.3-.4-.5-.5-.6l-.3-.3-.5-.5-.4-.3c-.2-.1-.3-.3-.5-.4l-.4-.3c-.2-.1-.3-.3-.5-.4L77 52.9 72.6 51l-4.2-1.6 4.9-.3c2.3-.1 4.6-.1 6.9-.1h34.1c29.9 0 60.8.1 91.2-.1 6.2 0 11.9 2.5 16.3 6.9 4.5 4.5 7 10.6 7 16.7-.3 33.2-.2 66.9-.1 99.6 0 12.4 0 24.7.1 37v.9h-2.5c-1.3 0-2.6.1-3.9.1H120.3c-.4 0-.8 0-1.2-.1-6.3-.9-11.9 1.2-15.5 5.8l-.2.3c-.4.5-.7 1.1-1.1 1.6-.3.6-.6 1.1-.9 1.8-3.1 7.3-1.3 15 4.9 20.1l.4.4 8 2.3-5.2-.1c1.2.6 2.7 1.1 4.3 1.2.7.1 1.4.1 2.1.2h2.1c1.5 0 2.8.1 4.2.1h5.2l-1.4 1.5-.6.6c-.3.2-.5.4-.8.5l-.8.4-1.8.8-.6-.7.4.8-.3.1-.7-.7.5.8-.2.2-.7-.6.6.7-.2.2-.8-.5.6.7-.2.2-.9-.4.7.6-.6 1-.7.2zm-31-188.5c.2.4.5.7.7 1.1 1.5 2.8 1.8 5.8 1.8 8.4.1 4.3.1 8.8.1 13v42.5c0 32.3.1 65.7-.2 98.5-.1 11.3 6.2 19.9 16.5 22.3l.3.1c1.1.3 2.2.6 3.2.6h8v-.1c.1-.1.1-.2.2-.3.1-.2.2-.2.2-.3l.2-.2.3-.2c.1-.1.2-.1.3-.2l1.6-1 .6-.3c-1.4 0-2.7 0-4-.1-.4 0-.8 0-1.2-.1l-1-.1c-.7 0-1.4-.1-2.1-.2-3.2-.3-5.8-1.5-7.7-3.4l-.9-.9c-.6-.5-1.2-1.1-1.8-1.7l-.4-.4h.1c-5-5.5-6.3-13-3.2-20.1.3-.7.6-1.3 1-2s.8-1.3 1.2-1.8l.2-.3c4-5.1 10.2-7.5 17.2-6.5.3 0 .7.1 1 .1h102.2c1.3 0 2.6 0 3.8-.1h.8c0-12 0-24-.1-36-.1-32.7-.1-66.5.1-99.7 0-5.6-2.3-11.2-6.4-15.4-4.1-4.1-9.3-6.4-14.9-6.4-30.5.2-61.5.2-91.4.1h-37l3.3 1.8c.2.1.4.2.6.4l.5.3c.2.1.4.3.5.4l.5.4c.2.1.3.3.5.5l.4.4.5.5.4.4c.2.2.3.3.4.5l.4.5c.1.2.3.4.4.5l-.6 1.2.7-.6.2.3c.1.2.3.4.4.6l-.6.7.8-.5.2.3c.1.2.3.5.4.8l-.7.6.8-.4.1.3.6 1.2z" class="a"/><path d="M123.6 230.7c.1-.7.1-1.3.2-2 .5-2.4-.7-4-1.8-5.7-.1-.2-.3-.4-.4-.6 0-.1-.1-.1-.1-.2-.1-.2-.2-.3-.3-.5 0-.1-.1-.2-.1-.2-.1-.1-.2-.3-.2-.4 0-.1-.1-.2-.1-.3 0-.1-.1-.2-.1-.3h.1l10.4-.2.3.6c.2.3.3.5.4.8.1.2.2.5.3.7.1.3.2.5.3.8.1.3.2.5.3.8.1.2.2.5.2.7.1.3.1.6.2 1 0 .2.1.4.1.6.1.4.1.8.1 1.2v.4c.3 4.8-1.4 9.7-4.9 13.8l-.5.5c-.2.3-.5.5-.7.8-.4.4-.9.8-1.3 1.2h-3.5c-1.4 0-2.7 0-4.1-.1h-1.1c-1.1 0-2.1-.1-3.2-.2-.3 0-.6-.1-1-.1-.1 0-.2 0-.3-.1-.2 0-.4-.1-.6-.1-.1 0-.2-.1-.3-.1-.2 0-.4-.1-.5-.1-.1 0-.2-.1-.3-.1-.2-.1-.3-.1-.5-.2-.1 0-.2-.1-.3-.1-.2-.1-.3-.1-.4-.2-.1-.1-.2-.1-.3-.2-.1-.1-.3-.2-.4-.2-.1-.1-.2-.1-.3-.2-.1-.1-.3-.2-.4-.3-.1-.1-.2-.1-.3-.2-.1-.1-.2-.1-.3-.2l-.2-.2h1.4c2.5 0 5 0 7.5-1 .7-.3 1.3-.6 1.9-1 2.8-1.9 4.6-4.8 5.1-8.6z" class="b"/><path fill="#cba58c" d="M120.2 220.1c-3.9-.8-8-1.1-11.3 2.4-1.3 1.4-1.7 2.8-1.2 4.3.6 2 2.2 2 3.6 2h12.1v.9c0 .2 0 .3-.1.5 0 .2 0 .3-.1.5 0 .2-.1.3-.1.5s-.1.3-.1.5-.1.3-.1.5c0 .1-.1.3-.1.4 0 .1-.1.3-.1.4 0 .1-.1.3-.1.4-.1.1-.1.3-.2.4-.1.1-.1.3-.2.4-.1.1-.1.3-.2.4-.1.1-.1.2-.2.4-.1.1-.1.2-.2.4-.1.1-.1.2-.2.3-.1.1-.2.2-.2.4-.1.1-.2.2-.2.3l-.3.3-.3.3-.3.3-.3.3-.3.3-.3.3c-.1.1-.2.2-.4.3-.1.1-.2.2-.3.2-.1.1-.3.2-.4.3-.1.1-.2.1-.3.2-.2.1-.3.2-.5.3-.1.1-.2.1-.3.2-.3.1-.5.3-.8.4-2.4 1-4.9 1-7.4 1H107l-.2-.2.2.2-.9-.8c-6.4-5.2-8.3-13.2-5.1-20.7l.6-1.2c.1-.1.1-.3.2-.4.1-.3.3-.5.5-.8.1-.1.2-.3.3-.4.2-.2.3-.5.5-.7.1-.1.2-.3.3-.4.2-.2.3-.4.5-.6.1-.1.2-.3.3-.4l.6-.6c.1-.1.2-.2.4-.3.2-.2.4-.4.7-.6l.3-.3.9-.6c.1 0 .1-.1.2-.1.4-.2.7-.5 1.1-.7.1 0 .1-.1.2-.1.3-.2.6-.3 1-.5.1-.1.3-.1.4-.2.3-.1.6-.2.8-.3.1-.1.3-.1.4-.1.3-.1.5-.2.8-.2.2 0 .3-.1.5-.1.3-.1.6-.1.8-.2.2 0 .3-.1.5-.1.3 0 .6-.1.9-.1h3.3c.5 0 1 .1 1.5.2.4.1.8.1 1.2.1h.4v.2c0 .1 0 .2.1.2 0 .1.1.2.1.2 0 .1.1.1.1.2s.1.1.1.2.1.1.1.2l.2.2.1.1.2.2.1.1c.1 0 .2.1.2.1l.1.1c.1 0 .2.1.3.1 0 0 .1 0 .1.1.1.1.3.1.4.2l.3.1c.4.2.9.4 1.3.7.1.1.2.2.4.2.3.2.5.3.8.5.1.1.3.2.4.3.2.2.5.4.7.6l.3.3.6.6c.1.1.2.2.3.4.2.2.4.4.6.7.1.1.2.3.3.4.2.2.3.5.5.7.1.2.2.4.3.5.1.2.3.5.4.7.1.2.2.5.3.7.1.2.1.3.2.5l-10.8-.1z"/><path fill="#d7af94" d="M249.2 233.3c-1.4 9.3-9.3 13.7-15.7 15.8H119.8s0-.1.1-.1c0-.1.1-.1.1-.2.1-.1.1-.2.2-.2l.2-.2.2-.2.2-.2.2-.2c.1 0 .1-.1.2-.1.1-.1.2-.1.3-.2.1 0 .1-.1.2-.1.1-.1.2-.1.3-.1.1 0 .1-.1.2-.1.1-.1.2-.1.3-.2 0 0 .1 0 .1-.1.2-.1.3-.1.5-.2l.6-.3c.8-.4 1.6-.8 2.2-1.4.1-.1.2-.2.3-.4.5-.4 1-.8 1.4-1.3 6.3-6.1 8.1-14.7 4.6-21.9-.2-.5-.5-1-.8-1.5-1.2-3.1-3-5.5-5.6-7.2-.7-.4-1.3-.8-2.1-1.2l-.3-.1c-.1-.1-.2-.1-.4-.2h-.1c-.1 0-.2-.1-.3-.1 0 0-.1 0-.1-.1-.1 0-.1-.1-.2-.1l-.1-.1c-.1 0-.1-.1-.2-.1l-.1-.1c-.1 0-.1-.1-.1-.1l-.1-.1c0-.1-.1-.1-.1-.2 0 0-.1-.1-.1-.2s-.1-.1-.1-.2 0-.1-.1-.2v-.1h102.3c1.3 0 2.7 0 4-.1h1.9c10.7.5 18.1 6.3 19.7 15.7.4 2.8.4 5.5 0 8.2z"/><path fill="#c2956d" d="M213.1 142.6c-.7.5-1.9.7-3.8.7-11.7-.1-23.5-.1-35-.1h-34.2c-8.5 0-17.2 0-25.7.1-2 0-3.2-.2-4-.7-.8-.5-1.1-1.4-1.1-2.8 0-1.2.3-2 1-2.5.1-.1.2-.1.3-.2.7-.4 1.9-.5 3.7-.5h.1c33.7.1 64.7.1 94.9 0 1.9 0 3.1.2 3.8.7.7.5 1 1.3 1 2.6.1 1.4-.2 2.2-1 2.7zm-99 30.8s.1 0 0 0c32 .1 64.1.1 95.4 0h.1c3.9 0 4.6 1.1 4.6 3.4 0 1.3-.3 2.1-1 2.5-.7.5-1.9.7-4 .7-11.6-.1-23.3-.1-34.7-.1h-34.1c-8.6 0-17.4 0-26.1.1-2 0-3.2-.2-3.9-.7-.7-.5-1-1.3-1-2.6.1-2.2.8-3.3 4.7-3.3zm0-18.4c31.9.1 64 .1 95.4 0h.1c3.9 0 4.6 1.1 4.6 3.4 0 1.2-.3 2-1 2.5s-1.9.7-3.9.7c-11.7-.1-23.6-.1-35.1-.1h-25.4c-11.3 0-22.9 0-34.4.1-2 0-3.2-.2-3.9-.7-.7-.5-1-1.3-1-2.6 0-2.2.7-3.3 4.6-3.3zm99.1 42.8c-.6.4-1.6.7-3.2.7h-.7c-11.6-.1-23.4-.1-34.8-.1h-25.4c-11.4 0-23.2 0-34.7.1-2 0-3.2-.2-3.9-.7-.7-.5-1-1.3-1-2.6 0-2.3.7-3.4 4.7-3.4h.1c15.9 0 31.9.1 47.8.1s31.8 0 47.5-.1h.1c3.9 0 4.6 1.1 4.7 3.4-.2 1.3-.5 2.1-1.2 2.6zm0-73.6c-.6.4-1.6.7-3.2.7h-.7c-11.6-.1-23.4-.1-34.8-.1h-25.4c-11.4 0-23.2 0-34.7.1-2 0-3.2-.2-3.9-.7-.7-.5-1-1.3-1-2.6 0-2.3.7-3.4 4.7-3.4h.1c15.9 0 31.9.1 47.8.1s31.8 0 47.5-.1h.1c3.9 0 4.6 1.1 4.7 3.4-.2 1.3-.5 2.1-1.2 2.6zm0-18.4c-.6.4-1.6.7-3.2.7h-.7c-11.6-.1-23.4-.1-34.8-.1h-25.4c-11.4 0-23.2 0-34.7.1-2 0-3.2-.2-3.9-.7-.7-.5-1-1.3-1-2.6 0-2.3.7-3.4 4.7-3.4h.1c15.9 0 31.9.1 47.8.1 15.9 0 31.8 0 47.5-.1h.1c3.9 0 4.6 1.1 4.7 3.4-.2 1.3-.5 2.1-1.2 2.6zm0-18.4c-.6.4-1.6.7-3.2.7h-.7c-11.6-.1-23.4-.1-34.8-.1h-25.4c-11.4 0-23.2 0-34.7.1-2 0-3.2-.2-3.9-.7-.7-.5-1-1.3-1-2.6 0-2.3.7-3.4 4.7-3.4h.1c15.9 0 31.9.1 47.8.1s31.8 0 47.5-.1h.1c3.9 0 4.6 1.1 4.7 3.4-.2 1.3-.5 2.1-1.2 2.6z"/><g fill="#2b2129"><path d="M126.2 245.3h-3.7c-1.4 0-2.8 0-4.2-.1h-1.1c-1.1 0-2.2-.1-3.3-.2-.3 0-.7-.1-1-.1h-.2c-.3-.1-.5-.1-.8-.2l-.3-.1c-.3-.1-.5-.1-.7-.2l-.3-.1c-.3-.1-.4-.2-.6-.2l-.3-.1c-.2-.1-.4-.2-.5-.2l-.3-.2c-.2-.1-.3-.2-.5-.3l-.3-.2c-.1-.1-.3-.2-.4-.3l-.9-.7-1.7-1.6h3.7c2.4 0 4.9 0 7.2-.9.6-.2 1.2-.5 1.8-.9 2.8-1.7 4.4-4.4 4.9-7.9.1-.6.1-1.3.2-1.9.4-2.1-.6-3.6-1.7-5.1l-.6-.8c-.1-.2-.2-.3-.3-.5l-.1-.2c-.1-.2-.2-.4-.3-.5l-.8-1.9h1.4l11-.2.3.5c.1.1.2.3.2.4l.2.4c.1.2.2.4.4.7.1.2.2.4.2.5l.2.4.3.6c.1.2.1.4.2.6l.1.5c.1.2.1.4.2.5.1.3.1.5.2.8l.1.4c0 .1.1.3.1.4.1.4.1.9.2 1.3v.4c.4 5.1-1.5 10.3-5.2 14.5l-.3.3-.3.3c-.2.2-.4.4-.6.7-.4.4-.9.9-1.4 1.3l-.4.1zm-15.6-3.1.2.1c.1.1.3.1.4.2l.3.1c.2 0 .3.1.5.1l.3.1c.2 0 .4.1.6.1l.1 1 .2-.9c.3.1.6.1.9.1 1 .1 2.1.2 3.1.2h1c1.5 0 2.8.1 4.2.1h3.2c.4-.3.7-.6 1-.9l.6-.6.3-.4.3-.3c3.4-3.8 5-8.5 4.7-13.2v-.4c0-.4-.1-.8-.1-1.1 0-.1 0-.2-.1-.3l-.1-.5c0-.2-.1-.5-.2-.7 0-.1-.1-.3-.1-.4l-.2-.5c-.1-.2-.1-.3-.2-.5s-.1-.3-.2-.5l-.2-.5c-.1-.1-.1-.3-.2-.4l-.3-.6-.2-.3-8.4.1c.1.1.1.2.2.3l-.7.7.8-.5.4.6c1.2 1.7 2.6 3.6 2 6.4 0 .6-.1 1.3-.2 2-.6 4.1-2.6 7.2-5.8 9.2-.7.4-1.3.8-2 1-2 .8-4.1 1-6.1 1.1zm10.8-20.8-.3.3.5-.3h-.2z"/><path d="M123.4 228.4h-12.1c-1.4 0-2.8 0-3.2-1.7-.4-1.4 0-2.7 1.2-3.9.2-.2.4-.4.7-.6l.2-.2c.2-.1.3-.3.5-.4.1-.1.2-.1.2-.2l.6-.3c.1 0 .1-.1.2-.1.2-.1.5-.2.7-.3.1 0 .2-.1.3-.1.2-.1.3-.1.5-.2.1 0 .2-.1.3-.1.2 0 .3-.1.5-.1.1 0 .2 0 .3-.1.2 0 .5-.1.8-.1h2.1c.3 0 .6.1.9.1h.1c.3 0 .6.1 1 .1h.1c.3.1.7.1 1.1.2 0 .1.1.3.2.4 0 .1.1.2.1.3.1.2.2.3.3.5 0 .1.1.2.1.3.1.2.2.3.3.5 0 .1.1.1.1.2.2.2.3.4.5.7.1.2.3.4.4.6l.1.1c.1.2.2.3.3.5 0 0 0 .1.1.1.1.2.2.3.3.5 0 0 0 .1.1.1.1.2.2.3.2.5v.1c.1.2.1.4.2.6v.1c0 .2.1.4.1.6v1c-.4.1-.4.2-.4.3z"/><path d="M124.2 229.4h-12.9c-1.5 0-3.5 0-4.1-2.3-.5-1.7 0-3.3 1.4-4.8.2-.3.5-.5.7-.7l.2-.2c.2-.2.4-.3.6-.5l.3-.2c.2-.1.4-.3.6-.4l.2-.1c.3-.1.5-.3.8-.4l.2-.1c.3-.1.4-.2.6-.2l.3-.1c.2 0 .4-.1.5-.1l.3-.1c.3 0 .5-.1.8-.1h2.2c.3 0 .6.1 1 .1.4.1.8.1 1.1.2.4.1.8.1 1.1.2l.5.1.4.9c.1.3.2.4.3.5l.1.2c.2.3.3.4.4.6l-.6.7.8-.5.9 1.3c.2.3.3.5.4.6.2.3.3.5.4.7.2.3.3.5.3.7.1.3.2.5.3.8.1.4.1.6.2.8v1.1c0 .2 0 .3-.1.5l-.2.8zm-.8-1.6zm-13.5-5.7.6.7-.6.6c-.9 1-1.2 2-.9 3 .3.9.7 1 2.4 1h11.2v-.2c0-.3-.1-.5-.1-.6-.1-.3-.1-.4-.2-.6-.1-.2-.2-.4-.2-.5-.1-.2-.2-.4-.3-.5l-1.5-2.2c-.1-.2-.2-.3-.3-.5l-.1-.2c-.2-.3-.2-.4-.3-.6l-.1-.2c-.2 0-.4-.1-.6-.1-.4-.1-.7-.1-1-.1-.4 0-.7-.1-1-.1h-2c-.2 0-.5 0-.7.1l-.3.1c-.1 0-.3.1-.4.1l-.3.1c-.1 0-.3.1-.4.1l-.6-.8.4.9-.6.3c-.3.2-.5.3-.6.4l-.2.1c-.2.1-.3.2-.5.4l-.8-.7zm10.1-1.3.2-.1-.2.1z"/><path d="m106.6 241.8-.3-.3-.9-.8c-6.7-5.5-8.7-13.8-5.3-21.7.2-.4.4-.9.6-1.3l.2-.3c.2-.4.4-.7.6-1l.2-.3c.2-.3.4-.6.6-.8l.3-.4c.2-.2.4-.4.5-.6l.4-.4.6-.6.4-.4c.2-.2.5-.4.7-.6l.3-.3c.3-.2.6-.4.9-.7l.2-.1c.4-.2.8-.5 1.2-.7l.2-.1c.3-.2.7-.3 1-.5l.3-.1c.4-.2.7-.3 1-.4l.4-.1c.4-.1.7-.2.9-.3l.5-.1c.3-.1.6-.1.9-.2l.5-.1c.3 0 .6-.1.9-.1h3.5c.5 0 1 .1 1.6.2.3 0 .7.1 1 .1h1.1l.4 1.4.4.4 1.4.7c.5.2.9.4 1.3.7.1.1.2.1.3.2l-.3.9.5-.8c.3.2.5.3.8.5.1.1.2.1.3.2l-.4.8.7-.7c.2.2.4.3.6.5.1.1.2.2.3.2l-.5.8.7-.6.6.6c.1.1.2.2.2.3l-.6.8.7-.6c.2.2.4.4.6.7.1.1.1.2.2.3l-.7.7.8-.5c.2.2.3.5.5.7.1.1.2.3.2.4l-.7.6.9-.4.3.6c.1.2.2.5.3.7l-.6.5.7-.3.7 1.6-12.1.2h-.1c-4.2-.9-7.6-.9-10.4 2.1-1.1 1.1-1.4 2.2-1 3.4.3 1.2 1.1 1.3 2.8 1.3h13l-.1 2.3-.9.1.9.1-.1.8-1 .1.9.2-.2.7h-1l.9.2-.2.7-1-.1.9.3-.2.7-.9-.1.9.3-.3.6-.9-.2.8.4-.3.6-.9-.3.8.5-.4.6-.9-.3.8.5-.4.5-.9-.4.7.6-.5.5-.8-.5.7.6-.5.5-.8-.5.6.7-.2.2c-.1.1-.2.2-.3.2l-.8-.6.6.7-.2.2c-.1.1-.2.2-.4.2l-.7-.7.5.8-.2.1c-.1.1-.3.2-.4.2l-.6-.7.4.8-.2.1c-.3.1-.6.3-.9.4-3.2 1.3-6.6 1-9.5 1.1l-.6.4zm.4-29.7.5.8c-.3.2-.6.4-.8.6l-.2.1c-.3.3-.5.4-.7.6l-.3.2-.6.6-.3.4c-.2.2-.3.4-.5.6l-.3.4c-.2.2-.3.4-.4.6l-.3.4c-.2.2-.3.5-.4.7l-.2.4-.6 1.2c-3.1 7.1-1.2 14.6 4.8 19.6l.6.6c2.9 0 5.8.2 8.5-.9.3-.1.5-.2.8-.3l.3-.1c.2-.1.3-.2.5-.2l3.2-2.9 1.4-3.1.5-2.5h-11.1c-1.5 0-3.8 0-4.5-2.6-.5-1.9 0-3.6 1.5-5.2 3.6-3.8 8.1-3.5 12-2.7l9.1-.1c-.1-.2-.2-.3-.2-.5l-.2-.3c-.1-.1-.1-.2-.2-.3-.1-.2-.3-.4-.4-.6l-.3-.5c-.2-.2-.3-.4-.5-.6l-.3-.4-.5-.5-.4-.4c-.2-.2-.4-.3-.5-.4l-.5-.4c-.2-.2-.4-.3-.7-.4l-.4-.3-1.2-.6-1.7-.9c-.1-.1-.2-.1-.3-.2l-.1-.1-.3-.3-.1-.2c-.1-.1-.2-.2-.2-.3l-.1-.2c0-.1-.1-.1-.1-.2-.3 0-.6 0-.9-.1-.5-.1-1-.1-1.4-.1h-3.1c-.4 0-.7.1-1 .1l-.4.1c-.3.1-.6.1-.8.2l-.4.1c-.3.1-.5.1-.8.2l-.4.1c-.3.1-.5.2-.8.3l-.4.1c-.3.1-.6.3-.9.4l-.6-.7.4.8c-.4.2-.7.4-1.1.6l-.7-.7z"/><path d="M233.6 250.1H118.2l.8-1.4c.1-.2.2-.3.3-.4.1-.1.1-.2.2-.3.1-.1.1-.2.2-.2l.2-.2.2-.2c.1-.1.2-.1.3-.2l1.6-.9 1.3-.6c.7-.3 1.4-.7 1.9-1.2.1-.1.2-.2.2-.3l.1-.2c.5-.4.9-.8 1.3-1.2 6-5.9 7.7-14 4.4-20.8-.2-.5-.5-1-.8-1.4-1.2-3-2.9-5.3-5.3-6.9-.7-.5-1.3-.8-2-1.1l-1.6-.8c-.1-.1-.2-.1-.2-.2l-.2-.1-.2-.2.1-.3c-.1-.1-.1-.2-.2-.3l-.1-.2c0-.1-.1-.2-.1-.3l-.1-.3-.2-1.1 1.1-.2h102.3c1.3 0 2.6 0 3.9-.1h1.9c11.2.5 18.9 6.7 20.6 16.5.5 2.8.5 5.5.1 8.4-1.5 9.7-9.7 14.4-16.3 16.6l-.3.1zm-111.5-1.9h111.2c6.1-2 13.6-6.3 14.9-15 .4-2.7.4-5.2-.1-7.8-1.6-8.9-8.6-14.5-18.8-15h-1.8c-1.4 0-2.7.1-4 .1H123.3l.6.3c.7.3 1.5.8 2.2 1.3 2.7 1.8 4.7 4.4 5.9 7.6.2.4.5.9.8 1.4 3.7 7.5 1.8 16.5-4.7 22.9-.5.5-.9.9-1.4 1.3-.1.1-.2.2-.3.4-.7.8-1.7 1.3-2.5 1.6l-1.6.7-.6-.7.4.8v.1zm-.4 0h.2l-.6-.6.4.6zm-.5 0h.1l-.4-.3.3.3zm-6.9-104c-2.1 0-3.4-.3-4.3-.9-1.3-.9-1.5-2.4-1.5-3.5 0-1.5.5-2.6 1.4-3.2.1-.1.3-.2.4-.2.9-.4 2.1-.6 4.1-.6 33.6.1 64.7.1 95 0 2.2 0 3.4.3 4.3.9 1.3.9 1.4 2.4 1.4 3.4s-.2 2.5-1.5 3.4c-.9.6-2.2.9-4.3.8-11.7-.1-23.5-.1-35-.1h-34.2c-8.5 0-17.2 0-25.7.1 0-.1 0-.1-.1-.1zm.2-6.6c-1.7 0-2.7.1-3.3.4-.1 0-.1.1-.2.1-.3.2-.6.6-.6 1.7 0 1.3.3 1.8.7 2 .6.4 1.7.6 3.4.6 8.6-.1 17.2-.1 25.8-.1h34.2c11.4 0 23.3 0 35 .1 1.7 0 2.7-.2 3.2-.5.3-.2.6-.6.6-1.9 0-1.2-.3-1.6-.6-1.8-.5-.4-1.6-.5-3.3-.5-30.3-.1-61.4-.1-94.9-.1zm-.4 43.4c-2.1 0-3.3-.3-4.2-.9-1.3-.9-1.4-2.3-1.4-3.4 0-3.2 1.6-4.3 5.6-4.3h.1c31.9.1 64 .1 95.3 0 4.1 0 5.6 1.1 5.6 4.3 0 1.6-.4 2.7-1.4 3.3-.9.6-2.2.9-4.5.9-11.6-.1-23.4-.1-34.7-.1h-34.1c-8.6 0-17.4 0-26.1.1 0 .1-.1.1-.2.1zm0-7.6v.9c-3.7 0-3.7.9-3.8 2.5 0 1.2.3 1.6.6 1.8.5.4 1.6.6 3.4.5 8.7-.1 17.5-.1 26.1-.1h34.1c11.4 0 23.1 0 34.7.1 1.8 0 2.9-.2 3.4-.5.3-.2.6-.6.6-1.8 0-1.6-.1-2.5-3.7-2.5-31.4.1-63.5.1-95.4 0v-.9zm0-10.8c-2 0-3.3-.3-4.2-.9-1-.7-1.4-1.8-1.4-3.3 0-3.1 1.6-4.3 5.6-4.3h.1c31.9.1 63.9.1 95.3 0 4.1 0 5.6 1.1 5.6 4.3 0 1.6-.4 2.7-1.4 3.3-.9.6-2.2.9-4.5.9-11.8-.1-23.6-.1-35.1-.1h-25.7c-11.2 0-22.8 0-34.1.1h-.2zm0-7.6v.9c-3.7 0-3.7.9-3.7 2.5 0 1.2.3 1.6.6 1.8.6.4 1.7.6 3.4.5 11.4-.1 23-.1 34.1-.1h25.7c11.5 0 23.3 0 35.1.1 1.8 0 2.9-.2 3.4-.5.3-.2.6-.6.6-1.7 0-1.6-.1-2.5-3.7-2.5-31.4.1-63.5.1-95.4 0l-.1-1zm0 44.4c-2.1 0-3.4-.3-4.2-.9-1-.7-1.4-1.8-1.4-3.3.1-3.1 1.6-4.3 5.6-4.3 16 0 31.9.1 47.9.1 15.9 0 31.8 0 47.5-.1 4.1 0 5.6 1.1 5.6 4.3 0 1.6-.4 2.7-1.4 3.3-.8.6-2 .8-3.7.9h-.7c-11.5-.1-23.2-.1-34.6-.1h-25.6c-11.4 0-23.2 0-34.7.1h-.3zm.1-6.6c-3.8 0-3.8.9-3.8 2.5 0 1.2.3 1.6.6 1.8.5.4 1.7.5 3.4.5 11.6-.1 23.3-.1 34.7-.1h25.5c11.5 0 23.2 0 34.8.1h.7c1.4 0 2.3-.2 2.7-.5.3-.2.6-.6.6-1.7 0-1.6-.1-2.5-3.7-2.5-15.8 0-31.7.1-47.7.1-16.1-.1-32-.2-47.8-.2zm-.1-67c-2.1 0-3.4-.3-4.2-.9-1-.7-1.4-1.8-1.4-3.3.1-3.1 1.6-4.3 5.6-4.3 16 0 31.9.1 47.9.1 15.9 0 31.8 0 47.5-.1 4.1 0 5.6 1.1 5.6 4.3 0 1.6-.4 2.7-1.4 3.3-.8.6-2 .8-3.7.9h-.7c-11.5-.1-23.2-.1-34.6-.1h-25.6c-11.4 0-23.2 0-34.7.1h-.3zm.1-6.6c-3.8 0-3.8.9-3.8 2.5 0 1.2.3 1.6.6 1.8.5.4 1.7.5 3.4.5 11.6-.1 23.3-.1 34.7-.1h25.5c11.5 0 23.2 0 34.8.1h.7c1.4 0 2.3-.2 2.7-.5.3-.2.6-.6.6-1.7 0-1.6-.1-2.5-3.7-2.5-15.8 0-31.8.1-47.7.1-16.1-.2-32-.2-47.8-.2zm-.1-11.8c-2.1 0-3.4-.3-4.2-.9-1-.7-1.4-1.8-1.4-3.3.1-3.1 1.6-4.3 5.6-4.3 16 0 31.9.1 47.9.1 15.9 0 31.8 0 47.5-.1 4.1 0 5.6 1.1 5.6 4.3 0 1.6-.4 2.7-1.4 3.3-.8.6-2 .8-3.7.9h-.7c-11.5-.1-23.2-.1-34.6-.1h-25.6c-11.4 0-23.2 0-34.7.1h-.3zm.1-6.6c-3.8 0-3.8.9-3.8 2.5 0 1.2.3 1.6.6 1.8.5.4 1.7.5 3.4.5 11.6-.1 23.3-.1 34.7-.1h25.5c11.5 0 23.2 0 34.8.1h.7c1.4 0 2.3-.2 2.7-.5.3-.2.6-.6.6-1.7 0-1.6-.1-2.5-3.7-2.5-15.8 0-31.7.1-47.7.1-16.1-.1-32-.2-47.8-.2zm-.1-11.8c-2.1 0-3.4-.3-4.2-.9-1-.7-1.4-1.8-1.4-3.3.1-3.1 1.6-4.3 5.6-4.3 16 0 31.9.1 47.9.1 15.9 0 31.8 0 47.5-.1 4.1 0 5.6 1.1 5.6 4.3 0 1.6-.4 2.7-1.4 3.3-.8.6-2 .8-3.7.9h-.7c-11.6-.1-23.3 0-34.7 0h-25.5c-11.4 0-23.2 0-34.7.1-.1-.1-.2-.1-.3-.1zm.1-6.6c-3.8 0-3.8.9-3.8 2.5 0 1.2.3 1.6.6 1.8.5.4 1.7.5 3.4.5 11.6-.1 23.3-.1 34.7-.1h25.5c11.5 0 23.2 0 34.8.1h.7c1.4 0 2.3-.2 2.7-.5.3-.2.6-.6.6-1.7 0-1.6-.1-2.5-3.7-2.5-15.8 0-31.7.1-47.7.1-16.1-.1-32-.2-47.8-.2z"/></g></svg>