<svg xmlns="http://www.w3.org/2000/svg" viewBox="-2 -2 86.5 85.2"><path fill="#ffeeda" d="M76.5 55.1V7.2c-.1-4-3.3-7.2-7.3-7.2H19.4C8.6.2 0 9 0 19.8c0 3.6 1 6.8 2.5 9.5 1.3 2.3 3.3 4.4 5.2 6 .6.5.3.3 2 1.3 2.3 1.4 5 2.1 5 2.1v28.6c.1 1.4.2 2.7.6 3.9 1.1 4 3.9 7.1 7.7 8.6 1.6.6 3.4 1 5.3 1.1l39.7.2c7.9 0 14.4-6.4 14.4-14.4 0-4.7-2.3-9-5.9-11.6z"></path><path fill="#ebc28e" d="M77.5 67c-.2 5.1-4.4 9.2-9.5 9.2l-27.4-.1c2.2-2.5 3.5-5.8 3.5-9.4 0-5.6-3.3-9.5-3.3-9.5h27.3c5.2 0 9.5 4.3 9.5 9.5l-.1.3z"></path><path d="M10.3 31.3c-3.2-3-5.4-6.9-5.4-11.5v-.5c.3-7.8 6.7-14.2 14.5-14.4h49.9c1.3.1 2.3 1 2.3 2.3v42.3c1.1.2 1.7.4 2.8.7.9.3 2.1 1 2.1 1v-44c-.1-4-3.3-7.2-7.3-7.2H19.4C8.6.2 0 9 0 19.8c0 6.3 2.9 11.7 7.5 15.4.3.3.6.6 1.5.6 1.5 0 2.5-1.2 2.4-2.4 0-1.1-.4-1.5-1.1-2.1z"></path><path d="M68 52.3H28.9c-2.6 0-4.7 2.1-4.7 4.8v5.6c.1 2.6 2.3 4.8 4.9 4.8H32v-4.8h-2.9v-5.5h1.6c4.9 0 8.6 4.6 8.6 9.5 0 4.4-4 9.9-10.6 9.5-5.9-.4-9.1-5.6-9.1-9.5V19c0-2.1-1.8-3.9-3.9-3.9h-3.9V20h2.9v46.8c-.2 9.5 6.8 14.3 14 14.3l39.4.1c7.9 0 14.4-6.4 14.4-14.4-.1-8-6.5-14.5-14.5-14.5zM77.5 67c-.2 5.1-4.4 9.2-9.5 9.2l-27.4-.1c2.2-2.5 3.5-5.8 3.5-9.4 0-5.6-3.3-9.5-3.3-9.5h27.3c5.2 0 9.5 4.3 9.5 9.5l-.1.3zm-20-46.2H28V16h29.5c1.3 0 2.4 1.1 2.4 2.4 0 1.3-1 2.4-2.4 2.4z"></path><path d="M57.5 43.8H28v-4.9h29.5c1.3 0 2.4 1.1 2.4 2.4 0 1.4-1 2.5-2.4 2.5zm5.2-11.5H28v-4.9h34.7c1.3 0 2.4 1.1 2.4 2.4 0 1.4-1.1 2.5-2.4 2.5z"></path></svg>