<svg xmlns="http://www.w3.org/2000/svg" viewBox="0 0 288 288"><path fill="#70d44b" d="M144 0c79.5 0 144 64.5 144 144s-64.5 144-144 144S0 223.5 0 144 64.5 0 144 0z"/><path fill="#fff" d="M144 58.8c7.6 0 14.5 4.3 17.9 11.1l56.2 112.5c4.9 9.9.9 21.9-9 26.8-2.8 1.4-5.8 2.1-8.9 2.1H87.8c-11 0-20-9-20-20 0-3.1.7-6.2 2.1-8.9l56.2-112.5c3.4-6.9 10.3-11.2 17.9-11.1m0-13.8c-12.8 0-24.5 7.2-30.2 18.7L57.6 176.2c-8.3 16.7-1.6 36.9 15.1 45.3 4.7 2.3 9.9 3.6 15.1 3.6h112.5c18.6 0 33.8-15.1 33.8-33.7 0-5.2-1.2-10.4-3.6-15.1L174.2 63.7C168.5 52.2 156.8 45 144 45z"/></svg>