<svg xmlns="http://www.w3.org/2000/svg" viewBox="5 5 40 40"><path fill="#FBCC5C" d="M20.79 40.79c6.395 0 11.578-5.184 11.578-11.58 0-6.395-5.183-11.579-11.579-11.579-6.395 0-11.578 5.184-11.578 11.58 0 6.395 5.183 11.578 11.579 11.578Zm0 4.21C12.07 45 5 37.93 5 29.21c0-8.72 7.07-15.79 15.79-15.79 8.72 0 15.789 7.07 15.789 15.79 0 8.72-7.07 15.79-15.79 15.79Z"/><path fill="#35D07F" d="M29.211 32.368c6.396 0 11.58-5.183 11.58-11.579 0-6.395-5.184-11.578-11.58-11.578-6.395 0-11.579 5.183-11.579 11.579 0 6.395 5.184 11.578 11.58 11.578Zm0 4.21c-8.72 0-15.79-7.069-15.79-15.789C13.422 12.07 20.492 5 29.212 5s15.79 7.07 15.79 15.79c0 8.72-7.07 15.789-15.79 15.789Z"/><path fill="#5EA33B" d="M29.733 36.579a11.528 11.528 0 0 0 2.295-4.552 11.584 11.584 0 0 0 4.552-2.294 15.673 15.673 0 0 1-1.23 5.62 15.716 15.716 0 0 1-5.617 1.226Zm-11.76-18.607a11.583 11.583 0 0 0-4.551 2.295 15.631 15.631 0 0 1 1.23-5.617 15.832 15.832 0 0 1 5.616-1.23 11.527 11.527 0 0 0-2.294 4.553Z"/></svg>