<svg xmlns="http://www.w3.org/2000/svg" fill="none" viewBox="0 0 600 600"><circle r="300" cx="300" cy="300" fill="#04795B"/><path fill="#EFEFEF" d="M218.491 327.173c11.815 0 22.722-3.937 31.508-10.751l-72.106-72.08c-6.817 8.631-10.755 19.534-10.755 31.497-.152 28.317 22.874 51.334 51.353 51.334ZM432.99 275.687c0-11.811-3.938-22.714-10.755-31.497l-72.106 72.08c8.634 6.814 19.541 10.751 31.508 10.751 28.328.152 51.353-22.865 51.353-51.334Z"/><path fill="#EFEFEF" d="m469.346 197.4-31.963 31.951c10.604 12.72 16.966 28.772 16.966 46.64 0 40.128-32.569 72.685-72.712 72.685-17.723 0-33.932-6.36-46.657-16.96l-34.992 34.98-34.993-34.98c-12.724 10.6-28.782 16.96-46.657 16.96-40.143 0-72.711-32.557-72.711-72.685 0-17.717 6.362-33.92 16.966-46.64l-16.361-16.354L130.63 197.4C112.452 227.383 102 262.363 102 299.917c0 109.33 88.617 197.764 197.836 197.764 109.22 0 197.837-88.585 197.837-197.764.303-37.706-10.149-72.686-28.327-102.517Z"/><path fill="#EFEFEF" d="M443.139 163.328C407.238 125.623 356.339 102 299.988 102c-56.352 0-107.099 23.623-143.152 61.328a237.919 237.919 0 0 0-13.936 16.203L299.836 336.41l156.937-157.03c-3.939-5.452-8.635-11.055-13.634-16.052Zm-143.151-35.585c46.354 0 89.375 17.868 121.641 50.425L299.988 299.764 178.347 178.168c32.417-32.557 75.287-50.425 121.641-50.425Z"/></svg>