<svg xmlns="http://www.w3.org/2000/svg" viewBox="5 5 40 40"><path fill="url(#a)" d="M27.98 14.985c-.72 0-1.359-.64-1.359-1.358V8.752c0-.72.64-1.358 1.359-1.358s1.358.639 1.358 1.358v4.874c0 .8-.64 1.359-1.358 1.359Z"/><path fill="url(#b)" d="M39.566 13.147c-.4.559-1.118.639-1.758.4L28.06 8.431c-.64-.32-1.439.16-1.439.879V8.192c0-1.678 1.758-2.717 3.276-1.918l9.19 4.875c.799.4 1.039 1.358.48 1.998Z"/><path fill="url(#c)" d="m39.405 14.985-8.87 4.954c-1.758.959-3.756 1.518-5.754 1.518V18.82c1.359 0 2.717-.32 3.916-1.039l9.829-5.433a.826.826 0 0 0 0-1.439l.719.4c1.598.719 1.598 2.877.16 3.676Z"/><path fill="url(#d)" d="M31.973 32.245c.4-.64 1.199-.879 1.838-.48l4.315 2.398c.64.4.88 1.199.48 1.838-.4.64-1.199.879-1.838.48l-4.235-2.398c-.72-.4-.88-1.199-.56-1.838Z"/><path fill="url(#e)" d="M27.975 43.192c-.24-.56 0-1.278.56-1.678l9.35-5.913c.638-.4.559-1.358 0-1.678l.878.48c1.439.798 1.518 2.876.08 3.835l-8.87 5.594c-.72.4-1.678.16-1.998-.64Z"/><path fill="url(#f)" d="m26.701 41.994-.08-9.989c0-1.998.48-3.915 1.518-5.593l2.398 1.358c-.64 1.199-1.04 2.477-1.04 3.836l.08 11.107c0 .64.72 1.039 1.28.72l-.72.399c-1.518.879-3.436-.16-3.436-1.838Z"/><path fill="url(#g)" d="m36.928 26.412 4.315 2.397c.64.4.879 1.198.48 1.838-.4.639-1.2.879-1.839.48l-4.315-2.318c-.639-.4-.879-1.199-.48-1.838.4-.64 1.2-.88 1.839-.56Z"/><path fill="url(#h)" d="M42.601 17.941c.88-.16 1.598.56 1.598 1.359l-.32 10.468c-.08 1.678-1.837 2.717-3.276 1.838l-.959-.56c.64.4 1.439-.08 1.439-.799l.4-11.027c0-.64.479-1.199 1.118-1.279Z"/><path fill="url(#i)" d="M44.198 19.3v.799c0-.64-.719-1.039-1.278-.72l-9.67 5.594c-1.198.72-2.157 1.678-2.796 2.877l-2.317-1.279a11.077 11.077 0 0 1 4.075-4.075l8.71-5.034c1.518-.96 3.356.16 3.276 1.838Z"/><path fill="url(#j)" d="m17.672 34.083-4.395 2.397c-.719.4-1.518.16-1.918-.48-.4-.639-.16-1.518.48-1.837l4.395-2.477c.719-.4 1.518-.16 1.918.479.48.72.24 1.518-.48 1.918Z"/><path fill="url(#k)" d="M22.224 43.192c-.32.8-1.278 1.119-1.997.64l-8.87-5.594c-1.359-.88-1.359-2.957.08-3.836l.959-.48a.974.974 0 0 0 0 1.679l9.349 5.913c.48.32.72 1.039.48 1.678Z"/><path fill="url(#l)" d="m20.149 43.752-.72-.4c.56.32 1.28-.08 1.28-.719l.08-11.107c0-1.359-.4-2.717-1.04-3.836l2.398-1.359c.959 1.679 1.518 3.596 1.518 5.594l-.08 9.989c-.08 1.758-1.998 2.797-3.436 1.838Z"/><path fill="url(#m)" d="M14.953 26.97c.32.64.16 1.519-.48 1.839l-4.155 2.397c-.64.4-1.438.16-1.838-.48-.32-.639-.16-1.518.48-1.837l4.155-2.398c.64-.4 1.438-.16 1.838.48Z"/><path fill="url(#n)" d="M7.602 17.941c.64.08 1.119.64 1.119 1.279l.32 11.027c0 .72.799 1.199 1.438.8l-.96.558c-1.437.8-3.275-.16-3.355-1.837l-.16-10.469c0-.878.72-1.518 1.598-1.358Z"/><path fill="url(#o)" d="M20.629 13.627V8.752c0-.72.56-1.358 1.278-1.358.72 0 1.279.639 1.279 1.358v4.874c0 .72-.56 1.359-1.279 1.359-.719 0-1.278-.56-1.278-1.358Z"/><path fill="url(#p)" d="M10.399 13.147c-.56-.64-.32-1.598.4-1.998l9.03-4.794c1.438-.8 3.195.24 3.195 1.917v1.04c0-.72-.799-1.2-1.438-.88l-9.589 5.114c-.48.24-1.199.16-1.598-.4Z"/><path fill="url(#q)" d="m10.64 11.309.718-.4c-.56.32-.56 1.119 0 1.359l9.75 5.433c1.198.64 2.556 1.04 3.915 1.04v2.636c-1.918 0-3.916-.48-5.674-1.518l-8.79-4.875c-1.438-.799-1.358-2.956.08-3.675Z"/><path fill="url(#r)" d="m9.279 17.382 8.71 5.034c1.758.959 3.116 2.397 4.155 4.075l-2.317 1.359c-.64-1.119-1.598-2.158-2.797-2.797l-9.669-5.594c-.64-.4-1.358 0-1.358.64v-.8c-.08-1.677 1.758-2.796 3.276-1.917Z"/><defs><linearGradient id="a" x1="27.994" x2="27.994" y1="11.576" y2="4.004" gradientUnits="userSpaceOnUse"><stop stop-color="#8F2B83"/><stop offset=".057" stop-color="#862C84"/><stop offset=".337" stop-color="#602E8A"/><stop offset=".596" stop-color="#45308E"/><stop offset=".823" stop-color="#343191"/><stop offset=".994" stop-color="#2E3192"/></linearGradient><linearGradient id="b" x1="38.355" x2="27.236" y1="13.084" y2="7.233" gradientUnits="userSpaceOnUse"><stop stop-color="#8F2B83"/><stop offset=".102" stop-color="#A02888"/><stop offset=".369" stop-color="#C62293"/><stop offset=".615" stop-color="#E11E9B"/><stop offset=".831" stop-color="#F21BA0"/><stop offset=".994" stop-color="#F81AA2"/></linearGradient><linearGradient id="c" x1="28.895" x2="46.428" y1="18.742" y2="8.534" gradientUnits="userSpaceOnUse"><stop stop-color="#02A5DC"/><stop offset=".145" stop-color="#029CD7"/><stop offset=".385" stop-color="#0182CB"/><stop offset=".69" stop-color="#0159B7"/><stop offset=".994" stop-color="#00299F"/></linearGradient><linearGradient id="d" x1="34.88" x2="41.461" y1="33.861" y2="37.627" gradientUnits="userSpaceOnUse"><stop stop-color="#8F2B83"/><stop offset=".057" stop-color="#862C84"/><stop offset=".337" stop-color="#602E8A"/><stop offset=".596" stop-color="#45308E"/><stop offset=".823" stop-color="#343191"/><stop offset=".994" stop-color="#2E3192"/></linearGradient><linearGradient id="e" x1="28.636" x2="39.228" y1="42.333" y2="35.482" gradientUnits="userSpaceOnUse"><stop stop-color="#8F2B83"/><stop offset=".102" stop-color="#A02888"/><stop offset=".369" stop-color="#C62293"/><stop offset=".615" stop-color="#E11E9B"/><stop offset=".831" stop-color="#F21BA0"/><stop offset=".994" stop-color="#F81AA2"/></linearGradient><linearGradient id="f" x1="28.752" x2="28.643" y1="31.209" y2="51.207" gradientUnits="userSpaceOnUse"><stop stop-color="#02A5DC"/><stop offset=".145" stop-color="#029CD7"/><stop offset=".385" stop-color="#0182CB"/><stop offset=".69" stop-color="#0159B7"/><stop offset=".994" stop-color="#00299F"/></linearGradient><linearGradient id="g" x1="38.026" x2="44.608" y1="28.619" y2="32.367" gradientUnits="userSpaceOnUse"><stop stop-color="#8F2B83"/><stop offset=".057" stop-color="#862C84"/><stop offset=".337" stop-color="#602E8A"/><stop offset=".596" stop-color="#45308E"/><stop offset=".823" stop-color="#343191"/><stop offset=".994" stop-color="#2E3192"/></linearGradient><linearGradient id="h" x1="42.242" x2="41.739" y1="18.872" y2="31.492" gradientUnits="userSpaceOnUse"><stop stop-color="#8F2B83"/><stop offset=".102" stop-color="#A02888"/><stop offset=".369" stop-color="#C62293"/><stop offset=".615" stop-color="#E11E9B"/><stop offset=".831" stop-color="#F21BA0"/><stop offset=".994" stop-color="#F81AA2"/></linearGradient><linearGradient id="i" x1="32.685" x2="49.864" y1="24.591" y2="14.145" gradientUnits="userSpaceOnUse"><stop stop-color="#02A5DC"/><stop offset=".145" stop-color="#029CD7"/><stop offset=".385" stop-color="#0182CB"/><stop offset=".69" stop-color="#0159B7"/><stop offset=".994" stop-color="#00299F"/></linearGradient><linearGradient id="j" x1="15.226" x2="8.546" y1="33.86" y2="37.79" gradientUnits="userSpaceOnUse"><stop stop-color="#8F2B83"/><stop offset=".057" stop-color="#862C84"/><stop offset=".337" stop-color="#602E8A"/><stop offset=".596" stop-color="#45308E"/><stop offset=".823" stop-color="#343191"/><stop offset=".994" stop-color="#2E3192"/></linearGradient><linearGradient id="k" x1="21.581" x2="11.008" y1="42.339" y2="35.503" gradientUnits="userSpaceOnUse"><stop stop-color="#8F2B83"/><stop offset=".102" stop-color="#A02888"/><stop offset=".369" stop-color="#C62293"/><stop offset=".615" stop-color="#E11E9B"/><stop offset=".831" stop-color="#F21BA0"/><stop offset=".994" stop-color="#F81AA2"/></linearGradient><linearGradient id="l" x1="21.456" x2="21.564" y1="31.206" y2="51.194" gradientUnits="userSpaceOnUse"><stop stop-color="#02A5DC"/><stop offset=".145" stop-color="#029CD7"/><stop offset=".385" stop-color="#0182CB"/><stop offset=".69" stop-color="#0159B7"/><stop offset=".994" stop-color="#00299F"/></linearGradient><linearGradient id="m" x1="12.088" x2="5.593" y1="28.631" y2="32.237" gradientUnits="userSpaceOnUse"><stop stop-color="#8F2B83"/><stop offset=".057" stop-color="#862C84"/><stop offset=".337" stop-color="#602E8A"/><stop offset=".596" stop-color="#45308E"/><stop offset=".823" stop-color="#343191"/><stop offset=".994" stop-color="#2E3192"/></linearGradient><linearGradient id="n" x1="7.955" x2="8.455" y1="18.872" y2="31.492" gradientUnits="userSpaceOnUse"><stop stop-color="#8F2B83"/><stop offset=".102" stop-color="#A02888"/><stop offset=".369" stop-color="#C62293"/><stop offset=".615" stop-color="#E11E9B"/><stop offset=".831" stop-color="#F21BA0"/><stop offset=".994" stop-color="#F81AA2"/></linearGradient><linearGradient id="o" x1="21.904" x2="21.904" y1="11.54" y2="3.968" gradientUnits="userSpaceOnUse"><stop stop-color="#8F2B83"/><stop offset=".057" stop-color="#862C84"/><stop offset=".337" stop-color="#602E8A"/><stop offset=".596" stop-color="#45308E"/><stop offset=".823" stop-color="#343191"/><stop offset=".994" stop-color="#2E3192"/></linearGradient><linearGradient id="p" x1="11.607" x2="22.624" y1="12.943" y2="7.226" gradientUnits="userSpaceOnUse"><stop stop-color="#8F2B83"/><stop offset=".102" stop-color="#A02888"/><stop offset=".369" stop-color="#C62293"/><stop offset=".615" stop-color="#E11E9B"/><stop offset=".831" stop-color="#F21BA0"/><stop offset=".994" stop-color="#F81AA2"/></linearGradient><linearGradient id="q" x1="21.007" x2="3.584" y1="18.69" y2="8.673" gradientUnits="userSpaceOnUse"><stop stop-color="#02A5DC"/><stop offset=".145" stop-color="#029CD7"/><stop offset=".385" stop-color="#0182CB"/><stop offset=".69" stop-color="#0159B7"/><stop offset=".994" stop-color="#00299F"/></linearGradient><linearGradient id="r" x1="17.513" x2=".342" y1="24.593" y2="14.114" gradientUnits="userSpaceOnUse"><stop stop-color="#02A5DC"/><stop offset=".145" stop-color="#029CD7"/><stop offset=".385" stop-color="#0182CB"/><stop offset=".69" stop-color="#0159B7"/><stop offset=".994" stop-color="#00299F"/></linearGradient></defs></svg>