<svg xmlns="http://www.w3.org/2000/svg" viewBox="0 0 100 100"><circle cx="50" cy="50" r="50"/><path fill="#fff" d="M21.26 19.77v60.45h52.55v-6.4H28.5V26.18h45.31v-6.41H21.26z"/><path fill="#fff" d="M73.39 68.71c10.69 0 14.49-6.11 14.49-11.34 0-5.77-3.29-9.31-9.78-10.52l-6.77-1.22c-2.15-.4-4.62-1.19-4.62-3.83 0-3.12 3.14-4.23 6.07-4.23 3.89 0 6 1.31 6.7 4.12h7.23c-.86-6.42-6-10.41-13.83-10.41-9.38 0-13.58 5.41-13.58 10.78s3.19 8.75 9.22 9.81l6.92 1.22c2.49.46 5 1.36 5 4.64 0 2.89-2.6 4.69-6.78 4.69-4.75 0-7.57-1.81-8.18-5.24h-7.2c.83 7.22 6.28 11.53 15.11 11.53Z"/></svg>